*Material,3
  1  6.9e+10  0.3  3835.68   200 0.1
  2  2e+11  0.3     1910.8  200 0.1
  3  7.6e+15  0.3  3466.1   200 0.1

//截面属性编号 半径
*Section,1
1   0.0004516


*Node,53
1	0	0	0
2	200	0	0
3	0.997202	-0.0747474	0
4	4.95043	-0.363685	0
5	8.9045	-0.640889	0
6	12.8594	-0.906351	0
7	16.815	-1.16006	0
8	20.7714	-1.40202	0
9	24.7285	-1.63222	0
10	28.6863	-1.85064	0
11	32.6446	-2.0573	0
12	36.6036	-2.25217	0
13	40.5632	-2.43526	0
14	44.5232	-2.60656	0
15	48.4838	-2.76607	0
16	52.4448	-2.91378	0
17	56.4063	-3.04968	0
18	60.3681	-3.17378	0
19	64.3303	-3.28607	0
20	68.2928	-3.38655	0
21	72.2556	-3.47522	0
22	76.2186	-3.55206	0
23	80.1818	-3.61709	0
24	84.1453	-3.6703	0
25	88.1088	-3.71168	0
26	92.0725	-3.74124	0
27	96.0362	-3.75898	0
28	100	-3.76489	0
29	103.964	-3.75898	0
30	107.928	-3.74124	0
31	111.891	-3.71168	0
32	115.855	-3.6703	0
33	119.818	-3.61709	0
34	123.781	-3.55206	0
35	127.744	-3.47522	0
36	131.707	-3.38655	0
37	135.67	-3.28607	0
38	139.632	-3.17378	0
39	143.594	-3.04968	0
40	147.555	-2.91378	0
41	151.516	-2.76607	0
42	155.477	-2.60656	0
43	159.437	-2.43526	0
44	163.396	-2.25217	0
45	167.355	-2.0573	0
46	171.314	-1.85064	0
47	175.272	-1.63222	0
48	179.229	-1.40202	0
49	183.185	-1.16006	0
50	187.141	-0.906351	0
51	191.095	-0.640889	0
52	195.05	-0.363685	0
53	199.003	-0.0747474	0

*Element T3D2,52
1	1	3    1 1
2	3	4    1 1
3	4	5    1 1
4	5	6    1 1
5	6	7    1 1
6	7	8    1 1
7	8	9    1 1
8	9	10   1 1
9	10	11   1 1
10	11	12   1 1
11	12	13   1 1
12	13	14   1 1
13	14	15   1 1
14	15	16   1 1
15	16	17   1 1
16	17	18   1 1
17	18	19   1 1
18	19	20   1 1
19	20	21   1 1
20	21	22   1 1
21	22	23   1 1
22	23	24   1 1
23	24	25   1 1
24	25	26   1 1
25	26	27   1 1
26	27	28   1 1
27	28	29   1 1
28	29	30   1 1
29	30	31   1 1
30	31	32   1 1
31	32	33   1 1
32	33	34   1 1
33	34	35   1 1
34	35	36   1 1
35	36	37   1 1
36	37	38   1 1
37	38	39   1 1
38	39	40   1 1
39	40	41   1 1
40	41	42   1 1
41	42	43   1 1
42	43	44   1 1
43	44	45   1 1
44	45	46   1 1
45	46	47   1 1
46	47	48   1 1
47	48	49   1 1
48	49	50   1 1
49	50	51   1 1
50	51	52   1 1
51	52	53   1 1
52	53	2    1 1

*Stress 52
1	4.4014070205799341e+07
2	5.0133427909515336e+07
3	5.0122775625417396e+07
4	5.0112565061738320e+07
5	5.0102796488533363e+07
6	5.0093470164373860e+07
7	5.0084586336313181e+07
8	5.0076145239854142e+07
9	5.0068147098917976e+07
10	5.0060592125814773e+07
11	5.0053480521215387e+07
12	5.0046812474124879e+07
13	5.0040588161857471e+07
14	5.0034807750013068e+07
15	5.0029471392455265e+07
16	5.0024579231290862e+07
17	5.0020131396851063e+07
18	5.0016128007674083e+07
19	5.0012569170489378e+07
20	5.0009454980203465e+07
21	5.0006785519887216e+07
22	5.0004560860764846e+07
23	5.0002781062204391e+07
24	5.0001446171709791e+07
25	5.0000556224914528e+07
26	5.0000111245576918e+07
27	5.0000111245576918e+07
28	5.0000556224914528e+07
29	5.0001446171709791e+07
30	5.0002781062204391e+07
31	5.0004560860764846e+07
32	5.0006785519887216e+07
33	5.0009454980203465e+07
34	5.0012569170489378e+07
35	5.0016128007674083e+07
36	5.0020131396851063e+07
37	5.0024579231290862e+07
38	5.0029471392455265e+07
39	5.0034807750013068e+07
40	5.0040588161857471e+07
41	5.0046812474124879e+07
42	5.0053480521215387e+07
43	5.0060592125814773e+07
44	5.0068147098917976e+07
45	5.0076145239854142e+07
46	5.0084586336313181e+07
47	5.0093470164373860e+07
48	5.0102796488533363e+07
49	5.0112565061738320e+07
50	5.0122775625417396e+07
51	5.0133427909515336e+07
52	4.4014070205799341e+07

*Constraint 6
1 1 0 0
2 1 1 0
3 1 2 0
4 2 0 0
5 2 1 0
6 2 2 0

*Load FORCE_GRAVITY 1
1 1 -9.81 1

*Analysis_Step,1
1	Static	1	0.05 	1e-5	32
