//24杆星形穹顶桁架模型
*OUTPUT, H5, 1

*MATERIAL, 1
1, 1, 0.3, 7800, 0, 0

** 截面定义：面积1
*SECTION, 1
1, 1

*NODE, 13
1   0.0000      0.0000      8.2160
2   25.0000     0.0000      6.2160
3   12.5000     21.6506     6.2160
4   -12.5000    21.6506     6.2160
5   -25.0000    0.0000      6.2160
6   -12.5000    -21.6506    6.2160
7   12.5000     -21.6506    6.2160
8   43.3000     21.6506     0.0000
9   0.0000      43.3013     0.0000
10  -43.3000    21.6506     0.0000
11  -43.3000    -21.6506    0.0000
12  0.0000      -43.3013    0.0000
13  43.3000     -21.6506    0.0000

*ELEMENT, T3D2, 24
1   1   2   1   1
2   1   3   1   1
3   1   4   1   1
4   1   5   1   1
5   1   6   1   1
6   1   7   1   1
7   2   3   1   1
8   3   4   1   1
9   4   5   1   1
10  5   6   1   1
11  6   7   1   1
12  7   2   1   1
13  2   8   1   1
14  3   8   1   1
15  3   9   1   1
16  4   9   1   1
17  4   10  1   1
18  5   10  1   1
19  5   11  1   1
20  6   11  1   1
21  6   12  1   1
22  7   12  1   1
23  7   13  1   1
24  2   13  1   1

** 约束定义：19个约束项
** 格式：Constraint_ID, Node_ID, DOF(0=X, 1=Y, 2=Z), Value
*CONSTRAINT, 19
1,  8,  0, 0
2,  8,  1, 0
3,  8,  2, 0
4,  9,  0, 0
5,  9,  1, 0
6,  9,  2, 0
7,  10, 0, 0
8,  10, 1, 0
9,  10, 2, 0
10, 11, 0, 0
11, 11, 1, 0
12, 11, 2, 0
13, 12, 0, 0
14, 12, 1, 0
15, 12, 2, 0
16, 13, 0, 0
17, 13, 1, 0
18, 13, 2, 0
19, 1, 2, -5.0

*ANALYSIS_STEP, 1
1, STATIC, 1.0, 0.001, 1e-6, 100