**45°弯曲梁受集中力 G=3.447e10

*Material,1
  1  6.895e10  0.000029 3835.68   200 0.1

//截面属性编号 面积
*Section,1
1   0.0254  0.0254


*Node, 241
1	0.000000	0.000000	0.000000
2	0.008312	0.000014	0.000000
3	0.016624	0.000054	0.000000
4	0.024936	0.000122	0.000000
5	0.033248	0.000218	0.000000
6	0.041559	0.000340	0.000000
7	0.049870	0.000490	0.000000
8	0.058180	0.000666	0.000000
9	0.066489	0.000870	0.000000
10	0.074798	0.001102	0.000000
11	0.083106	0.001360	0.000000
12	0.091414	0.001646	0.000000
13	0.099720	0.001958	0.000000
14	0.108025	0.002298	0.000000
15	0.116329	0.002665	0.000000
16	0.124632	0.003060	0.000000
17	0.132933	0.003481	0.000000
18	0.141233	0.003930	0.000000
19	0.149532	0.004405	0.000000
20	0.157829	0.004908	0.000000
21	0.166124	0.005438	0.000000
22	0.174417	0.005996	0.000000
23	0.182709	0.006580	0.000000
24	0.190999	0.007191	0.000000
25	0.199286	0.007830	0.000000
26	0.207572	0.008496	0.000000
27	0.215855	0.009189	0.000000
28	0.224136	0.009908	0.000000
29	0.232414	0.010655	0.000000
30	0.240690	0.011430	0.000000
31	0.248964	0.012231	0.000000
32	0.257234	0.013059	0.000000
33	0.265502	0.013914	0.000000
34	0.273767	0.014797	0.000000
35	0.282030	0.015706	0.000000
36	0.290289	0.016643	0.000000
37	0.298545	0.017606	0.000000
38	0.306798	0.018597	0.000000
39	0.315048	0.019614	0.000000
40	0.323294	0.020659	0.000000
41	0.331537	0.021730	0.000000
42	0.339776	0.022828	0.000000
43	0.348011	0.023954	0.000000
44	0.356243	0.025106	0.000000
45	0.364471	0.026285	0.000000
46	0.372695	0.027492	0.000000
47	0.380916	0.028725	0.000000
48	0.389132	0.029985	0.000000
49	0.397344	0.031272	0.000000
50	0.405551	0.032585	0.000000
51	0.413755	0.033926	0.000000
52	0.421953	0.035293	0.000000
53	0.430148	0.036688	0.000000
54	0.438337	0.038109	0.000000
55	0.446523	0.039557	0.000000
56	0.454703	0.041031	0.000000
57	0.462878	0.042533	0.000000
58	0.471049	0.044061	0.000000
59	0.479214	0.045616	0.000000
60	0.487374	0.047197	0.000000
61	0.495529	0.048805	0.000000
62	0.503679	0.050440	0.000000
63	0.511824	0.052102	0.000000
64	0.519962	0.053790	0.000000
65	0.528096	0.055505	0.000000
66	0.536223	0.057247	0.000000
67	0.544345	0.059015	0.000000
68	0.552461	0.060809	0.000000
69	0.560571	0.062631	0.000000
70	0.568676	0.064478	0.000000
71	0.576774	0.066352	0.000000
72	0.584866	0.068253	0.000000
73	0.592951	0.070180	0.000000
74	0.601031	0.072134	0.000000
75	0.609103	0.074114	0.000000
76	0.617170	0.076121	0.000000
77	0.625229	0.078153	0.000000
78	0.633282	0.080213	0.000000
79	0.641329	0.082298	0.000000
80	0.649368	0.084410	0.000000
81	0.657400	0.086548	0.000000
82	0.665426	0.088713	0.000000
83	0.673444	0.090904	0.000000
84	0.681455	0.093121	0.000000
85	0.689459	0.095364	0.000000
86	0.697455	0.097633	0.000000
87	0.705444	0.099929	0.000000
88	0.713425	0.102250	0.000000
89	0.721399	0.104598	0.000000
90	0.729365	0.106972	0.000000
91	0.737323	0.109372	0.000000
92	0.745273	0.111797	0.000000
93	0.753216	0.114249	0.000000
94	0.761150	0.116727	0.000000
95	0.769076	0.119231	0.000000
96	0.776994	0.121761	0.000000
97	0.784903	0.124316	0.000000
98	0.792804	0.126898	0.000000
99	0.800697	0.129505	0.000000
100	0.808581	0.132139	0.000000
101	0.816456	0.134797	0.000000
102	0.824323	0.137482	0.000000
103	0.832181	0.140193	0.000000
104	0.840030	0.142929	0.000000
105	0.847869	0.145691	0.000000
106	0.855700	0.148478	0.000000
107	0.863522	0.151291	0.000000
108	0.871334	0.154130	0.000000
109	0.879137	0.156994	0.000000
110	0.886931	0.159884	0.000000
111	0.894715	0.162799	0.000000
112	0.902490	0.165740	0.000000
113	0.910255	0.168706	0.000000
114	0.918010	0.171697	0.000000
115	0.925755	0.174714	0.000000
116	0.933490	0.177756	0.000000
117	0.941216	0.180824	0.000000
118	0.948931	0.183916	0.000000
119	0.956636	0.187034	0.000000
120	0.964331	0.190178	0.000000
121	0.972016	0.193346	0.000000
122	0.979690	0.196539	0.000000
123	0.987354	0.199758	0.000000
124	0.995007	0.203002	0.000000
125	1.002649	0.206270	0.000000
126	1.010281	0.209564	0.000000
127	1.017902	0.212883	0.000000
128	1.025512	0.216226	0.000000
129	1.033111	0.219595	0.000000
130	1.040699	0.222988	0.000000
131	1.048276	0.226406	0.000000
132	1.055841	0.229849	0.000000
133	1.063396	0.233316	0.000000
134	1.070939	0.236809	0.000000
135	1.078470	0.240326	0.000000
136	1.085990	0.243867	0.000000
137	1.093498	0.247433	0.000000
138	1.100995	0.251024	0.000000
139	1.108479	0.254639	0.000000
140	1.115952	0.258279	0.000000
141	1.123413	0.261943	0.000000
142	1.130862	0.265632	0.000000
143	1.138299	0.269345	0.000000
144	1.145724	0.273082	0.000000
145	1.153136	0.276843	0.000000
146	1.160536	0.280629	0.000000
147	1.167923	0.284439	0.000000
148	1.175298	0.288273	0.000000
149	1.182661	0.292131	0.000000
150	1.190011	0.296014	0.000000
151	1.197348	0.299920	0.000000
152	1.204672	0.303850	0.000000
153	1.211983	0.307805	0.000000
154	1.219282	0.311783	0.000000
155	1.226567	0.315785	0.000000
156	1.233839	0.319811	0.000000
157	1.241098	0.323860	0.000000
158	1.248344	0.327933	0.000000
159	1.255576	0.332031	0.000000
160	1.262795	0.336151	0.000000
161	1.270000	0.340295	0.000000
162	1.277192	0.344463	0.000000
163	1.284370	0.348655	0.000000
164	1.291534	0.352869	0.000000
165	1.298684	0.357108	0.000000
166	1.305821	0.361369	0.000000
167	1.312944	0.365654	0.000000
168	1.320052	0.369963	0.000000
169	1.327146	0.374294	0.000000
170	1.334226	0.378649	0.000000
171	1.341292	0.383026	0.000000
172	1.348344	0.387427	0.000000
173	1.355381	0.391851	0.000000
174	1.362403	0.396298	0.000000
175	1.369411	0.400768	0.000000
176	1.376405	0.405261	0.000000
177	1.383383	0.409777	0.000000
178	1.390347	0.414315	0.000000
179	1.397296	0.418877	0.000000
180	1.404230	0.423461	0.000000
181	1.411148	0.428067	0.000000
182	1.418052	0.432696	0.000000
183	1.424941	0.437348	0.000000
184	1.431814	0.442023	0.000000
185	1.438672	0.446719	0.000000
186	1.445514	0.451439	0.000000
187	1.452341	0.456180	0.000000
188	1.459153	0.460944	0.000000
189	1.465949	0.465730	0.000000
190	1.472729	0.470539	0.000000
191	1.479493	0.475369	0.000000
192	1.486242	0.480222	0.000000
193	1.492975	0.485097	0.000000
194	1.499691	0.489994	0.000000
195	1.506392	0.494912	0.000000
196	1.513076	0.499853	0.000000
197	1.519744	0.504815	0.000000
198	1.526396	0.509800	0.000000
199	1.533032	0.514806	0.000000
200	1.539651	0.519833	0.000000
201	1.546254	0.524883	0.000000
202	1.552840	0.529953	0.000000
203	1.559410	0.535046	0.000000
204	1.565963	0.540160	0.000000
205	1.572499	0.545295	0.000000
206	1.579018	0.550452	0.000000
207	1.585520	0.555630	0.000000
208	1.592006	0.560829	0.000000
209	1.598474	0.566049	0.000000
210	1.604925	0.571291	0.000000
211	1.611359	0.576553	0.000000
212	1.617776	0.581837	0.000000
213	1.624175	0.587142	0.000000
214	1.630557	0.592467	0.000000
215	1.636922	0.597814	0.000000
216	1.643269	0.603181	0.000000
217	1.649598	0.608569	0.000000
218	1.655910	0.613977	0.000000
219	1.662204	0.619407	0.000000
220	1.668480	0.624857	0.000000
221	1.674738	0.630327	0.000000
222	1.680979	0.635818	0.000000
223	1.687201	0.641329	0.000000
224	1.693406	0.646860	0.000000
225	1.699592	0.652412	0.000000
226	1.705760	0.657984	0.000000
227	1.711909	0.663576	0.000000
228	1.718041	0.669189	0.000000
229	1.724154	0.674821	0.000000
230	1.730248	0.680473	0.000000
231	1.736324	0.686145	0.000000
232	1.742382	0.691837	0.000000
233	1.748421	0.697549	0.000000
234	1.754441	0.703281	0.000000
235	1.760442	0.709032	0.000000
236	1.766424	0.714803	0.000000
237	1.772388	0.720593	0.000000
238	1.778332	0.726403	0.000000
239	1.784258	0.732232	0.000000
240	1.790164	0.738081	0.000000
241	1.796051	0.743949	0.000000

*Element CR3D 240
1	1	2	1	1	0	1	0
2	2	3	1	1	0	1	0
3	3	4	1	1	0	1	0
4	4	5	1	1	0	1	0
5	5	6	1	1	0	1	0
6	6	7	1	1	0	1	0
7	7	8	1	1	0	1	0
8	8	9	1	1	0	1	0
9	9	10	1	1	0	1	0
10	10	11	1	1	0	1	0
11	11	12	1	1	0	1	0
12	12	13	1	1	0	1	0
13	13	14	1	1	0	1	0
14	14	15	1	1	0	1	0
15	15	16	1	1	0	1	0
16	16	17	1	1	0	1	0
17	17	18	1	1	0	1	0
18	18	19	1	1	0	1	0
19	19	20	1	1	0	1	0
20	20	21	1	1	0	1	0
21	21	22	1	1	0	1	0
22	22	23	1	1	0	1	0
23	23	24	1	1	0	1	0
24	24	25	1	1	0	1	0
25	25	26	1	1	0	1	0
26	26	27	1	1	0	1	0
27	27	28	1	1	0	1	0
28	28	29	1	1	0	1	0
29	29	30	1	1	0	1	0
30	30	31	1	1	0	1	0
31	31	32	1	1	0	1	0
32	32	33	1	1	0	1	0
33	33	34	1	1	0	1	0
34	34	35	1	1	0	1	0
35	35	36	1	1	0	1	0
36	36	37	1	1	0	1	0
37	37	38	1	1	0	1	0
38	38	39	1	1	0	1	0
39	39	40	1	1	0	1	0
40	40	41	1	1	0	1	0
41	41	42	1	1	0	1	0
42	42	43	1	1	0	1	0
43	43	44	1	1	0	1	0
44	44	45	1	1	0	1	0
45	45	46	1	1	0	1	0
46	46	47	1	1	0	1	0
47	47	48	1	1	0	1	0
48	48	49	1	1	0	1	0
49	49	50	1	1	0	1	0
50	50	51	1	1	0	1	0
51	51	52	1	1	0	1	0
52	52	53	1	1	0	1	0
53	53	54	1	1	0	1	0
54	54	55	1	1	0	1	0
55	55	56	1	1	0	1	0
56	56	57	1	1	0	1	0
57	57	58	1	1	0	1	0
58	58	59	1	1	0	1	0
59	59	60	1	1	0	1	0
60	60	61	1	1	0	1	0
61	61	62	1	1	0	1	0
62	62	63	1	1	0	1	0
63	63	64	1	1	0	1	0
64	64	65	1	1	0	1	0
65	65	66	1	1	0	1	0
66	66	67	1	1	0	1	0
67	67	68	1	1	0	1	0
68	68	69	1	1	0	1	0
69	69	70	1	1	0	1	0
70	70	71	1	1	0	1	0
71	71	72	1	1	0	1	0
72	72	73	1	1	0	1	0
73	73	74	1	1	0	1	0
74	74	75	1	1	0	1	0
75	75	76	1	1	0	1	0
76	76	77	1	1	0	1	0
77	77	78	1	1	0	1	0
78	78	79	1	1	0	1	0
79	79	80	1	1	0	1	0
80	80	81	1	1	0	1	0
81	81	82	1	1	0	1	0
82	82	83	1	1	0	1	0
83	83	84	1	1	0	1	0
84	84	85	1	1	0	1	0
85	85	86	1	1	0	1	0
86	86	87	1	1	0	1	0
87	87	88	1	1	0	1	0
88	88	89	1	1	0	1	0
89	89	90	1	1	0	1	0
90	90	91	1	1	0	1	0
91	91	92	1	1	0	1	0
92	92	93	1	1	0	1	0
93	93	94	1	1	0	1	0
94	94	95	1	1	0	1	0
95	95	96	1	1	0	1	0
96	96	97	1	1	0	1	0
97	97	98	1	1	0	1	0
98	98	99	1	1	0	1	0
99	99	100	1	1	0	1	0
100	100	101	1	1	0	1	0
101	101	102	1	1	0	1	0
102	102	103	1	1	0	1	0
103	103	104	1	1	0	1	0
104	104	105	1	1	0	1	0
105	105	106	1	1	0	1	0
106	106	107	1	1	0	1	0
107	107	108	1	1	0	1	0
108	108	109	1	1	0	1	0
109	109	110	1	1	0	1	0
110	110	111	1	1	0	1	0
111	111	112	1	1	0	1	0
112	112	113	1	1	0	1	0
113	113	114	1	1	0	1	0
114	114	115	1	1	0	1	0
115	115	116	1	1	0	1	0
116	116	117	1	1	0	1	0
117	117	118	1	1	0	1	0
118	118	119	1	1	0	1	0
119	119	120	1	1	0	1	0
120	120	121	1	1	0	1	0
121	121	122	1	1	0	1	0
122	122	123	1	1	0	1	0
123	123	124	1	1	0	1	0
124	124	125	1	1	0	1	0
125	125	126	1	1	0	1	0
126	126	127	1	1	0	1	0
127	127	128	1	1	0	1	0
128	128	129	1	1	0	1	0
129	129	130	1	1	0	1	0
130	130	131	1	1	0	1	0
131	131	132	1	1	0	1	0
132	132	133	1	1	0	1	0
133	133	134	1	1	0	1	0
134	134	135	1	1	0	1	0
135	135	136	1	1	0	1	0
136	136	137	1	1	0	1	0
137	137	138	1	1	0	1	0
138	138	139	1	1	0	1	0
139	139	140	1	1	0	1	0
140	140	141	1	1	0	1	0
141	141	142	1	1	0	1	0
142	142	143	1	1	0	1	0
143	143	144	1	1	0	1	0
144	144	145	1	1	0	1	0
145	145	146	1	1	0	1	0
146	146	147	1	1	0	1	0
147	147	148	1	1	0	1	0
148	148	149	1	1	0	1	0
149	149	150	1	1	0	1	0
150	150	151	1	1	0	1	0
151	151	152	1	1	0	1	0
152	152	153	1	1	0	1	0
153	153	154	1	1	0	1	0
154	154	155	1	1	0	1	0
155	155	156	1	1	0	1	0
156	156	157	1	1	0	1	0
157	157	158	1	1	0	1	0
158	158	159	1	1	0	1	0
159	159	160	1	1	0	1	0
160	160	161	1	1	0	1	0
161	161	162	1	1	0	1	0
162	162	163	1	1	0	1	0
163	163	164	1	1	0	1	0
164	164	165	1	1	0	1	0
165	165	166	1	1	0	1	0
166	166	167	1	1	0	1	0
167	167	168	1	1	0	1	0
168	168	169	1	1	0	1	0
169	169	170	1	1	0	1	0
170	170	171	1	1	0	1	0
171	171	172	1	1	0	1	0
172	172	173	1	1	0	1	0
173	173	174	1	1	0	1	0
174	174	175	1	1	0	1	0
175	175	176	1	1	0	1	0
176	176	177	1	1	0	1	0
177	177	178	1	1	0	1	0
178	178	179	1	1	0	1	0
179	179	180	1	1	0	1	0
180	180	181	1	1	0	1	0
181	181	182	1	1	0	1	0
182	182	183	1	1	0	1	0
183	183	184	1	1	0	1	0
184	184	185	1	1	0	1	0
185	185	186	1	1	0	1	0
186	186	187	1	1	0	1	0
187	187	188	1	1	0	1	0
188	188	189	1	1	0	1	0
189	189	190	1	1	0	1	0
190	190	191	1	1	0	1	0
191	191	192	1	1	0	1	0
192	192	193	1	1	0	1	0
193	193	194	1	1	0	1	0
194	194	195	1	1	0	1	0
195	195	196	1	1	0	1	0
196	196	197	1	1	0	1	0
197	197	198	1	1	0	1	0
198	198	199	1	1	0	1	0
199	199	200	1	1	0	1	0
200	200	201	1	1	0	1	0
201	201	202	1	1	0	1	0
202	202	203	1	1	0	1	0
203	203	204	1	1	0	1	0
204	204	205	1	1	0	1	0
205	205	206	1	1	0	1	0
206	206	207	1	1	0	1	0
207	207	208	1	1	0	1	0
208	208	209	1	1	0	1	0
209	209	210	1	1	0	1	0
210	210	211	1	1	0	1	0
211	211	212	1	1	0	1	0
212	212	213	1	1	0	1	0
213	213	214	1	1	0	1	0
214	214	215	1	1	0	1	0
215	215	216	1	1	0	1	0
216	216	217	1	1	0	1	0
217	217	218	1	1	0	1	0
218	218	219	1	1	0	1	0
219	219	220	1	1	0	1	0
220	220	221	1	1	0	1	0
221	221	222	1	1	0	1	0
222	222	223	1	1	0	1	0
223	223	224	1	1	0	1	0
224	224	225	1	1	0	1	0
225	225	226	1	1	0	1	0
226	226	227	1	1	0	1	0
227	227	228	1	1	0	1	0
228	228	229	1	1	0	1	0
229	229	230	1	1	0	1	0
230	230	231	1	1	0	1	0
231	231	232	1	1	0	1	0
232	232	233	1	1	0	1	0
233	233	234	1	1	0	1	0
234	234	235	1	1	0	1	0
235	235	236	1	1	0	1	0
236	236	237	1	1	0	1	0
237	237	238	1	1	0	1	0
238	238	239	1	1	0	1	0
239	239	240	1	1	0	1	0
240	240	241	1	1	0	1	0


*Constraint,6
 1    1    0    0 
 2    1    1    0 
 3    1    2    0 
 4    1    3    0 
 5    1    4    0 
 6    1    5    0 


*Load FORCE_NODE 1
1 241 2  1334.4665   1 0 1




*Analysis_Step,1
1	 Static	     1	    0.001 	 1e-6	 100
**2    Dynamic     400    0.002    1e-5    32