**动力学测试梁单元

*Material,1
  1  2.1e11  0.000029 7850   200 0.1

//截面属性编号 面积
*Section,1
1   0.02  0.02


*Node, 3
1	0.000000	0.000000	0.000000
2	0.5      	0.000000 	0.000000
3	1.0      	0.000000	0.000000

*Element CR3D 2
1	1	2	1	1	0	1	0
2	2	3	1	1	0	1	0

*Constraint,6
 1    1    0    0 
 2    1    1    0 
 3    1    2    0 
 4    1    3    0 
 5    1    4    0 
 6    1    5    0 


*Load FORCE_NODE 1
1 241 2  2668.933   1




*Analysis_Step,1
1	 Static	     1	    0.001 	 1e-6	 100
**2    Dynamic     400    0.002    1e-5    32