**圆环形梁弯矩

*Material,1
  1  2.0e+11  0.0  3835.68   200 0.1

//截面属性编号 面积
*Section,1
1   3.1415926e-6


*Node,56
1	0	0	0
2	0.01000733	0.178197	0
3	0.03990347	0.35415307	0
4	0.08931245	0.52565545	0
5	0.15761294	0.69054742	0
6	0.24394601	0.84675535	0
7	0.34722598	0.99231484	0
8	0.46615404	1.1253954	0
9	0.59923459	1.24432345	0
10	0.74479408	1.34760342	0
11	0.90100201	1.43393649	0
12	1.06589398	1.50223698	0
13	1.23739637	1.55164596	0
14	1.41335243	1.5815421	0
15	1.59154943	1.59154943	0
16	1.76974643	1.5815421	0
17	1.9457025	1.55164596	0
18	2.11720488	1.50223698	0
19	2.28209685	1.43393649	0
20	2.43830478	1.34760342	0
21	2.58386427	1.24432345	0
22	2.71694483	1.1253954	0
23	2.83587288	0.99231484	0
24	2.93915285	0.84675535	0
25	3.02548592	0.69054742	0
26	3.09378641	0.52565545	0
27	3.14319539	0.35415307	0
28	3.17309153	0.178197	0
29	3.18309886	0	        0
30	3.17309153	-0.178197	0
31	3.14319539	-0.35415307	0
32	3.09378641	-0.52565545	0
33	3.02548592	-0.69054742	0
34	2.93915285	-0.84675535	0
35	2.83587288	-0.99231484	0
36	2.71694483	-1.1253954	0
37	2.58386427	-1.24432345	0
38	2.43830478	-1.34760342	0
39	2.28209685	-1.43393649	0
40	2.11720488	-1.50223698	0
41	1.9457025	-1.55164596	0
42	1.76974643	-1.5815421	0
43	1.59154943	-1.59154943	0
44	1.41335243	-1.5815421	0
45	1.23739637	-1.55164596	0
46	1.06589398	-1.50223698	0
47	0.90100201	-1.43393649	0
48	0.74479408	-1.34760342	0
49	0.59923459	-1.24432345	0
50	0.46615404	-1.1253954	0
51	0.34722598	-0.99231484	0
52	0.24394601	-0.84675535	0
53	0.15761294	-0.69054742	0
54	0.08931245	-0.52565545	0
55	0.03990347	-0.35415307	0
56	0.01000733	-0.178197	0



*Element CR3D 56
1	1	2	1	1	0	0	1
2	2	3	1	1	0	0	1
3	3	4	1	1	0	0	1
4	4	5	1	1	0	0	1
5	5	6	1	1	0	0	1
6	6	7	1	1	0	0	1
7	7	8	1	1	0	0	1
8	8	9	1	1	0	0	1
9	9	10	1	1	0	0	1
10	10	11	1	1	0	0	1
11	11	12	1	1	0	0	1
12	12	13	1	1	0	0	1
13	13	14	1	1	0	0	1
14	14	15	1	1	0	0	1
15	15	16	1	1	0	0	1
16	16	17	1	1	0	0	1
17	17	18	1	1	0	0	1
18	18	19	1	1	0	0	1
19	19	20	1	1	0	0	1
20	20	21	1	1	0	0	1
21	21	22	1	1	0	0	1
22	22	23	1	1	0	0	1
23	23	24	1	1	0	0	1
24	24	25	1	1	0	0	1
25	25	26	1	1	0	0	1
26	26	27	1	1	0	0	1
27	27	28	1	1	0	0	1
28	28	29	1	1	0	0	1
29	29	30	1	1	0	0	1
30	30	31	1	1	0	0	1
31	31	32	1	1	0	0	1
32	32	33	1	1	0	0	1
33	33	34	1	1	0	0	1
34	34	35	1	1	0	0	1
35	35	36	1	1	0	0	1
36	36	37	1	1	0	0	1
37	37	38	1	1	0	0	1
38	38	39	1	1	0	0	1
39	39	40	1	1	0	0	1
40	40	41	1	1	0	0	1
41	41	42	1	1	0	0	1
42	42	43	1	1	0	0	1
43	43	44	1	1	0	0	1
44	44	45	1	1	0	0	1
45	45	46	1	1	0	0	1
46	46	47	1	1	0	0	1
47	47	48	1	1	0	0	1
48	48	49	1	1	0	0	1
49	49	50	1	1	0	0	1
50	50	51	1	1	0	0	1
51	51	52	1	1	0	0	1
52	52	53	1	1	0	0	1
53	53	54	1	1	0	0	1
54	54	55	1	1	0	0	1
55	55	56	1	1	0	0	1
56	56	1	1	1	0	0	1



*Constraint,6
 1    1    0    0
 2    1    1    0
 3    1    2    0
 4    1    3    0
 5    1    4    0
 6    1    5    0 


*Load FORCE_NODE 1
1 29 5  -0.5  1 0 1 CONSTANT


*Analysis_Step,1
1	 Static	     1	    0.01	 1e-3	 100
**2    Dynamic     400    0.002    1e-5    32