**水平梁弯矩

*Material,1
  1  2.1e+7  0.3  3835.68   200 0.1

//截面属性编号 面积
*Section,1
1   0.5 0.01


*Node,41
1 0 0 0
2 2.5 0 0
3 5.0 0 0
4 7.5 0 0
5 10.0 0 0
6 12.5 0 0
7 15.0 0 0
8 17.5 0 0
9 20.0 0 0
10 22.5 0 0
11 25.0 0 0
12 27.5 0 0
13 30.0 0 0
14 32.5 0 0
15 35.0 0 0
16 37.5 0 0
17 40.0 0 0
18 42.5 0 0
19 45.0 0 0
20 47.5 0 0
21 50.0 0 0
22 52.5 0 0
23 55.0 0 0
24 57.5 0 0
25 60.0 0 0
26 62.5 0 0
27 65.0 0 0
28 67.5 0 0
29 70.0 0 0
30 72.5 0 0
31 75.0 0 0
32 77.5 0 0
33 80.0 0 0
34 82.5 0 0
35 85.0 0 0
36 87.5 0 0
37 90.0 0 0
38 92.5 0 0
39 95.0 0 0
40 97.5 0 0
41 100.0 0 0

*Element CR3D 40
1  1  2    1   1 0  0   1
2  2  3    1   1 0  0   1
3  3  4    1   1 0  0   1
4  4  5    1   1 0  0   1
5  5  6    1   1 0  0   1
6  6  7    1   1 0  0   1
7  7  8    1   1 0  0   1
8  8  9    1   1 0  0   1
9  9  10   1   1 0  0   1
10 10 11   1   1 0  0   1
11 11 12   1   1 0  0   1
12 12 13   1   1 0  0   1
13 13 14   1   1 0  0   1
14 14 15   1   1 0  0   1
15 15 16   1   1 0  0   1
16 16 17   1   1 0  0   1
17 17 18   1   1 0  0   1
18 18 19   1   1 0  0   1
19 19 20   1   1 0  0   1
20 20 21   1   1 0  0   1
21 21 22   1   1 0  0   1
22 22 23   1   1 0  0   1
23 23 24   1   1 0  0   1
24 24 25   1   1 0  0   1
25 25 26   1   1 0  0   1
26 26 27   1   1 0  0   1
27 27 28   1   1 0  0   1
28 28 29   1   1 0  0   1
29 29 30   1   1 0  0   1
30 30 31   1   1 0  0   1
31 31 32   1   1 0  0   1
32 32 33   1   1 0  0   1
33 33 34   1   1 0  0   1
34 34 35   1   1 0  0   1
35 35 36   1   1 0  0   1
36 36 37   1   1 0  0   1
37 37 38   1   1 0  0   1
38 38 39   1   1 0  0   1
39 39 40   1   1 0  0   1
40 40 41   1   1 0  0   1


*Constraint,6
 1    1    0    0
 2    1    1    0
 3    1    2    0
 4    1    3    0
 5    1    4    0
 6    1    5    0 


*Load FORCE_NODE 1
1 41 5  -0.05497785  1 0 1 CONSTANT


*Analysis_Step,1
1	 Static	     1	    0.0005	 1e-6	 100
**2    Dynamic     400    0.002    1e-5    32