**水平梁

*Material,1
  1  2.0e+11  0.3  3835.68   200 0.1

//截面属性编号 面积
*Section,1
1   0.001


*Node,41
1 0 0 0
2 0.25 0 0
3 0.5 0 0
4 0.75 0 0
5 1.0 0 0
6 1.25 0 0
7 1.5 0 0
8 1.75 0 0
9 2.0 0 0
10 2.25 0 0
11 2.5 0 0
12 2.75 0 0
13 3.0 0 0
14 3.25 0 0
15 3.5 0 0
16 3.75 0 0
17 4.0 0 0
18 4.25 0 0
19 4.5 0 0
20 4.75 0 0
21 5.0 0 0
22 5.25 0 0
23 5.5 0 0
24 5.75 0 0
25 6.0 0 0
26 6.25 0 0
27 6.5 0 0
28 6.75 0 0
29 7.0 0 0
30 7.25 0 0
31 7.5 0 0
32 7.75 0 0
33 8.0 0 0
34 8.25 0 0
35 8.5 0 0
36 8.75 0 0
37 9.0 0 0
38 9.25 0 0
39 9.5 0 0
40 9.75 0 0
41 10.0 0 0

*Element CR3D 40
1 1 2 1 1 0 1 0
2 2 3 1 1 0 1 0
3 3 4 1 1 0 1 0
4 4 5 1 1 0 1 0
5 5 6 1 1 0 1 0
6 6 7 1 1 0 1 0
7 7 8 1 1 0 1 0
8 8 9 1 1 0 1 0
9 9 10 1 1 0 1 0
10 10 11 1 1 0 1 0
11 11 12 1 1 0 1 0
12 12 13 1 1 0 1 0
13 13 14 1 1 0 1 0
14 14 15 1 1 0 1 0
15 15 16 1 1 0 1 0
16 16 17 1 1 0 1 0
17 17 18 1 1 0 1 0
18 18 19 1 1 0 1 0
19 19 20 1 1 0 1 0
20 20 21 1 1 0 1 0
21 21 22 1 1 0 1 0
22 22 23 1 1 0 1 0
23 23 24 1 1 0 1 0
24 24 25 1 1 0 1 0
25 25 26 1 1 0 1 0
26 26 27 1 1 0 1 0
27 27 28 1 1 0 1 0
28 28 29 1 1 0 1 0
29 29 30 1 1 0 1 0
30 30 31 1 1 0 1 0
31 31 32 1 1 0 1 0
32 32 33 1 1 0 1 0
33 33 34 1 1 0 1 0
34 34 35 1 1 0 1 0
35 35 36 1 1 0 1 0
36 36 37 1 1 0 1 0
37 37 38 1 1 0 1 0
38 38 39 1 1 0 1 0
39 39 40 1 1 0 1 0
40 40 41 1 1 0 1 0


*Constraint,6
 1    1    0    0 
 2    1    1    0 
 3    1    2    0 
 4    1    3    0 
 5    1    4    0 
 6    1    5    0 


*Load FORCE_NODE 1
1 40 4  -10000   1


*Analysis_Step,1
1	 Static	     1	    0.05	 1e-6	 32
**2    Dynamic     400    0.002    1e-5    32