**水平梁

*Material,1
  1  100 -0.5  3835.68   200 0.1

//截面属性编号 面积
*Section,1
1   100


*Node, 101
1	0	0	0
2	0.1	0	0
3	0.2	0	0
4	0.3	0	0
5	0.4	0	0
6	0.5	0	0
7	0.6	0	0
8	0.7	0	0
9	0.8	0	0
10	0.9	0	0
11	1	0	0
12	1.1	0	0
13	1.2	0	0
14	1.3	0	0
15	1.4	0	0
16	1.5	0	0
17	1.6	0	0
18	1.7	0	0
19	1.8	0	0
20	1.9	0	0
21	2	0	0
22	2.1	0	0
23	2.2	0	0
24	2.3	0	0
25	2.4	0	0
26	2.5	0	0
27	2.6	0	0
28	2.7	0	0
29	2.8	0	0
30	2.9	0	0
31	3	0	0
32	3.1	0	0
33	3.2	0	0
34	3.3	0	0
35	3.4	0	0
36	3.5	0	0
37	3.6	0	0
38	3.7	0	0
39	3.8	0	0
40	3.9	0	0
41	4	0	0
42	4.1	0	0
43	4.2	0	0
44	4.3	0	0
45	4.4	0	0
46	4.5	0	0
47	4.6	0	0
48	4.7	0	0
49	4.8	0	0
50	4.9	0	0
51	5	0	0
52	5.1	0	0
53	5.2	0	0
54	5.3	0	0
55	5.4	0	0
56	5.5	0	0
57	5.6	0	0
58	5.7	0	0
59	5.8	0	0
60	5.9	0	0
61	6	0	0
62	6.1	0	0
63	6.2	0	0
64	6.3	0	0
65	6.4	0	0
66	6.5	0	0
67	6.6	0	0
68	6.7	0	0
69	6.8	0	0
70	6.9	0	0
71	7	0	0
72	7.1	0	0
73	7.2	0	0
74	7.3	0	0
75	7.4	0	0
76	7.5	0	0
77	7.6	0	0
78	7.7	0	0
79	7.8	0	0
80	7.9	0	0
81	8	0	0
82	8.1	0	0
83	8.2	0	0
84	8.3	0	0
85	8.4	0	0
86	8.5	0	0
87	8.6	0	0
88	8.7	0	0
89	8.8	0	0
90	8.9	0	0
91	9	0	0
92	9.1	0	0
93	9.2	0	0
94	9.3	0	0
95	9.4	0	0
96	9.5	0	0
97	9.6	0	0
98	9.7	0	0
99	9.8	0	0
100	9.9	0	0
101	10	0	0

*Element CR3D 100
1 1 2 1 1   0 0 1
2 2 3 1 1   0 0 1
3 3 4 1 1   0 0 1
4 4 5 1 1   0 0 1
5 5 6 1 1   0 0 1
6 6 7 1 1   0 0 1
7 7 8 1 1   0 0 1
8 8 9 1 1   0 0 1
9 9 10 1 1  0 0 1
10 10 11 1 1 0 0 1
11 11 12 1 1 0 0 1
12 12 13 1 1 0 0 1
13 13 14 1 1 0 0 1
14 14 15 1 1 0 0 1
15 15 16 1 1 0 0 1
16 16 17 1 1 0 0 1
17 17 18 1 1 0 0 1
18 18 19 1 1 0 0 1
19 19 20 1 1 0 0 1
20 20 21 1 1 0 0 1
21 21 22 1 1 0 0 1
22 22 23 1 1 0 0 1
23 23 24 1 1 0 0 1
24 24 25 1 1 0 0 1
25 25 26 1 1 0 0 1
26 26 27 1 1 0 0 1
27 27 28 1 1 0 0 1
28 28 29 1 1 0 0 1
29 29 30 1 1 0 0 1
30 30 31 1 1 0 0 1
31 31 32 1 1 0 0 1
32 32 33 1 1 0 0 1
33 33 34 1 1 0 0 1
34 34 35 1 1 0 0 1
35 35 36 1 1 0 0 1
36 36 37 1 1 0 0 1
37 37 38 1 1 0 0 1
38 38 39 1 1 0 0 1
39 39 40 1 1 0 0 1
40 40 41 1 1 0 0 1
41 41 42 1 1 0 0 1
42 42 43 1 1 0 0 1
43 43 44 1 1 0 0 1
44 44 45 1 1 0 0 1
45 45 46 1 1 0 0 1
46 46 47 1 1 0 0 1
47 47 48 1 1 0 0 1
48 48 49 1 1 0 0 1
49 49 50 1 1 0 0 1
50 50 51 1 1 0 0 1
51 51 52 1 1 0 0 1
52 52 53 1 1 0 0 1
53 53 54 1 1 0 0 1
54 54 55 1 1 0 0 1
55 55 56 1 1 0 0 1
56 56 57 1 1 0 0 1
57 57 58 1 1 0 0 1
58 58 59 1 1 0 0 1
59 59 60 1 1 0 0 1
60 60 61 1 1 0 0 1
61 61 62 1 1 0 0 1
62 62 63 1 1 0 0 1
63 63 64 1 1 0 0 1
64 64 65 1 1 0 0 1
65 65 66 1 1 0 0 1
66 66 67 1 1 0 0 1
67 67 68 1 1 0 0 1
68 68 69 1 1 0 0 1
69 69 70 1 1 0 0 1
70 70 71 1 1 0 0 1
71 71 72 1 1 0 0 1
72 72 73 1 1 0 0 1
73 73 74 1 1 0 0 1
74 74 75 1 1 0 0 1
75 75 76 1 1 0 0 1
76 76 77 1 1 0 0 1
77 77 78 1 1 0 0 1
78 78 79 1 1 0 0 1
79 79 80 1 1 0 0 1
80 80 81 1 1 0 0 1
81 81 82 1 1 0 0 1
82 82 83 1 1 0 0 1
83 83 84 1 1 0 0 1
84 84 85 1 1 0 0 1
85 85 86 1 1 0 0 1
86 86 87 1 1 0 0 1
87 87 88 1 1 0 0 1
88 88 89 1 1 0 0 1
89 89 90 1 1 0 0 1
90 90 91 1 1 0 0 1
91 91 92 1 1 0 0 1
92 92 93 1 1 0 0 1
93 93 94 1 1 0 0 1
94 94 95 1 1 0 0 1
95 95 96 1 1 0 0 1
96 96 97 1 1 0 0 1
97 97 98 1 1 0 0 1
98 98 99 1 1 0 0 1
99 99 100 1 1 0 0 1
100 100 101 1 1 0 0 1


*Constraint,6
 1    1    0    0 
 2    1    1    0 
 3    1    2    0 
 4    1    3    0 
 5    1    4    0 
 6    1    5    0 


*Load FORCE_NODE 2
1 101 5  376.991   1
1 101 2  30   1




*Analysis_Step,1
1	 Static	     1	    0.0005 	 1e-6	 100
**2    Dynamic     400    0.002    1e-5    32