            TIME          N26-T1          N26-T2          N26-T3          N26-F1          N26-F2          N26-F3
----------------------------------------------------------------------------------------------------------------
        0.050000        0.005191        1.686315        0.000000        0.000000       -3.367785        0.000000
        0.100000        0.004758        1.496949        0.000000        0.000000       -6.735569        0.000000
        0.150000        0.004375        1.341386        0.000000   +1.692442E-07      -10.103354        0.000000
        0.200000        0.004024        1.207344        0.000000        0.000000      -13.471138        0.000000
        0.250000        0.003697        1.088478        0.000000   -1.244362E-07      -16.838923        0.000000
        0.300000        0.003388        0.981014        0.000000        0.000000      -20.206707        0.000000
        0.350000        0.003095        0.882501        0.000000        0.000000      -23.574492        0.000000
        0.400000        0.002813        0.791242        0.000000   -1.567641E-07      -26.942277        0.000000
        0.450000        0.002543        0.706006        0.000000        0.000000      -30.310061        0.000000
        0.500000        0.002281        0.625869        0.000000        0.000000      -33.677846        0.000000
        0.550000        0.002028        0.550117        0.000000        0.000000      -37.045630        0.000000
        0.600000        0.001782        0.478184        0.000000        0.000000      -40.413415        0.000000
        0.650000        0.001542        0.409614        0.000000        0.000000      -43.781199        0.000000
        0.700000        0.001308        0.344032        0.000000        0.000000      -47.148984        0.000000
        0.750000        0.001080        0.281127        0.000000        0.000000      -50.516769        0.000000
        0.800000        0.000856        0.220638        0.000000        0.000000      -53.884553        0.000000
        0.850000        0.000637        0.162341        0.000000        0.000000      -57.252338        0.000000
        0.900000        0.000421        0.106044        0.000000        0.000000      -60.620122        0.000000
        0.950000        0.000210        0.051582        0.000000        0.000000      -63.987907        0.000000
        1.000000   +2.228713E-06       -0.001190        0.000000        0.000000      -67.355691        0.000000
