*MATERIAL, 4
1             +6.900000E+10         0.300000      3835.680000       200.000000         0.100000
2             +2.000000E+11         0.300000      1910.800000       200.000000         0.100000
3             +7.600000E+15         0.300000      3466.100000       200.000000         0.100000
4             +6.500000E+11         0.000000      3800.000000         0.000000         0.000000

*SECTION, 2
1                  0.000452
2                  0.005000

*NODE, 257
1                  0.000000         0.000000         0.000000
2                200.000000         0.000000         0.000000
3                  0.997202        -0.074747         0.000000
4                  4.950430        -0.363685         0.000000
5                  8.904500        -0.640889         0.000000
6                 12.859400        -0.906351         0.000000
7                 16.815000        -1.160060         0.000000
8                 20.771400        -1.402020         0.000000
9                 24.728500        -1.632220         0.000000
10                28.686300        -1.850640         0.000000
11                32.644600        -2.057300         0.000000
12                36.603600        -2.252170         0.000000
13                40.563200        -2.435260         0.000000
14                44.523200        -2.606560         0.000000
15                48.483800        -2.766070         0.000000
16                52.444800        -2.913780         0.000000
17                56.406300        -3.049680         0.000000
18                60.368100        -3.173780         0.000000
19                64.330300        -3.286070         0.000000
20                68.292800        -3.386550         0.000000
21                72.255600        -3.475220         0.000000
22                76.218600        -3.552060         0.000000
23                80.181800        -3.617090         0.000000
24                84.145300        -3.670300         0.000000
25                88.108800        -3.711680         0.000000
26                92.072500        -3.741240         0.000000
27                96.036200        -3.758980         0.000000
28               100.000000        -3.764890         0.000000
29               103.964000        -3.758980         0.000000
30               107.928000        -3.741240         0.000000
31               111.891000        -3.711680         0.000000
32               115.855000        -3.670300         0.000000
33               119.818000        -3.617090         0.000000
34               123.781000        -3.552060         0.000000
35               127.744000        -3.475220         0.000000
36               131.707000        -3.386550         0.000000
37               135.670000        -3.286070         0.000000
38               139.632000        -3.173780         0.000000
39               143.594000        -3.049680         0.000000
40               147.555000        -2.913780         0.000000
41               151.516000        -2.766070         0.000000
42               155.477000        -2.606560         0.000000
43               159.437000        -2.435260         0.000000
44               163.396000        -2.252170         0.000000
45               167.355000        -2.057300         0.000000
46               171.314000        -1.850640         0.000000
47               175.272000        -1.632220         0.000000
48               179.229000        -1.402020         0.000000
49               183.185000        -1.160060         0.000000
50               187.141000        -0.906351         0.000000
51               191.095000        -0.640889         0.000000
52               195.050000        -0.363685         0.000000
53               199.003000        -0.074747         0.000000
54                 0.000000        -0.282800        -0.282800
55                 1.999065        -0.282800        -0.358463
56                 3.998245        -0.282800        -0.431042
57                 5.997535        -0.282800        -0.500537
58                 7.996929        -0.282800        -0.566946
59                 9.996423        -0.282800        -0.630270
60                11.996013        -0.282800        -0.690507
61                13.995693        -0.282800        -0.747658
62                15.995459        -0.282800        -0.801722
63                17.995306        -0.282800        -0.852699
64                19.995230        -0.282800        -0.900588
65                21.995225        -0.282800        -0.945390
66                23.995287        -0.282800        -0.987102
67                25.995411        -0.282800        -1.025726
68                27.995592        -0.282800        -1.061262
69                29.995826        -0.282800        -1.093708
70                31.996107        -0.282800        -1.123064
71                33.996431        -0.282800        -1.149331
72                35.996794        -0.282800        -1.172509
73                37.997190        -0.282800        -1.192596
74                39.997614        -0.282800        -1.209593
75                41.998063        -0.282800        -1.223500
76                43.998530        -0.282800        -1.234317
77                45.999012        -0.282800        -1.242043
78                47.999504        -0.282800        -1.246679
79                50.000000        -0.282800        -1.248224
80                52.000496        -0.282800        -1.246679
81                54.000988        -0.282800        -1.242043
82                56.001470        -0.282800        -1.234317
83                58.001937        -0.282800        -1.223500
84                60.002386        -0.282800        -1.209593
85                62.002810        -0.282800        -1.192596
86                64.003206        -0.282800        -1.172509
87                66.003569        -0.282800        -1.149331
88                68.003893        -0.282800        -1.123064
89                70.004174        -0.282800        -1.093708
90                72.004408        -0.282800        -1.061262
91                74.004589        -0.282800        -1.025726
92                76.004713        -0.282800        -0.987102
93                78.004775        -0.282800        -0.945390
94                80.004770        -0.282800        -0.900588
95                82.004694        -0.282800        -0.852699
96                84.004541        -0.282800        -0.801722
97                86.004307        -0.282800        -0.747658
98                88.003987        -0.282800        -0.690507
99                90.003577        -0.282800        -0.630270
100               92.003071        -0.282800        -0.566946
101               94.002465        -0.282800        -0.500537
102               96.001755        -0.282800        -0.431042
103               98.000935        -0.282800        -0.358463
104              100.000000        -0.282800        -0.282800
105                0.000000        -0.282800         0.282800
106                1.999065        -0.282800         0.207137
107                3.998245        -0.282800         0.134558
108                5.997535        -0.282800         0.065063
109                7.996929        -0.282800        -0.001346
110                9.996423        -0.282800        -0.064670
111               11.996013        -0.282800        -0.124907
112               13.995693        -0.282800        -0.182058
113               15.995459        -0.282800        -0.236122
114               17.995306        -0.282800        -0.287099
115               19.995230        -0.282800        -0.334988
116               21.995225        -0.282800        -0.379790
117               23.995287        -0.282800        -0.421502
118               25.995411        -0.282800        -0.460126
119               27.995592        -0.282800        -0.495662
120               29.995826        -0.282800        -0.528108
121               31.996107        -0.282800        -0.557464
122               33.996431        -0.282800        -0.583731
123               35.996794        -0.282800        -0.606909
124               37.997190        -0.282800        -0.626996
125               39.997614        -0.282800        -0.643993
126               41.998063        -0.282800        -0.657900
127               43.998530        -0.282800        -0.668717
128               45.999012        -0.282800        -0.676443
129               47.999504        -0.282800        -0.681079
130               50.000000        -0.282800        -0.682624
131               52.000496        -0.282800        -0.681079
132               54.000988        -0.282800        -0.676443
133               56.001470        -0.282800        -0.668717
134               58.001937        -0.282800        -0.657900
135               60.002386        -0.282800        -0.643993
136               62.002810        -0.282800        -0.626996
137               64.003206        -0.282800        -0.606909
138               66.003569        -0.282800        -0.583731
139               68.003893        -0.282800        -0.557464
140               70.004174        -0.282800        -0.528108
141               72.004408        -0.282800        -0.495662
142               74.004589        -0.282800        -0.460126
143               76.004713        -0.282800        -0.421502
144               78.004775        -0.282800        -0.379790
145               80.004770        -0.282800        -0.334988
146               82.004694        -0.282800        -0.287099
147               84.004541        -0.282800        -0.236122
148               86.004307        -0.282800        -0.182058
149               88.003987        -0.282800        -0.124907
150               90.003577        -0.282800        -0.064670
151               92.003071        -0.282800        -0.001346
152               94.002465        -0.282800         0.065063
153               96.001755        -0.282800         0.134558
154               98.000935        -0.282800         0.207137
155              100.000000        -0.282800         0.282800
156                0.000000         0.282800         0.282800
157                1.999065         0.282800         0.207137
158                3.998245         0.282800         0.134558
159                5.997535         0.282800         0.065063
160                7.996929         0.282800        -0.001346
161                9.996423         0.282800        -0.064670
162               11.996013         0.282800        -0.124907
163               13.995693         0.282800        -0.182058
164               15.995459         0.282800        -0.236122
165               17.995306         0.282800        -0.287099
166               19.995230         0.282800        -0.334988
167               21.995225         0.282800        -0.379790
168               23.995287         0.282800        -0.421502
169               25.995411         0.282800        -0.460126
170               27.995592         0.282800        -0.495662
171               29.995826         0.282800        -0.528108
172               31.996107         0.282800        -0.557464
173               33.996431         0.282800        -0.583731
174               35.996794         0.282800        -0.606909
175               37.997190         0.282800        -0.626996
176               39.997614         0.282800        -0.643993
177               41.998063         0.282800        -0.657900
178               43.998530         0.282800        -0.668717
179               45.999012         0.282800        -0.676443
180               47.999504         0.282800        -0.681079
181               50.000000         0.282800        -0.682624
182               52.000496         0.282800        -0.681079
183               54.000988         0.282800        -0.676443
184               56.001470         0.282800        -0.668717
185               58.001937         0.282800        -0.657900
186               60.002386         0.282800        -0.643993
187               62.002810         0.282800        -0.626996
188               64.003206         0.282800        -0.606909
189               66.003569         0.282800        -0.583731
190               68.003893         0.282800        -0.557464
191               70.004174         0.282800        -0.528108
192               72.004408         0.282800        -0.495662
193               74.004589         0.282800        -0.460126
194               76.004713         0.282800        -0.421502
195               78.004775         0.282800        -0.379790
196               80.004770         0.282800        -0.334988
197               82.004694         0.282800        -0.287099
198               84.004541         0.282800        -0.236122
199               86.004307         0.282800        -0.182058
200               88.003987         0.282800        -0.124907
201               90.003577         0.282800        -0.064670
202               92.003071         0.282800        -0.001346
203               94.002465         0.282800         0.065063
204               96.001755         0.282800         0.134558
205               98.000935         0.282800         0.207137
206              100.000000         0.282800         0.282800
207                0.000000         0.282800        -0.282800
208                1.999065         0.282800        -0.358463
209                3.998245         0.282800        -0.431042
210                5.997535         0.282800        -0.500537
211                7.996929         0.282800        -0.566946
212                9.996423         0.282800        -0.630270
213               11.996013         0.282800        -0.690507
214               13.995693         0.282800        -0.747658
215               15.995459         0.282800        -0.801722
216               17.995306         0.282800        -0.852699
217               19.995230         0.282800        -0.900588
218               21.995225         0.282800        -0.945390
219               23.995287         0.282800        -0.987102
220               25.995411         0.282800        -1.025726
221               27.995592         0.282800        -1.061262
222               29.995826         0.282800        -1.093708
223               31.996107         0.282800        -1.123064
224               33.996431         0.282800        -1.149331
225               35.996794         0.282800        -1.172509
226               37.997190         0.282800        -1.192596
227               39.997614         0.282800        -1.209593
228               41.998063         0.282800        -1.223500
229               43.998530         0.282800        -1.234317
230               45.999012         0.282800        -1.242043
231               47.999504         0.282800        -1.246679
232               50.000000         0.282800        -1.248224
233               52.000496         0.282800        -1.246679
234               54.000988         0.282800        -1.242043
235               56.001470         0.282800        -1.234317
236               58.001937         0.282800        -1.223500
237               60.002386         0.282800        -1.209593
238               62.002810         0.282800        -1.192596
239               64.003206         0.282800        -1.172509
240               66.003569         0.282800        -1.149331
241               68.003893         0.282800        -1.123064
242               70.004174         0.282800        -1.093708
243               72.004408         0.282800        -1.061262
244               74.004589         0.282800        -1.025726
245               76.004713         0.282800        -0.987102
246               78.004775         0.282800        -0.945390
247               80.004770         0.282800        -0.900588
248               82.004694         0.282800        -0.852699
249               84.004541         0.282800        -0.801722
250               86.004307         0.282800        -0.747658
251               88.003987         0.282800        -0.690507
252               90.003577         0.282800        -0.630270
253               92.003071         0.282800        -0.566946
254               94.002465         0.282800        -0.500537
255               96.001755         0.282800        -0.431042
256               98.000935         0.282800        -0.358463
257              100.000000         0.282800        -0.282800

*ELEMENT, T3D2, 268
1               1      3      1      1
2               3      4      1      1
3               4      5      1      1
4               5      6      1      1
5               6      7      1      1
6               7      8      1      1
7               8      9      1      1
8               9     10      1      1
9              10     11      1      1
10             11     12      1      1
11             12     13      1      1
12             13     14      1      1
13             14     15      1      1
14             15     16      1      1
15             16     17      1      1
16             17     18      1      1
17             18     19      1      1
18             19     20      1      1
19             20     21      1      1
20             21     22      1      1
21             22     23      1      1
22             23     24      1      1
23             24     25      1      1
24             25     26      1      1
25             26     27      1      1
26             27     28      1      1
27             28     29      1      1
28             29     30      1      1
29             30     31      1      1
30             31     32      1      1
31             32     33      1      1
32             33     34      1      1
33             34     35      1      1
34             35     36      1      1
35             36     37      1      1
36             37     38      1      1
37             38     39      1      1
38             39     40      1      1
39             40     41      1      1
40             41     42      1      1
41             42     43      1      1
42             43     44      1      1
43             44     45      1      1
44             45     46      1      1
45             46     47      1      1
46             47     48      1      1
47             48     49      1      1
48             49     50      1      1
49             50     51      1      1
50             51     52      1      1
51             52     53      1      1
52             53      2      1      1
53              1      2      1      1
54              2      3      1      1
55              3      4      1      1
56              4      5      1      1
57              5      6      1      1
58              6      7      1      1
59              7      8      1      1
60              8      9      1      1
61              9     10      1      1
62             10     11      1      1
63             11     12      1      1
64             12     13      1      1
65             13     14      1      1
66             14     15      1      1
67             15     16      1      1
68             16     17      1      1
69             17     18      1      1
70             18     19      1      1
71             19     20      1      1
72             20     21      1      1
73             21     22      1      1
74             22     23      1      1
75             23     24      1      1
76             24     25      1      1
77             25     26      1      1
78             26     27      1      1
79             27     28      1      1
80             28     29      1      1
81             29     30      1      1
82             30     31      1      1
83             31     32      1      1
84             32     33      1      1
85             33     34      1      1
86             34     35      1      1
87             35     36      1      1
88             36     37      1      1
89             37     38      1      1
90             38     39      1      1
91             39     40      1      1
92             40     41      1      1
93             41     42      1      1
94             42     43      1      1
95             43     44      1      1
96             44     45      1      1
97             45     46      1      1
98             46     47      1      1
99             47     48      1      1
100            48     49      1      1
101            49     50      1      1
102            50     51      1      1
103            52     53      1      1
104            53     54      1      1
105            54     55      1      1
106            55     56      1      1
107            56     57      1      1
108            57     58      1      1
109            58     59      1      1
110            59     60      1      1
111            60     61      1      1
112            61     62      1      1
113            62     63      1      1
114            63     64      1      1
115            64     65      1      1
116            65     66      1      1
117            66     67      1      1
118            67     68      1      1
119            68     69      1      1
120            69     70      1      1
121            70     71      1      1
122            71     72      1      1
123            72     73      1      1
124            73     74      1      1
125            74     75      1      1
126            75     76      1      1
127            76     77      1      1
128            77     78      1      1
129            78     79      1      1
130            79     80      1      1
131            80     81      1      1
132            81     82      1      1
133            82     83      1      1
134            83     84      1      1
135            84     85      1      1
136            85     86      1      1
137            86     87      1      1
138            87     88      1      1
139            88     89      1      1
140            89     90      1      1
141            90     91      1      1
142            91     92      1      1
143            92     93      1      1
144            93     94      1      1
145            94     95      1      1
146            95     96      1      1
147            96     97      1      1
148            97     98      1      1
149            98     99      1      1
150            99    100      1      1
151           100    101      1      1
152           101    102      1      1
153           103    104      1      1
154           104    105      1      1
155           105    106      1      1
156           106    107      1      1
157           107    108      1      1
158           108    109      1      1
159           109    110      1      1
160           110    111      1      1
161           111    112      1      1
162           112    113      1      1
163           113    114      1      1
164           114    115      1      1
165           115    116      1      1
166           116    117      1      1
167           117    118      1      1
168           118    119      1      1
169           119    120      1      1
170           120    121      1      1
171           121    122      1      1
172           122    123      1      1
173           123    124      1      1
174           124    125      1      1
175           125    126      1      1
176           126    127      1      1
177           127    128      1      1
178           128    129      1      1
179           129    130      1      1
180           130    131      1      1
181           131    132      1      1
182           132    133      1      1
183           133    134      1      1
184           134    135      1      1
185           135    136      1      1
186           136    137      1      1
187           137    138      1      1
188           138    139      1      1
189           139    140      1      1
190           140    141      1      1
191           141    142      1      1
192           142    143      1      1
193           143    144      1      1
194           144    145      1      1
195           145    146      1      1
196           146    147      1      1
197           147    148      1      1
198           148    149      1      1
199           149    150      1      1
200           150    151      1      1
201           151    152      1      1
202           152    153      1      1
203           154    155      1      1
204           155    156      1      1
205           156    157      1      1
206           157    158      1      1
207           158    159      1      1
208           159    160      1      1
209           160    161      1      1
210           161    162      1      1
211           162    163      1      1
212           163    164      1      1
213           164    165      1      1
214           165    166      1      1
215           166    167      1      1
216           167    168      1      1
217           168    169      1      1
218           169    170      1      1
219           170    171      1      1
220           171    172      1      1
221           172    173      1      1
222           173    174      1      1
223           174    175      1      1
224           175    176      1      1
225           176    177      1      1
226           177    178      1      1
227           178    179      1      1
228           179    180      1      1
229           180    181      1      1
230           181    182      1      1
231           182    183      1      1
232           183    184      1      1
233           184    185      1      1
234           185    186      1      1
235           186    187      1      1
236           187    188      1      1
237           188    189      1      1
238           189    190      1      1
239           190    191      1      1
240           191    192      1      1
241           192    193      1      1
242           193    194      1      1
243           194    195      1      1
244           195    196      1      1
245           196    197      1      1
246           197    198      1      1
247           198    199      1      1
248           199    200      1      1
249           200    201      1      1
250           201    202      1      1
251           202    203      1      1
252           203    204      1      1
253            10     61      1      1
254            61    112      1      1
255           112    163      1      1
256           163     10      1      1
257            20     71      1      1
258            71    122      1      1
259           122    173      1      1
260           173     20      1      1
261            30     81      1      1
262            81    132      1      1
263           132    183      1      1
264           183     30      1      1
265            40     91      1      1
266            91    142      1      1
267           142    193      1      1
268           193     40      1      1

*CONSTRAINT, 30
1               1      0         0.000000
2               1      1         0.000000
3               1      2         0.000000
4               2      0         0.000000
5               2      1         0.000000
6               2      2         0.000000
7               1      0         0.000000
8               1      1         0.000000
9               1      2         0.000000
10             51      0         0.000000
11             51      1         0.000000
12             51      2         0.000000
13             52      0         0.000000
14             52      1         0.000000
15             52      2         0.000000
16            102      0         0.000000
17            102      1         0.000000
18            102      2         0.000000
19            103      0         0.000000
20            103      1         0.000000
21            103      2         0.000000
22            153      0         0.000000
23            153      1         0.000000
24            153      2         0.000000
25            154      0         0.000000
26            154      1         0.000000
27            154      2         0.000000
28            204      0         0.000000
29            204      1         0.000000
30            204      2         0.000000

*LOAD, FORCE_GRAVITY, 2
1               1        -9.810000      1
2               2        -9.806650      1

*STRESS, 268
1             +4.401407E+07
2             +5.013343E+07
3             +5.012278E+07
4             +5.011257E+07
5             +5.010280E+07
6             +5.009347E+07
7             +5.008459E+07
8             +5.007615E+07
9             +5.006815E+07
10            +5.006059E+07
11            +5.005348E+07
12            +5.004681E+07
13            +5.004059E+07
14            +5.003481E+07
15            +5.002947E+07
16            +5.002458E+07
17            +5.002013E+07
18            +5.001613E+07
19            +5.001257E+07
20            +5.000945E+07
21            +5.000679E+07
22            +5.000456E+07
23            +5.000278E+07
24            +5.000145E+07
25            +5.000056E+07
26            +5.000011E+07
27            +5.000011E+07
28            +5.000056E+07
29            +5.000145E+07
30            +5.000278E+07
31            +5.000456E+07
32            +5.000679E+07
33            +5.000945E+07
34            +5.001257E+07
35            +5.001613E+07
36            +5.002013E+07
37            +5.002458E+07
38            +5.002947E+07
39            +5.003481E+07
40            +5.004059E+07
41            +5.004681E+07
42            +5.005348E+07
43            +5.006059E+07
44            +5.006815E+07
45            +5.007615E+07
46            +5.008459E+07
47            +5.009347E+07
48            +5.010280E+07
49            +5.011257E+07
50            +5.012278E+07
51            +5.013343E+07
52            +4.401407E+07
53            +5.003436E+07
54            +5.003155E+07
55            +5.002887E+07
56            +5.002631E+07
57            +5.002386E+07
58            +5.002153E+07
59            +5.001933E+07
60            +5.001724E+07
61            +5.001527E+07
62            +5.001342E+07
63            +5.001169E+07
64            +5.001008E+07
65            +5.000859E+07
66            +5.000722E+07
67            +5.000597E+07
68            +5.000483E+07
69            +5.000382E+07
70            +5.000292E+07
71            +5.000215E+07
72            +5.000149E+07
73            +5.000095E+07
74            +5.000054E+07
75            +5.000024E+07
76            +5.000006E+07
77            +5.000000E+07
78            +5.000006E+07
79            +5.000024E+07
80            +5.000054E+07
81            +5.000095E+07
82            +5.000149E+07
83            +5.000215E+07
84            +5.000292E+07
85            +5.000382E+07
86            +5.000483E+07
87            +5.000597E+07
88            +5.000722E+07
89            +5.000859E+07
90            +5.001008E+07
91            +5.001169E+07
92            +5.001342E+07
93            +5.001527E+07
94            +5.001724E+07
95            +5.001933E+07
96            +5.002153E+07
97            +5.002386E+07
98            +5.002631E+07
99            +5.002887E+07
100           +5.003155E+07
101           +5.003436E+07
102           +5.003728E+07
103           +5.003436E+07
104           +5.003155E+07
105           +5.002887E+07
106           +5.002631E+07
107           +5.002386E+07
108           +5.002153E+07
109           +5.001933E+07
110           +5.001724E+07
111           +5.001527E+07
112           +5.001342E+07
113           +5.001169E+07
114           +5.001008E+07
115           +5.000859E+07
116           +5.000722E+07
117           +5.000597E+07
118           +5.000483E+07
119           +5.000382E+07
120           +5.000292E+07
121           +5.000215E+07
122           +5.000149E+07
123           +5.000095E+07
124           +5.000054E+07
125           +5.000024E+07
126           +5.000006E+07
127           +5.000000E+07
128           +5.000006E+07
129           +5.000024E+07
130           +5.000054E+07
131           +5.000095E+07
132           +5.000149E+07
133           +5.000215E+07
134           +5.000292E+07
135           +5.000382E+07
136           +5.000483E+07
137           +5.000597E+07
138           +5.000722E+07
139           +5.000859E+07
140           +5.001008E+07
141           +5.001169E+07
142           +5.001342E+07
143           +5.001527E+07
144           +5.001724E+07
145           +5.001933E+07
146           +5.002153E+07
147           +5.002386E+07
148           +5.002631E+07
149           +5.002887E+07
150           +5.003155E+07
151           +5.003436E+07
152           +5.003728E+07
153           +5.003436E+07
154           +5.003155E+07
155           +5.002887E+07
156           +5.002631E+07
157           +5.002386E+07
158           +5.002153E+07
159           +5.001933E+07
160           +5.001724E+07
161           +5.001527E+07
162           +5.001342E+07
163           +5.001169E+07
164           +5.001008E+07
165           +5.000859E+07
166           +5.000722E+07
167           +5.000597E+07
168           +5.000483E+07
169           +5.000382E+07
170           +5.000292E+07
171           +5.000215E+07
172           +5.000149E+07
173           +5.000095E+07
174           +5.000054E+07
175           +5.000024E+07
176           +5.000006E+07
177           +5.000000E+07
178           +5.000006E+07
179           +5.000024E+07
180           +5.000054E+07
181           +5.000095E+07
182           +5.000149E+07
183           +5.000215E+07
184           +5.000292E+07
185           +5.000382E+07
186           +5.000483E+07
187           +5.000597E+07
188           +5.000722E+07
189           +5.000859E+07
190           +5.001008E+07
191           +5.001169E+07
192           +5.001342E+07
193           +5.001527E+07
194           +5.001724E+07
195           +5.001933E+07
196           +5.002153E+07
197           +5.002386E+07
198           +5.002631E+07
199           +5.002887E+07
200           +5.003155E+07
201           +5.003436E+07
202           +5.003728E+07
203           +5.003436E+07
204           +5.003155E+07
205           +5.002887E+07
206           +5.002631E+07
207           +5.002386E+07
208           +5.002153E+07
209           +5.001933E+07
210           +5.001724E+07
211           +5.001527E+07
212           +5.001342E+07
213           +5.001169E+07
214           +5.001008E+07
215           +5.000859E+07
216           +5.000722E+07
217           +5.000597E+07
218           +5.000483E+07
219           +5.000382E+07
220           +5.000292E+07
221           +5.000215E+07
222           +5.000149E+07
223           +5.000095E+07
224           +5.000054E+07
225           +5.000024E+07
226           +5.000006E+07
227           +5.000000E+07
228           +5.000006E+07
229           +5.000024E+07
230           +5.000054E+07
231           +5.000095E+07
232           +5.000149E+07
233           +5.000215E+07
234           +5.000292E+07
235           +5.000382E+07
236           +5.000483E+07
237           +5.000597E+07
238           +5.000722E+07
239           +5.000859E+07
240           +5.001008E+07
241           +5.001169E+07
242           +5.001342E+07
243           +5.001527E+07
244           +5.001724E+07
245           +5.001933E+07
246           +5.002153E+07
247           +5.002386E+07
248           +5.002631E+07
249           +5.002887E+07
250           +5.003155E+07
251           +5.003436E+07
252           +5.003728E+07
253                0.000000
254                0.000000
255                0.000000
256                0.000000
257                0.000000
258                0.000000
259                0.000000
260                0.000000
261                0.000000
262                0.000000
263                0.000000
264                0.000000
265                0.000000
266                0.000000
267                0.000000
268                0.000000

*ANALYSIS_STEP, 2
1              STATIC         1.000000         0.050000    +1.000000E-05     32
2              STATIC         1.000000         0.500000    +1.000000E-04   1000
