            TIME           N1-U1           N1-U2           N1-U3           N1-R3
--------------------------------------------------------------------------------
      0.00100000      0.00000000      0.00000000     -0.00500000 -4.41595185E-06
      0.00200000      0.00000000      0.00000000     -0.01000000 -8.79561021E-06
      0.00300000      0.00000000      0.00000000     -0.01500000 -1.31390678E-05
      0.00400000      0.00000000      0.00000000     -0.02000000 -1.74464175E-05
      0.00500000      0.00000000      0.00000000     -0.02500000 -2.17177527E-05
      0.00600000      0.00000000      0.00000000     -0.03000000 -2.59531666E-05
      0.00700000      0.00000000      0.00000000     -0.03500000 -3.01527530E-05
      0.00800000      0.00000000      0.00000000     -0.04000000 -3.43166058E-05
      0.00900000      0.00000000      0.00000000     -0.04500000 -3.84448191E-05
      0.01000000      0.00000000      0.00000000     -0.05000000 -4.25374872E-05
      0.01100000      0.00000000      0.00000000     -0.05500000 -4.65947049E-05
      0.01200000      0.00000000      0.00000000     -0.06000000 -5.06165668E-05
      0.01300000      0.00000000      0.00000000     -0.06500000 -5.46031680E-05
      0.01400000      0.00000000      0.00000000     -0.07000000 -5.85546039E-05
      0.01500000      0.00000000      0.00000000     -0.07500000 -6.24709698E-05
      0.01600000      0.00000000      0.00000000     -0.08000000 -6.63523616E-05
      0.01700000      0.00000000      0.00000000     -0.08500000 -7.01988751E-05
      0.01800000      0.00000000      0.00000000     -0.09000000 -7.40106065E-05
      0.01900000      0.00000000      0.00000000     -0.09500000 -7.77876522E-05
      0.02000000      0.00000000      0.00000000     -0.10000000 -8.15301087E-05
      0.02100000      0.00000000      0.00000000     -0.10500000 -8.52380729E-05
      0.02200000      0.00000000      0.00000000     -0.11000000 -8.89116417E-05
      0.02300000      0.00000000      0.00000000     -0.11500000 -9.25509124E-05
      0.02400000      0.00000000      0.00000000     -0.12000000 -9.61559824E-05
      0.02500000      0.00000000      0.00000000     -0.12500000 -9.97269494E-05
      0.02600000      0.00000000      0.00000000     -0.13000000     -0.00010326
      0.02700000      0.00000000      0.00000000     -0.13500000     -0.00010677
      0.02800000      0.00000000      0.00000000     -0.14000000     -0.00011024
      0.02900000      0.00000000      0.00000000     -0.14500000     -0.00011367
      0.03000000      0.00000000      0.00000000     -0.15000000     -0.00011707
      0.03100000      0.00000000      0.00000000     -0.15500000     -0.00012044
      0.03200000      0.00000000      0.00000000     -0.16000000     -0.00012378
      0.03300000      0.00000000      0.00000000     -0.16500000     -0.00012708
      0.03400000      0.00000000      0.00000000     -0.17000000     -0.00013035
      0.03500000      0.00000000      0.00000000     -0.17500000     -0.00013358
      0.03600000      0.00000000      0.00000000     -0.18000000     -0.00013678
      0.03700000      0.00000000      0.00000000     -0.18500000     -0.00013995
      0.03800000      0.00000000      0.00000000     -0.19000000     -0.00014309
      0.03900000      0.00000000      0.00000000     -0.19500000     -0.00014619
      0.04000000      0.00000000      0.00000000     -0.20000000     -0.00014927
      0.04100000      0.00000000      0.00000000     -0.20500000     -0.00015230
      0.04200000      0.00000000      0.00000000     -0.21000000     -0.00015531
      0.04300000      0.00000000      0.00000000     -0.21500000     -0.00015829
      0.04400000      0.00000000      0.00000000     -0.22000000     -0.00016123
      0.04500000      0.00000000      0.00000000     -0.22500000     -0.00016414
      0.04600000      0.00000000      0.00000000     -0.23000000     -0.00016701
      0.04700000      0.00000000      0.00000000     -0.23500000     -0.00016986
      0.04800000      0.00000000      0.00000000     -0.24000000     -0.00017267
      0.04900000      0.00000000      0.00000000     -0.24500000     -0.00017546
      0.05000000      0.00000000      0.00000000     -0.25000000     -0.00017821
      0.05100000      0.00000000      0.00000000     -0.25500000     -0.00018093
      0.05200000      0.00000000      0.00000000     -0.26000000     -0.00018361
      0.05300000      0.00000000      0.00000000     -0.26500000     -0.00018627
      0.05400000      0.00000000      0.00000000     -0.27000000     -0.00018890
      0.05500000      0.00000000      0.00000000     -0.27500000     -0.00019149
      0.05600000      0.00000000      0.00000000     -0.28000000     -0.00019405
      0.05700000      0.00000000      0.00000000     -0.28500000     -0.00019659
      0.05800000      0.00000000      0.00000000     -0.29000000     -0.00019909
      0.05900000      0.00000000      0.00000000     -0.29500000     -0.00020156
      0.06000000      0.00000000      0.00000000     -0.30000000     -0.00020400
      0.06100000      0.00000000      0.00000000     -0.30500000     -0.00020641
      0.06200000      0.00000000      0.00000000     -0.31000000     -0.00020879
      0.06300000      0.00000000      0.00000000     -0.31500000     -0.00021114
      0.06400000      0.00000000      0.00000000     -0.32000000     -0.00021346
      0.06500000      0.00000000      0.00000000     -0.32500000     -0.00021575
      0.06600000      0.00000000      0.00000000     -0.33000000     -0.00021800
      0.06700000      0.00000000      0.00000000     -0.33500000     -0.00022023
      0.06800000      0.00000000      0.00000000     -0.34000000     -0.00022243
      0.06900000      0.00000000      0.00000000     -0.34500000     -0.00022460
      0.07000000      0.00000000      0.00000000     -0.35000000     -0.00022674
      0.07100000      0.00000000      0.00000000     -0.35500000     -0.00022885
      0.07200000      0.00000000      0.00000000     -0.36000000     -0.00023094
      0.07300000      0.00000000      0.00000000     -0.36500000     -0.00023299
      0.07400000      0.00000000      0.00000000     -0.37000000     -0.00023501
      0.07500000      0.00000000      0.00000000     -0.37500000     -0.00023701
      0.07600000      0.00000000      0.00000000     -0.38000000     -0.00023897
      0.07700000      0.00000000      0.00000000     -0.38500000     -0.00024091
      0.07800000      0.00000000      0.00000000     -0.39000000     -0.00024282
      0.07900000      0.00000000      0.00000000     -0.39500000     -0.00024470
      0.08000000      0.00000000      0.00000000     -0.40000000     -0.00024655
      0.08100000      0.00000000      0.00000000     -0.40500000     -0.00024837
      0.08200000      0.00000000      0.00000000     -0.41000000     -0.00025016
      0.08300000      0.00000000      0.00000000     -0.41500000     -0.00025193
      0.08400000      0.00000000      0.00000000     -0.42000000     -0.00025367
      0.08500000      0.00000000      0.00000000     -0.42500000     -0.00025538
      0.08600000      0.00000000      0.00000000     -0.43000000     -0.00025706
      0.08700000      0.00000000      0.00000000     -0.43500000     -0.00025871
      0.08800000      0.00000000      0.00000000     -0.44000000     -0.00026034
      0.08900000      0.00000000      0.00000000     -0.44500000     -0.00026194
      0.09000000      0.00000000      0.00000000     -0.45000000     -0.00026351
      0.09100000      0.00000000      0.00000000     -0.45500000     -0.00026506
      0.09200000      0.00000000      0.00000000     -0.46000000     -0.00026658
      0.09300000      0.00000000      0.00000000     -0.46500000     -0.00026807
      0.09400000      0.00000000      0.00000000     -0.47000000     -0.00026953
      0.09500000      0.00000000      0.00000000     -0.47500000     -0.00027097
      0.09600000      0.00000000      0.00000000     -0.48000000     -0.00027238
      0.09700000      0.00000000      0.00000000     -0.48500000     -0.00027376
      0.09800000      0.00000000      0.00000000     -0.49000000     -0.00027512
      0.09900000      0.00000000      0.00000000     -0.49500000     -0.00027645
      0.10000000      0.00000000      0.00000000     -0.50000000     -0.00027775
      0.10100000      0.00000000      0.00000000     -0.50500000     -0.00027903
      0.10200000      0.00000000      0.00000000     -0.51000000     -0.00028028
      0.10300000      0.00000000      0.00000000     -0.51500000     -0.00028151
      0.10400000      0.00000000      0.00000000     -0.52000000     -0.00028271
      0.10500000      0.00000000      0.00000000     -0.52500000     -0.00028388
      0.10600000      0.00000000      0.00000000     -0.53000000     -0.00028503
      0.10700000      0.00000000      0.00000000     -0.53500000     -0.00028615
      0.10800000      0.00000000      0.00000000     -0.54000000     -0.00028725
      0.10900000      0.00000000      0.00000000     -0.54500000     -0.00028832
      0.11000000      0.00000000      0.00000000     -0.55000000     -0.00028937
      0.11100000      0.00000000      0.00000000     -0.55500000     -0.00029039
      0.11200000      0.00000000      0.00000000     -0.56000000     -0.00029139
      0.11300000      0.00000000      0.00000000     -0.56500000     -0.00029236
      0.11400000      0.00000000      0.00000000     -0.57000000     -0.00029330
      0.11500000      0.00000000      0.00000000     -0.57500000     -0.00029423
      0.11600000      0.00000000      0.00000000     -0.58000000     -0.00029512
      0.11700000      0.00000000      0.00000000     -0.58500000     -0.00029600
      0.11800000      0.00000000      0.00000000     -0.59000000     -0.00029685
      0.11900000      0.00000000      0.00000000     -0.59500000     -0.00029767
      0.12000000      0.00000000      0.00000000     -0.60000000     -0.00029847
      0.12100000      0.00000000      0.00000000     -0.60500000     -0.00029925
      0.12200000      0.00000000      0.00000000     -0.61000000     -0.00030000
      0.12300000      0.00000000      0.00000000     -0.61500000     -0.00030073
      0.12400000      0.00000000      0.00000000     -0.62000000     -0.00030143
      0.12500000      0.00000000      0.00000000     -0.62500000     -0.00030211
      0.12600000      0.00000000      0.00000000     -0.63000000     -0.00030277
      0.12700000      0.00000000      0.00000000     -0.63500000     -0.00030340
      0.12800000      0.00000000      0.00000000     -0.64000000     -0.00030402
      0.12900000      0.00000000      0.00000000     -0.64500000     -0.00030460
      0.13000000      0.00000000      0.00000000     -0.65000000     -0.00030517
      0.13100000      0.00000000      0.00000000     -0.65500000     -0.00030571
      0.13200000      0.00000000      0.00000000     -0.66000000     -0.00030623
      0.13300000      0.00000000      0.00000000     -0.66500000     -0.00030673
      0.13400000      0.00000000      0.00000000     -0.67000000     -0.00030720
      0.13500000      0.00000000      0.00000000     -0.67500000     -0.00030765
      0.13600000      0.00000000      0.00000000     -0.68000000     -0.00030808
      0.13700000      0.00000000      0.00000000     -0.68500000     -0.00030848
      0.13800000      0.00000000      0.00000000     -0.69000000     -0.00030887
      0.13900000      0.00000000      0.00000000     -0.69500000     -0.00030923
      0.14000000      0.00000000      0.00000000     -0.70000000     -0.00030957
      0.14100000      0.00000000      0.00000000     -0.70500000     -0.00030989
      0.14200000      0.00000000      0.00000000     -0.71000000     -0.00031019
      0.14300000      0.00000000      0.00000000     -0.71500000     -0.00031046
      0.14400000      0.00000000      0.00000000     -0.72000000     -0.00031071
      0.14500000      0.00000000      0.00000000     -0.72500000     -0.00031095
      0.14600000      0.00000000      0.00000000     -0.73000000     -0.00031116
      0.14700000      0.00000000      0.00000000     -0.73500000     -0.00031135
      0.14800000      0.00000000      0.00000000     -0.74000000     -0.00031151
      0.14900000      0.00000000      0.00000000     -0.74500000     -0.00031166
      0.15000000      0.00000000      0.00000000     -0.75000000     -0.00031179
      0.15100000      0.00000000      0.00000000     -0.75500000     -0.00031189
      0.15200000      0.00000000      0.00000000     -0.76000000     -0.00031198
      0.15300000      0.00000000      0.00000000     -0.76500000     -0.00031204
      0.15400000      0.00000000      0.00000000     -0.77000000     -0.00031209
      0.15500000      0.00000000      0.00000000     -0.77500000     -0.00031211
      0.15600000      0.00000000      0.00000000     -0.78000000     -0.00031211
      0.15700000      0.00000000      0.00000000     -0.78500000     -0.00031210
      0.15800000      0.00000000      0.00000000     -0.79000000     -0.00031206
      0.15900000      0.00000000      0.00000000     -0.79500000     -0.00031200
      0.16000000      0.00000000      0.00000000     -0.80000000     -0.00031193
      0.16100000      0.00000000      0.00000000     -0.80500000     -0.00031183
      0.16200000      0.00000000      0.00000000     -0.81000000     -0.00031172
      0.16300000      0.00000000      0.00000000     -0.81500000     -0.00031158
      0.16400000      0.00000000      0.00000000     -0.82000000     -0.00031143
      0.16500000      0.00000000      0.00000000     -0.82500000     -0.00031125
      0.16600000      0.00000000      0.00000000     -0.83000000     -0.00031106
      0.16700000      0.00000000      0.00000000     -0.83500000     -0.00031085
      0.16800000      0.00000000      0.00000000     -0.84000000     -0.00031062
      0.16900000      0.00000000      0.00000000     -0.84500000     -0.00031037
      0.17000000      0.00000000      0.00000000     -0.85000000     -0.00031010
      0.17100000      0.00000000      0.00000000     -0.85500000     -0.00030981
      0.17200000      0.00000000      0.00000000     -0.86000000     -0.00030951
      0.17300000      0.00000000      0.00000000     -0.86500000     -0.00030919
      0.17400000      0.00000000      0.00000000     -0.87000000     -0.00030884
      0.17500000      0.00000000      0.00000000     -0.87500000     -0.00030848
      0.17600000      0.00000000      0.00000000     -0.88000000     -0.00030811
      0.17700000      0.00000000      0.00000000     -0.88500000     -0.00030771
      0.17800000      0.00000000      0.00000000     -0.89000000     -0.00030730
      0.17900000      0.00000000      0.00000000     -0.89500000     -0.00030686
      0.18000000      0.00000000      0.00000000     -0.90000000     -0.00030642
      0.18100000      0.00000000      0.00000000     -0.90500000     -0.00030595
      0.18200000      0.00000000      0.00000000     -0.91000000     -0.00030546
      0.18300000      0.00000000      0.00000000     -0.91500000     -0.00030496
      0.18400000      0.00000000      0.00000000     -0.92000000     -0.00030444
      0.18500000      0.00000000      0.00000000     -0.92500000     -0.00030391
      0.18600000      0.00000000      0.00000000     -0.93000000     -0.00030336
      0.18700000      0.00000000      0.00000000     -0.93500000     -0.00030279
      0.18800000      0.00000000      0.00000000     -0.94000000     -0.00030220
      0.18900000      0.00000000      0.00000000     -0.94500000     -0.00030160
      0.19000000      0.00000000      0.00000000     -0.95000000     -0.00030098
      0.19100000      0.00000000      0.00000000     -0.95500000     -0.00030034
      0.19200000      0.00000000      0.00000000     -0.96000000     -0.00029969
      0.19300000      0.00000000      0.00000000     -0.96500000     -0.00029902
      0.19400000      0.00000000      0.00000000     -0.97000000     -0.00029834
      0.19500000      0.00000000      0.00000000     -0.97500000     -0.00029764
      0.19600000      0.00000000      0.00000000     -0.98000000     -0.00029692
      0.19700000      0.00000000      0.00000000     -0.98500000     -0.00029619
      0.19800000      0.00000000      0.00000000     -0.99000000     -0.00029544
      0.19900000      0.00000000      0.00000000     -0.99500000     -0.00029468
      0.20000000      0.00000000      0.00000000     -1.00000000     -0.00029390
      0.20100000      0.00000000      0.00000000     -1.00500000     -0.00029310
      0.20200000      0.00000000      0.00000000     -1.01000000     -0.00029229
      0.20300000      0.00000000      0.00000000     -1.01500000     -0.00029147
      0.20400000      0.00000000      0.00000000     -1.02000000     -0.00029063
      0.20500000      0.00000000      0.00000000     -1.02500000     -0.00028978
      0.20600000      0.00000000      0.00000000     -1.03000000     -0.00028891
      0.20700000      0.00000000      0.00000000     -1.03500000     -0.00028802
      0.20800000      0.00000000      0.00000000     -1.04000000     -0.00028712
      0.20900000      0.00000000      0.00000000     -1.04500000     -0.00028621
      0.21000000      0.00000000      0.00000000     -1.05000000     -0.00028528
      0.21100000      0.00000000      0.00000000     -1.05500000     -0.00028434
      0.21200000      0.00000000      0.00000000     -1.06000000     -0.00028338
      0.21300000      0.00000000      0.00000000     -1.06500000     -0.00028241
      0.21400000      0.00000000      0.00000000     -1.07000000     -0.00028143
      0.21500000      0.00000000      0.00000000     -1.07500000     -0.00028043
      0.21600000      0.00000000      0.00000000     -1.08000000     -0.00027942
      0.21700000      0.00000000      0.00000000     -1.08500000     -0.00027839
      0.21800000      0.00000000      0.00000000     -1.09000000     -0.00027735
      0.21900000      0.00000000      0.00000000     -1.09500000     -0.00027630
      0.22000000      0.00000000      0.00000000     -1.10000000     -0.00027524
      0.22100000      0.00000000      0.00000000     -1.10500000     -0.00027416
      0.22200000      0.00000000      0.00000000     -1.11000000     -0.00027306
      0.22300000      0.00000000      0.00000000     -1.11500000     -0.00027196
      0.22400000      0.00000000      0.00000000     -1.12000000     -0.00027084
      0.22500000      0.00000000      0.00000000     -1.12500000     -0.00026971
      0.22600000      0.00000000      0.00000000     -1.13000000     -0.00026856
      0.22700000      0.00000000      0.00000000     -1.13500000     -0.00026741
      0.22800000      0.00000000      0.00000000     -1.14000000     -0.00026624
      0.22900000      0.00000000      0.00000000     -1.14500000     -0.00026506
      0.23000000      0.00000000      0.00000000     -1.15000000     -0.00026386
      0.23100000      0.00000000      0.00000000     -1.15500000     -0.00026266
      0.23200000      0.00000000      0.00000000     -1.16000000     -0.00026144
      0.23300000      0.00000000      0.00000000     -1.16500000     -0.00026021
      0.23400000      0.00000000      0.00000000     -1.17000000     -0.00025897
      0.23500000      0.00000000      0.00000000     -1.17500000     -0.00025771
      0.23600000      0.00000000      0.00000000     -1.18000000     -0.00025645
      0.23700000      0.00000000      0.00000000     -1.18500000     -0.00025517
      0.23800000      0.00000000      0.00000000     -1.19000000     -0.00025388
      0.23900000      0.00000000      0.00000000     -1.19500000     -0.00025258
      0.24000000      0.00000000      0.00000000     -1.20000000     -0.00025127
      0.24100000      0.00000000      0.00000000     -1.20500000     -0.00024995
      0.24200000      0.00000000      0.00000000     -1.21000000     -0.00024861
      0.24300000      0.00000000      0.00000000     -1.21500000     -0.00024727
      0.24400000      0.00000000      0.00000000     -1.22000000     -0.00024591
      0.24500000      0.00000000      0.00000000     -1.22500000     -0.00024455
      0.24600000      0.00000000      0.00000000     -1.23000000     -0.00024317
      0.24700000      0.00000000      0.00000000     -1.23500000     -0.00024178
      0.24800000      0.00000000      0.00000000     -1.24000000     -0.00024039
      0.24900000      0.00000000      0.00000000     -1.24500000     -0.00023898
      0.25000000      0.00000000      0.00000000     -1.25000000     -0.00023756
      0.25100000      0.00000000      0.00000000     -1.25500000     -0.00023613
      0.25200000      0.00000000      0.00000000     -1.26000000     -0.00023469
      0.25300000      0.00000000      0.00000000     -1.26500000     -0.00023324
      0.25400000      0.00000000      0.00000000     -1.27000000     -0.00023178
      0.25500000      0.00000000      0.00000000     -1.27500000     -0.00023031
      0.25600000      0.00000000      0.00000000     -1.28000000     -0.00022884
      0.25700000      0.00000000      0.00000000     -1.28500000     -0.00022735
      0.25800000      0.00000000      0.00000000     -1.29000000     -0.00022585
      0.25900000      0.00000000      0.00000000     -1.29500000     -0.00022434
      0.26000000      0.00000000      0.00000000     -1.30000000     -0.00022283
      0.26100000      0.00000000      0.00000000     -1.30500000     -0.00022130
      0.26200000      0.00000000      0.00000000     -1.31000000     -0.00021977
      0.26300000      0.00000000      0.00000000     -1.31500000     -0.00021822
      0.26400000      0.00000000      0.00000000     -1.32000000     -0.00021667
      0.26500000      0.00000000      0.00000000     -1.32500000     -0.00021511
      0.26600000      0.00000000      0.00000000     -1.33000000     -0.00021354
      0.26700000      0.00000000      0.00000000     -1.33500000     -0.00021196
      0.26800000      0.00000000      0.00000000     -1.34000000     -0.00021038
      0.26900000      0.00000000      0.00000000     -1.34500000     -0.00020878
      0.27000000      0.00000000      0.00000000     -1.35000000     -0.00020718
      0.27100000      0.00000000      0.00000000     -1.35500000     -0.00020557
      0.27200000      0.00000000      0.00000000     -1.36000000     -0.00020395
      0.27300000      0.00000000      0.00000000     -1.36500000     -0.00020232
      0.27400000      0.00000000      0.00000000     -1.37000000     -0.00020068
      0.27500000      0.00000000      0.00000000     -1.37500000     -0.00019904
      0.27600000      0.00000000      0.00000000     -1.38000000     -0.00019739
      0.27700000      0.00000000      0.00000000     -1.38500000     -0.00019573
      0.27800000      0.00000000      0.00000000     -1.39000000     -0.00019406
      0.27900000      0.00000000      0.00000000     -1.39500000     -0.00019239
      0.28000000      0.00000000      0.00000000     -1.40000000     -0.00019071
      0.28100000      0.00000000      0.00000000     -1.40500000     -0.00018902
      0.28200000      0.00000000      0.00000000     -1.41000000     -0.00018733
      0.28300000      0.00000000      0.00000000     -1.41500000     -0.00018562
      0.28400000      0.00000000      0.00000000     -1.42000000     -0.00018391
      0.28500000      0.00000000      0.00000000     -1.42500000     -0.00018220
      0.28600000      0.00000000      0.00000000     -1.43000000     -0.00018048
      0.28700000      0.00000000      0.00000000     -1.43500000     -0.00017875
      0.28800000      0.00000000      0.00000000     -1.44000000     -0.00017701
      0.28900000      0.00000000      0.00000000     -1.44500000     -0.00017527
      0.29000000      0.00000000      0.00000000     -1.45000000     -0.00017352
      0.29100000      0.00000000      0.00000000     -1.45500000     -0.00017176
      0.29200000      0.00000000      0.00000000     -1.46000000     -0.00017000
      0.29300000      0.00000000      0.00000000     -1.46500000     -0.00016823
      0.29400000      0.00000000      0.00000000     -1.47000000     -0.00016646
      0.29500000      0.00000000      0.00000000     -1.47500000     -0.00016468
      0.29600000      0.00000000      0.00000000     -1.48000000     -0.00016290
      0.29700000      0.00000000      0.00000000     -1.48500000     -0.00016110
      0.29800000      0.00000000      0.00000000     -1.49000000     -0.00015931
      0.29900000      0.00000000      0.00000000     -1.49500000     -0.00015751
      0.30000000      0.00000000      0.00000000     -1.50000000     -0.00015570
      0.30100000      0.00000000      0.00000000     -1.50500000     -0.00015389
      0.30200000      0.00000000      0.00000000     -1.51000000     -0.00015207
      0.30300000      0.00000000      0.00000000     -1.51500000     -0.00015024
      0.30400000      0.00000000      0.00000000     -1.52000000     -0.00014841
      0.30500000      0.00000000      0.00000000     -1.52500000     -0.00014658
      0.30600000      0.00000000      0.00000000     -1.53000000     -0.00014474
      0.30700000      0.00000000      0.00000000     -1.53500000     -0.00014290
      0.30800000      0.00000000      0.00000000     -1.54000000     -0.00014105
      0.30900000      0.00000000      0.00000000     -1.54500000     -0.00013920
      0.31000000      0.00000000      0.00000000     -1.55000000     -0.00013734
      0.31100000      0.00000000      0.00000000     -1.55500000     -0.00013548
      0.31200000      0.00000000      0.00000000     -1.56000000     -0.00013362
      0.31300000      0.00000000      0.00000000     -1.56500000     -0.00013175
      0.31400000      0.00000000      0.00000000     -1.57000000     -0.00012987
      0.31500000      0.00000000      0.00000000     -1.57500000     -0.00012799
      0.31600000      0.00000000      0.00000000     -1.58000000     -0.00012611
      0.31700000      0.00000000      0.00000000     -1.58500000     -0.00012422
      0.31800000      0.00000000      0.00000000     -1.59000000     -0.00012233
      0.31900000      0.00000000      0.00000000     -1.59500000     -0.00012044
      0.32000000      0.00000000      0.00000000     -1.60000000     -0.00011854
      0.32100000      0.00000000      0.00000000     -1.60500000     -0.00011664
      0.32200000      0.00000000      0.00000000     -1.61000000     -0.00011474
      0.32300000      0.00000000      0.00000000     -1.61500000     -0.00011283
      0.32400000      0.00000000      0.00000000     -1.62000000     -0.00011092
      0.32500000      0.00000000      0.00000000     -1.62500000     -0.00010901
      0.32600000      0.00000000      0.00000000     -1.63000000     -0.00010709
      0.32700000      0.00000000      0.00000000     -1.63500000     -0.00010517
      0.32800000      0.00000000      0.00000000     -1.64000000     -0.00010325
      0.32900000      0.00000000      0.00000000     -1.64500000     -0.00010132
      0.33000000      0.00000000      0.00000000     -1.65000000 -9.93904296E-05
      0.33100000      0.00000000      0.00000000     -1.65500000 -9.74590295E-05
      0.33200000      0.00000000      0.00000000     -1.66000000 -9.55250538E-05
      0.33300000      0.00000000      0.00000000     -1.66500000 -9.35885890E-05
      0.33400000      0.00000000      0.00000000     -1.67000000 -9.16497215E-05
      0.33500000      0.00000000      0.00000000     -1.67500000 -8.97085373E-05
      0.33600000      0.00000000      0.00000000     -1.68000000 -8.77651222E-05
      0.33700000      0.00000000      0.00000000     -1.68500000 -8.58195621E-05
      0.33800000      0.00000000      0.00000000     -1.69000000 -8.38719424E-05
      0.33900000      0.00000000      0.00000000     -1.69500000 -8.19223484E-05
      0.34000000      0.00000000      0.00000000     -1.70000000 -7.99708653E-05
      0.34100000      0.00000000      0.00000000     -1.70500000 -7.80175779E-05
      0.34200000      0.00000000      0.00000000     -1.71000000 -7.60625711E-05
      0.34300000      0.00000000      0.00000000     -1.71500000 -7.41059293E-05
      0.34400000      0.00000000      0.00000000     -1.72000000 -7.21477369E-05
      0.34500000      0.00000000      0.00000000     -1.72500000 -7.01880780E-05
      0.34600000      0.00000000      0.00000000     -1.73000000 -6.82270366E-05
      0.34700000      0.00000000      0.00000000     -1.73500000 -6.62646964E-05
      0.34800000      0.00000000      0.00000000     -1.74000000 -6.43011410E-05
      0.34900000      0.00000000      0.00000000     -1.74500000 -6.23364537E-05
      0.35000000      0.00000000      0.00000000     -1.75000000 -6.03707177E-05
      0.35100000      0.00000000      0.00000000     -1.75500000 -5.84040159E-05
      0.35200000      0.00000000      0.00000000     -1.76000000 -5.64364312E-05
      0.35300000      0.00000000      0.00000000     -1.76500000 -5.44680460E-05
      0.35400000      0.00000000      0.00000000     -1.77000000 -5.24989428E-05
      0.35500000      0.00000000      0.00000000     -1.77500000 -5.05292036E-05
      0.35600000      0.00000000      0.00000000     -1.78000000 -4.85589106E-05
      0.35700000      0.00000000      0.00000000     -1.78500000 -4.65881454E-05
      0.35800000      0.00000000      0.00000000     -1.79000000 -4.46169896E-05
      0.35900000      0.00000000      0.00000000     -1.79500000 -4.26455245E-05
      0.36000000      0.00000000      0.00000000     -1.80000000 -4.06738314E-05
      0.36100000      0.00000000      0.00000000     -1.80500000 -3.87019913E-05
      0.36200000      0.00000000      0.00000000     -1.81000000 -3.67300848E-05
      0.36300000      0.00000000      0.00000000     -1.81500000 -3.47581926E-05
      0.36400000      0.00000000      0.00000000     -1.82000000 -3.27863950E-05
      0.36500000      0.00000000      0.00000000     -1.82500000 -3.08147722E-05
      0.36600000      0.00000000      0.00000000     -1.83000000 -2.88434041E-05
      0.36700000      0.00000000      0.00000000     -1.83500000 -2.68723706E-05
      0.36800000      0.00000000      0.00000000     -1.84000000 -2.49017511E-05
      0.36900000      0.00000000      0.00000000     -1.84500000 -2.29316251E-05
      0.37000000      0.00000000      0.00000000     -1.85000000 -2.09620718E-05
      0.37100000      0.00000000      0.00000000     -1.85500000 -1.89931699E-05
      0.37200000      0.00000000      0.00000000     -1.86000000 -1.70249985E-05
      0.37300000      0.00000000      0.00000000     -1.86500000 -1.50576358E-05
      0.37400000      0.00000000      0.00000000     -1.87000000 -1.30911605E-05
      0.37500000      0.00000000      0.00000000     -1.87500000 -1.11256505E-05
      0.37600000      0.00000000      0.00000000     -1.88000000 -9.16118383E-06
      0.37700000      0.00000000      0.00000000     -1.88500000 -7.19783826E-06
      0.37800000      0.00000000      0.00000000     -1.89000000 -5.23569131E-06
      0.37900000      0.00000000      0.00000000     -1.89500000 -3.27482032E-06
      0.38000000      0.00000000      0.00000000     -1.90000000 -1.31530244E-06
      0.38100000      0.00000000      0.00000000     -1.90500000 +6.42785415E-07
      0.38200000      0.00000000      0.00000000     -1.91000000 +2.59936650E-06
      0.38300000      0.00000000      0.00000000     -1.91500000 +4.55436429E-06
      0.38400000      0.00000000      0.00000000     -1.92000000 +6.50770247E-06
      0.38500000      0.00000000      0.00000000     -1.92500000 +8.45930491E-06
      0.38600000      0.00000000      0.00000000     -1.93000000 +1.04090957E-05
      0.38700000      0.00000000      0.00000000     -1.93500000 +1.23569991E-05
      0.38800000      0.00000000      0.00000000     -1.94000000 +1.43029396E-05
      0.38900000      0.00000000      0.00000000     -1.94500000 +1.62468420E-05
      0.39000000      0.00000000      0.00000000     -1.95000000 +1.81886310E-05
      0.39100000      0.00000000      0.00000000     -1.95500000 +2.01282319E-05
      0.39200000      0.00000000      0.00000000     -1.96000000 +2.20655699E-05
      0.39300000      0.00000000      0.00000000     -1.96500000 +2.40005705E-05
      0.39400000      0.00000000      0.00000000     -1.97000000 +2.59331595E-05
      0.39500000      0.00000000      0.00000000     -1.97500000 +2.78632627E-05
      0.39600000      0.00000000      0.00000000     -1.98000000 +2.97908063E-05
      0.39700000      0.00000000      0.00000000     -1.98500000 +3.17157166E-05
      0.39800000      0.00000000      0.00000000     -1.99000000 +3.36379201E-05
      0.39900000      0.00000000      0.00000000     -1.99500000 +3.55573436E-05
      0.40000000      0.00000000      0.00000000     -2.00000000 +3.74739140E-05
      0.40100000      0.00000000      0.00000000     -2.00500000 +3.93875585E-05
      0.40200000      0.00000000      0.00000000     -2.01000000 +4.12982044E-05
      0.40300000      0.00000000      0.00000000     -2.01500000 +4.32057792E-05
      0.40400000      0.00000000      0.00000000     -2.02000000 +4.51102107E-05
      0.40500000      0.00000000      0.00000000     -2.02500000 +4.70114269E-05
      0.40600000      0.00000000      0.00000000     -2.03000000 +4.89093560E-05
      0.40700000      0.00000000      0.00000000     -2.03500000 +5.08039262E-05
      0.40800000      0.00000000      0.00000000     -2.04000000 +5.26950663E-05
      0.40900000      0.00000000      0.00000000     -2.04500000 +5.45827049E-05
      0.41000000      0.00000000      0.00000000     -2.05000000 +5.64667710E-05
      0.41100000      0.00000000      0.00000000     -2.05500000 +5.83471939E-05
      0.41200000      0.00000000      0.00000000     -2.06000000 +6.02239029E-05
      0.41300000      0.00000000      0.00000000     -2.06500000 +6.20968276E-05
      0.41400000      0.00000000      0.00000000     -2.07000000 +6.39658978E-05
      0.41500000      0.00000000      0.00000000     -2.07500000 +6.58310436E-05
      0.41600000      0.00000000      0.00000000     -2.08000000 +6.76921951E-05
      0.41700000      0.00000000      0.00000000     -2.08500000 +6.95492828E-05
      0.41800000      0.00000000      0.00000000     -2.09000000 +7.14022372E-05
      0.41900000      0.00000000      0.00000000     -2.09500000 +7.32509892E-05
      0.42000000      0.00000000      0.00000000     -2.10000000 +7.50954699E-05
      0.42100000      0.00000000      0.00000000     -2.10500000 +7.69356104E-05
      0.42200000      0.00000000      0.00000000     -2.11000000 +7.87713422E-05
      0.42300000      0.00000000      0.00000000     -2.11500000 +8.06025969E-05
      0.42400000      0.00000000      0.00000000     -2.12000000 +8.24293064E-05
      0.42500000      0.00000000      0.00000000     -2.12500000 +8.42514027E-05
      0.42600000      0.00000000      0.00000000     -2.13000000 +8.60688181E-05
      0.42700000      0.00000000      0.00000000     -2.13500000 +8.78814851E-05
      0.42800000      0.00000000      0.00000000     -2.14000000 +8.96893362E-05
      0.42900000      0.00000000      0.00000000     -2.14500000 +9.14923044E-05
      0.43000000      0.00000000      0.00000000     -2.15000000 +9.32903227E-05
      0.43100000      0.00000000      0.00000000     -2.15500000 +9.50833244E-05
      0.43200000      0.00000000      0.00000000     -2.16000000 +9.68712429E-05
      0.43300000      0.00000000      0.00000000     -2.16500000 +9.86540120E-05
      0.43400000      0.00000000      0.00000000     -2.17000000      0.00010043
      0.43500000      0.00000000      0.00000000     -2.17500000      0.00010220
      0.43600000      0.00000000      0.00000000     -2.18000000      0.00010397
      0.43700000      0.00000000      0.00000000     -2.18500000      0.00010573
      0.43800000      0.00000000      0.00000000     -2.19000000      0.00010749
      0.43900000      0.00000000      0.00000000     -2.19500000      0.00010924
      0.44000000      0.00000000      0.00000000     -2.20000000      0.00011098
      0.44100000      0.00000000      0.00000000     -2.20500000      0.00011272
      0.44200000      0.00000000      0.00000000     -2.21000000      0.00011446
      0.44300000      0.00000000      0.00000000     -2.21500000      0.00011618
      0.44400000      0.00000000      0.00000000     -2.22000000      0.00011791
      0.44500000      0.00000000      0.00000000     -2.22500000      0.00011962
      0.44600000      0.00000000      0.00000000     -2.23000000      0.00012133
      0.44700000      0.00000000      0.00000000     -2.23500000      0.00012304
      0.44800000      0.00000000      0.00000000     -2.24000000      0.00012473
      0.44900000      0.00000000      0.00000000     -2.24500000      0.00012642
      0.45000000      0.00000000      0.00000000     -2.25000000      0.00012811
      0.45100000      0.00000000      0.00000000     -2.25500000      0.00012979
      0.45200000      0.00000000      0.00000000     -2.26000000      0.00013146
      0.45300000      0.00000000      0.00000000     -2.26500000      0.00013313
      0.45400000      0.00000000      0.00000000     -2.27000000      0.00013479
      0.45500000      0.00000000      0.00000000     -2.27500000      0.00013644
      0.45600000      0.00000000      0.00000000     -2.28000000      0.00013809
      0.45700000      0.00000000      0.00000000     -2.28500000      0.00013973
      0.45800000      0.00000000      0.00000000     -2.29000000      0.00014136
      0.45900000      0.00000000      0.00000000     -2.29500000      0.00014299
      0.46000000      0.00000000      0.00000000     -2.30000000      0.00014461
      0.46100000      0.00000000      0.00000000     -2.30500000      0.00014622
      0.46200000      0.00000000      0.00000000     -2.31000000      0.00014782
      0.46300000      0.00000000      0.00000000     -2.31500000      0.00014942
      0.46400000      0.00000000      0.00000000     -2.32000000      0.00015101
      0.46500000      0.00000000      0.00000000     -2.32500000      0.00015260
      0.46600000      0.00000000      0.00000000     -2.33000000      0.00015417
      0.46700000      0.00000000      0.00000000     -2.33500000      0.00015574
      0.46800000      0.00000000      0.00000000     -2.34000000      0.00015731
      0.46900000      0.00000000      0.00000000     -2.34500000      0.00015886
      0.47000000      0.00000000      0.00000000     -2.35000000      0.00016041
      0.47100000      0.00000000      0.00000000     -2.35500000      0.00016195
      0.47200000      0.00000000      0.00000000     -2.36000000      0.00016348
      0.47300000      0.00000000      0.00000000     -2.36500000      0.00016501
      0.47400000      0.00000000      0.00000000     -2.37000000      0.00016652
      0.47500000      0.00000000      0.00000000     -2.37500000      0.00016803
      0.47600000      0.00000000      0.00000000     -2.38000000      0.00016953
      0.47700000      0.00000000      0.00000000     -2.38500000      0.00017103
      0.47800000      0.00000000      0.00000000     -2.39000000      0.00017251
      0.47900000      0.00000000      0.00000000     -2.39500000      0.00017399
      0.48000000      0.00000000      0.00000000     -2.40000000      0.00017546
      0.48100000      0.00000000      0.00000000     -2.40500000      0.00017692
      0.48200000      0.00000000      0.00000000     -2.41000000      0.00017838
      0.48300000      0.00000000      0.00000000     -2.41500000      0.00017982
      0.48400000      0.00000000      0.00000000     -2.42000000      0.00018126
      0.48500000      0.00000000      0.00000000     -2.42500000      0.00018269
      0.48600000      0.00000000      0.00000000     -2.43000000      0.00018411
      0.48700000      0.00000000      0.00000000     -2.43500000      0.00018552
      0.48800000      0.00000000      0.00000000     -2.44000000      0.00018692
      0.48900000      0.00000000      0.00000000     -2.44500000      0.00018832
      0.49000000      0.00000000      0.00000000     -2.45000000      0.00018970
      0.49100000      0.00000000      0.00000000     -2.45500000      0.00019108
      0.49200000      0.00000000      0.00000000     -2.46000000      0.00019245
      0.49300000      0.00000000      0.00000000     -2.46500000      0.00019381
      0.49400000      0.00000000      0.00000000     -2.47000000      0.00019516
      0.49500000      0.00000000      0.00000000     -2.47500000      0.00019650
      0.49600000      0.00000000      0.00000000     -2.48000000      0.00019784
      0.49700000      0.00000000      0.00000000     -2.48500000      0.00019916
      0.49800000      0.00000000      0.00000000     -2.49000000      0.00020048
      0.49900000      0.00000000      0.00000000     -2.49500000      0.00020178
      0.50000000      0.00000000      0.00000000     -2.50000000      0.00020308
      0.50100000      0.00000000      0.00000000     -2.50500000      0.00020437
      0.50200000      0.00000000      0.00000000     -2.51000000      0.00020565
      0.50300000      0.00000000      0.00000000     -2.51500000      0.00020692
      0.50400000      0.00000000      0.00000000     -2.52000000      0.00020818
      0.50500000      0.00000000      0.00000000     -2.52500000      0.00020943
      0.50600000      0.00000000      0.00000000     -2.53000000      0.00021067
      0.50700000      0.00000000      0.00000000     -2.53500000      0.00021190
      0.50800000      0.00000000      0.00000000     -2.54000000      0.00021312
      0.50900000      0.00000000      0.00000000     -2.54500000      0.00021433
      0.51000000      0.00000000      0.00000000     -2.55000000      0.00021554
      0.51100000      0.00000000      0.00000000     -2.55500000      0.00021673
      0.51200000      0.00000000      0.00000000     -2.56000000      0.00021791
      0.51300000      0.00000000      0.00000000     -2.56500000      0.00021909
      0.51400000      0.00000000      0.00000000     -2.57000000      0.00022025
      0.51500000      0.00000000      0.00000000     -2.57500000      0.00022141
      0.51600000      0.00000000      0.00000000     -2.58000000      0.00022255
      0.51700000      0.00000000      0.00000000     -2.58500000      0.00022368
      0.51800000      0.00000000      0.00000000     -2.59000000      0.00022481
      0.51900000      0.00000000      0.00000000     -2.59500000      0.00022592
      0.52000000      0.00000000      0.00000000     -2.60000000      0.00022703
      0.52100000      0.00000000      0.00000000     -2.60500000      0.00022812
      0.52200000      0.00000000      0.00000000     -2.61000000      0.00022920
      0.52300000      0.00000000      0.00000000     -2.61500000      0.00023028
      0.52400000      0.00000000      0.00000000     -2.62000000      0.00023134
      0.52500000      0.00000000      0.00000000     -2.62500000      0.00023239
      0.52600000      0.00000000      0.00000000     -2.63000000      0.00023343
      0.52700000      0.00000000      0.00000000     -2.63500000      0.00023446
      0.52800000      0.00000000      0.00000000     -2.64000000      0.00023548
      0.52900000      0.00000000      0.00000000     -2.64500000      0.00023649
      0.53000000      0.00000000      0.00000000     -2.65000000      0.00023749
      0.53100000      0.00000000      0.00000000     -2.65500000      0.00023848
      0.53200000      0.00000000      0.00000000     -2.66000000      0.00023946
      0.53300000      0.00000000      0.00000000     -2.66500000      0.00024043
      0.53400000      0.00000000      0.00000000     -2.67000000      0.00024138
      0.53500000      0.00000000      0.00000000     -2.67500000      0.00024233
      0.53600000      0.00000000      0.00000000     -2.68000000      0.00024326
      0.53700000      0.00000000      0.00000000     -2.68500000      0.00024419
      0.53800000      0.00000000      0.00000000     -2.69000000      0.00024510
      0.53900000      0.00000000      0.00000000     -2.69500000      0.00024600
      0.54000000      0.00000000      0.00000000     -2.70000000      0.00024689
      0.54100000      0.00000000      0.00000000     -2.70500000      0.00024777
      0.54200000      0.00000000      0.00000000     -2.71000000      0.00024864
      0.54300000      0.00000000      0.00000000     -2.71500000      0.00024950
      0.54400000      0.00000000      0.00000000     -2.72000000      0.00025034
      0.54500000      0.00000000      0.00000000     -2.72500000      0.00025118
      0.54600000      0.00000000      0.00000000     -2.73000000      0.00025200
      0.54700000      0.00000000      0.00000000     -2.73500000      0.00025281
      0.54800000      0.00000000      0.00000000     -2.74000000      0.00025361
      0.54900000      0.00000000      0.00000000     -2.74500000      0.00025440
      0.55000000      0.00000000      0.00000000     -2.75000000      0.00025518
      0.55100000      0.00000000      0.00000000     -2.75500000      0.00025594
      0.55200000      0.00000000      0.00000000     -2.76000000      0.00025670
      0.55300000      0.00000000      0.00000000     -2.76500000      0.00025744
      0.55400000      0.00000000      0.00000000     -2.77000000      0.00025817
      0.55500000      0.00000000      0.00000000     -2.77500000      0.00025889
      0.55600000      0.00000000      0.00000000     -2.78000000      0.00025960
      0.55700000      0.00000000      0.00000000     -2.78500000      0.00026029
      0.55800000      0.00000000      0.00000000     -2.79000000      0.00026097
      0.55900000      0.00000000      0.00000000     -2.79500000      0.00026165
      0.56000000      0.00000000      0.00000000     -2.80000000      0.00026230
      0.56100000      0.00000000      0.00000000     -2.80500000      0.00026295
      0.56200000      0.00000000      0.00000000     -2.81000000      0.00026359
      0.56300000      0.00000000      0.00000000     -2.81500000      0.00026421
      0.56400000      0.00000000      0.00000000     -2.82000000      0.00026482
      0.56500000      0.00000000      0.00000000     -2.82500000      0.00026542
      0.56600000      0.00000000      0.00000000     -2.83000000      0.00026601
      0.56700000      0.00000000      0.00000000     -2.83500000      0.00026658
      0.56800000      0.00000000      0.00000000     -2.84000000      0.00026714
      0.56900000      0.00000000      0.00000000     -2.84500000      0.00026769
      0.57000000      0.00000000      0.00000000     -2.85000000      0.00026823
      0.57100000      0.00000000      0.00000000     -2.85500000      0.00026875
      0.57200000      0.00000000      0.00000000     -2.86000000      0.00026927
      0.57300000      0.00000000      0.00000000     -2.86500000      0.00026977
      0.57400000      0.00000000      0.00000000     -2.87000000      0.00027025
      0.57500000      0.00000000      0.00000000     -2.87500000      0.00027073
      0.57600000      0.00000000      0.00000000     -2.88000000      0.00027119
      0.57700000      0.00000000      0.00000000     -2.88500000      0.00027164
      0.57800000      0.00000000      0.00000000     -2.89000000      0.00027208
      0.57900000      0.00000000      0.00000000     -2.89500000      0.00027250
      0.58000000      0.00000000      0.00000000     -2.90000000      0.00027291
      0.58100000      0.00000000      0.00000000     -2.90500000      0.00027331
      0.58200000      0.00000000      0.00000000     -2.91000000      0.00027370
      0.58300000      0.00000000      0.00000000     -2.91500000      0.00027407
      0.58400000      0.00000000      0.00000000     -2.92000000      0.00027443
      0.58500000      0.00000000      0.00000000     -2.92500000      0.00027478
      0.58600000      0.00000000      0.00000000     -2.93000000      0.00027511
      0.58700000      0.00000000      0.00000000     -2.93500000      0.00027543
      0.58800000      0.00000000      0.00000000     -2.94000000      0.00027574
      0.58900000      0.00000000      0.00000000     -2.94500000      0.00027603
      0.59000000      0.00000000      0.00000000     -2.95000000      0.00027632
      0.59100000      0.00000000      0.00000000     -2.95500000      0.00027658
      0.59200000      0.00000000      0.00000000     -2.96000000      0.00027684
      0.59300000      0.00000000      0.00000000     -2.96500000      0.00027708
      0.59400000      0.00000000      0.00000000     -2.97000000      0.00027731
      0.59500000      0.00000000      0.00000000     -2.97500000      0.00027753
      0.59600000      0.00000000      0.00000000     -2.98000000      0.00027773
      0.59700000      0.00000000      0.00000000     -2.98500000      0.00027792
      0.59800000      0.00000000      0.00000000     -2.99000000      0.00027809
      0.59900000      0.00000000      0.00000000     -2.99500000      0.00027825
      0.60000000      0.00000000      0.00000000     -3.00000000      0.00027840
      0.60100000      0.00000000      0.00000000     -3.00500000      0.00027854
      0.60200000      0.00000000      0.00000000     -3.01000000      0.00027866
      0.60300000      0.00000000      0.00000000     -3.01500000      0.00027876
      0.60400000      0.00000000      0.00000000     -3.02000000      0.00027886
      0.60500000      0.00000000      0.00000000     -3.02500000      0.00027894
      0.60600000      0.00000000      0.00000000     -3.03000000      0.00027901
      0.60700000      0.00000000      0.00000000     -3.03500000      0.00027906
      0.60800000      0.00000000      0.00000000     -3.04000000      0.00027910
      0.60900000      0.00000000      0.00000000     -3.04500000      0.00027912
      0.61000000      0.00000000      0.00000000     -3.05000000      0.00027913
      0.61100000      0.00000000      0.00000000     -3.05500000      0.00027913
      0.61200000      0.00000000      0.00000000     -3.06000000      0.00027911
      0.61300000      0.00000000      0.00000000     -3.06500000      0.00027908
      0.61400000      0.00000000      0.00000000     -3.07000000      0.00027904
      0.61500000      0.00000000      0.00000000     -3.07500000      0.00027898
      0.61600000      0.00000000      0.00000000     -3.08000000      0.00027891
      0.61700000      0.00000000      0.00000000     -3.08500000      0.00027882
      0.61800000      0.00000000      0.00000000     -3.09000000      0.00027872
      0.61900000      0.00000000      0.00000000     -3.09500000      0.00027861
      0.62000000      0.00000000      0.00000000     -3.10000000      0.00027848
      0.62100000      0.00000000      0.00000000     -3.10500000      0.00027833
      0.62200000      0.00000000      0.00000000     -3.11000000      0.00027818
      0.62300000      0.00000000      0.00000000     -3.11500000      0.00027801
      0.62400000      0.00000000      0.00000000     -3.12000000      0.00027782
      0.62500000      0.00000000      0.00000000     -3.12500000      0.00027762
      0.62600000      0.00000000      0.00000000     -3.13000000      0.00027740
      0.62700000      0.00000000      0.00000000     -3.13500000      0.00027718
      0.62800000      0.00000000      0.00000000     -3.14000000      0.00027693
      0.62900000      0.00000000      0.00000000     -3.14500000      0.00027667
      0.63000000      0.00000000      0.00000000     -3.15000000      0.00027640
      0.63100000      0.00000000      0.00000000     -3.15500000      0.00027612
      0.63200000      0.00000000      0.00000000     -3.16000000      0.00027581
      0.63300000      0.00000000      0.00000000     -3.16500000      0.00027550
      0.63400000      0.00000000      0.00000000     -3.17000000      0.00027517
      0.63500000      0.00000000      0.00000000     -3.17500000      0.00027482
      0.63600000      0.00000000      0.00000000     -3.18000000      0.00027446
      0.63700000      0.00000000      0.00000000     -3.18500000      0.00027409
      0.63800000      0.00000000      0.00000000     -3.19000000      0.00027370
      0.63900000      0.00000000      0.00000000     -3.19500000      0.00027329
      0.64000000      0.00000000      0.00000000     -3.20000000      0.00027288
      0.64100000      0.00000000      0.00000000     -3.20500000      0.00027244
      0.64200000      0.00000000      0.00000000     -3.21000000      0.00027199
      0.64300000      0.00000000      0.00000000     -3.21500000      0.00027153
      0.64400000      0.00000000      0.00000000     -3.22000000      0.00027105
      0.64500000      0.00000000      0.00000000     -3.22500000      0.00027056
      0.64600000      0.00000000      0.00000000     -3.23000000      0.00027005
      0.64700000      0.00000000      0.00000000     -3.23500000      0.00026953
      0.64800000      0.00000000      0.00000000     -3.24000000      0.00026899
      0.64900000      0.00000000      0.00000000     -3.24500000      0.00026844
      0.65000000      0.00000000      0.00000000     -3.25000000      0.00026787
      0.65100000      0.00000000      0.00000000     -3.25500000      0.00026729
      0.65200000      0.00000000      0.00000000     -3.26000000      0.00026669
      0.65300000      0.00000000      0.00000000     -3.26500000      0.00026608
      0.65400000      0.00000000      0.00000000     -3.27000000      0.00026545
      0.65500000      0.00000000      0.00000000     -3.27500000      0.00026481
      0.65600000      0.00000000      0.00000000     -3.28000000      0.00026415
      0.65700000      0.00000000      0.00000000     -3.28500000      0.00026347
      0.65800000      0.00000000      0.00000000     -3.29000000      0.00026278
      0.65900000      0.00000000      0.00000000     -3.29500000      0.00026208
      0.66000000      0.00000000      0.00000000     -3.30000000      0.00026136
      0.66100000      0.00000000      0.00000000     -3.30500000      0.00026062
      0.66200000      0.00000000      0.00000000     -3.31000000      0.00025987
      0.66300000      0.00000000      0.00000000     -3.31500000      0.00025911
      0.66400000      0.00000000      0.00000000     -3.32000000      0.00025833
      0.66500000      0.00000000      0.00000000     -3.32500000      0.00025753
      0.66600000      0.00000000      0.00000000     -3.33000000      0.00025672
      0.66700000      0.00000000      0.00000000     -3.33500000      0.00025589
      0.66800000      0.00000000      0.00000000     -3.34000000      0.00025505
      0.66900000      0.00000000      0.00000000     -3.34500000      0.00025419
      0.67000000      0.00000000      0.00000000     -3.35000000      0.00025331
      0.67100000      0.00000000      0.00000000     -3.35500000      0.00025243
      0.67200000      0.00000000      0.00000000     -3.36000000      0.00025152
      0.67300000      0.00000000      0.00000000     -3.36500000      0.00025060
      0.67400000      0.00000000      0.00000000     -3.37000000      0.00024966
      0.67500000      0.00000000      0.00000000     -3.37500000      0.00024871
      0.67600000      0.00000000      0.00000000     -3.38000000      0.00024774
      0.67700000      0.00000000      0.00000000     -3.38500000      0.00024676
      0.67800000      0.00000000      0.00000000     -3.39000000      0.00024576
      0.67900000      0.00000000      0.00000000     -3.39500000      0.00024474
      0.68000000      0.00000000      0.00000000     -3.40000000      0.00024371
      0.68100000      0.00000000      0.00000000     -3.40500000      0.00024267
      0.68200000      0.00000000      0.00000000     -3.41000000      0.00024160
      0.68300000      0.00000000      0.00000000     -3.41500000      0.00024053
      0.68400000      0.00000000      0.00000000     -3.42000000      0.00023943
      0.68500000      0.00000000      0.00000000     -3.42500000      0.00023832
      0.68600000      0.00000000      0.00000000     -3.43000000      0.00023719
      0.68700000      0.00000000      0.00000000     -3.43500000      0.00023605
      0.68800000      0.00000000      0.00000000     -3.44000000      0.00023489
      0.68900000      0.00000000      0.00000000     -3.44500000      0.00023372
      0.69000000      0.00000000      0.00000000     -3.45000000      0.00023253
      0.69100000      0.00000000      0.00000000     -3.45500000      0.00023132
      0.69200000      0.00000000      0.00000000     -3.46000000      0.00023010
      0.69300000      0.00000000      0.00000000     -3.46500000      0.00022886
      0.69400000      0.00000000      0.00000000     -3.47000000      0.00022761
      0.69500000      0.00000000      0.00000000     -3.47500000      0.00022634
      0.69600000      0.00000000      0.00000000     -3.48000000      0.00022505
      0.69700000      0.00000000      0.00000000     -3.48500000      0.00022375
      0.69800000      0.00000000      0.00000000     -3.49000000      0.00022243
      0.69900000      0.00000000      0.00000000     -3.49500000      0.00022110
      0.70000000      0.00000000      0.00000000     -3.50000000      0.00021975
      0.70100000      0.00000000      0.00000000     -3.50500000      0.00021838
      0.70200000      0.00000000      0.00000000     -3.51000000      0.00021699
      0.70300000      0.00000000      0.00000000     -3.51500000      0.00021560
      0.70400000      0.00000000      0.00000000     -3.52000000      0.00021418
      0.70500000      0.00000000      0.00000000     -3.52500000      0.00021275
      0.70600000      0.00000000      0.00000000     -3.53000000      0.00021130
      0.70700000      0.00000000      0.00000000     -3.53500000      0.00020983
      0.70800000      0.00000000      0.00000000     -3.54000000      0.00020835
      0.70900000      0.00000000      0.00000000     -3.54500000      0.00020685
      0.71000000      0.00000000      0.00000000     -3.55000000      0.00020534
      0.71100000      0.00000000      0.00000000     -3.55500000      0.00020381
      0.71200000      0.00000000      0.00000000     -3.56000000      0.00020226
      0.71300000      0.00000000      0.00000000     -3.56500000      0.00020070
      0.71400000      0.00000000      0.00000000     -3.57000000      0.00019912
      0.71500000      0.00000000      0.00000000     -3.57500000      0.00019752
      0.71600000      0.00000000      0.00000000     -3.58000000      0.00019591
      0.71700000      0.00000000      0.00000000     -3.58500000      0.00019428
      0.71800000      0.00000000      0.00000000     -3.59000000      0.00019263
      0.71900000      0.00000000      0.00000000     -3.59500000      0.00019097
      0.72000000      0.00000000      0.00000000     -3.60000000      0.00018929
      0.72100000      0.00000000      0.00000000     -3.60500000      0.00018760
      0.72200000      0.00000000      0.00000000     -3.61000000      0.00018588
      0.72300000      0.00000000      0.00000000     -3.61500000      0.00018415
      0.72400000      0.00000000      0.00000000     -3.62000000      0.00018241
      0.72500000      0.00000000      0.00000000     -3.62500000      0.00018065
      0.72600000      0.00000000      0.00000000     -3.63000000      0.00017887
      0.72700000      0.00000000      0.00000000     -3.63500000      0.00017707
      0.72800000      0.00000000      0.00000000     -3.64000000      0.00017526
      0.72900000      0.00000000      0.00000000     -3.64500000      0.00017343
      0.73000000      0.00000000      0.00000000     -3.65000000      0.00017158
      0.73100000      0.00000000      0.00000000     -3.65500000      0.00016972
      0.73200000      0.00000000      0.00000000     -3.66000000      0.00016784
      0.73300000      0.00000000      0.00000000     -3.66500000      0.00016595
      0.73400000      0.00000000      0.00000000     -3.67000000      0.00016403
      0.73500000      0.00000000      0.00000000     -3.67500000      0.00016210
      0.73600000      0.00000000      0.00000000     -3.68000000      0.00016016
      0.73700000      0.00000000      0.00000000     -3.68500000      0.00015819
      0.73800000      0.00000000      0.00000000     -3.69000000      0.00015621
      0.73900000      0.00000000      0.00000000     -3.69500000      0.00015422
      0.74000000      0.00000000      0.00000000     -3.70000000      0.00015220
      0.74100000      0.00000000      0.00000000     -3.70500000      0.00015017
      0.74200000      0.00000000      0.00000000     -3.71000000      0.00014813
      0.74300000      0.00000000      0.00000000     -3.71500000      0.00014606
      0.74400000      0.00000000      0.00000000     -3.72000000      0.00014398
      0.74500000      0.00000000      0.00000000     -3.72500000      0.00014188
      0.74600000      0.00000000      0.00000000     -3.73000000      0.00013976
      0.74700000      0.00000000      0.00000000     -3.73500000      0.00013763
      0.74800000      0.00000000      0.00000000     -3.74000000      0.00013548
      0.74900000      0.00000000      0.00000000     -3.74500000      0.00013332
      0.75000000      0.00000000      0.00000000     -3.75000000      0.00013113
      0.75100000      0.00000000      0.00000000     -3.75500000      0.00012893
      0.75200000      0.00000000      0.00000000     -3.76000000      0.00012671
      0.75300000      0.00000000      0.00000000     -3.76500000      0.00012448
      0.75400000      0.00000000      0.00000000     -3.77000000      0.00012223
      0.75500000      0.00000000      0.00000000     -3.77500000      0.00011996
      0.75600000      0.00000000      0.00000000     -3.78000000      0.00011767
      0.75700000      0.00000000      0.00000000     -3.78500000      0.00011537
      0.75800000      0.00000000      0.00000000     -3.79000000      0.00011305
      0.75900000      0.00000000      0.00000000     -3.79500000      0.00011071
      0.76000000      0.00000000      0.00000000     -3.80000000      0.00010836
      0.76100000      0.00000000      0.00000000     -3.80500000      0.00010599
      0.76200000      0.00000000      0.00000000     -3.81000000      0.00010360
      0.76300000      0.00000000      0.00000000     -3.81500000      0.00010119
      0.76400000      0.00000000      0.00000000     -3.82000000 +9.87691518E-05
      0.76500000      0.00000000      0.00000000     -3.82500000 +9.63288222E-05
      0.76600000      0.00000000      0.00000000     -3.83000000 +9.38712781E-05
      0.76700000      0.00000000      0.00000000     -3.83500000 +9.13965082E-05
      0.76800000      0.00000000      0.00000000     -3.84000000 +8.89045018E-05
      0.76900000      0.00000000      0.00000000     -3.84500000 +8.63952479E-05
      0.77000000      0.00000000      0.00000000     -3.85000000 +8.38687358E-05
      0.77100000      0.00000000      0.00000000     -3.85500000 +8.13249549E-05
      0.77200000      0.00000000      0.00000000     -3.86000000 +7.87638948E-05
      0.77300000      0.00000000      0.00000000     -3.86500000 +7.61855451E-05
      0.77400000      0.00000000      0.00000000     -3.87000000 +7.35898955E-05
      0.77500000      0.00000000      0.00000000     -3.87500000 +7.09769359E-05
      0.77600000      0.00000000      0.00000000     -3.88000000 +6.83466564E-05
      0.77700000      0.00000000      0.00000000     -3.88500000 +6.56990469E-05
      0.77800000      0.00000000      0.00000000     -3.89000000 +6.30340979E-05
      0.77900000      0.00000000      0.00000000     -3.89500000 +6.03517995E-05
      0.78000000      0.00000000      0.00000000     -3.90000000 +5.76521423E-05
      0.78100000      0.00000000      0.00000000     -3.90500000 +5.49351169E-05
      0.78200000      0.00000000      0.00000000     -3.91000000 +5.22007140E-05
      0.78300000      0.00000000      0.00000000     -3.91500000 +4.94489244E-05
      0.78400000      0.00000000      0.00000000     -3.92000000 +4.66797389E-05
      0.78500000      0.00000000      0.00000000     -3.92500000 +4.38931488E-05
      0.78600000      0.00000000      0.00000000     -3.93000000 +4.10891451E-05
      0.78700000      0.00000000      0.00000000     -3.93500000 +3.82677192E-05
      0.78800000      0.00000000      0.00000000     -3.94000000 +3.54288624E-05
      0.78900000      0.00000000      0.00000000     -3.94500000 +3.25725662E-05
      0.79000000      0.00000000      0.00000000     -3.95000000 +2.96988223E-05
      0.79100000      0.00000000      0.00000000     -3.95500000 +2.68076224E-05
      0.79200000      0.00000000      0.00000000     -3.96000000 +2.38989585E-05
      0.79300000      0.00000000      0.00000000     -3.96500000 +2.09728224E-05
      0.79400000      0.00000000      0.00000000     -3.97000000 +1.80292062E-05
      0.79500000      0.00000000      0.00000000     -3.97500000 +1.50681023E-05
      0.79600000      0.00000000      0.00000000     -3.98000000 +1.20895028E-05
      0.79700000      0.00000000      0.00000000     -3.98500000 +9.09340021E-06
      0.79800000      0.00000000      0.00000000     -3.99000000 +6.07978709E-06
      0.79900000      0.00000000      0.00000000     -3.99500000 +3.04865610E-06
      0.80000000      0.00000000      0.00000000     -4.00000000      0.00000000
      0.80100000      0.00000000      0.00000000     -4.00500000 -3.06618832E-06
      0.80200000      0.00000000      0.00000000     -4.01000000 -6.14991587E-06
      0.80300000      0.00000000      0.00000000     -4.01500000 -9.25118953E-06
      0.80400000      0.00000000      0.00000000     -4.02000000 -1.23700161E-05
      0.80500000      0.00000000      0.00000000     -4.02500000 -1.55064022E-05
      0.80600000      0.00000000      0.00000000     -4.03000000 -1.86603544E-05
      0.80700000      0.00000000      0.00000000     -4.03500000 -2.18318792E-05
      0.80800000      0.00000000      0.00000000     -4.04000000 -2.50209829E-05
      0.80900000      0.00000000      0.00000000     -4.04500000 -2.82276717E-05
      0.81000000      0.00000000      0.00000000     -4.05000000 -3.14519517E-05
      0.81100000      0.00000000      0.00000000     -4.05500000 -3.46938289E-05
      0.81200000      0.00000000      0.00000000     -4.06000000 -3.79533092E-05
      0.81300000      0.00000000      0.00000000     -4.06500000 -4.12303984E-05
      0.81400000      0.00000000      0.00000000     -4.07000000 -4.45251022E-05
      0.81500000      0.00000000      0.00000000     -4.07500000 -4.78374261E-05
      0.81600000      0.00000000      0.00000000     -4.08000000 -5.11673755E-05
      0.81700000      0.00000000      0.00000000     -4.08500000 -5.45149559E-05
      0.81800000      0.00000000      0.00000000     -4.09000000 -5.78801723E-05
      0.81900000      0.00000000      0.00000000     -4.09500000 -6.12630301E-05
      0.82000000      0.00000000      0.00000000     -4.10000000 -6.46635341E-05
      0.82100000      0.00000000      0.00000000     -4.10500000 -6.80816893E-05
      0.82200000      0.00000000      0.00000000     -4.11000000 -7.15175005E-05
      0.82300000      0.00000000      0.00000000     -4.11500000 -7.49709724E-05
      0.82400000      0.00000000      0.00000000     -4.12000000 -7.84421095E-05
      0.82500000      0.00000000      0.00000000     -4.12500000 -8.19309163E-05
      0.82600000      0.00000000      0.00000000     -4.13000000 -8.54373972E-05
      0.82700000      0.00000000      0.00000000     -4.13500000 -8.89615565E-05
      0.82800000      0.00000000      0.00000000     -4.14000000 -9.25033982E-05
      0.82900000      0.00000000      0.00000000     -4.14500000 -9.60629266E-05
      0.83000000      0.00000000      0.00000000     -4.15000000 -9.96401454E-05
      0.83100000      0.00000000      0.00000000     -4.15500000     -0.00010324
      0.83200000      0.00000000      0.00000000     -4.16000000     -0.00010685
      0.83300000      0.00000000      0.00000000     -4.16500000     -0.00011048
      0.83400000      0.00000000      0.00000000     -4.17000000     -0.00011413
      0.83500000      0.00000000      0.00000000     -4.17500000     -0.00011779
      0.83600000      0.00000000      0.00000000     -4.18000000     -0.00012148
      0.83700000      0.00000000      0.00000000     -4.18500000     -0.00012518
      0.83800000      0.00000000      0.00000000     -4.19000000     -0.00012890
      0.83900000      0.00000000      0.00000000     -4.19500000     -0.00013263
      0.84000000      0.00000000      0.00000000     -4.20000000     -0.00013639
      0.84100000      0.00000000      0.00000000     -4.20500000     -0.00014016
      0.84200000      0.00000000      0.00000000     -4.21000000     -0.00014395
      0.84300000      0.00000000      0.00000000     -4.21500000     -0.00014776
      0.84400000      0.00000000      0.00000000     -4.22000000     -0.00015158
      0.84500000      0.00000000      0.00000000     -4.22500000     -0.00015542
      0.84600000      0.00000000      0.00000000     -4.23000000     -0.00015928
      0.84700000      0.00000000      0.00000000     -4.23500000     -0.00016316
      0.84800000      0.00000000      0.00000000     -4.24000000     -0.00016706
      0.84900000      0.00000000      0.00000000     -4.24500000     -0.00017097
      0.85000000      0.00000000      0.00000000     -4.25000000     -0.00017490
      0.85100000      0.00000000      0.00000000     -4.25500000     -0.00017885
      0.85200000      0.00000000      0.00000000     -4.26000000     -0.00018282
      0.85300000      0.00000000      0.00000000     -4.26500000     -0.00018681
      0.85400000      0.00000000      0.00000000     -4.27000000     -0.00019081
      0.85500000      0.00000000      0.00000000     -4.27500000     -0.00019483
      0.85600000      0.00000000      0.00000000     -4.28000000     -0.00019887
      0.85700000      0.00000000      0.00000000     -4.28500000     -0.00020292
      0.85800000      0.00000000      0.00000000     -4.29000000     -0.00020700
      0.85900000      0.00000000      0.00000000     -4.29500000     -0.00021109
      0.86000000      0.00000000      0.00000000     -4.30000000     -0.00021520
      0.86100000      0.00000000      0.00000000     -4.30500000     -0.00021933
      0.86200000      0.00000000      0.00000000     -4.31000000     -0.00022347
      0.86300000      0.00000000      0.00000000     -4.31500000     -0.00022763
      0.86400000      0.00000000      0.00000000     -4.32000000     -0.00023181
      0.86500000      0.00000000      0.00000000     -4.32500000     -0.00023601
      0.86600000      0.00000000      0.00000000     -4.33000000     -0.00024023
      0.86700000      0.00000000      0.00000000     -4.33500000     -0.00024446
      0.86800000      0.00000000      0.00000000     -4.34000000     -0.00024871
      0.86900000      0.00000000      0.00000000     -4.34500000     -0.00025298
      0.87000000      0.00000000      0.00000000     -4.35000000     -0.00025727
      0.87100000      0.00000000      0.00000000     -4.35500000     -0.00026157
      0.87200000      0.00000000      0.00000000     -4.36000000     -0.00026589
      0.87300000      0.00000000      0.00000000     -4.36500000     -0.00027023
      0.87400000      0.00000000      0.00000000     -4.37000000     -0.00027459
      0.87500000      0.00000000      0.00000000     -4.37500000     -0.00027897
      0.87600000      0.00000000      0.00000000     -4.38000000     -0.00028336
      0.87700000      0.00000000      0.00000000     -4.38500000     -0.00028777
      0.87800000      0.00000000      0.00000000     -4.39000000     -0.00029220
      0.87900000      0.00000000      0.00000000     -4.39500000     -0.00029665
      0.88000000      0.00000000      0.00000000     -4.40000000     -0.00030111
      0.88100000      0.00000000      0.00000000     -4.40500000     -0.00030560
      0.88200000      0.00000000      0.00000000     -4.41000000     -0.00031010
      0.88300000      0.00000000      0.00000000     -4.41500000     -0.00031461
      0.88400000      0.00000000      0.00000000     -4.42000000     -0.00031915
      0.88500000      0.00000000      0.00000000     -4.42500000     -0.00032370
      0.88600000      0.00000000      0.00000000     -4.43000000     -0.00032827
      0.88700000      0.00000000      0.00000000     -4.43500000     -0.00033286
      0.88800000      0.00000000      0.00000000     -4.44000000     -0.00033747
      0.88900000      0.00000000      0.00000000     -4.44500000     -0.00034209
      0.89000000      0.00000000      0.00000000     -4.45000000     -0.00034673
      0.89100000      0.00000000      0.00000000     -4.45500000     -0.00035139
      0.89200000      0.00000000      0.00000000     -4.46000000     -0.00035607
      0.89300000      0.00000000      0.00000000     -4.46500000     -0.00036077
      0.89400000      0.00000000      0.00000000     -4.47000000     -0.00036548
      0.89500000      0.00000000      0.00000000     -4.47500000     -0.00037021
      0.89600000      0.00000000      0.00000000     -4.48000000     -0.00037496
      0.89700000      0.00000000      0.00000000     -4.48500000     -0.00037972
      0.89800000      0.00000000      0.00000000     -4.49000000     -0.00038451
      0.89900000      0.00000000      0.00000000     -4.49500000     -0.00038931
      0.90000000      0.00000000      0.00000000     -4.50000000     -0.00039413
      0.90100000      0.00000000      0.00000000     -4.50500000     -0.00039897
      0.90200000      0.00000000      0.00000000     -4.51000000     -0.00040382
      0.90300000      0.00000000      0.00000000     -4.51500000     -0.00040869
      0.90400000      0.00000000      0.00000000     -4.52000000     -0.00041358
      0.90500000      0.00000000      0.00000000     -4.52500000     -0.00041849
      0.90600000      0.00000000      0.00000000     -4.53000000     -0.00042342
      0.90700000      0.00000000      0.00000000     -4.53500000     -0.00042836
      0.90800000      0.00000000      0.00000000     -4.54000000     -0.00043332
      0.90900000      0.00000000      0.00000000     -4.54500000     -0.00043830
      0.91000000      0.00000000      0.00000000     -4.55000000     -0.00044329
      0.91100000      0.00000000      0.00000000     -4.55500000     -0.00044831
      0.91200000      0.00000000      0.00000000     -4.56000000     -0.00045334
      0.91300000      0.00000000      0.00000000     -4.56500000     -0.00045839
      0.91400000      0.00000000      0.00000000     -4.57000000     -0.00046346
      0.91500000      0.00000000      0.00000000     -4.57500000     -0.00046854
      0.91600000      0.00000000      0.00000000     -4.58000000     -0.00047364
      0.91700000      0.00000000      0.00000000     -4.58500000     -0.00047876
      0.91800000      0.00000000      0.00000000     -4.59000000     -0.00048390
      0.91900000      0.00000000      0.00000000     -4.59500000     -0.00048905
      0.92000000      0.00000000      0.00000000     -4.60000000     -0.00049423
      0.92100000      0.00000000      0.00000000     -4.60500000     -0.00049942
      0.92200000      0.00000000      0.00000000     -4.61000000     -0.00050463
      0.92300000      0.00000000      0.00000000     -4.61500000     -0.00050985
      0.92400000      0.00000000      0.00000000     -4.62000000     -0.00051509
      0.92500000      0.00000000      0.00000000     -4.62500000     -0.00052036
      0.92600000      0.00000000      0.00000000     -4.63000000     -0.00052563
      0.92700000      0.00000000      0.00000000     -4.63500000     -0.00053093
      0.92800000      0.00000000      0.00000000     -4.64000000     -0.00053624
      0.92900000      0.00000000      0.00000000     -4.64500000     -0.00054157
      0.93000000      0.00000000      0.00000000     -4.65000000     -0.00054692
      0.93100000      0.00000000      0.00000000     -4.65500000     -0.00055229
      0.93200000      0.00000000      0.00000000     -4.66000000     -0.00055767
      0.93300000      0.00000000      0.00000000     -4.66500000     -0.00056308
      0.93400000      0.00000000      0.00000000     -4.67000000     -0.00056849
      0.93500000      0.00000000      0.00000000     -4.67500000     -0.00057393
      0.93600000      0.00000000      0.00000000     -4.68000000     -0.00057939
      0.93700000      0.00000000      0.00000000     -4.68500000     -0.00058486
      0.93800000      0.00000000      0.00000000     -4.69000000     -0.00059035
      0.93900000      0.00000000      0.00000000     -4.69500000     -0.00059585
      0.94000000      0.00000000      0.00000000     -4.70000000     -0.00060138
      0.94100000      0.00000000      0.00000000     -4.70500000     -0.00060692
      0.94200000      0.00000000      0.00000000     -4.71000000     -0.00061248
      0.94300000      0.00000000      0.00000000     -4.71500000     -0.00061805
      0.94400000      0.00000000      0.00000000     -4.72000000     -0.00062365
      0.94500000      0.00000000      0.00000000     -4.72500000     -0.00062926
      0.94600000      0.00000000      0.00000000     -4.73000000     -0.00063489
      0.94700000      0.00000000      0.00000000     -4.73500000     -0.00064054
      0.94800000      0.00000000      0.00000000     -4.74000000     -0.00064620
      0.94900000      0.00000000      0.00000000     -4.74500000     -0.00065188
      0.95000000      0.00000000      0.00000000     -4.75000000     -0.00065758
      0.95100000      0.00000000      0.00000000     -4.75500000     -0.00066330
      0.95200000      0.00000000      0.00000000     -4.76000000     -0.00066903
      0.95300000      0.00000000      0.00000000     -4.76500000     -0.00067478
      0.95400000      0.00000000      0.00000000     -4.77000000     -0.00068055
      0.95500000      0.00000000      0.00000000     -4.77500000     -0.00068634
      0.95600000      0.00000000      0.00000000     -4.78000000     -0.00069214
      0.95700000      0.00000000      0.00000000     -4.78500000     -0.00069796
      0.95800000      0.00000000      0.00000000     -4.79000000     -0.00070380
      0.95900000      0.00000000      0.00000000     -4.79500000     -0.00070966
      0.96000000      0.00000000      0.00000000     -4.80000000     -0.00071553
      0.96100000      0.00000000      0.00000000     -4.80500000     -0.00072142
      0.96200000      0.00000000      0.00000000     -4.81000000     -0.00072733
      0.96300000      0.00000000      0.00000000     -4.81500000     -0.00073325
      0.96400000      0.00000000      0.00000000     -4.82000000     -0.00073920
      0.96500000      0.00000000      0.00000000     -4.82500000     -0.00074516
      0.96600000      0.00000000      0.00000000     -4.83000000     -0.00075113
      0.96700000      0.00000000      0.00000000     -4.83500000     -0.00075713
      0.96800000      0.00000000      0.00000000     -4.84000000     -0.00076314
      0.96900000      0.00000000      0.00000000     -4.84500000     -0.00076917
      0.97000000      0.00000000      0.00000000     -4.85000000     -0.00077521
      0.97100000      0.00000000      0.00000000     -4.85500000     -0.00078128
      0.97200000      0.00000000      0.00000000     -4.86000000     -0.00078736
      0.97300000      0.00000000      0.00000000     -4.86500000     -0.00079346
      0.97400000      0.00000000      0.00000000     -4.87000000     -0.00079957
      0.97500000      0.00000000      0.00000000     -4.87500000     -0.00080571
      0.97600000      0.00000000      0.00000000     -4.88000000     -0.00081186
      0.97700000      0.00000000      0.00000000     -4.88500000     -0.00081802
      0.97800000      0.00000000      0.00000000     -4.89000000     -0.00082421
      0.97900000      0.00000000      0.00000000     -4.89500000     -0.00083041
      0.98000000      0.00000000      0.00000000     -4.90000000     -0.00083663
      0.98100000      0.00000000      0.00000000     -4.90500000     -0.00084286
      0.98200000      0.00000000      0.00000000     -4.91000000     -0.00084912
      0.98300000      0.00000000      0.00000000     -4.91500000     -0.00085539
      0.98400000      0.00000000      0.00000000     -4.92000000     -0.00086167
      0.98500000      0.00000000      0.00000000     -4.92500000     -0.00086798
      0.98600000      0.00000000      0.00000000     -4.93000000     -0.00087430
      0.98700000      0.00000000      0.00000000     -4.93500000     -0.00088064
      0.98800000      0.00000000      0.00000000     -4.94000000     -0.00088699
      0.98900000      0.00000000      0.00000000     -4.94500000     -0.00089337
      0.99000000      0.00000000      0.00000000     -4.95000000     -0.00089976
      0.99100000      0.00000000      0.00000000     -4.95500000     -0.00090616
      0.99200000      0.00000000      0.00000000     -4.96000000     -0.00091259
      0.99300000      0.00000000      0.00000000     -4.96500000     -0.00091903
      0.99400000      0.00000000      0.00000000     -4.97000000     -0.00092549
      0.99500000      0.00000000      0.00000000     -4.97500000     -0.00093196
      0.99600000      0.00000000      0.00000000     -4.98000000     -0.00093845
      0.99700000      0.00000000      0.00000000     -4.98500000     -0.00094496
      0.99800000      0.00000000      0.00000000     -4.99000000     -0.00095149
      0.99900000      0.00000000      0.00000000     -4.99500000     -0.00095803
      1.00000000      0.00000000      0.00000000     -5.00000000     -0.00096459
