            TIME          N26-T1          N26-T2          N26-T3          N26-F1          N26-F2          N26-F3
----------------------------------------------------------------------------------------------------------------
        0.050000        0.005191        1.686315        0.000000        0.000000       -3.367785        0.000000
        0.100000        0.004758        1.496949        0.000000        0.000000       -6.735569        0.000000
        0.150000        0.004375        1.341386        0.000000   +1.692442E-07      -10.103354        0.000000
        0.200000        0.004024        1.207344        0.000000        0.000000      -13.471138        0.000000
        0.250000        0.003697        1.088478        0.000000   -1.244362E-07      -16.838923        0.000000
        0.300000        0.003388        0.981014        0.000000        0.000000      -20.206707        0.000000
        0.350000        0.003095        0.882501        0.000000        0.000000      -23.574492        0.000000
        0.400000        0.002813        0.791242        0.000000   -1.567641E-07      -26.942277        0.000000
        0.450000        0.002543        0.706006        0.000000        0.000000      -30.310061        0.000000
        0.500000        0.002281        0.625869        0.000000        0.000000      -33.677846        0.000000
        0.550000        0.002028        0.550117        0.000000        0.000000      -37.045630        0.000000
        0.600000        0.001782        0.478184        0.000000        0.000000      -40.413415        0.000000
        0.650000        0.001542        0.409614        0.000000        0.000000      -43.781199        0.000000
        0.700000        0.001308        0.344032        0.000000        0.000000      -47.148984        0.000000
        0.750000        0.001080        0.281127        0.000000        0.000000      -50.516769        0.000000
        0.800000        0.000856        0.220638        0.000000        0.000000      -53.884553        0.000000
        0.850000        0.000637        0.162341        0.000000        0.000000      -57.252338        0.000000
        0.900000        0.000421        0.106044        0.000000        0.000000      -60.620122        0.000000
        0.950000        0.000210        0.051582        0.000000        0.000000      -63.987907        0.000000
        1.000000   +2.228713E-06       -0.001190        0.000000        0.000000      -67.355691        0.000000
        0.050000       -0.699940      -13.623403       16.210185   -65513.729169   -96331.374948   -27396.871108
        0.100000        4.766053      -75.133809      -14.187086   511402.537535   662515.729163   868674.981959
        0.150000       -4.542771       -0.934699      -26.767262    33665.107022   -34966.123394     6085.680433
        0.200000      -36.169881       19.150819      -10.403198   -1.334624E+07   -6.382515E+06   +7.297412E+06
        0.250000       -0.452643       13.202266        0.194841     -433.519980       56.140065     -101.922456
        0.300000        3.513113      -23.107832       -1.272874      444.157458      380.883120      164.212908
        0.350000       -7.777649       -2.387796       -1.997526       -4.543373      -13.444272      -49.157183
        0.400000        0.343989        1.834183      -16.355511      -12.398592      -22.122327      -56.834444
        0.450000       -1.726620        0.471189        5.840384     1133.210392      680.883984      208.181809
        0.500000       -1.455668        2.998958       -0.688954        0.001295      -33.678426      -67.333883
        0.550000       -1.455292        3.058069       -0.795746        0.000000      -40.750193      -74.065959
        0.600000       -1.455351        3.020466       -0.827291        0.000000      -48.496098      -80.799228
        0.650000       -1.455400        2.979272       -0.858251   -1.387089E-07      -56.915559      -87.532497
        0.700000       -1.455434        2.934561       -0.888671   -1.196167E-07      -66.008578      -94.265766
        0.750000       -1.455450        2.886406       -0.918593   +2.097804E-07      -75.775153     -100.999035
        0.800000       -1.455442        2.834878       -0.948055        0.000000      -86.215285     -107.732304
        0.850000       -1.455405        2.780043       -0.977093   +1.354492E-07      -97.328974     -114.465573
        0.900000       -1.455335        2.721964       -1.005737        0.000000     -109.116220     -121.198842
        0.950000       -1.455225        2.660701       -1.034019        0.000000     -121.577023     -127.932111
        1.000000       -1.455069        2.596310       -1.061964   -1.644366E-07     -134.711383     -134.665380
        0.500000       -1.455069        2.596310       -1.061964        0.000000     -134.711383     -134.665380
        1.000000       -1.455069        2.596310       -1.061964        0.000000     -134.711383     -134.665380
