*MATERIAL, 1
1             +6.900000E+10    +3.000000E-01    +3.836000E+03    +2.000000E+02    +1.000000E-01

*SECTION, 1
1             +4.515500E-04

*NODE, 204
1             -7.105427E-15    -2.828000E-01    -2.828000E-01
2             +1.999065E+00    -2.828000E-01    -3.584633E-01
3             +3.998245E+00    -2.828000E-01    -4.310424E-01
4             +5.997535E+00    -2.828000E-01    -5.005368E-01
5             +7.996929E+00    -2.828000E-01    -5.669461E-01
6             +9.996423E+00    -2.828000E-01    -6.302697E-01
7             +1.199601E+01    -2.828000E-01    -6.905073E-01
8             +1.399569E+01    -2.828000E-01    -7.476584E-01
9             +1.599546E+01    -2.828000E-01    -8.017225E-01
10            +1.799531E+01    -2.828000E-01    -8.526993E-01
11            +1.999523E+01    -2.828000E-01    -9.005884E-01
12            +2.199523E+01    -2.828000E-01    -9.453895E-01
13            +2.399529E+01    -2.828000E-01    -9.871023E-01
14            +2.599541E+01    -2.828000E-01    -1.025726E+00
15            +2.799559E+01    -2.828000E-01    -1.061262E+00
16            +2.999583E+01    -2.828000E-01    -1.093708E+00
17            +3.199611E+01    -2.828000E-01    -1.123064E+00
18            +3.399643E+01    -2.828000E-01    -1.149331E+00
19            +3.599679E+01    -2.828000E-01    -1.172509E+00
20            +3.799719E+01    -2.828000E-01    -1.192596E+00
21            +3.999761E+01    -2.828000E-01    -1.209593E+00
22            +4.199806E+01    -2.828000E-01    -1.223500E+00
23            +4.399853E+01    -2.828000E-01    -1.234317E+00
24            +4.599901E+01    -2.828000E-01    -1.242043E+00
25            +4.799950E+01    -2.828000E-01    -1.246679E+00
26            +5.000000E+01    -2.828000E-01    -1.248224E+00
27            +5.200050E+01    -2.828000E-01    -1.246679E+00
28            +5.400099E+01    -2.828000E-01    -1.242043E+00
29            +5.600147E+01    -2.828000E-01    -1.234317E+00
30            +5.800194E+01    -2.828000E-01    -1.223500E+00
31            +6.000239E+01    -2.828000E-01    -1.209593E+00
32            +6.200281E+01    -2.828000E-01    -1.192596E+00
33            +6.400321E+01    -2.828000E-01    -1.172509E+00
34            +6.600357E+01    -2.828000E-01    -1.149331E+00
35            +6.800389E+01    -2.828000E-01    -1.123064E+00
36            +7.000417E+01    -2.828000E-01    -1.093708E+00
37            +7.200441E+01    -2.828000E-01    -1.061262E+00
38            +7.400459E+01    -2.828000E-01    -1.025726E+00
39            +7.600471E+01    -2.828000E-01    -9.871023E-01
40            +7.800477E+01    -2.828000E-01    -9.453895E-01
41            +8.000477E+01    -2.828000E-01    -9.005884E-01
42            +8.200469E+01    -2.828000E-01    -8.526993E-01
43            +8.400454E+01    -2.828000E-01    -8.017225E-01
44            +8.600431E+01    -2.828000E-01    -7.476584E-01
45            +8.800399E+01    -2.828000E-01    -6.905073E-01
46            +9.000358E+01    -2.828000E-01    -6.302697E-01
47            +9.200307E+01    -2.828000E-01    -5.669461E-01
48            +9.400247E+01    -2.828000E-01    -5.005368E-01
49            +9.600175E+01    -2.828000E-01    -4.310424E-01
50            +9.800093E+01    -2.828000E-01    -3.584633E-01
51            +1.000000E+02    -2.828000E-01    -2.828000E-01
52            -7.105427E-15    -2.828000E-01    +2.828000E-01
53            +1.999065E+00    -2.828000E-01    +2.071367E-01
54            +3.998245E+00    -2.828000E-01    +1.345576E-01
55            +5.997535E+00    -2.828000E-01    +6.506320E-02
56            +7.996929E+00    -2.828000E-01    -1.346089E-03
57            +9.996423E+00    -2.828000E-01    -6.466974E-02
58            +1.199601E+01    -2.828000E-01    -1.249073E-01
59            +1.399569E+01    -2.828000E-01    -1.820584E-01
60            +1.599546E+01    -2.828000E-01    -2.361225E-01
61            +1.799531E+01    -2.828000E-01    -2.870993E-01
62            +1.999523E+01    -2.828000E-01    -3.349884E-01
63            +2.199523E+01    -2.828000E-01    -3.797895E-01
64            +2.399529E+01    -2.828000E-01    -4.215023E-01
65            +2.599541E+01    -2.828000E-01    -4.601265E-01
66            +2.799559E+01    -2.828000E-01    -4.956617E-01
67            +2.999583E+01    -2.828000E-01    -5.281077E-01
68            +3.199611E+01    -2.828000E-01    -5.574644E-01
69            +3.399643E+01    -2.828000E-01    -5.837314E-01
70            +3.599679E+01    -2.828000E-01    -6.069087E-01
71            +3.799719E+01    -2.828000E-01    -6.269960E-01
72            +3.999761E+01    -2.828000E-01    -6.439932E-01
73            +4.199806E+01    -2.828000E-01    -6.579001E-01
74            +4.399853E+01    -2.828000E-01    -6.687167E-01
75            +4.599901E+01    -2.828000E-01    -6.764429E-01
76            +4.799950E+01    -2.828000E-01    -6.810787E-01
77            +5.000000E+01    -2.828000E-01    -6.826239E-01
78            +5.200050E+01    -2.828000E-01    -6.810787E-01
79            +5.400099E+01    -2.828000E-01    -6.764429E-01
80            +5.600147E+01    -2.828000E-01    -6.687167E-01
81            +5.800194E+01    -2.828000E-01    -6.579001E-01
82            +6.000239E+01    -2.828000E-01    -6.439932E-01
83            +6.200281E+01    -2.828000E-01    -6.269960E-01
84            +6.400321E+01    -2.828000E-01    -6.069087E-01
85            +6.600357E+01    -2.828000E-01    -5.837314E-01
86            +6.800389E+01    -2.828000E-01    -5.574644E-01
87            +7.000417E+01    -2.828000E-01    -5.281077E-01
88            +7.200441E+01    -2.828000E-01    -4.956617E-01
89            +7.400459E+01    -2.828000E-01    -4.601265E-01
90            +7.600471E+01    -2.828000E-01    -4.215023E-01
91            +7.800477E+01    -2.828000E-01    -3.797895E-01
92            +8.000477E+01    -2.828000E-01    -3.349884E-01
93            +8.200469E+01    -2.828000E-01    -2.870993E-01
94            +8.400454E+01    -2.828000E-01    -2.361225E-01
95            +8.600431E+01    -2.828000E-01    -1.820584E-01
96            +8.800399E+01    -2.828000E-01    -1.249073E-01
97            +9.000358E+01    -2.828000E-01    -6.466974E-02
98            +9.200307E+01    -2.828000E-01    -1.346089E-03
99            +9.400247E+01    -2.828000E-01    +6.506320E-02
100           +9.600175E+01    -2.828000E-01    +1.345576E-01
101           +9.800093E+01    -2.828000E-01    +2.071367E-01
102           +1.000000E+02    -2.828000E-01    +2.828000E-01
103           -7.105427E-15    +2.828000E-01    +2.828000E-01
104           +1.999065E+00    +2.828000E-01    +2.071367E-01
105           +3.998245E+00    +2.828000E-01    +1.345576E-01
106           +5.997535E+00    +2.828000E-01    +6.506320E-02
107           +7.996929E+00    +2.828000E-01    -1.346089E-03
108           +9.996423E+00    +2.828000E-01    -6.466974E-02
109           +1.199601E+01    +2.828000E-01    -1.249073E-01
110           +1.399569E+01    +2.828000E-01    -1.820584E-01
111           +1.599546E+01    +2.828000E-01    -2.361225E-01
112           +1.799531E+01    +2.828000E-01    -2.870993E-01
113           +1.999523E+01    +2.828000E-01    -3.349884E-01
114           +2.199523E+01    +2.828000E-01    -3.797895E-01
115           +2.399529E+01    +2.828000E-01    -4.215023E-01
116           +2.599541E+01    +2.828000E-01    -4.601265E-01
117           +2.799559E+01    +2.828000E-01    -4.956617E-01
118           +2.999583E+01    +2.828000E-01    -5.281077E-01
119           +3.199611E+01    +2.828000E-01    -5.574644E-01
120           +3.399643E+01    +2.828000E-01    -5.837314E-01
121           +3.599679E+01    +2.828000E-01    -6.069087E-01
122           +3.799719E+01    +2.828000E-01    -6.269960E-01
123           +3.999761E+01    +2.828000E-01    -6.439932E-01
124           +4.199806E+01    +2.828000E-01    -6.579001E-01
125           +4.399853E+01    +2.828000E-01    -6.687167E-01
126           +4.599901E+01    +2.828000E-01    -6.764429E-01
127           +4.799950E+01    +2.828000E-01    -6.810787E-01
128           +5.000000E+01    +2.828000E-01    -6.826239E-01
129           +5.200050E+01    +2.828000E-01    -6.810787E-01
130           +5.400099E+01    +2.828000E-01    -6.764429E-01
131           +5.600147E+01    +2.828000E-01    -6.687167E-01
132           +5.800194E+01    +2.828000E-01    -6.579001E-01
133           +6.000239E+01    +2.828000E-01    -6.439932E-01
134           +6.200281E+01    +2.828000E-01    -6.269960E-01
135           +6.400321E+01    +2.828000E-01    -6.069087E-01
136           +6.600357E+01    +2.828000E-01    -5.837314E-01
137           +6.800389E+01    +2.828000E-01    -5.574644E-01
138           +7.000417E+01    +2.828000E-01    -5.281077E-01
139           +7.200441E+01    +2.828000E-01    -4.956617E-01
140           +7.400459E+01    +2.828000E-01    -4.601265E-01
141           +7.600471E+01    +2.828000E-01    -4.215023E-01
142           +7.800477E+01    +2.828000E-01    -3.797895E-01
143           +8.000477E+01    +2.828000E-01    -3.349884E-01
144           +8.200469E+01    +2.828000E-01    -2.870993E-01
145           +8.400454E+01    +2.828000E-01    -2.361225E-01
146           +8.600431E+01    +2.828000E-01    -1.820584E-01
147           +8.800399E+01    +2.828000E-01    -1.249073E-01
148           +9.000358E+01    +2.828000E-01    -6.466974E-02
149           +9.200307E+01    +2.828000E-01    -1.346089E-03
150           +9.400247E+01    +2.828000E-01    +6.506320E-02
151           +9.600175E+01    +2.828000E-01    +1.345576E-01
152           +9.800093E+01    +2.828000E-01    +2.071367E-01
153           +1.000000E+02    +2.828000E-01    +2.828000E-01
154           -7.105427E-15    +2.828000E-01    -2.828000E-01
155           +1.999065E+00    +2.828000E-01    -3.584633E-01
156           +3.998245E+00    +2.828000E-01    -4.310424E-01
157           +5.997535E+00    +2.828000E-01    -5.005368E-01
158           +7.996929E+00    +2.828000E-01    -5.669461E-01
159           +9.996423E+00    +2.828000E-01    -6.302697E-01
160           +1.199601E+01    +2.828000E-01    -6.905073E-01
161           +1.399569E+01    +2.828000E-01    -7.476584E-01
162           +1.599546E+01    +2.828000E-01    -8.017225E-01
163           +1.799531E+01    +2.828000E-01    -8.526993E-01
164           +1.999523E+01    +2.828000E-01    -9.005884E-01
165           +2.199523E+01    +2.828000E-01    -9.453895E-01
166           +2.399529E+01    +2.828000E-01    -9.871023E-01
167           +2.599541E+01    +2.828000E-01    -1.025726E+00
168           +2.799559E+01    +2.828000E-01    -1.061262E+00
169           +2.999583E+01    +2.828000E-01    -1.093708E+00
170           +3.199611E+01    +2.828000E-01    -1.123064E+00
171           +3.399643E+01    +2.828000E-01    -1.149331E+00
172           +3.599679E+01    +2.828000E-01    -1.172509E+00
173           +3.799719E+01    +2.828000E-01    -1.192596E+00
174           +3.999761E+01    +2.828000E-01    -1.209593E+00
175           +4.199806E+01    +2.828000E-01    -1.223500E+00
176           +4.399853E+01    +2.828000E-01    -1.234317E+00
177           +4.599901E+01    +2.828000E-01    -1.242043E+00
178           +4.799950E+01    +2.828000E-01    -1.246679E+00
179           +5.000000E+01    +2.828000E-01    -1.248224E+00
180           +5.200050E+01    +2.828000E-01    -1.246679E+00
181           +5.400099E+01    +2.828000E-01    -1.242043E+00
182           +5.600147E+01    +2.828000E-01    -1.234317E+00
183           +5.800194E+01    +2.828000E-01    -1.223500E+00
184           +6.000239E+01    +2.828000E-01    -1.209593E+00
185           +6.200281E+01    +2.828000E-01    -1.192596E+00
186           +6.400321E+01    +2.828000E-01    -1.172509E+00
187           +6.600357E+01    +2.828000E-01    -1.149331E+00
188           +6.800389E+01    +2.828000E-01    -1.123064E+00
189           +7.000417E+01    +2.828000E-01    -1.093708E+00
190           +7.200441E+01    +2.828000E-01    -1.061262E+00
191           +7.400459E+01    +2.828000E-01    -1.025726E+00
192           +7.600471E+01    +2.828000E-01    -9.871023E-01
193           +7.800477E+01    +2.828000E-01    -9.453895E-01
194           +8.000477E+01    +2.828000E-01    -9.005884E-01
195           +8.200469E+01    +2.828000E-01    -8.526993E-01
196           +8.400454E+01    +2.828000E-01    -8.017225E-01
197           +8.600431E+01    +2.828000E-01    -7.476584E-01
198           +8.800399E+01    +2.828000E-01    -6.905073E-01
199           +9.000358E+01    +2.828000E-01    -6.302697E-01
200           +9.200307E+01    +2.828000E-01    -5.669461E-01
201           +9.400247E+01    +2.828000E-01    -5.005368E-01
202           +9.600175E+01    +2.828000E-01    -4.310424E-01
203           +9.800093E+01    +2.828000E-01    -3.584633E-01
204           +1.000000E+02    +2.828000E-01    -2.828000E-01

*ELEMENT, T3D2, 216
1                   1          2          1          1
2                   2          3          1          1
3                   3          4          1          1
4                   4          5          1          1
5                   5          6          1          1
6                   6          7          1          1
7                   7          8          1          1
8                   8          9          1          1
9                   9         10          1          1
10                 10         11          1          1
11                 11         12          1          1
12                 12         13          1          1
13                 13         14          1          1
14                 14         15          1          1
15                 15         16          1          1
16                 16         17          1          1
17                 17         18          1          1
18                 18         19          1          1
19                 19         20          1          1
20                 20         21          1          1
21                 21         22          1          1
22                 22         23          1          1
23                 23         24          1          1
24                 24         25          1          1
25                 25         26          1          1
26                 26         27          1          1
27                 27         28          1          1
28                 28         29          1          1
29                 29         30          1          1
30                 30         31          1          1
31                 31         32          1          1
32                 32         33          1          1
33                 33         34          1          1
34                 34         35          1          1
35                 35         36          1          1
36                 36         37          1          1
37                 37         38          1          1
38                 38         39          1          1
39                 39         40          1          1
40                 40         41          1          1
41                 41         42          1          1
42                 42         43          1          1
43                 43         44          1          1
44                 44         45          1          1
45                 45         46          1          1
46                 46         47          1          1
47                 47         48          1          1
48                 48         49          1          1
49                 49         50          1          1
50                 50         51          1          1
51                 52         53          1          1
52                 53         54          1          1
53                 54         55          1          1
54                 55         56          1          1
55                 56         57          1          1
56                 57         58          1          1
57                 58         59          1          1
58                 59         60          1          1
59                 60         61          1          1
60                 61         62          1          1
61                 62         63          1          1
62                 63         64          1          1
63                 64         65          1          1
64                 65         66          1          1
65                 66         67          1          1
66                 67         68          1          1
67                 68         69          1          1
68                 69         70          1          1
69                 70         71          1          1
70                 71         72          1          1
71                 72         73          1          1
72                 73         74          1          1
73                 74         75          1          1
74                 75         76          1          1
75                 76         77          1          1
76                 77         78          1          1
77                 78         79          1          1
78                 79         80          1          1
79                 80         81          1          1
80                 81         82          1          1
81                 82         83          1          1
82                 83         84          1          1
83                 84         85          1          1
84                 85         86          1          1
85                 86         87          1          1
86                 87         88          1          1
87                 88         89          1          1
88                 89         90          1          1
89                 90         91          1          1
90                 91         92          1          1
91                 92         93          1          1
92                 93         94          1          1
93                 94         95          1          1
94                 95         96          1          1
95                 96         97          1          1
96                 97         98          1          1
97                 98         99          1          1
98                 99        100          1          1
99                100        101          1          1
100               101        102          1          1
101               103        104          1          1
102               104        105          1          1
103               105        106          1          1
104               106        107          1          1
105               107        108          1          1
106               108        109          1          1
107               109        110          1          1
108               110        111          1          1
109               111        112          1          1
110               112        113          1          1
111               113        114          1          1
112               114        115          1          1
113               115        116          1          1
114               116        117          1          1
115               117        118          1          1
116               118        119          1          1
117               119        120          1          1
118               120        121          1          1
119               121        122          1          1
120               122        123          1          1
121               123        124          1          1
122               124        125          1          1
123               125        126          1          1
124               126        127          1          1
125               127        128          1          1
126               128        129          1          1
127               129        130          1          1
128               130        131          1          1
129               131        132          1          1
130               132        133          1          1
131               133        134          1          1
132               134        135          1          1
133               135        136          1          1
134               136        137          1          1
135               137        138          1          1
136               138        139          1          1
137               139        140          1          1
138               140        141          1          1
139               141        142          1          1
140               142        143          1          1
141               143        144          1          1
142               144        145          1          1
143               145        146          1          1
144               146        147          1          1
145               147        148          1          1
146               148        149          1          1
147               149        150          1          1
148               150        151          1          1
149               151        152          1          1
150               152        153          1          1
151               154        155          1          1
152               155        156          1          1
153               156        157          1          1
154               157        158          1          1
155               158        159          1          1
156               159        160          1          1
157               160        161          1          1
158               161        162          1          1
159               162        163          1          1
160               163        164          1          1
161               164        165          1          1
162               165        166          1          1
163               166        167          1          1
164               167        168          1          1
165               168        169          1          1
166               169        170          1          1
167               170        171          1          1
168               171        172          1          1
169               172        173          1          1
170               173        174          1          1
171               174        175          1          1
172               175        176          1          1
173               176        177          1          1
174               177        178          1          1
175               178        179          1          1
176               179        180          1          1
177               180        181          1          1
178               181        182          1          1
179               182        183          1          1
180               183        184          1          1
181               184        185          1          1
182               185        186          1          1
183               186        187          1          1
184               187        188          1          1
185               188        189          1          1
186               189        190          1          1
187               190        191          1          1
188               191        192          1          1
189               192        193          1          1
190               193        194          1          1
191               194        195          1          1
192               195        196          1          1
193               196        197          1          1
194               197        198          1          1
195               198        199          1          1
196               199        200          1          1
197               200        201          1          1
198               201        202          1          1
199               202        203          1          1
200               203        204          1          1
201                10         61          1          1
202                61        112          1          1
203               112        163          1          1
204               163         10          1          1
205                20         71          1          1
206                71        122          1          1
207               122        173          1          1
208               173         20          1          1
209                30         81          1          1
210                81        132          1          1
211               132        183          1          1
212               183         30          1          1
213                40         91          1          1
214                91        142          1          1
215               142        193          1          1
216               193         40          1          1

*STRESS, 216
1             +5.003436E+07
2             +5.003155E+07
3             +5.002887E+07
4             +5.002631E+07
5             +5.002386E+07
6             +5.002153E+07
7             +5.001933E+07
8             +5.001724E+07
9             +5.001527E+07
10            +5.001342E+07
11            +5.001169E+07
12            +5.001008E+07
13            +5.000859E+07
14            +5.000722E+07
15            +5.000597E+07
16            +5.000483E+07
17            +5.000382E+07
18            +5.000292E+07
19            +5.000215E+07
20            +5.000149E+07
21            +5.000095E+07
22            +5.000054E+07
23            +5.000024E+07
24            +5.000006E+07
25            +5.000000E+07
26            +5.000006E+07
27            +5.000024E+07
28            +5.000054E+07
29            +5.000095E+07
30            +5.000149E+07
31            +5.000215E+07
32            +5.000292E+07
33            +5.000382E+07
34            +5.000483E+07
35            +5.000597E+07
36            +5.000722E+07
37            +5.000859E+07
38            +5.001008E+07
39            +5.001169E+07
40            +5.001342E+07
41            +5.001527E+07
42            +5.001724E+07
43            +5.001933E+07
44            +5.002153E+07
45            +5.002386E+07
46            +5.002631E+07
47            +5.002887E+07
48            +5.003155E+07
49            +5.003436E+07
50            +5.003728E+07
51            +5.003436E+07
52            +5.003155E+07
53            +5.002887E+07
54            +5.002631E+07
55            +5.002386E+07
56            +5.002153E+07
57            +5.001933E+07
58            +5.001724E+07
59            +5.001527E+07
60            +5.001342E+07
61            +5.001169E+07
62            +5.001008E+07
63            +5.000859E+07
64            +5.000722E+07
65            +5.000597E+07
66            +5.000483E+07
67            +5.000382E+07
68            +5.000292E+07
69            +5.000215E+07
70            +5.000149E+07
71            +5.000095E+07
72            +5.000054E+07
73            +5.000024E+07
74            +5.000006E+07
75            +5.000000E+07
76            +5.000006E+07
77            +5.000024E+07
78            +5.000054E+07
79            +5.000095E+07
80            +5.000149E+07
81            +5.000215E+07
82            +5.000292E+07
83            +5.000382E+07
84            +5.000483E+07
85            +5.000597E+07
86            +5.000722E+07
87            +5.000859E+07
88            +5.001008E+07
89            +5.001169E+07
90            +5.001342E+07
91            +5.001527E+07
92            +5.001724E+07
93            +5.001933E+07
94            +5.002153E+07
95            +5.002386E+07
96            +5.002631E+07
97            +5.002887E+07
98            +5.003155E+07
99            +5.003436E+07
100           +5.003728E+07
101           +5.003436E+07
102           +5.003155E+07
103           +5.002887E+07
104           +5.002631E+07
105           +5.002386E+07
106           +5.002153E+07
107           +5.001933E+07
108           +5.001724E+07
109           +5.001527E+07
110           +5.001342E+07
111           +5.001169E+07
112           +5.001008E+07
113           +5.000859E+07
114           +5.000722E+07
115           +5.000597E+07
116           +5.000483E+07
117           +5.000382E+07
118           +5.000292E+07
119           +5.000215E+07
120           +5.000149E+07
121           +5.000095E+07
122           +5.000054E+07
123           +5.000024E+07
124           +5.000006E+07
125           +5.000000E+07
126           +5.000006E+07
127           +5.000024E+07
128           +5.000054E+07
129           +5.000095E+07
130           +5.000149E+07
131           +5.000215E+07
132           +5.000292E+07
133           +5.000382E+07
134           +5.000483E+07
135           +5.000597E+07
136           +5.000722E+07
137           +5.000859E+07
138           +5.001008E+07
139           +5.001169E+07
140           +5.001342E+07
141           +5.001527E+07
142           +5.001724E+07
143           +5.001933E+07
144           +5.002153E+07
145           +5.002386E+07
146           +5.002631E+07
147           +5.002887E+07
148           +5.003155E+07
149           +5.003436E+07
150           +5.003728E+07
151           +5.003436E+07
152           +5.003155E+07
153           +5.002887E+07
154           +5.002631E+07
155           +5.002386E+07
156           +5.002153E+07
157           +5.001933E+07
158           +5.001724E+07
159           +5.001527E+07
160           +5.001342E+07
161           +5.001169E+07
162           +5.001008E+07
163           +5.000859E+07
164           +5.000722E+07
165           +5.000597E+07
166           +5.000483E+07
167           +5.000382E+07
168           +5.000292E+07
169           +5.000215E+07
170           +5.000149E+07
171           +5.000095E+07
172           +5.000054E+07
173           +5.000024E+07
174           +5.000006E+07
175           +5.000000E+07
176           +5.000006E+07
177           +5.000024E+07
178           +5.000054E+07
179           +5.000095E+07
180           +5.000149E+07
181           +5.000215E+07
182           +5.000292E+07
183           +5.000382E+07
184           +5.000483E+07
185           +5.000597E+07
186           +5.000722E+07
187           +5.000859E+07
188           +5.001008E+07
189           +5.001169E+07
190           +5.001342E+07
191           +5.001527E+07
192           +5.001724E+07
193           +5.001933E+07
194           +5.002153E+07
195           +5.002386E+07
196           +5.002631E+07
197           +5.002887E+07
198           +5.003155E+07
199           +5.003436E+07
200           +5.003728E+07
201           +0.000000E+00
202           +0.000000E+00
203           +0.000000E+00
204           +0.000000E+00
205           +0.000000E+00
206           +0.000000E+00
207           +0.000000E+00
208           +0.000000E+00
209           +0.000000E+00
210           +0.000000E+00
211           +0.000000E+00
212           +0.000000E+00
213           +0.000000E+00
214           +0.000000E+00
215           +0.000000E+00
216           +0.000000E+00
