            TIME           N2-U2           N2-R2
------------------------------------------------
      0.00100000     -0.20000000    -19.80643322
      0.00200000     -0.40000000    -39.37588420
      0.00300000     -0.60000000    -58.70928126
      0.00400000     -0.80000000    -77.80755297
      0.00500000     -1.00000000    -96.67162819
      0.00600000     -1.20000000   -115.30243606
      0.00700000     -1.40000000   -133.70090600
      0.00800000     -1.60000000   -151.86796770
      0.00900000     -1.80000000   -169.80455113
      0.01000000     -2.00000000   -187.51158653
      0.01100000     -2.20000000   -204.99000441
      0.01200000     -2.40000000   -222.24073556
      0.01300000     -2.60000000   -239.26471104
      0.01400000     -2.80000000   -256.06286217
      0.01500000     -3.00000000   -272.63612055
      0.01600000     -3.20000000   -288.98541804
      0.01700000     -3.40000000   -305.11168677
      0.01800000     -3.60000000   -321.01585914
      0.01900000     -3.80000000   -336.69886781
      0.02000000     -4.00000000   -352.16164569
      0.02100000     -4.20000000   -367.40512597
      0.02200000     -4.40000000   -382.43024210
      0.02300000     -4.60000000   -397.23792779
      0.02400000     -4.80000000   -411.82911699
      0.02500000     -5.00000000   -426.20474392
      0.02600000     -5.20000000   -440.36574307
      0.02700000     -5.40000000   -454.31304917
      0.02800000     -5.60000000   -468.04759721
      0.02900000     -5.80000000   -481.57032242
      0.03000000     -6.00000000   -494.88216031
      0.03100000     -6.20000000   -507.98404661
      0.03200000     -6.40000000   -520.87691732
      0.03300000     -6.60000000   -533.56170869
      0.03400000     -6.80000000   -546.03935720
      0.03500000     -7.00000000   -558.31079959
      0.03600000     -7.20000000   -570.37697285
      0.03700000     -7.40000000   -582.23881421
      0.03800000     -7.60000000   -593.89726113
      0.03900000     -7.80000000   -605.35325133
      0.04000000     -8.00000000   -616.60772277
      0.04100000     -8.20000000   -627.66161364
      0.04200000     -8.40000000   -638.51586237
      0.04300000     -8.60000000   -649.17140764
      0.04400000     -8.80000000   -659.62918835
      0.04500000     -9.00000000   -669.89014365
      0.04600000     -9.20000000   -679.95521292
      0.04700000     -9.40000000   -689.82533578
      0.04800000     -9.60000000   -699.50145205
      0.04900000     -9.80000000   -708.98450183
      0.05000000    -10.00000000   -718.27542542
      0.05100000    -10.20000000   -727.37516335
      0.05200000    -10.40000000   -736.28465638
      0.05300000    -10.60000000   -745.00484551
      0.05400000    -10.80000000   -753.53667196
      0.05500000    -11.00000000   -761.88107715
      0.05600000    -11.20000000   -770.03900277
      0.05700000    -11.40000000   -778.01139068
      0.05800000    -11.60000000   -785.79918301
      0.05900000    -11.80000000   -793.40332207
      0.06000000    -12.00000000   -800.82475041
      0.06100000    -12.20000000   -808.06441081
      0.06200000    -12.40000000   -815.12324623
      0.06300000    -12.60000000   -822.00219988
      0.06400000    -12.80000000   -828.70221517
      0.06500000    -13.00000000   -835.22423573
      0.06600000    -13.20000000   -841.56920538
      0.06700000    -13.40000000   -847.73806819
      0.06800000    -13.60000000   -853.73176840
      0.06900000    -13.80000000   -859.55125050
      0.07000000    -14.00000000   -865.19745915
      0.07100000    -14.20000000   -870.67133923
      0.07200000    -14.40000000   -875.97383584
      0.07300000    -14.60000000   -881.10589426
      0.07400000    -14.80000000   -886.06846000
      0.07500000    -15.00000000   -890.86247875
      0.07600000    -15.20000000   -895.48889641
      0.07700000    -15.40000000   -899.94865909
      0.07800000    -15.60000000   -904.24271308
      0.07900000    -15.80000000   -908.37200487
      0.08000000    -16.00000000   -912.33748117
      0.08100000    -16.20000000   -916.14008885
      0.08200000    -16.40000000   -919.78077501
      0.08300000    -16.60000000   -923.26048692
      0.08400000    -16.80000000   -926.58017205
      0.08500000    -17.00000000   -929.74077806
      0.08600000    -17.20000000   -932.74325280
      0.08700000    -17.40000000   -935.58854432
      0.08800000    -17.60000000   -938.27760082
      0.08900000    -17.80000000   -940.81137074
      0.09000000    -18.00000000   -943.19080267
      0.09100000    -18.20000000   -945.41684538
      0.09200000    -18.40000000   -947.49044786
      0.09300000    -18.60000000   -949.41255924
      0.09400000    -18.80000000   -951.18412887
      0.09500000    -19.00000000   -952.80610623
      0.09600000    -19.20000000   -954.27944104
      0.09700000    -19.40000000   -955.60508314
      0.09800000    -19.60000000   -956.78398259
      0.09900000    -19.80000000   -957.81708959
      0.10000000    -20.00000000   -958.70535456
      0.10100000    -20.20000000   -959.44972803
      0.10200000    -20.40000000   -960.05116077
      0.10300000    -20.60000000   -960.51060367
      0.10400000    -20.80000000   -960.82900780
      0.10500000    -21.00000000   -961.00732443
      0.10600000    -21.20000000   -961.04650496
      0.10700000    -21.40000000   -960.94750096
      0.10800000    -21.60000000   -960.71126419
      0.10900000    -21.80000000   -960.33874656
      0.11000000    -22.00000000   -959.83090014
      0.11100000    -22.20000000   -959.18867715
      0.11200000    -22.40000000   -958.41303000
      0.11300000    -22.60000000   -957.50491124
      0.11400000    -22.80000000   -956.46527359
      0.11500000    -23.00000000   -955.29506991
      0.11600000    -23.20000000   -953.99525322
      0.11700000    -23.40000000   -952.56677672
      0.11800000    -23.60000000   -951.01059373
      0.11900000    -23.80000000   -949.32765774
      0.12000000    -24.00000000   -947.51892239
      0.12100000    -24.20000000   -945.58534148
      0.12200000    -24.40000000   -943.52786893
      0.12300000    -24.60000000   -941.34745884
      0.12400000    -24.80000000   -939.04506545
      0.12500000    -25.00000000   -936.62164312
      0.12600000    -25.20000000   -934.07814639
      0.12700000    -25.40000000   -931.41552993
      0.12800000    -25.60000000   -928.63474855
      0.12900000    -25.80000000   -925.73675719
      0.13000000    -26.00000000   -922.72251095
      0.13100000    -26.20000000   -919.59296507
      0.13200000    -26.40000000   -916.34907491
      0.13300000    -26.60000000   -912.99179598
      0.13400000    -26.80000000   -909.52208393
      0.13500000    -27.00000000   -905.94089452
      0.13600000    -27.20000000   -902.24918368
      0.13700000    -27.40000000   -898.44790743
      0.13800000    -27.60000000   -894.53802196
      0.13900000    -27.80000000   -890.52048357
      0.14000000    -28.00000000   -886.39624870
      0.14100000    -28.20000000   -882.16627389
      0.14200000    -28.40000000   -877.83151584
      0.14300000    -28.60000000   -873.39293137
      0.14400000    -28.80000000   -868.85147740
      0.14500000    -29.00000000   -864.20811100
      0.14600000    -29.20000000   -859.46378935
      0.14700000    -29.40000000   -854.61946975
      0.14800000    -29.60000000   -849.67610962
      0.14900000    -29.80000000   -844.63466651
      0.15000000    -30.00000000   -839.49609807
      0.15100000    -30.20000000   -834.26136208
      0.15200000    -30.40000000   -828.93141642
      0.15300000    -30.60000000   -823.50721911
      0.15400000    -30.80000000   -817.98972825
      0.15500000    -31.00000000   -812.37990207
      0.15600000    -31.20000000   -806.67869892
      0.15700000    -31.40000000   -800.88707724
      0.15800000    -31.60000000   -795.00599559
      0.15900000    -31.80000000   -789.03641263
      0.16000000    -32.00000000   -782.97928713
      0.16100000    -32.20000000   -776.83557797
      0.16200000    -32.40000000   -770.60624412
      0.16300000    -32.60000000   -764.29224466
      0.16400000    -32.80000000   -757.89453879
      0.16500000    -33.00000000   -751.41408577
      0.16600000    -33.20000000   -744.85184499
      0.16700000    -33.40000000   -738.20877593
      0.16800000    -33.60000000   -731.48583816
      0.16900000    -33.80000000   -724.68399136
      0.17000000    -34.00000000   -717.80419530
      0.17100000    -34.20000000   -710.84740983
      0.17200000    -34.40000000   -703.81459491
      0.17300000    -34.60000000   -696.70671057
      0.17400000    -34.80000000   -689.52471696
      0.17500000    -35.00000000   -682.26957429
      0.17600000    -35.20000000   -674.94224287
      0.17700000    -35.40000000   -667.54368310
      0.17800000    -35.60000000   -660.07485546
      0.17900000    -35.80000000   -652.53672051
      0.18000000    -36.00000000   -644.93023891
      0.18100000    -36.20000000   -637.25637139
      0.18200000    -36.40000000   -629.51607874
      0.18300000    -36.60000000   -621.71032188
      0.18400000    -36.80000000   -613.84006176
      0.18500000    -37.00000000   -605.90625943
      0.18600000    -37.20000000   -597.90987601
      0.18700000    -37.40000000   -589.85187271
      0.18800000    -37.60000000   -581.73321079
      0.18900000    -37.80000000   -573.55485159
      0.19000000    -38.00000000   -565.31775654
      0.19100000    -38.20000000   -557.02288711
      0.19200000    -38.40000000   -548.67120487
      0.19300000    -38.60000000   -540.26367144
      0.19400000    -38.80000000   -531.80124850
      0.19500000    -39.00000000   -523.28489782
      0.19600000    -39.20000000   -514.71558121
      0.19700000    -39.40000000   -506.09426056
      0.19800000    -39.60000000   -497.42189781
      0.19900000    -39.80000000   -488.69945497
      0.20000000    -40.00000000   -479.92789412
      0.20100000    -40.20000000   -471.10817736
      0.20200000    -40.40000000   -462.24126690
      0.20300000    -40.60000000   -453.32812498
      0.20400000    -40.80000000   -444.36971387
      0.20500000    -41.00000000   -435.36699595
      0.20600000    -41.20000000   -426.32093361
      0.20700000    -41.40000000   -417.23248930
      0.20800000    -41.60000000   -408.10262554
      0.20900000    -41.80000000   -398.93230488
      0.21000000    -42.00000000   -389.72248992
      0.21100000    -42.20000000   -380.47414332
      0.21200000    -42.40000000   -371.18822777
      0.21300000    -42.60000000   -361.86570601
      0.21400000    -42.80000000   -352.50754084
      0.21500000    -43.00000000   -343.11469509
      0.21600000    -43.20000000   -333.68813162
      0.21700000    -43.40000000   -324.22881334
      0.21800000    -43.60000000   -314.73770321
      0.21900000    -43.80000000   -305.21576422
      0.22000000    -44.00000000   -295.66395939
      0.22100000    -44.20000000   -286.08325179
      0.22200000    -44.40000000   -276.47460450
      0.22300000    -44.60000000   -266.83898067
      0.22400000    -44.80000000   -257.17734345
      0.22500000    -45.00000000   -247.49065603
      0.22600000    -45.20000000   -237.77988165
      0.22700000    -45.40000000   -228.04598354
      0.22800000    -45.60000000   -218.28992500
      0.22900000    -45.80000000   -208.51266933
      0.23000000    -46.00000000   -198.71517986
      0.23100000    -46.20000000   -188.89841994
      0.23200000    -46.40000000   -179.06335296
      0.23300000    -46.60000000   -169.21094232
      0.23400000    -46.80000000   -159.34215144
      0.23500000    -47.00000000   -149.45794377
      0.23600000    -47.20000000   -139.55928275
      0.23700000    -47.40000000   -129.64713188
      0.23800000    -47.60000000   -119.72245464
      0.23900000    -47.80000000   -109.78621454
      0.24000000    -48.00000000    -99.83937511
      0.24100000    -48.20000000    -89.88289988
      0.24200000    -48.40000000    -79.91775240
      0.24300000    -48.60000000    -69.94489622
      0.24400000    -48.80000000    -59.96529492
      0.24500000    -49.00000000    -49.97991206
      0.24600000    -49.20000000    -39.98971123
      0.24700000    -49.40000000    -29.99565601
      0.24800000    -49.60000000    -19.99871001
      0.24900000    -49.80000000     -9.99983680
      0.25000000    -50.00000000      0.00000000
      0.25100000    -50.20000000      9.99983680
      0.25200000    -50.40000000     19.99871001
      0.25300000    -50.60000000     29.99565601
      0.25400000    -50.80000000     39.98971123
      0.25500000    -51.00000000     49.97991206
      0.25600000    -51.20000000     59.96529492
      0.25700000    -51.40000000     69.94489622
      0.25800000    -51.60000000     79.91775240
      0.25900000    -51.80000000     89.88289988
      0.26000000    -52.00000000     99.83937511
      0.26100000    -52.20000000    109.78621454
      0.26200000    -52.40000000    119.72245464
      0.26300000    -52.60000000    129.64713188
      0.26400000    -52.80000000    139.55928275
      0.26500000    -53.00000000    149.45794377
      0.26600000    -53.20000000    159.34215144
      0.26700000    -53.40000000    169.21094232
      0.26800000    -53.60000000    179.06335296
      0.26900000    -53.80000000    188.89841994
      0.27000000    -54.00000000    198.71517986
      0.27100000    -54.20000000    208.51266933
      0.27200000    -54.40000000    218.28992500
      0.27300000    -54.60000000    228.04598354
      0.27400000    -54.80000000    237.77988165
      0.27500000    -55.00000000    247.49065603
      0.27600000    -55.20000000    257.17734345
      0.27700000    -55.40000000    266.83898067
      0.27800000    -55.60000000    276.47460450
      0.27900000    -55.80000000    286.08325179
      0.28000000    -56.00000000    295.66395939
      0.28100000    -56.20000000    305.21576422
      0.28200000    -56.40000000    314.73770321
      0.28300000    -56.60000000    324.22881334
      0.28400000    -56.80000000    333.68813162
      0.28500000    -57.00000000    343.11469509
      0.28600000    -57.20000000    352.50754084
      0.28700000    -57.40000000    361.86570601
      0.28800000    -57.60000000    371.18822777
      0.28900000    -57.80000000    380.47414332
      0.29000000    -58.00000000    389.72248992
      0.29100000    -58.20000000    398.93230488
      0.29200000    -58.40000000    408.10262554
      0.29300000    -58.60000000    417.23248930
      0.29400000    -58.80000000    426.32093361
      0.29500000    -59.00000000    435.36699595
      0.29600000    -59.20000000    444.36971387
      0.29700000    -59.40000000    453.32812498
      0.29800000    -59.60000000    462.24126690
      0.29900000    -59.80000000    471.10817736
      0.30000000    -60.00000000    479.92789412
      0.30100000    -60.20000000    488.69945497
      0.30200000    -60.40000000    497.42189781
      0.30300000    -60.60000000    506.09426056
      0.30400000    -60.80000000    514.71558121
      0.30500000    -61.00000000    523.28489782
      0.30600000    -61.20000000    531.80124850
      0.30700000    -61.40000000    540.26367144
      0.30800000    -61.60000000    548.67120487
      0.30900000    -61.80000000    557.02288711
      0.31000000    -62.00000000    565.31775654
      0.31100000    -62.20000000    573.55485159
      0.31200000    -62.40000000    581.73321079
      0.31300000    -62.60000000    589.85187271
      0.31400000    -62.80000000    597.90987601
      0.31500000    -63.00000000    605.90625943
      0.31600000    -63.20000000    613.84006176
      0.31700000    -63.40000000    621.71032188
      0.31800000    -63.60000000    629.51607874
      0.31900000    -63.80000000    637.25637139
      0.32000000    -64.00000000    644.93023891
      0.32100000    -64.20000000    652.53672051
      0.32200000    -64.40000000    660.07485546
      0.32300000    -64.60000000    667.54368310
      0.32400000    -64.80000000    674.94224287
      0.32500000    -65.00000000    682.26957429
      0.32600000    -65.20000000    689.52471696
      0.32700000    -65.40000000    696.70671057
      0.32800000    -65.60000000    703.81459491
      0.32900000    -65.80000000    710.84740983
      0.33000000    -66.00000000    717.80419530
      0.33100000    -66.20000000    724.68399136
      0.33200000    -66.40000000    731.48583816
      0.33300000    -66.60000000    738.20877593
      0.33400000    -66.80000000    744.85184499
      0.33500000    -67.00000000    751.41408577
      0.33600000    -67.20000000    757.89453879
      0.33700000    -67.40000000    764.29224466
      0.33800000    -67.60000000    770.60624412
      0.33900000    -67.80000000    776.83557797
      0.34000000    -68.00000000    782.97928713
      0.34100000    -68.20000000    789.03641263
      0.34200000    -68.40000000    795.00599559
      0.34300000    -68.60000000    800.88707724
      0.34400000    -68.80000000    806.67869892
      0.34500000    -69.00000000    812.37990207
      0.34600000    -69.20000000    817.98972825
      0.34700000    -69.40000000    823.50721911
      0.34800000    -69.60000000    828.93141642
      0.34900000    -69.80000000    834.26136208
      0.35000000    -70.00000000    839.49609807
      0.35100000    -70.20000000    844.63466651
      0.35200000    -70.40000000    849.67610962
      0.35300000    -70.60000000    854.61946975
      0.35400000    -70.80000000    859.46378935
      0.35500000    -71.00000000    864.20811100
      0.35600000    -71.20000000    868.85147740
      0.35700000    -71.40000000    873.39293137
      0.35800000    -71.60000000    877.83151584
      0.35900000    -71.80000000    882.16627389
      0.36000000    -72.00000000    886.39624870
      0.36100000    -72.20000000    890.52048357
      0.36200000    -72.40000000    894.53802196
      0.36300000    -72.60000000    898.44790743
      0.36400000    -72.80000000    902.24918368
      0.36500000    -73.00000000    905.94089452
      0.36600000    -73.20000000    909.52208393
      0.36700000    -73.40000000    912.99179598
      0.36800000    -73.60000000    916.34907491
      0.36900000    -73.80000000    919.59296507
      0.37000000    -74.00000000    922.72251095
      0.37100000    -74.20000000    925.73675719
      0.37200000    -74.40000000    928.63474855
      0.37300000    -74.60000000    931.41552993
      0.37400000    -74.80000000    934.07814639
      0.37500000    -75.00000000    936.62164312
      0.37600000    -75.20000000    939.04506545
      0.37700000    -75.40000000    941.34745884
      0.37800000    -75.60000000    943.52786893
      0.37900000    -75.80000000    945.58534148
      0.38000000    -76.00000000    947.51892239
      0.38100000    -76.20000000    949.32765774
      0.38200000    -76.40000000    951.01059373
      0.38300000    -76.60000000    952.56677672
      0.38400000    -76.80000000    953.99525322
      0.38500000    -77.00000000    955.29506991
      0.38600000    -77.20000000    956.46527359
      0.38700000    -77.40000000    957.50491124
      0.38800000    -77.60000000    958.41303000
      0.38900000    -77.80000000    959.18867715
      0.39000000    -78.00000000    959.83090014
      0.39100000    -78.20000000    960.33874656
      0.39200000    -78.40000000    960.71126419
      0.39300000    -78.60000000    960.94750096
      0.39400000    -78.80000000    961.04650496
      0.39500000    -79.00000000    961.00732443
      0.39600000    -79.20000000    960.82900780
      0.39700000    -79.40000000    960.51060367
      0.39800000    -79.60000000    960.05116077
      0.39900000    -79.80000000    959.44972803
      0.40000000    -80.00000000    958.70535456
      0.40100000    -80.20000000    957.81708959
      0.40200000    -80.40000000    956.78398259
      0.40300000    -80.60000000    955.60508314
      0.40400000    -80.80000000    954.27944104
      0.40500000    -81.00000000    952.80610623
      0.40600000    -81.20000000    951.18412887
      0.40700000    -81.40000000    949.41255924
      0.40800000    -81.60000000    947.49044786
      0.40900000    -81.80000000    945.41684538
      0.41000000    -82.00000000    943.19080267
      0.41100000    -82.20000000    940.81137074
      0.41200000    -82.40000000    938.27760082
      0.41300000    -82.60000000    935.58854432
      0.41400000    -82.80000000    932.74325280
      0.41500000    -83.00000000    929.74077806
      0.41600000    -83.20000000    926.58017205
      0.41700000    -83.40000000    923.26048692
      0.41800000    -83.60000000    919.78077501
      0.41900000    -83.80000000    916.14008885
      0.42000000    -84.00000000    912.33748117
      0.42100000    -84.20000000    908.37200487
      0.42200000    -84.40000000    904.24271308
      0.42300000    -84.60000000    899.94865909
      0.42400000    -84.80000000    895.48889641
      0.42500000    -85.00000000    890.86247875
      0.42600000    -85.20000000    886.06846000
      0.42700000    -85.40000000    881.10589426
      0.42800000    -85.60000000    875.97383584
      0.42900000    -85.80000000    870.67133923
      0.43000000    -86.00000000    865.19745915
      0.43100000    -86.20000000    859.55125050
      0.43200000    -86.40000000    853.73176840
      0.43300000    -86.60000000    847.73806819
      0.43400000    -86.80000000    841.56920538
      0.43500000    -87.00000000    835.22423573
      0.43600000    -87.20000000    828.70221517
      0.43700000    -87.40000000    822.00219988
      0.43800000    -87.60000000    815.12324623
      0.43900000    -87.80000000    808.06441081
      0.44000000    -88.00000000    800.82475041
      0.44100000    -88.20000000    793.40332207
      0.44200000    -88.40000000    785.79918301
      0.44300000    -88.60000000    778.01139068
      0.44400000    -88.80000000    770.03900277
      0.44500000    -89.00000000    761.88107715
      0.44600000    -89.20000000    753.53667196
      0.44700000    -89.40000000    745.00484551
      0.44800000    -89.60000000    736.28465638
      0.44900000    -89.80000000    727.37516335
      0.45000000    -90.00000000    718.27542542
      0.45100000    -90.20000000    708.98450183
      0.45200000    -90.40000000    699.50145205
      0.45300000    -90.60000000    689.82533578
      0.45400000    -90.80000000    679.95521292
      0.45500000    -91.00000000    669.89014365
      0.45600000    -91.20000000    659.62918835
      0.45700000    -91.40000000    649.17140764
      0.45800000    -91.60000000    638.51586237
      0.45900000    -91.80000000    627.66161364
      0.46000000    -92.00000000    616.60772277
      0.46100000    -92.20000000    605.35325133
      0.46200000    -92.40000000    593.89726113
      0.46300000    -92.60000000    582.23881421
      0.46400000    -92.80000000    570.37697285
      0.46500000    -93.00000000    558.31079959
      0.46600000    -93.20000000    546.03935720
      0.46700000    -93.40000000    533.56170869
      0.46800000    -93.60000000    520.87691732
      0.46900000    -93.80000000    507.98404661
      0.47000000    -94.00000000    494.88216031
      0.47100000    -94.20000000    481.57032242
      0.47200000    -94.40000000    468.04759721
      0.47300000    -94.60000000    454.31304917
      0.47400000    -94.80000000    440.36574307
      0.47500000    -95.00000000    426.20474392
      0.47600000    -95.20000000    411.82911699
      0.47700000    -95.40000000    397.23792779
      0.47800000    -95.60000000    382.43024210
      0.47900000    -95.80000000    367.40512597
      0.48000000    -96.00000000    352.16164569
      0.48100000    -96.20000000    336.69886781
      0.48200000    -96.40000000    321.01585914
      0.48300000    -96.60000000    305.11168677
      0.48400000    -96.80000000    288.98541804
      0.48500000    -97.00000000    272.63612055
      0.48600000    -97.20000000    256.06286217
      0.48700000    -97.40000000    239.26471104
      0.48800000    -97.60000000    222.24073556
      0.48900000    -97.80000000    204.99000441
      0.49000000    -98.00000000    187.51158653
      0.49100000    -98.20000000    169.80455113
      0.49200000    -98.40000000    151.86796770
      0.49300000    -98.60000000    133.70090600
      0.49400000    -98.80000000    115.30243606
      0.49500000    -99.00000000     96.67162819
      0.49600000    -99.20000000     77.80755297
      0.49700000    -99.40000000     58.70928126
      0.49800000    -99.60000000     39.37588420
      0.49900000    -99.80000000     19.80643322
      0.50000000   -100.00000000      0.00000000
      0.50100000   -100.20000000    -20.04434346
      0.50200000   -100.40000000    -40.32752491
      0.50300000   -100.60000000    -60.85047180
      0.50400000   -100.80000000    -81.61411128
      0.50500000   -101.00000000   -102.61937026
      0.50600000   -101.20000000   -123.86717531
      0.50700000   -101.40000000   -145.35845275
      0.50800000   -101.60000000   -167.09412859
      0.50900000   -101.80000000   -189.07512856
      0.51000000   -102.00000000   -211.30237809
      0.51100000   -102.20000000   -233.77680233
      0.51200000   -102.40000000   -256.49932613
      0.51300000   -102.60000000   -279.47087404
      0.51400000   -102.80000000   -302.69237032
      0.51500000   -103.00000000   -326.16473893
      0.51600000   -103.20000000   -349.88890354
      0.51700000   -103.40000000   -373.86578751
      0.51800000   -103.60000000   -398.09631391
      0.51900000   -103.80000000   -422.58140551
      0.52000000   -104.00000000   -447.32198476
      0.52100000   -104.20000000   -472.31897382
      0.52200000   -104.40000000   -497.57329456
      0.52300000   -104.60000000   -523.08586851
      0.52400000   -104.80000000   -548.85761693
      0.52500000   -105.00000000   -574.88946075
      0.52600000   -105.20000000   -601.18232059
      0.52700000   -105.40000000   -627.73711677
      0.52800000   -105.60000000   -654.55476931
      0.52900000   -105.80000000   -681.63619789
      0.53000000   -106.00000000   -708.98232190
      0.53100000   -106.20000000   -736.59406041
      0.53200000   -106.40000000   -764.47233217
      0.53300000   -106.60000000   -792.61805562
      0.53400000   -106.80000000   -821.03214887
      0.53500000   -107.00000000   -849.71552974
      0.53600000   -107.20000000   -878.66911570
      0.53700000   -107.40000000   -907.89382392
      0.53800000   -107.60000000   -937.39057124
      0.53900000   -107.80000000   -967.16027418
      0.54000000   -108.00000000   -997.20384894
      0.54100000   -108.20000000  -1027.52221138
      0.54200000   -108.40000000  -1058.11627705
      0.54300000   -108.60000000  -1088.98696117
      0.54400000   -108.80000000  -1120.13517864
      0.54500000   -109.00000000  -1151.56184401
      0.54600000   -109.20000000  -1183.26787153
      0.54700000   -109.40000000  -1215.25417508
      0.54800000   -109.60000000  -1247.52166825
      0.54900000   -109.80000000  -1280.07126426
      0.55000000   -110.00000000  -1312.90387603
      0.55100000   -110.20000000  -1346.02041613
      0.55200000   -110.40000000  -1379.42179677
      0.55300000   -110.60000000  -1413.10892987
      0.55400000   -110.80000000  -1447.08272697
      0.55500000   -111.00000000  -1481.34409929
      0.55600000   -111.20000000  -1515.89395772
      0.55700000   -111.40000000  -1550.73321279
      0.55800000   -111.60000000  -1585.86277468
      0.55900000   -111.80000000  -1621.28355326
      0.56000000   -112.00000000  -1656.99645803
      0.56100000   -112.20000000  -1693.00239815
      0.56200000   -112.40000000  -1729.30228243
      0.56300000   -112.60000000  -1765.89701933
      0.56400000   -112.80000000  -1802.78751699
      0.56500000   -113.00000000  -1839.97468315
      0.56600000   -113.20000000  -1877.45942525
      0.56700000   -113.40000000  -1915.24265035
      0.56800000   -113.60000000  -1953.32526515
      0.56900000   -113.80000000  -1991.70817602
      0.57000000   -114.00000000  -2030.39228896
      0.57100000   -114.20000000  -2069.37850963
      0.57200000   -114.40000000  -2108.66774330
      0.57300000   -114.60000000  -2148.26089491
      0.57400000   -114.80000000  -2188.15886904
      0.57500000   -115.00000000  -2228.36256990
      0.57600000   -115.20000000  -2268.87290134
      0.57700000   -115.40000000  -2309.69076686
      0.57800000   -115.60000000  -2350.81706958
      0.57900000   -115.80000000  -2392.25271226
      0.58000000   -116.00000000  -2433.99859730
      0.58100000   -116.20000000  -2476.05562673
      0.58200000   -116.40000000  -2518.42470222
      0.58300000   -116.60000000  -2561.10672506
      0.58400000   -116.80000000  -2604.10259618
      0.58500000   -117.00000000  -2647.41321614
      0.58600000   -117.20000000  -2691.03948511
      0.58700000   -117.40000000  -2734.98230292
      0.58800000   -117.60000000  -2779.24256900
      0.58900000   -117.80000000  -2823.82118241
      0.59000000   -118.00000000  -2868.71904184
      0.59100000   -118.20000000  -2913.93704561
      0.59200000   -118.40000000  -2959.47609165
      0.59300000   -118.60000000  -3005.33707752
      0.59400000   -118.80000000  -3051.52090038
      0.59500000   -119.00000000  -3098.02845705
      0.59600000   -119.20000000  -3144.86064392
      0.59700000   -119.40000000  -3192.01835704
      0.59800000   -119.60000000  -3239.50249205
      0.59900000   -119.80000000  -3287.31394421
      0.60000000   -120.00000000  -3335.45360840
      0.60100000   -120.20000000  -3383.92237912
      0.60200000   -120.40000000  -3432.72115045
      0.60300000   -120.60000000  -3481.85081612
      0.60400000   -120.80000000  -3526.96147958
      0.60500000   -121.00000000  -3538.72572937
      0.60600000   -121.20000000  -3550.50506467
      0.60700000   -121.40000000  -3562.29952577
      0.60800000   -121.60000000  -3574.10915298
      0.60900000   -121.80000000  -3585.93398656
      0.61000000   -122.00000000  -3597.77406676
      0.61100000   -122.20000000  -3609.62943383
      0.61200000   -122.40000000  -3621.50012797
      0.61300000   -122.60000000  -3633.38618939
      0.61400000   -122.80000000  -3645.28765827
      0.61500000   -123.00000000  -3657.20457477
      0.61600000   -123.20000000  -3669.13697904
      0.61700000   -123.40000000  -3681.08491119
      0.61800000   -123.60000000  -3693.04841134
      0.61900000   -123.80000000  -3705.02751957
      0.62000000   -124.00000000  -3717.02227595
      0.62100000   -124.20000000  -3729.03272054
      0.62200000   -124.40000000  -3741.05889336
      0.62300000   -124.60000000  -3753.10083443
      0.62400000   -124.80000000  -3765.15858373
      0.62500000   -125.00000000  -3777.23218126
      0.62600000   -125.20000000  -3789.32166695
      0.62700000   -125.40000000  -3801.42708076
      0.62800000   -125.60000000  -3813.54846259
      0.62900000   -125.80000000  -3825.68585235
      0.63000000   -126.00000000  -3837.83928992
      0.63100000   -126.20000000  -3850.00881515
      0.63200000   -126.40000000  -3862.19446789
      0.63300000   -126.60000000  -3874.39628796
      0.63400000   -126.80000000  -3886.61431516
      0.63500000   -127.00000000  -3898.84858928
      0.63600000   -127.20000000  -3911.09915008
      0.63700000   -127.40000000  -3923.36603731
      0.63800000   -127.60000000  -3935.64929068
      0.63900000   -127.80000000  -3947.94894991
      0.64000000   -128.00000000  -3960.26505469
      0.64100000   -128.20000000  -3972.59764467
      0.64200000   -128.40000000  -3984.94675950
      0.64300000   -128.60000000  -3997.31243881
      0.64400000   -128.80000000  -4009.69472222
      0.64500000   -129.00000000  -4022.09364930
      0.64600000   -129.20000000  -4034.50925962
      0.64700000   -129.40000000  -4046.94159273
      0.64800000   -129.60000000  -4059.39068816
      0.64900000   -129.80000000  -4071.85658542
      0.65000000   -130.00000000  -4084.33932399
      0.65100000   -130.20000000  -4096.83894334
      0.65200000   -130.40000000  -4109.35548292
      0.65300000   -130.60000000  -4121.88898215
      0.65400000   -130.80000000  -4134.43948044
      0.65500000   -131.00000000  -4147.00701719
      0.65600000   -131.20000000  -4159.59163174
      0.65700000   -131.40000000  -4172.19336346
      0.65800000   -131.60000000  -4184.81225167
      0.65900000   -131.80000000  -4197.44833566
      0.66000000   -132.00000000  -4210.10165474
      0.66100000   -132.20000000  -4222.77224815
      0.66200000   -132.40000000  -4235.46015514
      0.66300000   -132.60000000  -4248.16541495
      0.66400000   -132.80000000  -4260.88806676
      0.66500000   -133.00000000  -4273.62814976
      0.66600000   -133.20000000  -4286.38570311
      0.66700000   -133.40000000  -4299.16076595
      0.66800000   -133.60000000  -4311.95337741
      0.66900000   -133.80000000  -4324.76357657
      0.67000000   -134.00000000  -4337.59140252
      0.67100000   -134.20000000  -4350.43689431
      0.67200000   -134.40000000  -4363.30009097
      0.67300000   -134.60000000  -4376.18103153
      0.67400000   -134.80000000  -4389.07975497
      0.67500000   -135.00000000  -4401.99630027
      0.67600000   -135.20000000  -4414.93070637
      0.67700000   -135.40000000  -4427.88301222
      0.67800000   -135.60000000  -4440.85325670
      0.67900000   -135.80000000  -4453.84147872
      0.68000000   -136.00000000  -4466.84771714
      0.68100000   -136.20000000  -4479.87201080
      0.68200000   -136.40000000  -4492.91439852
      0.68300000   -136.60000000  -4505.97491910
      0.68400000   -136.80000000  -4519.05361134
      0.68500000   -137.00000000  -4532.15051397
      0.68600000   -137.20000000  -4545.26566575
      0.68700000   -137.40000000  -4558.39910538
      0.68800000   -137.60000000  -4571.55087155
      0.68900000   -137.80000000  -4584.72100295
      0.69000000   -138.00000000  -4597.90953821
      0.69100000   -138.20000000  -4611.11651597
      0.69200000   -138.40000000  -4624.34197483
      0.69300000   -138.60000000  -4637.58595338
      0.69400000   -138.80000000  -4650.84849017
      0.69500000   -139.00000000  -4664.12962375
      0.69600000   -139.20000000  -4677.42939263
      0.69700000   -139.40000000  -4690.74783531
      0.69800000   -139.60000000  -4704.08499027
      0.69900000   -139.80000000  -4717.44089595
      0.70000000   -140.00000000  -4730.81559079
      0.70100000   -140.20000000  -4744.20911318
      0.70200000   -140.40000000  -4757.62150152
      0.70300000   -140.60000000  -4771.05279417
      0.70400000   -140.80000000  -4784.50302947
      0.70500000   -141.00000000  -4797.97224572
      0.70600000   -141.20000000  -4811.46048124
      0.70700000   -141.40000000  -4824.96777429
      0.70800000   -141.60000000  -4838.49416312
      0.70900000   -141.80000000  -4852.03968596
      0.71000000   -142.00000000  -4865.60438100
      0.71100000   -142.20000000  -4879.18828645
      0.71200000   -142.40000000  -4892.79144044
      0.71300000   -142.60000000  -4906.41388112
      0.71400000   -142.80000000  -4920.05564661
      0.71500000   -143.00000000  -4933.71677499
      0.71600000   -143.20000000  -4947.39730433
      0.71700000   -143.40000000  -4961.09727267
      0.71800000   -143.60000000  -4974.81671804
      0.71900000   -143.80000000  -4988.55567843
      0.72000000   -144.00000000  -5002.31419182
      0.72100000   -144.20000000  -5016.09229617
      0.72200000   -144.40000000  -5029.89002939
      0.72300000   -144.60000000  -5043.70742941
      0.72400000   -144.80000000  -5057.54453409
      0.72500000   -145.00000000  -5071.40138131
      0.72600000   -145.20000000  -5085.27800889
      0.72700000   -145.40000000  -5099.17445464
      0.72800000   -145.60000000  -5113.09075637
      0.72900000   -145.80000000  -5127.02695183
      0.73000000   -146.00000000  -5140.98307876
      0.73100000   -146.20000000  -5154.95917489
      0.73200000   -146.40000000  -5168.95527791
      0.73300000   -146.60000000  -5182.97142550
      0.73400000   -146.80000000  -5197.00765529
      0.73500000   -147.00000000  -5211.06400491
      0.73600000   -147.20000000  -5225.14051197
      0.73700000   -147.40000000  -5239.23721404
      0.73800000   -147.60000000  -5253.35414867
      0.73900000   -147.80000000  -5267.49135340
      0.74000000   -148.00000000  -5281.64886573
      0.74100000   -148.20000000  -5295.82672313
      0.74200000   -148.40000000  -5310.02496307
      0.74300000   -148.60000000  -5324.24362298
      0.74400000   -148.80000000  -5338.48274027
      0.74500000   -149.00000000  -5352.74235232
      0.74600000   -149.20000000  -5367.02249650
      0.74700000   -149.40000000  -5381.32321014
      0.74800000   -149.60000000  -5395.64453055
      0.74900000   -149.80000000  -5409.98649502
      0.75000000   -150.00000000  -5424.34914082
      0.75100000   -150.20000000  -5438.73250518
      0.75200000   -150.40000000  -5453.13662533
      0.75300000   -150.60000000  -5467.56153844
      0.75400000   -150.80000000  -5482.00728169
      0.75500000   -151.00000000  -5496.47389222
      0.75600000   -151.20000000  -5510.96140714
      0.75700000   -151.40000000  -5525.46986355
      0.75800000   -151.60000000  -5539.99929852
      0.75900000   -151.80000000  -5554.54974909
      0.76000000   -152.00000000  -5569.12125227
      0.76100000   -152.20000000  -5583.71384506
      0.76200000   -152.40000000  -5598.32756444
      0.76300000   -152.60000000  -5612.96244733
      0.76400000   -152.80000000  -5627.61853067
      0.76500000   -153.00000000  -5642.29585135
      0.76600000   -153.20000000  -5656.99444623
      0.76700000   -153.40000000  -5671.71435217
      0.76800000   -153.60000000  -5686.45560597
      0.76900000   -153.80000000  -5701.21824444
      0.77000000   -154.00000000  -5716.00230434
      0.77100000   -154.20000000  -5730.80782242
      0.77200000   -154.40000000  -5745.63483540
      0.77300000   -154.60000000  -5760.48337996
      0.77400000   -154.80000000  -5775.35349279
      0.77500000   -155.00000000  -5790.24521051
      0.77600000   -155.20000000  -5805.15856975
      0.77700000   -155.40000000  -5820.09360710
      0.77800000   -155.60000000  -5835.05035913
      0.77900000   -155.80000000  -5850.02886238
      0.78000000   -156.00000000  -5865.02915336
      0.78100000   -156.20000000  -5880.05126857
      0.78200000   -156.40000000  -5895.09524446
      0.78300000   -156.60000000  -5910.16111748
      0.78400000   -156.80000000  -5925.24892405
      0.78500000   -157.00000000  -5940.35870054
      0.78600000   -157.20000000  -5955.49048332
      0.78700000   -157.40000000  -5970.64430873
      0.78800000   -157.60000000  -5985.82021308
      0.78900000   -157.80000000  -6001.01823265
      0.79000000   -158.00000000  -6016.23840370
      0.79100000   -158.20000000  -6031.48076247
      0.79200000   -158.40000000  -6046.74534515
      0.79300000   -158.60000000  -6062.03218794
      0.79400000   -158.80000000  -6077.34132697
      0.79500000   -159.00000000  -6092.67279840
      0.79600000   -159.20000000  -6108.02663831
      0.79700000   -159.40000000  -6123.40288278
      0.79800000   -159.60000000  -6138.80156786
      0.79900000   -159.80000000  -6154.22272958
      0.80000000   -160.00000000  -6169.66640393
      0.80100000   -160.20000000  -6185.13262689
      0.80200000   -160.40000000  -6200.62143439
      0.80300000   -160.60000000  -6216.13286237
      0.80400000   -160.80000000  -6231.66694670
      0.80500000   -161.00000000  -6247.22372326
      0.80600000   -161.20000000  -6262.80322789
      0.80700000   -161.40000000  -6278.40549639
      0.80800000   -161.60000000  -6294.03056456
      0.80900000   -161.80000000  -6309.67846815
      0.81000000   -162.00000000  -6325.34924289
      0.81100000   -162.20000000  -6341.04292449
      0.81200000   -162.40000000  -6356.75954864
      0.81300000   -162.60000000  -6372.49915098
      0.81400000   -162.80000000  -6388.26176713
      0.81500000   -163.00000000  -6404.04743271
      0.81600000   -163.20000000  -6419.85618327
      0.81700000   -163.40000000  -6435.68805437
      0.81800000   -163.60000000  -6451.54308152
      0.81900000   -163.80000000  -6467.42130021
      0.82000000   -164.00000000  -6483.32274592
      0.82100000   -164.20000000  -6499.24745406
      0.82200000   -164.40000000  -6515.19546007
      0.82300000   -164.60000000  -6531.16679931
      0.82400000   -164.80000000  -6547.16150714
      0.82500000   -165.00000000  -6563.17961889
      0.82600000   -165.20000000  -6579.22116987
      0.82700000   -165.40000000  -6595.28619534
      0.82800000   -165.60000000  -6611.37473056
      0.82900000   -165.80000000  -6627.48681074
      0.83000000   -166.00000000  -6643.62247107
      0.83100000   -166.20000000  -6659.78174673
      0.83200000   -166.40000000  -6675.96467283
      0.83300000   -166.60000000  -6692.17128451
      0.83400000   -166.80000000  -6708.40161683
      0.83500000   -167.00000000  -6724.65570485
      0.83600000   -167.20000000  -6740.93358359
      0.83700000   -167.40000000  -6757.23528807
      0.83800000   -167.60000000  -6773.56085324
      0.83900000   -167.80000000  -6789.91031406
      0.84000000   -168.00000000  -6806.28370543
      0.84100000   -168.20000000  -6822.68106225
      0.84200000   -168.40000000  -6839.10241938
      0.84300000   -168.60000000  -6855.54781164
      0.84400000   -168.80000000  -6872.01727385
      0.84500000   -169.00000000  -6888.51084077
      0.84600000   -169.20000000  -6905.02854717
      0.84700000   -169.40000000  -6921.57042775
      0.84800000   -169.60000000  -6938.13651721
      0.84900000   -169.80000000  -6954.72685022
      0.85000000   -170.00000000  -6971.34146142
      0.85100000   -170.20000000  -6987.98038540
      0.85200000   -170.40000000  -7004.64365675
      0.85300000   -170.60000000  -7021.33131003
      0.85400000   -170.80000000  -7038.04337975
      0.85500000   -171.00000000  -7054.77990042
      0.85600000   -171.20000000  -7071.54090649
      0.85700000   -171.40000000  -7088.32643241
      0.85800000   -171.60000000  -7105.13651258
      0.85900000   -171.80000000  -7121.97118140
      0.86000000   -172.00000000  -7138.83047321
      0.86100000   -172.20000000  -7155.71442233
      0.86200000   -172.40000000  -7172.62306307
      0.86300000   -172.60000000  -7189.55642969
      0.86400000   -172.80000000  -7206.51455643
      0.86500000   -173.00000000  -7223.49747750
      0.86600000   -173.20000000  -7240.50522708
      0.86700000   -173.40000000  -7257.53783933
      0.86800000   -173.60000000  -7274.59534837
      0.86900000   -173.80000000  -7291.67778830
      0.87000000   -174.00000000  -7308.78519317
      0.87100000   -174.20000000  -7325.91759704
      0.87200000   -174.40000000  -7343.07503391
      0.87300000   -174.60000000  -7360.25753776
      0.87400000   -174.80000000  -7377.46514254
      0.87500000   -175.00000000  -7394.69788217
      0.87600000   -175.20000000  -7411.95579055
      0.87700000   -175.40000000  -7429.23890154
      0.87800000   -175.60000000  -7446.54724898
      0.87900000   -175.80000000  -7463.88086667
      0.88000000   -176.00000000  -7481.23978839
      0.88100000   -176.20000000  -7498.62404788
      0.88200000   -176.40000000  -7516.03367887
      0.88300000   -176.60000000  -7533.46871505
      0.88400000   -176.80000000  -7550.92919007
      0.88500000   -177.00000000  -7568.41513756
      0.88600000   -177.20000000  -7585.92659113
      0.88700000   -177.40000000  -7603.46358435
      0.88800000   -177.60000000  -7621.02615076
      0.88900000   -177.80000000  -7638.61432388
      0.89000000   -178.00000000  -7656.22813718
      0.89100000   -178.20000000  -7673.86762412
      0.89200000   -178.40000000  -7691.53281813
      0.89300000   -178.60000000  -7709.22375260
      0.89400000   -178.80000000  -7726.94046089
      0.89500000   -179.00000000  -7744.68297635
      0.89600000   -179.20000000  -7762.45133228
      0.89700000   -179.40000000  -7780.24556195
      0.89800000   -179.60000000  -7798.06569861
      0.89900000   -179.80000000  -7815.91177547
      0.90000000   -180.00000000  -7833.78382574
      0.90100000   -180.20000000  -7851.68188255
      0.90200000   -180.40000000  -7869.60597904
      0.90300000   -180.60000000  -7887.55614831
      0.90400000   -180.80000000  -7905.53242342
      0.90500000   -181.00000000  -7923.53483741
      0.90600000   -181.20000000  -7941.56342330
      0.90700000   -181.40000000  -7959.61821404
      0.90800000   -181.60000000  -7977.69924260
      0.90900000   -181.80000000  -7995.80654189
      0.91000000   -182.00000000  -8013.94014480
      0.91100000   -182.20000000  -8032.10008418
      0.91200000   -182.40000000  -8050.28639286
      0.91300000   -182.60000000  -8068.49910363
      0.91400000   -182.80000000  -8086.73824928
      0.91500000   -183.00000000  -8105.00386252
      0.91600000   -183.20000000  -8123.29597606
      0.91700000   -183.40000000  -8141.61462259
      0.91800000   -183.60000000  -8159.95983474
      0.91900000   -183.80000000  -8178.33164513
      0.92000000   -184.00000000  -8196.73008634
      0.92100000   -184.20000000  -8215.15519093
      0.92200000   -184.40000000  -8233.60699142
      0.92300000   -184.60000000  -8252.08552030
      0.92400000   -184.80000000  -8270.59081004
      0.92500000   -185.00000000  -8289.12289306
      0.92600000   -185.20000000  -8307.68180177
      0.92700000   -185.40000000  -8326.26756853
      0.92800000   -185.60000000  -8344.88022569
      0.92900000   -185.80000000  -8363.51980555
      0.93000000   -186.00000000  -8382.18634039
      0.93100000   -186.20000000  -8400.87986247
      0.93200000   -186.40000000  -8419.60040398
      0.93300000   -186.60000000  -8438.34799713
      0.93400000   -186.80000000  -8457.12267406
      0.93500000   -187.00000000  -8475.92446690
      0.93600000   -187.20000000  -8494.75340773
      0.93700000   -187.40000000  -8513.60952863
      0.93800000   -187.60000000  -8532.49286163
      0.93900000   -187.80000000  -8551.40343871
      0.94000000   -188.00000000  -8570.34129185
      0.94100000   -188.20000000  -8589.30645300
      0.94200000   -188.40000000  -8608.29895404
      0.94300000   -188.60000000  -8627.31882686
      0.94400000   -188.80000000  -8646.36610331
      0.94500000   -189.00000000  -8665.44081519
      0.94600000   -189.20000000  -8684.54299429
      0.94700000   -189.40000000  -8703.67267236
      0.94800000   -189.60000000  -8722.82988111
      0.94900000   -189.80000000  -8742.01465223
      0.95000000   -190.00000000  -8761.22701739
      0.95100000   -190.20000000  -8780.46700819
      0.95200000   -190.40000000  -8799.73465625
      0.95300000   -190.60000000  -8819.02999311
      0.95400000   -190.80000000  -8838.35305031
      0.95500000   -191.00000000  -8857.70385935
      0.95600000   -191.20000000  -8877.08245170
      0.95700000   -191.40000000  -8896.48885879
      0.95800000   -191.60000000  -8915.92311202
      0.95900000   -191.80000000  -8935.38524277
      0.96000000   -192.00000000  -8954.87528237
      0.96100000   -192.20000000  -8974.39326215
      0.96200000   -192.40000000  -8993.93921337
      0.96300000   -192.60000000  -9013.51316728
      0.96400000   -192.80000000  -9033.11515509
      0.96500000   -193.00000000  -9052.74520799
      0.96600000   -193.20000000  -9072.40335713
      0.96700000   -193.40000000  -9092.08963362
      0.96800000   -193.60000000  -9111.80406856
      0.96900000   -193.80000000  -9131.54669298
      0.97000000   -194.00000000  -9151.31753793
      0.97100000   -194.20000000  -9171.11663439
      0.97200000   -194.40000000  -9190.94401331
      0.97300000   -194.60000000  -9210.79970563
      0.97400000   -194.80000000  -9230.68374223
      0.97500000   -195.00000000  -9250.59615399
      0.97600000   -195.20000000  -9270.53697173
      0.97700000   -195.40000000  -9290.50622625
      0.97800000   -195.60000000  -9310.50394831
      0.97900000   -195.80000000  -9330.53016865
      0.98000000   -196.00000000  -9350.58491797
      0.98100000   -196.20000000  -9370.66822694
      0.98200000   -196.40000000  -9390.78012620
      0.98300000   -196.60000000  -9410.92064635
      0.98400000   -196.80000000  -9431.08981796
      0.98500000   -197.00000000  -9451.28767157
      0.98600000   -197.20000000  -9471.51423770
      0.98700000   -197.40000000  -9491.76954681
      0.98800000   -197.60000000  -9512.05362935
      0.98900000   -197.80000000  -9532.36651573
      0.99000000   -198.00000000  -9552.70823632
      0.99100000   -198.20000000  -9573.07882148
      0.99200000   -198.40000000  -9593.47830151
      0.99300000   -198.60000000  -9613.90670669
      0.99400000   -198.80000000  -9634.36406728
      0.99500000   -199.00000000  -9654.85041348
      0.99600000   -199.20000000  -9675.36577548
      0.99700000   -199.40000000  -9695.91018342
      0.99800000   -199.60000000  -9716.48366743
      0.99900000   -199.80000000  -9737.08625759
      1.00000000   -200.00000000  -9757.71798394
