*MATERIAL, 1
** ID  弹性模量  泊松比  密度  许用应力  膨胀系数
1             +6.500000E+11         0.000000      3800.000000         0.000000         0.000000

*SECTION, 1
** ID  面积
1                  0.005000

*NODE, 212
** ID  X  Y  Z
1                  0.000000        -0.282800        -0.282800
2             +9.992550E-05        -0.282800        -0.282804
3                  1.999161        -0.282800        -0.358467
4                  3.998337        -0.282800        -0.431046
5                  5.997623        -0.282800        -0.500540
6                  7.997013        -0.282800        -0.566949
7                  9.996503        -0.282800        -0.630272
8                 11.996089        -0.282800        -0.690510
9                 13.995765        -0.282800        -0.747660
10                15.995527        -0.282800        -0.801724
11                17.995370        -0.282800        -0.852701
12                19.995290        -0.282800        -0.900590
13                21.995281        -0.282800        -0.945391
14                23.995339        -0.282800        -0.987103
15                25.995459        -0.282800        -1.025727
16                27.995636        -0.282800        -1.061262
17                29.995866        -0.282800        -1.093708
18                31.996143        -0.282800        -1.123065
19                33.996463        -0.282800        -1.149332
20                35.996822        -0.282800        -1.172509
21                37.997214        -0.282800        -1.192596
22                39.997634        -0.282800        -1.209593
23                41.998079        -0.282800        -1.223500
24                43.998542        -0.282800        -1.234317
25                45.999020        -0.282800        -1.242043
26                47.999508        -0.282800        -1.246679
27                50.000000        -0.282800        -1.248224
28                52.000492        -0.282800        -1.246679
29                54.000980        -0.282800        -1.242043
30                56.001458        -0.282800        -1.234317
31                58.001921        -0.282800        -1.223500
32                60.002366        -0.282800        -1.209593
33                62.002786        -0.282800        -1.192596
34                64.003178        -0.282800        -1.172509
35                66.003537        -0.282800        -1.149332
36                68.003857        -0.282800        -1.123065
37                70.004134        -0.282800        -1.093708
38                72.004364        -0.282800        -1.061262
39                74.004541        -0.282800        -1.025727
40                76.004661        -0.282800        -0.987103
41                78.004719        -0.282800        -0.945391
42                80.004710        -0.282800        -0.900590
43                82.004630        -0.282800        -0.852701
44                84.004473        -0.282800        -0.801724
45                86.004235        -0.282800        -0.747660
46                88.003911        -0.282800        -0.690510
47                90.003497        -0.282800        -0.630272
48                92.002987        -0.282800        -0.566949
49                94.002377        -0.282800        -0.500540
50                96.001663        -0.282800        -0.431046
51                98.000839        -0.282800        -0.358467
52                99.999900        -0.282800        -0.282804
53               100.000000        -0.282800        -0.282800
54                 0.000000        -0.282800         0.282800
55            +9.992550E-05        -0.282800         0.282796
56                 1.999161        -0.282800         0.207133
57                 3.998337        -0.282800         0.134554
58                 5.997623        -0.282800         0.065060
59                 7.997013        -0.282800        -0.001349
60                 9.996503        -0.282800        -0.064672
61                11.996089        -0.282800        -0.124910
62                13.995765        -0.282800        -0.182060
63                15.995527        -0.282800        -0.236124
64                17.995370        -0.282800        -0.287101
65                19.995290        -0.282800        -0.334990
66                21.995281        -0.282800        -0.379791
67                23.995339        -0.282800        -0.421503
68                25.995459        -0.282800        -0.460127
69                27.995636        -0.282800        -0.495662
70                29.995866        -0.282800        -0.528108
71                31.996143        -0.282800        -0.557465
72                33.996463        -0.282800        -0.583732
73                35.996822        -0.282800        -0.606909
74                37.997214        -0.282800        -0.626996
75                39.997634        -0.282800        -0.643993
76                41.998079        -0.282800        -0.657900
77                43.998542        -0.282800        -0.668717
78                45.999020        -0.282800        -0.676443
79                47.999508        -0.282800        -0.681079
80                50.000000        -0.282800        -0.682624
81                52.000492        -0.282800        -0.681079
82                54.000980        -0.282800        -0.676443
83                56.001458        -0.282800        -0.668717
84                58.001921        -0.282800        -0.657900
85                60.002366        -0.282800        -0.643993
86                62.002786        -0.282800        -0.626996
87                64.003178        -0.282800        -0.606909
88                66.003537        -0.282800        -0.583732
89                68.003857        -0.282800        -0.557465
90                70.004134        -0.282800        -0.528108
91                72.004364        -0.282800        -0.495662
92                74.004541        -0.282800        -0.460127
93                76.004661        -0.282800        -0.421503
94                78.004719        -0.282800        -0.379791
95                80.004710        -0.282800        -0.334990
96                82.004630        -0.282800        -0.287101
97                84.004473        -0.282800        -0.236124
98                86.004235        -0.282800        -0.182060
99                88.003911        -0.282800        -0.124910
100               90.003497        -0.282800        -0.064672
101               92.002987        -0.282800        -0.001349
102               94.002377        -0.282800         0.065060
103               96.001663        -0.282800         0.134554
104               98.000839        -0.282800         0.207133
105               99.999900        -0.282800         0.282796
106              100.000000        -0.282800         0.282800
107                0.000000         0.282800         0.282800
108           +9.992550E-05         0.282800         0.282796
109                1.999161         0.282800         0.207133
110                3.998337         0.282800         0.134554
111                5.997623         0.282800         0.065060
112                7.997013         0.282800        -0.001349
113                9.996503         0.282800        -0.064672
114               11.996089         0.282800        -0.124910
115               13.995765         0.282800        -0.182060
116               15.995527         0.282800        -0.236124
117               17.995370         0.282800        -0.287101
118               19.995290         0.282800        -0.334990
119               21.995281         0.282800        -0.379791
120               23.995339         0.282800        -0.421503
121               25.995459         0.282800        -0.460127
122               27.995636         0.282800        -0.495662
123               29.995866         0.282800        -0.528108
124               31.996143         0.282800        -0.557465
125               33.996463         0.282800        -0.583732
126               35.996822         0.282800        -0.606909
127               37.997214         0.282800        -0.626996
128               39.997634         0.282800        -0.643993
129               41.998079         0.282800        -0.657900
130               43.998542         0.282800        -0.668717
131               45.999020         0.282800        -0.676443
132               47.999508         0.282800        -0.681079
133               50.000000         0.282800        -0.682624
134               52.000492         0.282800        -0.681079
135               54.000980         0.282800        -0.676443
136               56.001458         0.282800        -0.668717
137               58.001921         0.282800        -0.657900
138               60.002366         0.282800        -0.643993
139               62.002786         0.282800        -0.626996
140               64.003178         0.282800        -0.606909
141               66.003537         0.282800        -0.583732
142               68.003857         0.282800        -0.557465
143               70.004134         0.282800        -0.528108
144               72.004364         0.282800        -0.495662
145               74.004541         0.282800        -0.460127
146               76.004661         0.282800        -0.421503
147               78.004719         0.282800        -0.379791
148               80.004710         0.282800        -0.334990
149               82.004630         0.282800        -0.287101
150               84.004473         0.282800        -0.236124
151               86.004235         0.282800        -0.182060
152               88.003911         0.282800        -0.124910
153               90.003497         0.282800        -0.064672
154               92.002987         0.282800        -0.001349
155               94.002377         0.282800         0.065060
156               96.001663         0.282800         0.134554
157               98.000839         0.282800         0.207133
158               99.999900         0.282800         0.282796
159              100.000000         0.282800         0.282800
160                0.000000         0.282800        -0.282800
161           +9.992550E-05         0.282800        -0.282804
162                1.999161         0.282800        -0.358467
163                3.998337         0.282800        -0.431046
164                5.997623         0.282800        -0.500540
165                7.997013         0.282800        -0.566949
166                9.996503         0.282800        -0.630272
167               11.996089         0.282800        -0.690510
168               13.995765         0.282800        -0.747660
169               15.995527         0.282800        -0.801724
170               17.995370         0.282800        -0.852701
171               19.995290         0.282800        -0.900590
172               21.995281         0.282800        -0.945391
173               23.995339         0.282800        -0.987103
174               25.995459         0.282800        -1.025727
175               27.995636         0.282800        -1.061262
176               29.995866         0.282800        -1.093708
177               31.996143         0.282800        -1.123065
178               33.996463         0.282800        -1.149332
179               35.996822         0.282800        -1.172509
180               37.997214         0.282800        -1.192596
181               39.997634         0.282800        -1.209593
182               41.998079         0.282800        -1.223500
183               43.998542         0.282800        -1.234317
184               45.999020         0.282800        -1.242043
185               47.999508         0.282800        -1.246679
186               50.000000         0.282800        -1.248224
187               52.000492         0.282800        -1.246679
188               54.000980         0.282800        -1.242043
189               56.001458         0.282800        -1.234317
190               58.001921         0.282800        -1.223500
191               60.002366         0.282800        -1.209593
192               62.002786         0.282800        -1.192596
193               64.003178         0.282800        -1.172509
194               66.003537         0.282800        -1.149332
195               68.003857         0.282800        -1.123065
196               70.004134         0.282800        -1.093708
197               72.004364         0.282800        -1.061262
198               74.004541         0.282800        -1.025727
199               76.004661         0.282800        -0.987103
200               78.004719         0.282800        -0.945391
201               80.004710         0.282800        -0.900590
202               82.004630         0.282800        -0.852701
203               84.004473         0.282800        -0.801724
204               86.004235         0.282800        -0.747660
205               88.003911         0.282800        -0.690510
206               90.003497         0.282800        -0.630272
207               92.002987         0.282800        -0.566949
208               94.002377         0.282800        -0.500540
209               96.001663         0.282800        -0.431046
210               98.000839         0.282800        -0.358467
211               99.999900         0.282800        -0.282804
212              100.000000         0.282800        -0.282800

*ELEMENT, T3D2, 208
** ID  Node1  Node2  MaterialID  SectionID
1               1      2      1      1
2               2      3      1      1
3               3      4      1      1
4               4      5      1      1
5               5      6      1      1
6               6      7      1      1
7               7      8      1      1
8               8      9      1      1
9               9     10      1      1
10             10     11      1      1
11             11     12      1      1
12             12     13      1      1
13             13     14      1      1
14             14     15      1      1
15             15     16      1      1
16             16     17      1      1
17             17     18      1      1
18             18     19      1      1
19             19     20      1      1
20             20     21      1      1
21             21     22      1      1
22             22     23      1      1
23             23     24      1      1
24             24     25      1      1
25             25     26      1      1
26             26     27      1      1
27             27     28      1      1
28             28     29      1      1
29             29     30      1      1
30             30     31      1      1
31             31     32      1      1
32             32     33      1      1
33             33     34      1      1
34             34     35      1      1
35             35     36      1      1
36             36     37      1      1
37             37     38      1      1
38             38     39      1      1
39             39     40      1      1
40             40     41      1      1
41             41     42      1      1
42             42     43      1      1
43             43     44      1      1
44             44     45      1      1
45             45     46      1      1
46             46     47      1      1
47             47     48      1      1
48             48     49      1      1
49             49     50      1      1
50             50     51      1      1
51             51     52      1      1
52             52     53      1      1
53             54     55      1      1
54             55     56      1      1
55             56     57      1      1
56             57     58      1      1
57             58     59      1      1
58             59     60      1      1
59             60     61      1      1
60             61     62      1      1
61             62     63      1      1
62             63     64      1      1
63             64     65      1      1
64             65     66      1      1
65             66     67      1      1
66             67     68      1      1
67             68     69      1      1
68             69     70      1      1
69             70     71      1      1
70             71     72      1      1
71             72     73      1      1
72             73     74      1      1
73             74     75      1      1
74             75     76      1      1
75             76     77      1      1
76             77     78      1      1
77             78     79      1      1
78             79     80      1      1
79             80     81      1      1
80             81     82      1      1
81             82     83      1      1
82             83     84      1      1
83             84     85      1      1
84             85     86      1      1
85             86     87      1      1
86             87     88      1      1
87             88     89      1      1
88             89     90      1      1
89             90     91      1      1
90             91     92      1      1
91             92     93      1      1
92             93     94      1      1
93             94     95      1      1
94             95     96      1      1
95             96     97      1      1
96             97     98      1      1
97             98     99      1      1
98             99    100      1      1
99            100    101      1      1
100           101    102      1      1
101           102    103      1      1
102           103    104      1      1
103           104    105      1      1
104           105    106      1      1
105           107    108      1      1
106           108    109      1      1
107           109    110      1      1
108           110    111      1      1
109           111    112      1      1
110           112    113      1      1
111           113    114      1      1
112           114    115      1      1
113           115    116      1      1
114           116    117      1      1
115           117    118      1      1
116           118    119      1      1
117           119    120      1      1
118           120    121      1      1
119           121    122      1      1
120           122    123      1      1
121           123    124      1      1
122           124    125      1      1
123           125    126      1      1
124           126    127      1      1
125           127    128      1      1
126           128    129      1      1
127           129    130      1      1
128           130    131      1      1
129           131    132      1      1
130           132    133      1      1
131           133    134      1      1
132           134    135      1      1
133           135    136      1      1
134           136    137      1      1
135           137    138      1      1
136           138    139      1      1
137           139    140      1      1
138           140    141      1      1
139           141    142      1      1
140           142    143      1      1
141           143    144      1      1
142           144    145      1      1
143           145    146      1      1
144           146    147      1      1
145           147    148      1      1
146           148    149      1      1
147           149    150      1      1
148           150    151      1      1
149           151    152      1      1
150           152    153      1      1
151           153    154      1      1
152           154    155      1      1
153           155    156      1      1
154           156    157      1      1
155           157    158      1      1
156           158    159      1      1
157           160    161      1      1
158           161    162      1      1
159           162    163      1      1
160           163    164      1      1
161           164    165      1      1
162           165    166      1      1
163           166    167      1      1
164           167    168      1      1
165           168    169      1      1
166           169    170      1      1
167           170    171      1      1
168           171    172      1      1
169           172    173      1      1
170           173    174      1      1
171           174    175      1      1
172           175    176      1      1
173           176    177      1      1
174           177    178      1      1
175           178    179      1      1
176           179    180      1      1
177           180    181      1      1
178           181    182      1      1
179           182    183      1      1
180           183    184      1      1
181           184    185      1      1
182           185    186      1      1
183           186    187      1      1
184           187    188      1      1
185           188    189      1      1
186           189    190      1      1
187           190    191      1      1
188           191    192      1      1
189           192    193      1      1
190           193    194      1      1
191           194    195      1      1
192           195    196      1      1
193           196    197      1      1
194           197    198      1      1
195           198    199      1      1
196           199    200      1      1
197           200    201      1      1
198           201    202      1      1
199           202    203      1      1
200           203    204      1      1
201           204    205      1      1
202           205    206      1      1
203           206    207      1      1
204           207    208      1      1
205           208    209      1      1
206           209    210      1      1
207           210    211      1      1
208           211    212      1      1

*STRESS, 208
** 单元编号  应力
1             +5.003728E+07
2             +5.003436E+07
3             +5.003155E+07
4             +5.002887E+07
5             +5.002631E+07
6             +5.002386E+07
7             +5.002153E+07
8             +5.001933E+07
9             +5.001724E+07
10            +5.001527E+07
11            +5.001342E+07
12            +5.001169E+07
13            +5.001008E+07
14            +5.000859E+07
15            +5.000722E+07
16            +5.000597E+07
17            +5.000483E+07
18            +5.000382E+07
19            +5.000292E+07
20            +5.000215E+07
21            +5.000149E+07
22            +5.000095E+07
23            +5.000054E+07
24            +5.000024E+07
25            +5.000006E+07
26            +5.000000E+07
27            +5.000006E+07
28            +5.000024E+07
29            +5.000054E+07
30            +5.000095E+07
31            +5.000149E+07
32            +5.000215E+07
33            +5.000292E+07
34            +5.000382E+07
35            +5.000483E+07
36            +5.000597E+07
37            +5.000722E+07
38            +5.000859E+07
39            +5.001008E+07
40            +5.001169E+07
41            +5.001342E+07
42            +5.001527E+07
43            +5.001724E+07
44            +5.001933E+07
45            +5.002153E+07
46            +5.002386E+07
47            +5.002631E+07
48            +5.002887E+07
49            +5.003155E+07
50            +5.003436E+07
51            +5.003728E+07
52            +5.003728E+07
53            +5.003728E+07
54            +5.003436E+07
55            +5.003155E+07
56            +5.002887E+07
57            +5.002631E+07
58            +5.002386E+07
59            +5.002153E+07
60            +5.001933E+07
61            +5.001724E+07
62            +5.001527E+07
63            +5.001342E+07
64            +5.001169E+07
65            +5.001008E+07
66            +5.000859E+07
67            +5.000722E+07
68            +5.000597E+07
69            +5.000483E+07
70            +5.000382E+07
71            +5.000292E+07
72            +5.000215E+07
73            +5.000149E+07
74            +5.000095E+07
75            +5.000054E+07
76            +5.000024E+07
77            +5.000006E+07
78            +5.000000E+07
79            +5.000006E+07
80            +5.000024E+07
81            +5.000054E+07
82            +5.000095E+07
83            +5.000149E+07
84            +5.000215E+07
85            +5.000292E+07
86            +5.000382E+07
87            +5.000483E+07
88            +5.000597E+07
89            +5.000722E+07
90            +5.000859E+07
91            +5.001008E+07
92            +5.001169E+07
93            +5.001342E+07
94            +5.001527E+07
95            +5.001724E+07
96            +5.001933E+07
97            +5.002153E+07
98            +5.002386E+07
99            +5.002631E+07
100           +5.002887E+07
101           +5.003155E+07
102           +5.003436E+07
103           +5.003728E+07
104           +5.003728E+07
105           +5.003728E+07
106           +5.003436E+07
107           +5.003155E+07
108           +5.002887E+07
109           +5.002631E+07
110           +5.002386E+07
111           +5.002153E+07
112           +5.001933E+07
113           +5.001724E+07
114           +5.001527E+07
115           +5.001342E+07
116           +5.001169E+07
117           +5.001008E+07
118           +5.000859E+07
119           +5.000722E+07
120           +5.000597E+07
121           +5.000483E+07
122           +5.000382E+07
123           +5.000292E+07
124           +5.000215E+07
125           +5.000149E+07
126           +5.000095E+07
127           +5.000054E+07
128           +5.000024E+07
129           +5.000006E+07
130           +5.000000E+07
131           +5.000006E+07
132           +5.000024E+07
133           +5.000054E+07
134           +5.000095E+07
135           +5.000149E+07
136           +5.000215E+07
137           +5.000292E+07
138           +5.000382E+07
139           +5.000483E+07
140           +5.000597E+07
141           +5.000722E+07
142           +5.000859E+07
143           +5.001008E+07
144           +5.001169E+07
145           +5.001342E+07
146           +5.001527E+07
147           +5.001724E+07
148           +5.001933E+07
149           +5.002153E+07
150           +5.002386E+07
151           +5.002631E+07
152           +5.002887E+07
153           +5.003155E+07
154           +5.003436E+07
155           +5.003728E+07
156           +5.003728E+07
157           +5.003728E+07
158           +5.003436E+07
159           +5.003155E+07
160           +5.002887E+07
161           +5.002631E+07
162           +5.002386E+07
163           +5.002153E+07
164           +5.001933E+07
165           +5.001724E+07
166           +5.001527E+07
167           +5.001342E+07
168           +5.001169E+07
169           +5.001008E+07
170           +5.000859E+07
171           +5.000722E+07
172           +5.000597E+07
173           +5.000483E+07
174           +5.000382E+07
175           +5.000292E+07
176           +5.000215E+07
177           +5.000149E+07
178           +5.000095E+07
179           +5.000054E+07
180           +5.000024E+07
181           +5.000006E+07
182           +5.000000E+07
183           +5.000006E+07
184           +5.000024E+07
185           +5.000054E+07
186           +5.000095E+07
187           +5.000149E+07
188           +5.000215E+07
189           +5.000292E+07
190           +5.000382E+07
191           +5.000483E+07
192           +5.000597E+07
193           +5.000722E+07
194           +5.000859E+07
195           +5.001008E+07
196           +5.001169E+07
197           +5.001342E+07
198           +5.001527E+07
199           +5.001724E+07
200           +5.001933E+07
201           +5.002153E+07
202           +5.002386E+07
203           +5.002631E+07
204           +5.002887E+07
205           +5.003155E+07
206           +5.003436E+07
207           +5.003728E+07
208           +5.003728E+07
