            TIME           N2-U2           N2-R2
------------------------------------------------
      0.00100000     -0.00250000 -3.18039308E-07
      0.00200000     -0.00500000 -6.33694117E-07
      0.00300000     -0.00750000 -9.46970357E-07
      0.00400000     -0.01000000 -1.25787396E-06
      0.00500000     -0.01250000 -1.56641085E-06
      0.00600000     -0.01500000 -1.87258696E-06
      0.00700000     -0.01750000 -2.17640821E-06
      0.00800000     -0.02000000 -2.47788055E-06
      0.00900000     -0.02250000 -2.77700990E-06
      0.01000000     -0.02500000 -3.07380219E-06
      0.01100000     -0.02750000 -3.36826336E-06
      0.01200000     -0.03000000 -3.66039933E-06
      0.01300000     -0.03250000 -3.95021605E-06
      0.01400000     -0.03500000 -4.23771943E-06
      0.01500000     -0.03750000 -4.52291542E-06
      0.01600000     -0.04000000 -4.80580994E-06
      0.01700000     -0.04250000 -5.08640894E-06
      0.01800000     -0.04500000 -5.36471834E-06
      0.01900000     -0.04750000 -5.64074408E-06
      0.02000000     -0.05000000 -5.91449210E-06
      0.02100000     -0.05250000 -6.18596833E-06
      0.02200000     -0.05500000 -6.45517870E-06
      0.02300000     -0.05750000 -6.72212916E-06
      0.02400000     -0.06000000 -6.98682563E-06
      0.02500000     -0.06250000 -7.24927405E-06
      0.02600000     -0.06500000 -7.50948037E-06
      0.02700000     -0.06750000 -7.76745052E-06
      0.02800000     -0.07000000 -8.02319043E-06
      0.02900000     -0.07250000 -8.27670604E-06
      0.03000000     -0.07500000 -8.52800329E-06
      0.03100000     -0.07750000 -8.77708813E-06
      0.03200000     -0.08000000 -9.02396648E-06
      0.03300000     -0.08250000 -9.26864429E-06
      0.03400000     -0.08500000 -9.51112750E-06
      0.03500000     -0.08750000 -9.75142205E-06
      0.03600000     -0.09000000 -9.98953387E-06
      0.03700000     -0.09250000 -1.02254689E-05
      0.03800000     -0.09500000 -1.04592331E-05
      0.03900000     -0.09750000 -1.06908324E-05
      0.04000000     -0.10000000 -1.09202727E-05
      0.04100000     -0.10250000 -1.11475601E-05
      0.04200000     -0.10500000 -1.13727003E-05
      0.04300000     -0.10750000 -1.15956994E-05
      0.04400000     -0.11000000 -1.18165633E-05
      0.04500000     -0.11250000 -1.20352980E-05
      0.04600000     -0.11500000 -1.22519094E-05
      0.04700000     -0.11750000 -1.24664034E-05
      0.04800000     -0.12000000 -1.26787860E-05
      0.04900000     -0.12250000 -1.28890631E-05
      0.05000000     -0.12500000 -1.30972407E-05
      0.05100000     -0.12750000 -1.33033247E-05
      0.05200000     -0.13000000 -1.35073211E-05
      0.05300000     -0.13250000 -1.37092358E-05
      0.05400000     -0.13500000 -1.39090747E-05
      0.05500000     -0.13750000 -1.41068439E-05
      0.05600000     -0.14000000 -1.43025491E-05
      0.05700000     -0.14250000 -1.44961965E-05
      0.05800000     -0.14500000 -1.46877919E-05
      0.05900000     -0.14750000 -1.48773413E-05
      0.06000000     -0.15000000 -1.50648507E-05
      0.06100000     -0.15250000 -1.52503259E-05
      0.06200000     -0.15500000 -1.54337730E-05
      0.06300000     -0.15750000 -1.56151978E-05
      0.06400000     -0.16000000 -1.57946064E-05
      0.06500000     -0.16250000 -1.59720046E-05
      0.06600000     -0.16500000 -1.61473985E-05
      0.06700000     -0.16750000 -1.63207940E-05
      0.06800000     -0.17000000 -1.64921969E-05
      0.06900000     -0.17250000 -1.66616134E-05
      0.07000000     -0.17500000 -1.68290493E-05
      0.07100000     -0.17750000 -1.69945106E-05
      0.07200000     -0.18000000 -1.71580032E-05
      0.07300000     -0.18250000 -1.73195331E-05
      0.07400000     -0.18500000 -1.74791062E-05
      0.07500000     -0.18750000 -1.76367285E-05
      0.07600000     -0.19000000 -1.77924059E-05
      0.07700000     -0.19250000 -1.79461445E-05
      0.07800000     -0.19500000 -1.80979501E-05
      0.07900000     -0.19750000 -1.82478286E-05
      0.08000000     -0.20000000 -1.83957862E-05
      0.08100000     -0.20250000 -1.85418286E-05
      0.08200000     -0.20500000 -1.86859619E-05
      0.08300000     -0.20750000 -1.88281920E-05
      0.08400000     -0.21000000 -1.89685249E-05
      0.08500000     -0.21250000 -1.91069665E-05
      0.08600000     -0.21500000 -1.92435228E-05
      0.08700000     -0.21750000 -1.93781998E-05
      0.08800000     -0.22000000 -1.95110033E-05
      0.08900000     -0.22250000 -1.96419394E-05
      0.09000000     -0.22500000 -1.97710139E-05
      0.09100000     -0.22750000 -1.98982330E-05
      0.09200000     -0.23000000 -2.00236024E-05
      0.09300000     -0.23250000 -2.01471282E-05
      0.09400000     -0.23500000 -2.02688164E-05
      0.09500000     -0.23750000 -2.03886729E-05
      0.09600000     -0.24000000 -2.05067036E-05
      0.09700000     -0.24250000 -2.06229145E-05
      0.09800000     -0.24500000 -2.07373115E-05
      0.09900000     -0.24750000 -2.08499008E-05
      0.10000000     -0.25000000 -2.09606880E-05
      0.10100000     -0.25250000 -2.10696794E-05
      0.10200000     -0.25500000 -2.11768807E-05
      0.10300000     -0.25750000 -2.12822980E-05
      0.10400000     -0.26000000 -2.13859372E-05
      0.10500000     -0.26250000 -2.14878043E-05
      0.10600000     -0.26500000 -2.15879053E-05
      0.10700000     -0.26750000 -2.16862460E-05
      0.10800000     -0.27000000 -2.17828325E-05
      0.10900000     -0.27250000 -2.18776708E-05
      0.11000000     -0.27500000 -2.19707667E-05
      0.11100000     -0.27750000 -2.20621263E-05
      0.11200000     -0.28000000 -2.21517555E-05
      0.11300000     -0.28250000 -2.22396603E-05
      0.11400000     -0.28500000 -2.23258466E-05
      0.11500000     -0.28750000 -2.24103205E-05
      0.11600000     -0.29000000 -2.24930878E-05
      0.11700000     -0.29250000 -2.25741545E-05
      0.11800000     -0.29500000 -2.26535266E-05
      0.11900000     -0.29750000 -2.27312101E-05
      0.12000000     -0.30000000 -2.28072109E-05
      0.12100000     -0.30250000 -2.28815350E-05
      0.12200000     -0.30500000 -2.29541884E-05
      0.12300000     -0.30750000 -2.30251769E-05
      0.12400000     -0.31000000 -2.30945067E-05
      0.12500000     -0.31250000 -2.31621836E-05
      0.12600000     -0.31500000 -2.32282136E-05
      0.12700000     -0.31750000 -2.32926027E-05
      0.12800000     -0.32000000 -2.33553569E-05
      0.12900000     -0.32250000 -2.34164820E-05
      0.13000000     -0.32500000 -2.34759842E-05
      0.13100000     -0.32750000 -2.35338693E-05
      0.13200000     -0.33000000 -2.35901433E-05
      0.13300000     -0.33250000 -2.36448122E-05
      0.13400000     -0.33500000 -2.36978819E-05
      0.13500000     -0.33750000 -2.37493585E-05
      0.13600000     -0.34000000 -2.37992478E-05
      0.13700000     -0.34250000 -2.38475559E-05
      0.13800000     -0.34500000 -2.38942888E-05
      0.13900000     -0.34750000 -2.39394523E-05
      0.14000000     -0.35000000 -2.39830525E-05
      0.14100000     -0.35250000 -2.40250953E-05
      0.14200000     -0.35500000 -2.40655867E-05
      0.14300000     -0.35750000 -2.41045327E-05
      0.14400000     -0.36000000 -2.41419393E-05
      0.14500000     -0.36250000 -2.41778123E-05
      0.14600000     -0.36500000 -2.42121579E-05
      0.14700000     -0.36750000 -2.42449819E-05
      0.14800000     -0.37000000 -2.42762903E-05
      0.14900000     -0.37250000 -2.43060891E-05
      0.15000000     -0.37500000 -2.43343843E-05
      0.15100000     -0.37750000 -2.43611818E-05
      0.15200000     -0.38000000 -2.43864877E-05
      0.15300000     -0.38250000 -2.44103078E-05
      0.15400000     -0.38500000 -2.44326482E-05
      0.15500000     -0.38750000 -2.44535148E-05
      0.15600000     -0.39000000 -2.44729137E-05
      0.15700000     -0.39250000 -2.44908507E-05
      0.15800000     -0.39500000 -2.45073318E-05
      0.15900000     -0.39750000 -2.45223631E-05
      0.16000000     -0.40000000 -2.45359505E-05
      0.16100000     -0.40250000 -2.45480999E-05
      0.16200000     -0.40500000 -2.45588174E-05
      0.16300000     -0.40750000 -2.45681089E-05
      0.16400000     -0.41000000 -2.45759804E-05
      0.16500000     -0.41250000 -2.45824379E-05
      0.16600000     -0.41500000 -2.45874873E-05
      0.16700000     -0.41750000 -2.45911346E-05
      0.16800000     -0.42000000 -2.45933859E-05
      0.16900000     -0.42250000 -2.45942470E-05
      0.17000000     -0.42500000 -2.45937239E-05
      0.17100000     -0.42750000 -2.45918227E-05
      0.17200000     -0.43000000 -2.45885493E-05
      0.17300000     -0.43250000 -2.45839096E-05
      0.17400000     -0.43500000 -2.45779097E-05
      0.17500000     -0.43750000 -2.45705556E-05
      0.17600000     -0.44000000 -2.45618531E-05
      0.17700000     -0.44250000 -2.45518083E-05
      0.17800000     -0.44500000 -2.45404272E-05
      0.17900000     -0.44750000 -2.45277158E-05
      0.18000000     -0.45000000 -2.45136799E-05
      0.18100000     -0.45250000 -2.44983256E-05
      0.18200000     -0.45500000 -2.44816590E-05
      0.18300000     -0.45750000 -2.44636858E-05
      0.18400000     -0.46000000 -2.44444122E-05
      0.18500000     -0.46250000 -2.44238441E-05
      0.18600000     -0.46500000 -2.44019875E-05
      0.18700000     -0.46750000 -2.43788484E-05
      0.18800000     -0.47000000 -2.43544327E-05
      0.18900000     -0.47250000 -2.43287465E-05
      0.19000000     -0.47500000 -2.43017956E-05
      0.19100000     -0.47750000 -2.42735862E-05
      0.19200000     -0.48000000 -2.42441241E-05
      0.19300000     -0.48250000 -2.42134153E-05
      0.19400000     -0.48500000 -2.41814659E-05
      0.19500000     -0.48750000 -2.41482818E-05
      0.19600000     -0.49000000 -2.41138690E-05
      0.19700000     -0.49250000 -2.40782335E-05
      0.19800000     -0.49500000 -2.40413812E-05
      0.19900000     -0.49750000 -2.40033182E-05
      0.20000000     -0.50000000 -2.39640503E-05
      0.20100000     -0.50250000 -2.39235837E-05
      0.20200000     -0.50500000 -2.38819242E-05
      0.20300000     -0.50750000 -2.38390780E-05
      0.20400000     -0.51000000 -2.37950508E-05
      0.20500000     -0.51250000 -2.37498488E-05
      0.20600000     -0.51500000 -2.37034779E-05
      0.20700000     -0.51750000 -2.36559441E-05
      0.20800000     -0.52000000 -2.36072534E-05
      0.20900000     -0.52250000 -2.35574117E-05
      0.21000000     -0.52500000 -2.35064251E-05
      0.21100000     -0.52750000 -2.34542995E-05
      0.21200000     -0.53000000 -2.34010409E-05
      0.21300000     -0.53250000 -2.33466553E-05
      0.21400000     -0.53500000 -2.32911487E-05
      0.21500000     -0.53750000 -2.32345271E-05
      0.21600000     -0.54000000 -2.31767964E-05
      0.21700000     -0.54250000 -2.31179626E-05
      0.21800000     -0.54500000 -2.30580318E-05
      0.21900000     -0.54750000 -2.29970099E-05
      0.22000000     -0.55000000 -2.29349028E-05
      0.22100000     -0.55250000 -2.28717166E-05
      0.22200000     -0.55500000 -2.28074573E-05
      0.22300000     -0.55750000 -2.27421309E-05
      0.22400000     -0.56000000 -2.26757432E-05
      0.22500000     -0.56250000 -2.26083004E-05
      0.22600000     -0.56500000 -2.25398084E-05
      0.22700000     -0.56750000 -2.24702732E-05
      0.22800000     -0.57000000 -2.23997007E-05
      0.22900000     -0.57250000 -2.23280970E-05
      0.23000000     -0.57500000 -2.22554681E-05
      0.23100000     -0.57750000 -2.21818199E-05
      0.23200000     -0.58000000 -2.21071584E-05
      0.23300000     -0.58250000 -2.20314897E-05
      0.23400000     -0.58500000 -2.19548196E-05
      0.23500000     -0.58750000 -2.18771542E-05
      0.23600000     -0.59000000 -2.17984995E-05
      0.23700000     -0.59250000 -2.17188615E-05
      0.23800000     -0.59500000 -2.16382461E-05
      0.23900000     -0.59750000 -2.15566593E-05
      0.24000000     -0.60000000 -2.14741072E-05
      0.24100000     -0.60250000 -2.13905956E-05
      0.24200000     -0.60500000 -2.13061307E-05
      0.24300000     -0.60750000 -2.12207184E-05
      0.24400000     -0.61000000 -2.11343647E-05
      0.24500000     -0.61250000 -2.10470755E-05
      0.24600000     -0.61500000 -2.09588569E-05
      0.24700000     -0.61750000 -2.08697148E-05
      0.24800000     -0.62000000 -2.07796553E-05
      0.24900000     -0.62250000 -2.06886843E-05
      0.25000000     -0.62500000 -2.05968078E-05
      0.25100000     -0.62750000 -2.05040318E-05
      0.25200000     -0.63000000 -2.04103623E-05
      0.25300000     -0.63250000 -2.03158053E-05
      0.25400000     -0.63500000 -2.02203668E-05
      0.25500000     -0.63750000 -2.01240527E-05
      0.25600000     -0.64000000 -2.00268691E-05
      0.25700000     -0.64250000 -1.99288220E-05
      0.25800000     -0.64500000 -1.98299172E-05
      0.25900000     -0.64750000 -1.97301610E-05
      0.26000000     -0.65000000 -1.96295591E-05
      0.26100000     -0.65250000 -1.95281176E-05
      0.26200000     -0.65500000 -1.94258426E-05
      0.26300000     -0.65750000 -1.93227399E-05
      0.26400000     -0.66000000 -1.92188157E-05
      0.26500000     -0.66250000 -1.91140758E-05
      0.26600000     -0.66500000 -1.90085262E-05
      0.26700000     -0.66750000 -1.89021731E-05
      0.26800000     -0.67000000 -1.87950223E-05
      0.26900000     -0.67250000 -1.86870798E-05
      0.27000000     -0.67500000 -1.85783517E-05
      0.27100000     -0.67750000 -1.84688439E-05
      0.27200000     -0.68000000 -1.83585624E-05
      0.27300000     -0.68250000 -1.82475132E-05
      0.27400000     -0.68500000 -1.81357024E-05
      0.27500000     -0.68750000 -1.80231358E-05
      0.27600000     -0.69000000 -1.79098195E-05
      0.27700000     -0.69250000 -1.77957596E-05
      0.27800000     -0.69500000 -1.76809619E-05
      0.27900000     -0.69750000 -1.75654324E-05
      0.28000000     -0.70000000 -1.74491773E-05
      0.28100000     -0.70250000 -1.73322024E-05
      0.28200000     -0.70500000 -1.72145137E-05
      0.28300000     -0.70750000 -1.70961173E-05
      0.28400000     -0.71000000 -1.69770192E-05
      0.28500000     -0.71250000 -1.68572252E-05
      0.28600000     -0.71500000 -1.67367415E-05
      0.28700000     -0.71750000 -1.66155741E-05
      0.28800000     -0.72000000 -1.64937288E-05
      0.28900000     -0.72250000 -1.63712117E-05
      0.29000000     -0.72500000 -1.62480289E-05
      0.29100000     -0.72750000 -1.61241863E-05
      0.29200000     -0.73000000 -1.59996898E-05
      0.29300000     -0.73250000 -1.58745455E-05
      0.29400000     -0.73500000 -1.57487595E-05
      0.29500000     -0.73750000 -1.56223376E-05
      0.29600000     -0.74000000 -1.54952858E-05
      0.29700000     -0.74250000 -1.53676103E-05
      0.29800000     -0.74500000 -1.52393169E-05
      0.29900000     -0.74750000 -1.51104116E-05
      0.30000000     -0.75000000 -1.49809006E-05
      0.30100000     -0.75250000 -1.48507896E-05
      0.30200000     -0.75500000 -1.47200848E-05
      0.30300000     -0.75750000 -1.45887922E-05
      0.30400000     -0.76000000 -1.44569177E-05
      0.30500000     -0.76250000 -1.43244673E-05
      0.30600000     -0.76500000 -1.41914471E-05
      0.30700000     -0.76750000 -1.40578629E-05
      0.30800000     -0.77000000 -1.39237209E-05
      0.30900000     -0.77250000 -1.37890271E-05
      0.31000000     -0.77500000 -1.36537873E-05
      0.31100000     -0.77750000 -1.35180076E-05
      0.31200000     -0.78000000 -1.33816941E-05
      0.31300000     -0.78250000 -1.32448526E-05
      0.31400000     -0.78500000 -1.31074893E-05
      0.31500000     -0.78750000 -1.29696100E-05
      0.31600000     -0.79000000 -1.28312208E-05
      0.31700000     -0.79250000 -1.26923278E-05
      0.31800000     -0.79500000 -1.25529368E-05
      0.31900000     -0.79750000 -1.24130539E-05
      0.32000000     -0.80000000 -1.22726850E-05
      0.32100000     -0.80250000 -1.21318363E-05
      0.32200000     -0.80500000 -1.19905136E-05
      0.32300000     -0.80750000 -1.18487230E-05
      0.32400000     -0.81000000 -1.17064704E-05
      0.32500000     -0.81250000 -1.15637620E-05
      0.32600000     -0.81500000 -1.14206036E-05
      0.32700000     -0.81750000 -1.12770012E-05
      0.32800000     -0.82000000 -1.11329609E-05
      0.32900000     -0.82250000 -1.09884887E-05
      0.33000000     -0.82500000 -1.08435905E-05
      0.33100000     -0.82750000 -1.06982724E-05
      0.33200000     -0.83000000 -1.05525403E-05
      0.33300000     -0.83250000 -1.04064003E-05
      0.33400000     -0.83500000 -1.02598583E-05
      0.33500000     -0.83750000 -1.01129203E-05
      0.33600000     -0.84000000 -9.96559241E-06
      0.33700000     -0.84250000 -9.81788055E-06
      0.33800000     -0.84500000 -9.66979072E-06
      0.33900000     -0.84750000 -9.52132893E-06
      0.34000000     -0.85000000 -9.37250117E-06
      0.34100000     -0.85250000 -9.22331344E-06
      0.34200000     -0.85500000 -9.07377175E-06
      0.34300000     -0.85750000 -8.92388208E-06
      0.34400000     -0.86000000 -8.77365045E-06
      0.34500000     -0.86250000 -8.62308283E-06
      0.34600000     -0.86500000 -8.47218525E-06
      0.34700000     -0.86750000 -8.32096369E-06
      0.34800000     -0.87000000 -8.16942414E-06
      0.34900000     -0.87250000 -8.01757263E-06
      0.35000000     -0.87500000 -7.86541513E-06
      0.35100000     -0.87750000 -7.71295764E-06
      0.35200000     -0.88000000 -7.56020618E-06
      0.35300000     -0.88250000 -7.40716674E-06
      0.35400000     -0.88500000 -7.25384530E-06
      0.35500000     -0.88750000 -7.10024789E-06
      0.35600000     -0.89000000 -6.94638049E-06
      0.35700000     -0.89250000 -6.79224910E-06
      0.35800000     -0.89500000 -6.63785972E-06
      0.35900000     -0.89750000 -6.48321835E-06
      0.36000000     -0.90000000 -6.32833099E-06
      0.36100000     -0.90250000 -6.17320365E-06
      0.36200000     -0.90500000 -6.01784231E-06
      0.36300000     -0.90750000 -5.86225298E-06
      0.36400000     -0.91000000 -5.70644166E-06
      0.36500000     -0.91250000 -5.55041434E-06
      0.36600000     -0.91500000 -5.39417703E-06
      0.36700000     -0.91750000 -5.23773573E-06
      0.36800000     -0.92000000 -5.08109643E-06
      0.36900000     -0.92250000 -4.92426514E-06
      0.37000000     -0.92500000 -4.76724785E-06
      0.37100000     -0.92750000 -4.61005057E-06
      0.37200000     -0.93000000 -4.45267929E-06
      0.37300000     -0.93250000 -4.29514001E-06
      0.37400000     -0.93500000 -4.13743874E-06
      0.37500000     -0.93750000 -3.97958146E-06
      0.37600000     -0.94000000 -3.82157420E-06
      0.37700000     -0.94250000 -3.66342293E-06
      0.37800000     -0.94500000 -3.50513366E-06
      0.37900000     -0.94750000 -3.34671240E-06
      0.38000000     -0.95000000 -3.18816514E-06
      0.38100000     -0.95250000 -3.02949788E-06
      0.38200000     -0.95500000 -2.87071662E-06
      0.38300000     -0.95750000 -2.71182736E-06
      0.38400000     -0.96000000 -2.55283610E-06
      0.38500000     -0.96250000 -2.39374884E-06
      0.38600000     -0.96500000 -2.23457158E-06
      0.38700000     -0.96750000 -2.07531033E-06
      0.38800000     -0.97000000 -1.91597107E-06
      0.38900000     -0.97250000 -1.75655981E-06
      0.39000000     -0.97500000 -1.59708256E-06
      0.39100000     -0.97750000 -1.43754530E-06
      0.39200000     -0.98000000 -1.27795405E-06
      0.39300000     -0.98250000 -1.11831479E-06
      0.39400000     -0.98500000 -9.58633534E-07
      0.39500000     -0.98750000 -7.98916278E-07
      0.39600000     -0.99000000 -6.39169023E-07
      0.39700000     -0.99250000 -4.79397767E-07
      0.39800000     -0.99500000 -3.19608511E-07
      0.39900000     -0.99750000 -1.59807256E-07
      0.40000000     -1.00000000      0.00000000
      0.40100000     -1.00250000 +1.59807256E-07
      0.40200000     -1.00500000 +3.19608511E-07
      0.40300000     -1.00750000 +4.79397767E-07
      0.40400000     -1.01000000 +6.39169023E-07
      0.40500000     -1.01250000 +7.98916278E-07
      0.40600000     -1.01500000 +9.58633534E-07
      0.40700000     -1.01750000 +1.11831479E-06
      0.40800000     -1.02000000 +1.27795405E-06
      0.40900000     -1.02250000 +1.43754530E-06
      0.41000000     -1.02500000 +1.59708256E-06
      0.41100000     -1.02750000 +1.75655981E-06
      0.41200000     -1.03000000 +1.91597107E-06
      0.41300000     -1.03250000 +2.07531033E-06
      0.41400000     -1.03500000 +2.23457158E-06
      0.41500000     -1.03750000 +2.39374884E-06
      0.41600000     -1.04000000 +2.55283610E-06
      0.41700000     -1.04250000 +2.71182736E-06
      0.41800000     -1.04500000 +2.87071662E-06
      0.41900000     -1.04750000 +3.02949788E-06
      0.42000000     -1.05000000 +3.18816514E-06
      0.42100000     -1.05250000 +3.34671240E-06
      0.42200000     -1.05500000 +3.50513366E-06
      0.42300000     -1.05750000 +3.66342293E-06
      0.42400000     -1.06000000 +3.82157420E-06
      0.42500000     -1.06250000 +3.97958146E-06
      0.42600000     -1.06500000 +4.13743874E-06
      0.42700000     -1.06750000 +4.29514001E-06
      0.42800000     -1.07000000 +4.45267929E-06
      0.42900000     -1.07250000 +4.61005057E-06
      0.43000000     -1.07500000 +4.76724785E-06
      0.43100000     -1.07750000 +4.92426514E-06
      0.43200000     -1.08000000 +5.08109643E-06
      0.43300000     -1.08250000 +5.23773573E-06
      0.43400000     -1.08500000 +5.39417703E-06
      0.43500000     -1.08750000 +5.55041434E-06
      0.43600000     -1.09000000 +5.70644166E-06
      0.43700000     -1.09250000 +5.86225298E-06
      0.43800000     -1.09500000 +6.01784231E-06
      0.43900000     -1.09750000 +6.17320365E-06
      0.44000000     -1.10000000 +6.32833099E-06
      0.44100000     -1.10250000 +6.48321835E-06
      0.44200000     -1.10500000 +6.63785972E-06
      0.44300000     -1.10750000 +6.79224910E-06
      0.44400000     -1.11000000 +6.94638049E-06
      0.44500000     -1.11250000 +7.10024789E-06
      0.44600000     -1.11500000 +7.25384530E-06
      0.44700000     -1.11750000 +7.40716674E-06
      0.44800000     -1.12000000 +7.56020618E-06
      0.44900000     -1.12250000 +7.71295764E-06
      0.45000000     -1.12500000 +7.86541513E-06
      0.45100000     -1.12750000 +8.01757263E-06
      0.45200000     -1.13000000 +8.16942414E-06
      0.45300000     -1.13250000 +8.32096369E-06
      0.45400000     -1.13500000 +8.47218525E-06
      0.45500000     -1.13750000 +8.62308283E-06
      0.45600000     -1.14000000 +8.77365045E-06
      0.45700000     -1.14250000 +8.92388208E-06
      0.45800000     -1.14500000 +9.07377175E-06
      0.45900000     -1.14750000 +9.22331344E-06
      0.46000000     -1.15000000 +9.37250117E-06
      0.46100000     -1.15250000 +9.52132893E-06
      0.46200000     -1.15500000 +9.66979072E-06
      0.46300000     -1.15750000 +9.81788055E-06
      0.46400000     -1.16000000 +9.96559241E-06
      0.46500000     -1.16250000 +1.01129203E-05
      0.46600000     -1.16500000 +1.02598583E-05
      0.46700000     -1.16750000 +1.04064003E-05
      0.46800000     -1.17000000 +1.05525403E-05
      0.46900000     -1.17250000 +1.06982724E-05
      0.47000000     -1.17500000 +1.08435905E-05
      0.47100000     -1.17750000 +1.09884887E-05
      0.47200000     -1.18000000 +1.11329609E-05
      0.47300000     -1.18250000 +1.12770012E-05
      0.47400000     -1.18500000 +1.14206036E-05
      0.47500000     -1.18750000 +1.15637620E-05
      0.47600000     -1.19000000 +1.17064704E-05
      0.47700000     -1.19250000 +1.18487230E-05
      0.47800000     -1.19500000 +1.19905136E-05
      0.47900000     -1.19750000 +1.21318363E-05
      0.48000000     -1.20000000 +1.22726850E-05
      0.48100000     -1.20250000 +1.24130539E-05
      0.48200000     -1.20500000 +1.25529368E-05
      0.48300000     -1.20750000 +1.26923278E-05
      0.48400000     -1.21000000 +1.28312208E-05
      0.48500000     -1.21250000 +1.29696100E-05
      0.48600000     -1.21500000 +1.31074893E-05
      0.48700000     -1.21750000 +1.32448526E-05
      0.48800000     -1.22000000 +1.33816941E-05
      0.48900000     -1.22250000 +1.35180076E-05
      0.49000000     -1.22500000 +1.36537873E-05
      0.49100000     -1.22750000 +1.37890271E-05
      0.49200000     -1.23000000 +1.39237209E-05
      0.49300000     -1.23250000 +1.40578629E-05
      0.49400000     -1.23500000 +1.41914471E-05
      0.49500000     -1.23750000 +1.43244673E-05
      0.49600000     -1.24000000 +1.44569177E-05
      0.49700000     -1.24250000 +1.45887922E-05
      0.49800000     -1.24500000 +1.47200848E-05
      0.49900000     -1.24750000 +1.48507896E-05
      0.50000000     -1.25000000 +1.49809006E-05
      0.50100000     -1.25250000 +1.51104116E-05
      0.50200000     -1.25500000 +1.52393169E-05
      0.50300000     -1.25750000 +1.53676103E-05
      0.50400000     -1.26000000 +1.54952858E-05
      0.50500000     -1.26250000 +1.56223376E-05
      0.50600000     -1.26500000 +1.57487595E-05
      0.50700000     -1.26750000 +1.58745455E-05
      0.50800000     -1.27000000 +1.59996898E-05
      0.50900000     -1.27250000 +1.61241863E-05
      0.51000000     -1.27500000 +1.62480289E-05
      0.51100000     -1.27750000 +1.63712117E-05
      0.51200000     -1.28000000 +1.64937288E-05
      0.51300000     -1.28250000 +1.66155741E-05
      0.51400000     -1.28500000 +1.67367415E-05
      0.51500000     -1.28750000 +1.68572252E-05
      0.51600000     -1.29000000 +1.69770192E-05
      0.51700000     -1.29250000 +1.70961173E-05
      0.51800000     -1.29500000 +1.72145137E-05
      0.51900000     -1.29750000 +1.73322024E-05
      0.52000000     -1.30000000 +1.74491773E-05
      0.52100000     -1.30250000 +1.75654324E-05
      0.52200000     -1.30500000 +1.76809619E-05
      0.52300000     -1.30750000 +1.77957596E-05
      0.52400000     -1.31000000 +1.79098195E-05
      0.52500000     -1.31250000 +1.80231358E-05
      0.52600000     -1.31500000 +1.81357024E-05
      0.52700000     -1.31750000 +1.82475132E-05
      0.52800000     -1.32000000 +1.83585624E-05
      0.52900000     -1.32250000 +1.84688439E-05
      0.53000000     -1.32500000 +1.85783517E-05
      0.53100000     -1.32750000 +1.86870798E-05
      0.53200000     -1.33000000 +1.87950223E-05
      0.53300000     -1.33250000 +1.89021731E-05
      0.53400000     -1.33500000 +1.90085262E-05
      0.53500000     -1.33750000 +1.91140758E-05
      0.53600000     -1.34000000 +1.92188157E-05
      0.53700000     -1.34250000 +1.93227399E-05
      0.53800000     -1.34500000 +1.94258426E-05
      0.53900000     -1.34750000 +1.95281176E-05
      0.54000000     -1.35000000 +1.96295591E-05
      0.54100000     -1.35250000 +1.97301610E-05
      0.54200000     -1.35500000 +1.98299172E-05
      0.54300000     -1.35750000 +1.99288220E-05
      0.54400000     -1.36000000 +2.00268691E-05
      0.54500000     -1.36250000 +2.01240527E-05
      0.54600000     -1.36500000 +2.02203668E-05
      0.54700000     -1.36750000 +2.03158053E-05
      0.54800000     -1.37000000 +2.04103623E-05
      0.54900000     -1.37250000 +2.05040318E-05
      0.55000000     -1.37500000 +2.05968078E-05
      0.55100000     -1.37750000 +2.06886843E-05
      0.55200000     -1.38000000 +2.07796553E-05
      0.55300000     -1.38250000 +2.08697148E-05
      0.55400000     -1.38500000 +2.09588569E-05
      0.55500000     -1.38750000 +2.10470755E-05
      0.55600000     -1.39000000 +2.11343647E-05
      0.55700000     -1.39250000 +2.12207184E-05
      0.55800000     -1.39500000 +2.13061307E-05
      0.55900000     -1.39750000 +2.13905956E-05
      0.56000000     -1.40000000 +2.14741072E-05
      0.56100000     -1.40250000 +2.15566593E-05
      0.56200000     -1.40500000 +2.16382461E-05
      0.56300000     -1.40750000 +2.17188615E-05
      0.56400000     -1.41000000 +2.17984995E-05
      0.56500000     -1.41250000 +2.18771542E-05
      0.56600000     -1.41500000 +2.19548196E-05
      0.56700000     -1.41750000 +2.20314897E-05
      0.56800000     -1.42000000 +2.21071584E-05
      0.56900000     -1.42250000 +2.21818199E-05
      0.57000000     -1.42500000 +2.22554681E-05
      0.57100000     -1.42750000 +2.23280970E-05
      0.57200000     -1.43000000 +2.23997007E-05
      0.57300000     -1.43250000 +2.24702732E-05
      0.57400000     -1.43500000 +2.25398084E-05
      0.57500000     -1.43750000 +2.26083004E-05
      0.57600000     -1.44000000 +2.26757432E-05
      0.57700000     -1.44250000 +2.27421309E-05
      0.57800000     -1.44500000 +2.28074573E-05
      0.57900000     -1.44750000 +2.28717166E-05
      0.58000000     -1.45000000 +2.29349028E-05
      0.58100000     -1.45250000 +2.29970099E-05
      0.58200000     -1.45500000 +2.30580318E-05
      0.58300000     -1.45750000 +2.31179626E-05
      0.58400000     -1.46000000 +2.31767964E-05
      0.58500000     -1.46250000 +2.32345271E-05
      0.58600000     -1.46500000 +2.32911487E-05
      0.58700000     -1.46750000 +2.33466553E-05
      0.58800000     -1.47000000 +2.34010409E-05
      0.58900000     -1.47250000 +2.34542995E-05
      0.59000000     -1.47500000 +2.35064251E-05
      0.59100000     -1.47750000 +2.35574117E-05
      0.59200000     -1.48000000 +2.36072534E-05
      0.59300000     -1.48250000 +2.36559441E-05
      0.59400000     -1.48500000 +2.37034779E-05
      0.59500000     -1.48750000 +2.37498488E-05
      0.59600000     -1.49000000 +2.37950508E-05
      0.59700000     -1.49250000 +2.38390780E-05
      0.59800000     -1.49500000 +2.38819242E-05
      0.59900000     -1.49750000 +2.39235837E-05
      0.60000000     -1.50000000 +2.39640503E-05
      0.60100000     -1.50250000 +2.40033182E-05
      0.60200000     -1.50500000 +2.40413812E-05
      0.60300000     -1.50750000 +2.40782335E-05
      0.60400000     -1.51000000 +2.41138690E-05
      0.60500000     -1.51250000 +2.41482818E-05
      0.60600000     -1.51500000 +2.41814659E-05
      0.60700000     -1.51750000 +2.42134153E-05
      0.60800000     -1.52000000 +2.42441241E-05
      0.60900000     -1.52250000 +2.42735862E-05
      0.61000000     -1.52500000 +2.43017956E-05
      0.61100000     -1.52750000 +2.43287465E-05
      0.61200000     -1.53000000 +2.43544327E-05
      0.61300000     -1.53250000 +2.43788484E-05
      0.61400000     -1.53500000 +2.44019875E-05
      0.61500000     -1.53750000 +2.44238441E-05
      0.61600000     -1.54000000 +2.44444122E-05
      0.61700000     -1.54250000 +2.44636858E-05
      0.61800000     -1.54500000 +2.44816590E-05
      0.61900000     -1.54750000 +2.44983256E-05
      0.62000000     -1.55000000 +2.45136799E-05
      0.62100000     -1.55250000 +2.45277158E-05
      0.62200000     -1.55500000 +2.45404272E-05
      0.62300000     -1.55750000 +2.45518083E-05
      0.62400000     -1.56000000 +2.45618531E-05
      0.62500000     -1.56250000 +2.45705556E-05
      0.62600000     -1.56500000 +2.45779097E-05
      0.62700000     -1.56750000 +2.45839096E-05
      0.62800000     -1.57000000 +2.45885493E-05
      0.62900000     -1.57250000 +2.45918227E-05
      0.63000000     -1.57500000 +2.45937239E-05
      0.63100000     -1.57750000 +2.45942470E-05
      0.63200000     -1.58000000 +2.45933859E-05
      0.63300000     -1.58250000 +2.45911346E-05
      0.63400000     -1.58500000 +2.45874873E-05
      0.63500000     -1.58750000 +2.45824379E-05
      0.63600000     -1.59000000 +2.45759804E-05
      0.63700000     -1.59250000 +2.45681089E-05
      0.63800000     -1.59500000 +2.45588174E-05
      0.63900000     -1.59750000 +2.45480999E-05
      0.64000000     -1.60000000 +2.45359505E-05
      0.64100000     -1.60250000 +2.45223631E-05
      0.64200000     -1.60500000 +2.45073318E-05
      0.64300000     -1.60750000 +2.44908507E-05
      0.64400000     -1.61000000 +2.44729137E-05
      0.64500000     -1.61250000 +2.44535148E-05
      0.64600000     -1.61500000 +2.44326482E-05
      0.64700000     -1.61750000 +2.44103078E-05
      0.64800000     -1.62000000 +2.43864877E-05
      0.64900000     -1.62250000 +2.43611818E-05
      0.65000000     -1.62500000 +2.43343843E-05
      0.65100000     -1.62750000 +2.43060891E-05
      0.65200000     -1.63000000 +2.42762903E-05
      0.65300000     -1.63250000 +2.42449819E-05
      0.65400000     -1.63500000 +2.42121579E-05
      0.65500000     -1.63750000 +2.41778123E-05
      0.65600000     -1.64000000 +2.41419393E-05
      0.65700000     -1.64250000 +2.41045327E-05
      0.65800000     -1.64500000 +2.40655867E-05
      0.65900000     -1.64750000 +2.40250953E-05
      0.66000000     -1.65000000 +2.39830525E-05
      0.66100000     -1.65250000 +2.39394523E-05
      0.66200000     -1.65500000 +2.38942888E-05
      0.66300000     -1.65750000 +2.38475559E-05
      0.66400000     -1.66000000 +2.37992478E-05
      0.66500000     -1.66250000 +2.37493585E-05
      0.66600000     -1.66500000 +2.36978819E-05
      0.66700000     -1.66750000 +2.36448122E-05
      0.66800000     -1.67000000 +2.35901433E-05
      0.66900000     -1.67250000 +2.35338693E-05
      0.67000000     -1.67500000 +2.34759842E-05
      0.67100000     -1.67750000 +2.34164820E-05
      0.67200000     -1.68000000 +2.33553569E-05
      0.67300000     -1.68250000 +2.32926027E-05
      0.67400000     -1.68500000 +2.32282136E-05
      0.67500000     -1.68750000 +2.31621836E-05
      0.67600000     -1.69000000 +2.30945067E-05
      0.67700000     -1.69250000 +2.30251769E-05
      0.67800000     -1.69500000 +2.29541884E-05
      0.67900000     -1.69750000 +2.28815350E-05
      0.68000000     -1.70000000 +2.28072109E-05
      0.68100000     -1.70250000 +2.27312101E-05
      0.68200000     -1.70500000 +2.26535266E-05
      0.68300000     -1.70750000 +2.25741545E-05
      0.68400000     -1.71000000 +2.24930878E-05
      0.68500000     -1.71250000 +2.24103205E-05
      0.68600000     -1.71500000 +2.23258466E-05
      0.68700000     -1.71750000 +2.22396603E-05
      0.68800000     -1.72000000 +2.21517555E-05
      0.68900000     -1.72250000 +2.20621263E-05
      0.69000000     -1.72500000 +2.19707667E-05
      0.69100000     -1.72750000 +2.18776708E-05
      0.69200000     -1.73000000 +2.17828325E-05
      0.69300000     -1.73250000 +2.16862460E-05
      0.69400000     -1.73500000 +2.15879053E-05
      0.69500000     -1.73750000 +2.14878043E-05
      0.69600000     -1.74000000 +2.13859372E-05
      0.69700000     -1.74250000 +2.12822980E-05
      0.69800000     -1.74500000 +2.11768807E-05
      0.69900000     -1.74750000 +2.10696794E-05
      0.70000000     -1.75000000 +2.09606880E-05
      0.70100000     -1.75250000 +2.08499008E-05
      0.70200000     -1.75500000 +2.07373115E-05
      0.70300000     -1.75750000 +2.06229145E-05
      0.70400000     -1.76000000 +2.05067036E-05
      0.70500000     -1.76250000 +2.03886729E-05
      0.70600000     -1.76500000 +2.02688164E-05
      0.70700000     -1.76750000 +2.01471282E-05
      0.70800000     -1.77000000 +2.00236024E-05
      0.70900000     -1.77250000 +1.98982330E-05
      0.71000000     -1.77500000 +1.97710139E-05
      0.71100000     -1.77750000 +1.96419394E-05
      0.71200000     -1.78000000 +1.95110033E-05
      0.71300000     -1.78250000 +1.93781998E-05
      0.71400000     -1.78500000 +1.92435228E-05
      0.71500000     -1.78750000 +1.91069665E-05
      0.71600000     -1.79000000 +1.89685249E-05
      0.71700000     -1.79250000 +1.88281920E-05
      0.71800000     -1.79500000 +1.86859619E-05
      0.71900000     -1.79750000 +1.85418286E-05
      0.72000000     -1.80000000 +1.83957862E-05
      0.72100000     -1.80250000 +1.82478286E-05
      0.72200000     -1.80500000 +1.80979501E-05
      0.72300000     -1.80750000 +1.79461445E-05
      0.72400000     -1.81000000 +1.77924059E-05
      0.72500000     -1.81250000 +1.76367285E-05
      0.72600000     -1.81500000 +1.74791062E-05
      0.72700000     -1.81750000 +1.73195331E-05
      0.72800000     -1.82000000 +1.71580032E-05
      0.72900000     -1.82250000 +1.69945106E-05
      0.73000000     -1.82500000 +1.68290493E-05
      0.73100000     -1.82750000 +1.66616134E-05
      0.73200000     -1.83000000 +1.64921969E-05
      0.73300000     -1.83250000 +1.63207940E-05
      0.73400000     -1.83500000 +1.61473985E-05
      0.73500000     -1.83750000 +1.59720046E-05
      0.73600000     -1.84000000 +1.57946064E-05
      0.73700000     -1.84250000 +1.56151978E-05
      0.73800000     -1.84500000 +1.54337730E-05
      0.73900000     -1.84750000 +1.52503259E-05
      0.74000000     -1.85000000 +1.50648507E-05
      0.74100000     -1.85250000 +1.48773413E-05
      0.74200000     -1.85500000 +1.46877919E-05
      0.74300000     -1.85750000 +1.44961965E-05
      0.74400000     -1.86000000 +1.43025491E-05
      0.74500000     -1.86250000 +1.41068439E-05
      0.74600000     -1.86500000 +1.39090747E-05
      0.74700000     -1.86750000 +1.37092358E-05
      0.74800000     -1.87000000 +1.35073211E-05
      0.74900000     -1.87250000 +1.33033247E-05
      0.75000000     -1.87500000 +1.30972407E-05
      0.75100000     -1.87750000 +1.28890631E-05
      0.75200000     -1.88000000 +1.26787860E-05
      0.75300000     -1.88250000 +1.24664034E-05
      0.75400000     -1.88500000 +1.22519094E-05
      0.75500000     -1.88750000 +1.20352980E-05
      0.75600000     -1.89000000 +1.18165633E-05
      0.75700000     -1.89250000 +1.15956994E-05
      0.75800000     -1.89500000 +1.13727003E-05
      0.75900000     -1.89750000 +1.11475601E-05
      0.76000000     -1.90000000 +1.09202727E-05
      0.76100000     -1.90250000 +1.06908324E-05
      0.76200000     -1.90500000 +1.04592331E-05
      0.76300000     -1.90750000 +1.02254689E-05
      0.76400000     -1.91000000 +9.98953387E-06
      0.76500000     -1.91250000 +9.75142205E-06
      0.76600000     -1.91500000 +9.51112750E-06
      0.76700000     -1.91750000 +9.26864429E-06
      0.76800000     -1.92000000 +9.02396648E-06
      0.76900000     -1.92250000 +8.77708813E-06
      0.77000000     -1.92500000 +8.52800329E-06
      0.77100000     -1.92750000 +8.27670604E-06
      0.77200000     -1.93000000 +8.02319043E-06
      0.77300000     -1.93250000 +7.76745052E-06
      0.77400000     -1.93500000 +7.50948037E-06
      0.77500000     -1.93750000 +7.24927405E-06
      0.77600000     -1.94000000 +6.98682563E-06
      0.77700000     -1.94250000 +6.72212916E-06
      0.77800000     -1.94500000 +6.45517870E-06
      0.77900000     -1.94750000 +6.18596833E-06
      0.78000000     -1.95000000 +5.91449210E-06
      0.78100000     -1.95250000 +5.64074408E-06
      0.78200000     -1.95500000 +5.36471834E-06
      0.78300000     -1.95750000 +5.08640894E-06
      0.78400000     -1.96000000 +4.80580994E-06
      0.78500000     -1.96250000 +4.52291542E-06
      0.78600000     -1.96500000 +4.23771943E-06
      0.78700000     -1.96750000 +3.95021605E-06
      0.78800000     -1.97000000 +3.66039933E-06
      0.78900000     -1.97250000 +3.36826336E-06
      0.79000000     -1.97500000 +3.07380219E-06
      0.79100000     -1.97750000 +2.77700990E-06
      0.79200000     -1.98000000 +2.47788055E-06
      0.79300000     -1.98250000 +2.17640821E-06
      0.79400000     -1.98500000 +1.87258696E-06
      0.79500000     -1.98750000 +1.56641085E-06
      0.79600000     -1.99000000 +1.25787396E-06
      0.79700000     -1.99250000 +9.46970357E-07
      0.79800000     -1.99500000 +6.33694117E-07
      0.79900000     -1.99750000 +3.18039308E-07
      0.80000000     -2.00000000      0.00000000
      0.80100000     -2.00250000 -3.20429735E-07
      0.80200000     -2.00500000 -6.43255824E-07
      0.80300000     -2.00750000 -9.68484196E-07
      0.80400000     -2.01000000 -1.29612078E-06
      0.80500000     -2.01250000 -1.62617150E-06
      0.80600000     -2.01500000 -1.95864228E-06
      0.80700000     -2.01750000 -2.29353906E-06
      0.80800000     -2.02000000 -2.63086775E-06
      0.80900000     -2.02250000 -2.97063428E-06
      0.81000000     -2.02500000 -3.31284458E-06
      0.81100000     -2.02750000 -3.65750457E-06
      0.81200000     -2.03000000 -4.00462018E-06
      0.81300000     -2.03250000 -4.35419733E-06
      0.81400000     -2.03500000 -4.70624194E-06
      0.81500000     -2.03750000 -5.06075994E-06
      0.81600000     -2.04000000 -5.41775726E-06
      0.81700000     -2.04250000 -5.77723980E-06
      0.81800000     -2.04500000 -6.13921351E-06
      0.81900000     -2.04750000 -6.50368429E-06
      0.82000000     -2.05000000 -6.87065807E-06
      0.82100000     -2.05250000 -7.24014077E-06
      0.82200000     -2.05500000 -7.61213832E-06
      0.82300000     -2.05750000 -7.98665662E-06
      0.82400000     -2.06000000 -8.36370161E-06
      0.82500000     -2.06250000 -8.74327920E-06
      0.82600000     -2.06500000 -9.12539532E-06
      0.82700000     -2.06750000 -9.51005587E-06
      0.82800000     -2.07000000 -9.89726678E-06
      0.82900000     -2.07250000 -1.02870340E-05
      0.83000000     -2.07500000 -1.06793634E-05
      0.83100000     -2.07750000 -1.10742609E-05
      0.83200000     -2.08000000 -1.14717324E-05
      0.83300000     -2.08250000 -1.18717838E-05
      0.83400000     -2.08500000 -1.22744212E-05
      0.83500000     -2.08750000 -1.26796503E-05
      0.83600000     -2.09000000 -1.30874771E-05
      0.83700000     -2.09250000 -1.34979075E-05
      0.83800000     -2.09500000 -1.39109475E-05
      0.83900000     -2.09750000 -1.43266028E-05
      0.84000000     -2.10000000 -1.47448796E-05
      0.84100000     -2.10250000 -1.51657836E-05
      0.84200000     -2.10500000 -1.55893207E-05
      0.84300000     -2.10750000 -1.60154970E-05
      0.84400000     -2.11000000 -1.64443183E-05
      0.84500000     -2.11250000 -1.68757904E-05
      0.84600000     -2.11500000 -1.73099195E-05
      0.84700000     -2.11750000 -1.77467112E-05
      0.84800000     -2.12000000 -1.81861716E-05
      0.84900000     -2.12250000 -1.86283066E-05
      0.85000000     -2.12500000 -1.90731220E-05
      0.85100000     -2.12750000 -1.95206238E-05
      0.85200000     -2.13000000 -1.99708179E-05
      0.85300000     -2.13250000 -2.04237102E-05
      0.85400000     -2.13500000 -2.08793066E-05
      0.85500000     -2.13750000 -2.13376130E-05
      0.85600000     -2.14000000 -2.17986354E-05
      0.85700000     -2.14250000 -2.22623795E-05
      0.85800000     -2.14500000 -2.27288514E-05
      0.85900000     -2.14750000 -2.31980570E-05
      0.86000000     -2.15000000 -2.36700021E-05
      0.86100000     -2.15250000 -2.41446926E-05
      0.86200000     -2.15500000 -2.46221345E-05
      0.86300000     -2.15750000 -2.51023337E-05
      0.86400000     -2.16000000 -2.55852960E-05
      0.86500000     -2.16250000 -2.60710274E-05
      0.86600000     -2.16500000 -2.65595338E-05
      0.86700000     -2.16750000 -2.70508210E-05
      0.86800000     -2.17000000 -2.75448951E-05
      0.86900000     -2.17250000 -2.80417618E-05
      0.87000000     -2.17500000 -2.85414271E-05
      0.87100000     -2.17750000 -2.90438969E-05
      0.87200000     -2.18000000 -2.95491771E-05
      0.87300000     -2.18250000 -3.00572736E-05
      0.87400000     -2.18500000 -3.05681922E-05
      0.87500000     -2.18750000 -3.10819390E-05
      0.87600000     -2.19000000 -3.15985197E-05
      0.87700000     -2.19250000 -3.21179403E-05
      0.87800000     -2.19500000 -3.26402067E-05
      0.87900000     -2.19750000 -3.31653248E-05
      0.88000000     -2.20000000 -3.36933005E-05
      0.88100000     -2.20250000 -3.42241396E-05
      0.88200000     -2.20500000 -3.47578482E-05
      0.88300000     -2.20750000 -3.52944320E-05
      0.88400000     -2.21000000 -3.58338969E-05
      0.88500000     -2.21250000 -3.63762489E-05
      0.88600000     -2.21500000 -3.69214939E-05
      0.88700000     -2.21750000 -3.74696378E-05
      0.88800000     -2.22000000 -3.80206863E-05
      0.88900000     -2.22250000 -3.85746455E-05
      0.89000000     -2.22500000 -3.91315213E-05
      0.89100000     -2.22750000 -3.96913195E-05
      0.89200000     -2.23000000 -4.02540460E-05
      0.89300000     -2.23250000 -4.08197067E-05
      0.89400000     -2.23500000 -4.13883075E-05
      0.89500000     -2.23750000 -4.19598543E-05
      0.89600000     -2.24000000 -4.25343530E-05
      0.89700000     -2.24250000 -4.31118095E-05
      0.89800000     -2.24500000 -4.36922296E-05
      0.89900000     -2.24750000 -4.42756193E-05
      0.90000000     -2.25000000 -4.48619844E-05
      0.90100000     -2.25250000 -4.54513309E-05
      0.90200000     -2.25500000 -4.60436645E-05
      0.90300000     -2.25750000 -4.66389913E-05
      0.90400000     -2.26000000 -4.72373171E-05
      0.90500000     -2.26250000 -4.78386478E-05
      0.90600000     -2.26500000 -4.84429892E-05
      0.90700000     -2.26750000 -4.90503473E-05
      0.90800000     -2.27000000 -4.96607279E-05
      0.90900000     -2.27250000 -5.02741369E-05
      0.91000000     -2.27500000 -5.08905803E-05
      0.91100000     -2.27750000 -5.15100638E-05
      0.91200000     -2.28000000 -5.21325935E-05
      0.91300000     -2.28250000 -5.27581750E-05
      0.91400000     -2.28500000 -5.33868145E-05
      0.91500000     -2.28750000 -5.40185176E-05
      0.91600000     -2.29000000 -5.46532904E-05
      0.91700000     -2.29250000 -5.52911386E-05
      0.91800000     -2.29500000 -5.59320682E-05
      0.91900000     -2.29750000 -5.65760851E-05
      0.92000000     -2.30000000 -5.72231951E-05
      0.92100000     -2.30250000 -5.78734041E-05
      0.92200000     -2.30500000 -5.85267179E-05
      0.92300000     -2.30750000 -5.91831426E-05
      0.92400000     -2.31000000 -5.98426839E-05
      0.92500000     -2.31250000 -6.05053477E-05
      0.92600000     -2.31500000 -6.11711399E-05
      0.92700000     -2.31750000 -6.18400664E-05
      0.92800000     -2.32000000 -6.25121330E-05
      0.92900000     -2.32250000 -6.31873457E-05
      0.93000000     -2.32500000 -6.38657103E-05
      0.93100000     -2.32750000 -6.45472326E-05
      0.93200000     -2.33000000 -6.52319186E-05
      0.93300000     -2.33250000 -6.59197742E-05
      0.93400000     -2.33500000 -6.66108051E-05
      0.93500000     -2.33750000 -6.73050173E-05
      0.93600000     -2.34000000 -6.80024166E-05
      0.93700000     -2.34250000 -6.87030090E-05
      0.93800000     -2.34500000 -6.94068002E-05
      0.93900000     -2.34750000 -7.01137962E-05
      0.94000000     -2.35000000 -7.08240029E-05
      0.94100000     -2.35250000 -7.15374260E-05
      0.94200000     -2.35500000 -7.22540715E-05
      0.94300000     -2.35750000 -7.29739453E-05
      0.94400000     -2.36000000 -7.36970531E-05
      0.94500000     -2.36250000 -7.44234010E-05
      0.94600000     -2.36500000 -7.51529946E-05
      0.94700000     -2.36750000 -7.58858400E-05
      0.94800000     -2.37000000 -7.66219430E-05
      0.94900000     -2.37250000 -7.73613094E-05
      0.95000000     -2.37500000 -7.81039451E-05
      0.95100000     -2.37750000 -7.88498560E-05
      0.95200000     -2.38000000 -7.95990480E-05
      0.95300000     -2.38250000 -8.03515268E-05
      0.95400000     -2.38500000 -8.11072984E-05
      0.95500000     -2.38750000 -8.18663686E-05
      0.95600000     -2.39000000 -8.26287434E-05
      0.95700000     -2.39250000 -8.33944285E-05
      0.95800000     -2.39500000 -8.41634298E-05
      0.95900000     -2.39750000 -8.49357532E-05
      0.96000000     -2.40000000 -8.57114045E-05
      0.96100000     -2.40250000 -8.64903896E-05
      0.96200000     -2.40500000 -8.72727144E-05
      0.96300000     -2.40750000 -8.80583847E-05
      0.96400000     -2.41000000 -8.88474064E-05
      0.96500000     -2.41250000 -8.96397854E-05
      0.96600000     -2.41500000 -9.04355274E-05
      0.96700000     -2.41750000 -9.12346384E-05
      0.96800000     -2.42000000 -9.20371242E-05
      0.96900000     -2.42250000 -9.28429906E-05
      0.97000000     -2.42500000 -9.36522436E-05
      0.97100000     -2.42750000 -9.44648889E-05
      0.97200000     -2.43000000 -9.52809325E-05
      0.97300000     -2.43250000 -9.61003802E-05
      0.97400000     -2.43500000 -9.69232378E-05
      0.97500000     -2.43750000 -9.77495113E-05
      0.97600000     -2.44000000 -9.85792063E-05
      0.97700000     -2.44250000 -9.94123289E-05
      0.97800000     -2.44500000     -0.00010025
      0.97900000     -2.44750000     -0.00010109
      0.98000000     -2.45000000     -0.00010193
      0.98100000     -2.45250000     -0.00010278
      0.98200000     -2.45500000     -0.00010363
      0.98300000     -2.45750000     -0.00010448
      0.98400000     -2.46000000     -0.00010534
      0.98500000     -2.46250000     -0.00010620
      0.98600000     -2.46500000     -0.00010707
      0.98700000     -2.46750000     -0.00010793
      0.98800000     -2.47000000     -0.00010880
      0.98900000     -2.47250000     -0.00010968
      0.99000000     -2.47500000     -0.00011056
      0.99100000     -2.47750000     -0.00011144
      0.99200000     -2.48000000     -0.00011232
      0.99300000     -2.48250000     -0.00011321
      0.99400000     -2.48500000     -0.00011411
      0.99500000     -2.48750000     -0.00011500
      0.99600000     -2.49000000     -0.00011590
      0.99700000     -2.49250000     -0.00011680
      0.99800000     -2.49500000     -0.00011771
      0.99900000     -2.49750000     -0.00011862
      1.00000000     -2.50000000     -0.00011953
