            TIME           N1-U1           N1-U2           N1-U3           N2-U1           N2-U2           N2-U3
----------------------------------------------------------------------------------------------------------------
      0.05000000      0.00000000      0.00000000      0.00000000      0.00000000      0.06880710      0.00000000
      0.10000000      0.00000000      0.00000000      0.00000000      0.00000000      0.13647836      0.00000000
      0.15000000      0.00000000      0.00000000      0.00000000      0.00000000      0.20319805      0.00000000
      0.20000000      0.00000000      0.00000000      0.00000000      0.00000000      0.26912418      0.00000000
      0.25000000      0.00000000      0.00000000      0.00000000      0.00000000      0.33439408      0.00000000
      0.30000000      0.00000000      0.00000000      0.00000000      0.00000000      0.39912855      0.00000000
      0.35000000      0.00000000      0.00000000      0.00000000      0.00000000      0.46343509      0.00000000
      0.40000000      0.00000000      0.00000000      0.00000000      0.00000000      0.52741043      0.00000000
      0.45000000      0.00000000      0.00000000      0.00000000      0.00000000      0.59114248      0.00000000
      0.50000000      0.00000000      0.00000000      0.00000000      0.00000000      0.65471190      0.00000000
      0.55000000      0.00000000      0.00000000      0.00000000      0.00000000      0.71819345      0.00000000
      0.60000000      0.00000000      0.00000000      0.00000000      0.00000000      0.78165695      0.00000000
      0.65000000      0.00000000      0.00000000      0.00000000      0.00000000      0.84516827      0.00000000
      0.70000000      0.00000000      0.00000000      0.00000000      0.00000000      0.90879002      0.00000000
      0.75000000      0.00000000      0.00000000      0.00000000      0.00000000      0.97258217      0.00000000
      0.80000000      0.00000000      0.00000000      0.00000000      0.00000000      1.03660267      0.00000000
      0.85000000      0.00000000      0.00000000      0.00000000      0.00000000      1.10090786      0.00000000
      0.90000000      0.00000000      0.00000000      0.00000000      0.00000000      1.16555297      0.00000000
      0.95000000      0.00000000      0.00000000      0.00000000      0.00000000      1.23059244      0.00000000
      1.00000000      0.00000000      0.00000000      0.00000000      0.00000000      1.29608035      0.00000000
