            TIME           N1-T1           N1-T2           N1-T3           N1-R1           N1-R2           N1-R3           N2-T1           N2-T2           N2-T3           N2-R1           N2-R2           N2-R3           N3-T1           N3-T2           N3-T3           N3-R1           N3-R2           N3-R3
----------------------------------------------------------------------------------------------------------------------------------------------------------------------------------------------------------------------------------------------------------------------------------------------------------------
      0.00500000      0.00000000      0.00000000      0.00000000      0.00000000      0.00000000      0.00000000      0.00000000 -9.37500000E-05      0.00000000      0.00000000      0.00000000 -7.50000001E-05      0.00000000     -0.00037500      0.00000000      0.00000000      0.00000000     -0.00015000
      0.01000000      0.00000000      0.00000000      0.00000000      0.00000000      0.00000000      0.00000000      0.00000000     -0.00018750      0.00000000      0.00000000      0.00000000     -0.00015000      0.00000000     -0.00075000      0.00000000      0.00000000      0.00000000     -0.00030000
      0.01500000      0.00000000      0.00000000      0.00000000      0.00000000      0.00000000      0.00000000      0.00000000     -0.00028125      0.00000000      0.00000000      0.00000000     -0.00022500 -1.58203125E-07     -0.00112500      0.00000000      0.00000000      0.00000000     -0.00045000
      0.02000000      0.00000000      0.00000000      0.00000000      0.00000000      0.00000000      0.00000000      0.00000000     -0.00037500      0.00000000      0.00000000      0.00000000     -0.00030000 -2.81249997E-07     -0.00150000      0.00000000      0.00000000      0.00000000     -0.00060000
      0.02500000      0.00000000      0.00000000      0.00000000      0.00000000      0.00000000      0.00000000      0.00000000     -0.00046875      0.00000000      0.00000000      0.00000000     -0.00037500 -4.39453117E-07     -0.00187500      0.00000000      0.00000000      0.00000000     -0.00075000
      0.03000000      0.00000000      0.00000000      0.00000000      0.00000000      0.00000000      0.00000000      0.00000000     -0.00056250      0.00000000      0.00000000      0.00000000     -0.00045000 -6.32812482E-07     -0.00225000      0.00000000      0.00000000      0.00000000     -0.00090000
      0.03500000      0.00000000      0.00000000      0.00000000      0.00000000      0.00000000      0.00000000      0.00000000     -0.00065625      0.00000000      0.00000000      0.00000000     -0.00052500 -8.61328089E-07     -0.00262500      0.00000000      0.00000000      0.00000000     -0.00105000
      0.04000000      0.00000000      0.00000000      0.00000000      0.00000000      0.00000000      0.00000000 -1.12499999E-07     -0.00075000      0.00000000      0.00000000      0.00000000     -0.00060000 -1.12499994E-06     -0.00300000      0.00000000      0.00000000      0.00000000     -0.00120000
      0.04500000      0.00000000      0.00000000      0.00000000      0.00000000      0.00000000      0.00000000 -1.42382812E-07     -0.00084375      0.00000000      0.00000000      0.00000000     -0.00067500 -1.42382802E-06     -0.00337500      0.00000000      0.00000000      0.00000000     -0.00135000
      0.05000000      0.00000000      0.00000000      0.00000000      0.00000000      0.00000000      0.00000000 -1.75781248E-07     -0.00093750      0.00000000      0.00000000      0.00000000     -0.00075000 -1.75781234E-06     -0.00375000      0.00000000      0.00000000      0.00000000     -0.00150000
      0.05500000      0.00000000      0.00000000      0.00000000      0.00000000      0.00000000      0.00000000 -2.12695310E-07     -0.00103125      0.00000000      0.00000000      0.00000000     -0.00082500 -2.12695289E-06     -0.00412500      0.00000000      0.00000000      0.00000000     -0.00165000
      0.06000000      0.00000000      0.00000000      0.00000000      0.00000000      0.00000000      0.00000000 -2.53124996E-07     -0.00112500      0.00000000      0.00000000      0.00000000     -0.00090000 -2.53124966E-06     -0.00450000      0.00000000      0.00000000      0.00000000     -0.00180000
      0.06500000      0.00000000      0.00000000      0.00000000      0.00000000      0.00000000      0.00000000 -2.97070307E-07     -0.00121875      0.00000000      0.00000000      0.00000000     -0.00097500 -2.97070266E-06     -0.00487500      0.00000000      0.00000000      0.00000000     -0.00195000
      0.07000000      0.00000000      0.00000000      0.00000000      0.00000000      0.00000000      0.00000000 -3.44531242E-07     -0.00131250      0.00000000      0.00000000      0.00000000     -0.00105000 -3.44531187E-06     -0.00525000      0.00000000      0.00000000      0.00000000     -0.00210000
      0.07500000      0.00000000      0.00000000      0.00000000      0.00000000      0.00000000      0.00000000 -3.95507803E-07     -0.00140625      0.00000000      0.00000000      0.00000000     -0.00112500 -3.95507729E-06     -0.00562500      0.00000000      0.00000000      0.00000000     -0.00225000
      0.08000000      0.00000000      0.00000000      0.00000000      0.00000000      0.00000000      0.00000000 -4.49999988E-07     -0.00150000      0.00000000      0.00000000      0.00000000     -0.00120000 -4.49999891E-06     -0.00600000      0.00000000      0.00000000      0.00000000     -0.00240000
      0.08500000      0.00000000      0.00000000      0.00000000      0.00000000      0.00000000      0.00000000 -5.08007796E-07     -0.00159375      0.00000000      0.00000000      0.00000000     -0.00127500 -5.08007674E-06     -0.00637500      0.00000000      0.00000000      0.00000000     -0.00255000
      0.09000000      0.00000000      0.00000000      0.00000000      0.00000000      0.00000000      0.00000000 -5.69531229E-07     -0.00168750      0.00000000      0.00000000      0.00000000     -0.00135000 -5.69531075E-06     -0.00675000      0.00000000      0.00000000      0.00000000     -0.00270000
      0.09500000      0.00000000      0.00000000      0.00000000      0.00000000      0.00000000      0.00000000 -6.34570286E-07     -0.00178125      0.00000000      0.00000000      0.00000000     -0.00142500 -6.34570095E-06     -0.00712500      0.00000000      0.00000000      0.00000000     -0.00285000
      0.10000000      0.00000000      0.00000000      0.00000000      0.00000000      0.00000000      0.00000000 -7.03124968E-07     -0.00187500      0.00000000      0.00000000      0.00000000     -0.00150000 -7.03124733E-06     -0.00750000      0.00000000      0.00000000      0.00000000     -0.00300000
      0.10500000      0.00000000      0.00000000      0.00000000      0.00000000      0.00000000      0.00000000 -7.75195274E-07     -0.00196875      0.00000000      0.00000000      0.00000000     -0.00157500 -7.75194988E-06     -0.00787499      0.00000000      0.00000000      0.00000000     -0.00315000
      0.11000000      0.00000000      0.00000000      0.00000000      0.00000000      0.00000000      0.00000000 -8.50781203E-07     -0.00206250      0.00000000      0.00000000      0.00000000     -0.00165000 -8.50780858E-06     -0.00824999      0.00000000      0.00000000      0.00000000     -0.00330000
      0.11500000      0.00000000      0.00000000      0.00000000      0.00000000      0.00000000      0.00000000 -9.29882756E-07     -0.00215625      0.00000000      0.00000000      0.00000000     -0.00172500 -9.29882344E-06     -0.00862499      0.00000000      0.00000000      0.00000000     -0.00345000
      0.12000000      0.00000000      0.00000000      0.00000000      0.00000000      0.00000000      0.00000000 -1.01249993E-06     -0.00225000      0.00000000      0.00000000      0.00000000     -0.00180000 -1.01249944E-05     -0.00899999      0.00000000      0.00000000      0.00000000     -0.00360000
      0.12500000      0.00000000      0.00000000      0.00000000      0.00000000      0.00000000      0.00000000 -1.09863273E-06     -0.00234375      0.00000000      0.00000000      0.00000000     -0.00187500 -1.09863216E-05     -0.00937499      0.00000000      0.00000000      0.00000000     -0.00375000
      0.13000000      0.00000000      0.00000000      0.00000000      0.00000000      0.00000000      0.00000000 -1.18828116E-06     -0.00243750      0.00000000      0.00000000      0.00000000     -0.00195000 -1.18828048E-05     -0.00974999      0.00000000      0.00000000      0.00000000     -0.00390000
      0.13500000      0.00000000      0.00000000      0.00000000      0.00000000      0.00000000      0.00000000 -1.28144520E-06     -0.00253125      0.00000000      0.00000000      0.00000000     -0.00202500 -1.28144442E-05     -0.01012499      0.00000000      0.00000000      0.00000000     -0.00405000
      0.14000000      0.00000000      0.00000000      0.00000000      0.00000000      0.00000000      0.00000000 -1.37812488E-06     -0.00262500      0.00000000      0.00000000      0.00000000     -0.00210000 -1.37812397E-05     -0.01049999      0.00000000      0.00000000      0.00000000     -0.00420000
      0.14500000      0.00000000      0.00000000      0.00000000      0.00000000      0.00000000      0.00000000 -1.47832017E-06     -0.00271875      0.00000000      0.00000000      0.00000000     -0.00217500 -1.47831912E-05     -0.01087499      0.00000000      0.00000000      0.00000000     -0.00435000
      0.15000000      0.00000000      0.00000000      0.00000000      0.00000000      0.00000000      0.00000000 -1.58203109E-06     -0.00281250      0.00000000      0.00000000      0.00000000     -0.00225000 -1.58202989E-05     -0.01124998      0.00000000      0.00000000      0.00000000     -0.00450000
      0.15500000      0.00000000      0.00000000      0.00000000      0.00000000      0.00000000      0.00000000 -1.68925762E-06     -0.00290625      0.00000000      0.00000000      0.00000000     -0.00232500 -1.68925626E-05     -0.01162498      0.00000000      0.00000000      0.00000000     -0.00465000
      0.16000000      0.00000000      0.00000000      0.00000000      0.00000000      0.00000000      0.00000000 -1.79999979E-06     -0.00300000      0.00000000      0.00000000      0.00000000     -0.00240000 -1.79999824E-05     -0.01199998      0.00000000      0.00000000      0.00000000     -0.00480000
      0.16500000      0.00000000      0.00000000      0.00000000      0.00000000      0.00000000      0.00000000 -1.91425757E-06     -0.00309375      0.00000000      0.00000000      0.00000000     -0.00247500 -1.91425582E-05     -0.01237498      0.00000000      0.00000000      0.00000000     -0.00495000
      0.17000000      0.00000000      0.00000000      0.00000000      0.00000000      0.00000000      0.00000000 -2.03203098E-06     -0.00318750      0.00000000      0.00000000      0.00000000     -0.00255000 -2.03202900E-05     -0.01274998      0.00000000      0.00000000      0.00000000     -0.00510000
      0.17500000      0.00000000      0.00000000      0.00000000      0.00000000      0.00000000      0.00000000 -2.15332001E-06     -0.00328125      0.00000000      0.00000000      0.00000000     -0.00262500 -2.15331779E-05     -0.01312497      0.00000000      0.00000000      0.00000000     -0.00525000
      0.18000000      0.00000000      0.00000000      0.00000000      0.00000000      0.00000000      0.00000000 -2.27812466E-06     -0.00337500      0.00000000      0.00000000      0.00000000     -0.00270000 -2.27812217E-05     -0.01349997      0.00000000      0.00000000      0.00000000     -0.00540000
      0.18500000      0.00000000      0.00000000      0.00000000      0.00000000      0.00000000      0.00000000 -2.40644493E-06     -0.00346875      0.00000000      0.00000000      0.00000000     -0.00277500 -2.40644216E-05     -0.01387497      0.00000000      0.00000000      0.00000000     -0.00555000
      0.19000000      0.00000000      0.00000000      0.00000000      0.00000000      0.00000000      0.00000000 -2.53828082E-06     -0.00356250      0.00000000      0.00000000      0.00000000     -0.00285000 -2.53827774E-05     -0.01424997      0.00000000      0.00000000      0.00000000     -0.00570000
      0.19500000      0.00000000      0.00000000      0.00000000      0.00000000      0.00000000      0.00000000 -2.67363234E-06     -0.00365625      0.00000000      0.00000000      0.00000000     -0.00292500 -2.67362892E-05     -0.01462496      0.00000000      0.00000000      0.00000000     -0.00585000
      0.20000000      0.00000000      0.00000000      0.00000000      0.00000000      0.00000000      0.00000000 -2.81249948E-06     -0.00375000      0.00000000      0.00000000      0.00000000     -0.00300000 -2.81249569E-05     -0.01499996      0.00000000      0.00000000      0.00000000     -0.00600000
      0.20500000      0.00000000      0.00000000      0.00000000      0.00000000      0.00000000      0.00000000 -2.95488223E-06     -0.00384375      0.00000000      0.00000000      0.00000000     -0.00307500 -2.95487805E-05     -0.01537496      0.00000000      0.00000000      0.00000000     -0.00615000
      0.21000000      0.00000000      0.00000000      0.00000000      0.00000000      0.00000000      0.00000000 -3.10078061E-06     -0.00393750      0.00000000      0.00000000      0.00000000     -0.00315000 -3.10077601E-05     -0.01574995      0.00000000      0.00000000      0.00000000     -0.00630000
      0.21500000      0.00000000      0.00000000      0.00000000      0.00000000      0.00000000      0.00000000 -3.25019461E-06     -0.00403125      0.00000000      0.00000000      0.00000000     -0.00322500 -3.25018955E-05     -0.01612495      0.00000000      0.00000000      0.00000000     -0.00645000
      0.22000000      0.00000000      0.00000000      0.00000000      0.00000000      0.00000000      0.00000000 -3.40312423E-06     -0.00412500      0.00000000      0.00000000      0.00000000     -0.00330000 -3.40311869E-05     -0.01649995      0.00000000      0.00000000      0.00000000     -0.00660000
      0.22500000      0.00000000      0.00000000      0.00000000      0.00000000      0.00000000      0.00000000 -3.55956947E-06     -0.00421875      0.00000000      0.00000000      0.00000000     -0.00337500 -3.55956340E-05     -0.01687494      0.00000000      0.00000000      0.00000000     -0.00675000
      0.23000000      0.00000000      0.00000000      0.00000000      0.00000000      0.00000000      0.00000000 -3.71953033E-06     -0.00431250      0.00000000      0.00000000      0.00000000     -0.00345000 -3.71952370E-05     -0.01724994      0.00000000      0.00000000      0.00000000     -0.00690000
      0.23500000      0.00000000      0.00000000      0.00000000      0.00000000      0.00000000      0.00000000 -3.88300681E-06     -0.00440625      0.00000000      0.00000000      0.00000000     -0.00352500 -3.88299959E-05     -0.01762494      0.00000000      0.00000000      0.00000000     -0.00705000
      0.24000000      0.00000000      0.00000000      0.00000000      0.00000000      0.00000000      0.00000000 -4.04999891E-06     -0.00450000      0.00000000      0.00000000      0.00000000     -0.00360000 -4.04999105E-05     -0.01799993      0.00000000      0.00000000      0.00000000     -0.00720000
      0.24500000      0.00000000      0.00000000      0.00000000      0.00000000      0.00000000      0.00000000 -4.22050663E-06     -0.00459375      0.00000000      0.00000000      0.00000000     -0.00367500 -4.22049810E-05     -0.01837493      0.00000000      0.00000000      0.00000000     -0.00735000
      0.25000000      0.00000000      0.00000000      0.00000000      0.00000000      0.00000000      0.00000000 -4.39452997E-06     -0.00468750      0.00000000      0.00000000      0.00000000     -0.00375000 -4.39452071E-05     -0.01874992      0.00000000      0.00000000      0.00000000     -0.00750000
      0.25500000      0.00000000      0.00000000      0.00000000      0.00000000      0.00000000      0.00000000 -4.57206893E-06     -0.00478125      0.00000000      0.00000000      0.00000000     -0.00382500 -4.57205891E-05     -0.01912492      0.00000000      0.00000000      0.00000000     -0.00765000
      0.26000000      0.00000000      0.00000000      0.00000000      0.00000000      0.00000000      0.00000000 -4.75312350E-06     -0.00487500      0.00000000      0.00000000      0.00000000     -0.00390000 -4.75311267E-05     -0.01949991      0.00000000      0.00000000      0.00000000     -0.00780000
      0.26500000      0.00000000      0.00000000      0.00000000      0.00000000      0.00000000      0.00000000 -4.93769369E-06     -0.00496875      0.00000000      0.00000000      0.00000000     -0.00397500 -4.93768201E-05     -0.01987491      0.00000000      0.00000000      0.00000000     -0.00795000
      0.27000000      0.00000000      0.00000000      0.00000000      0.00000000      0.00000000      0.00000000 -5.12577951E-06     -0.00506250      0.00000000      0.00000000      0.00000000     -0.00405000 -5.12576691E-05     -0.02024990      0.00000000      0.00000000      0.00000000     -0.00810000
      0.27500000      0.00000000      0.00000000      0.00000000      0.00000000      0.00000000      0.00000000 -5.31738094E-06     -0.00515625      0.00000000      0.00000000      0.00000000     -0.00412500 -5.31736738E-05     -0.02062490      0.00000000      0.00000000      0.00000000     -0.00825000
      0.28000000      0.00000000      0.00000000      0.00000000      0.00000000      0.00000000      0.00000000 -5.51249798E-06     -0.00525000      0.00000000      0.00000000      0.00000000     -0.00420000 -5.51248341E-05     -0.02099989      0.00000000      0.00000000      0.00000000     -0.00840000
      0.28500000      0.00000000      0.00000000      0.00000000      0.00000000      0.00000000      0.00000000 -5.71113065E-06     -0.00534375      0.00000000      0.00000000      0.00000000     -0.00427500 -5.71111501E-05     -0.02137489      0.00000000      0.00000000      0.00000000     -0.00855000
      0.29000000      0.00000000      0.00000000      0.00000000      0.00000000      0.00000000      0.00000000 -5.91327893E-06     -0.00543750      0.00000000      0.00000000      0.00000000     -0.00435000 -5.91326216E-05     -0.02174988      0.00000000      0.00000000      0.00000000     -0.00870000
      0.29500000      0.00000000      0.00000000      0.00000000      0.00000000      0.00000000      0.00000000 -6.11894282E-06     -0.00553125      0.00000000      0.00000000      0.00000000     -0.00442500 -6.11892487E-05     -0.02212487      0.00000000      0.00000000      0.00000000     -0.00885000
      0.30000000      0.00000000      0.00000000      0.00000000      0.00000000      0.00000000      0.00000000 -6.32812234E-06     -0.00562500      0.00000000      0.00000000      0.00000000     -0.00450000 -6.32810314E-05     -0.02249987      0.00000000      0.00000000      0.00000000     -0.00900000
      0.30500000      0.00000000      0.00000000      0.00000000      0.00000000      0.00000000      0.00000000 -6.54081747E-06     -0.00571875      0.00000000      0.00000000      0.00000000     -0.00457500 -6.54079696E-05     -0.02287486      0.00000000      0.00000000      0.00000000     -0.00915000
      0.31000000      0.00000000      0.00000000      0.00000000      0.00000000      0.00000000      0.00000000 -6.75702822E-06     -0.00581249      0.00000000      0.00000000      0.00000000     -0.00465000 -6.75700632E-05     -0.02324985      0.00000000      0.00000000      0.00000000     -0.00930000
      0.31500000      0.00000000      0.00000000      0.00000000      0.00000000      0.00000000      0.00000000 -6.97675458E-06     -0.00590624      0.00000000      0.00000000      0.00000000     -0.00472500 -6.97673124E-05     -0.02362485      0.00000000      0.00000000      0.00000000     -0.00945000
      0.32000000      0.00000000      0.00000000      0.00000000      0.00000000      0.00000000      0.00000000 -7.19999655E-06     -0.00599999      0.00000000      0.00000000      0.00000000     -0.00480000 -7.19997170E-05     -0.02399984      0.00000000      0.00000000      0.00000000     -0.00960000
      0.32500000      0.00000000      0.00000000      0.00000000      0.00000000      0.00000000      0.00000000 -7.42675415E-06     -0.00609374      0.00000000      0.00000000      0.00000000     -0.00487500 -7.42672770E-05     -0.02437483      0.00000000      0.00000000      0.00000000     -0.00975000
      0.33000000      0.00000000      0.00000000      0.00000000      0.00000000      0.00000000      0.00000000 -7.65702735E-06     -0.00618749      0.00000000      0.00000000      0.00000000     -0.00495000 -7.65699924E-05     -0.02474982      0.00000000      0.00000000      0.00000000     -0.00990000
      0.33500000      0.00000000      0.00000000      0.00000000      0.00000000      0.00000000      0.00000000 -7.89081617E-06     -0.00628124      0.00000000      0.00000000      0.00000000     -0.00502500 -7.89078631E-05     -0.02512482      0.00000000      0.00000000      0.00000000     -0.01005000
      0.34000000      0.00000000      0.00000000      0.00000000      0.00000000      0.00000000      0.00000000 -8.12812061E-06     -0.00637499      0.00000000      0.00000000      0.00000000     -0.00510000 -8.12808892E-05     -0.02549981      0.00000000      0.00000000      0.00000000     -0.01020000
      0.34500000      0.00000000      0.00000000      0.00000000      0.00000000      0.00000000      0.00000000 -8.36894065E-06     -0.00646874      0.00000000      0.00000000      0.00000000     -0.00517500 -8.36890706E-05     -0.02587480      0.00000000      0.00000000      0.00000000     -0.01035000
      0.35000000      0.00000000      0.00000000      0.00000000      0.00000000      0.00000000      0.00000000 -8.61327632E-06     -0.00656249      0.00000000      0.00000000      0.00000000     -0.00525000 -8.61324073E-05     -0.02624979      0.00000000      0.00000000      0.00000000     -0.01050000
      0.35500000      0.00000000      0.00000000      0.00000000      0.00000000      0.00000000      0.00000000 -8.86112759E-06     -0.00665624      0.00000000      0.00000000      0.00000000     -0.00532500 -8.86108993E-05     -0.02662478      0.00000000      0.00000000      0.00000000     -0.01065000
      0.36000000      0.00000000      0.00000000      0.00000000      0.00000000      0.00000000      0.00000000 -9.11249448E-06     -0.00674999      0.00000000      0.00000000      0.00000000     -0.00540000 -9.11245465E-05     -0.02699977      0.00000000      0.00000000      0.00000000     -0.01080000
      0.36500000      0.00000000      0.00000000      0.00000000      0.00000000      0.00000000      0.00000000 -9.36737698E-06     -0.00684374      0.00000000      0.00000000      0.00000000     -0.00547500 -9.36733489E-05     -0.02737476      0.00000000      0.00000000      0.00000000     -0.01095000
      0.37000000      0.00000000      0.00000000      0.00000000      0.00000000      0.00000000      0.00000000 -9.62577509E-06     -0.00693749      0.00000000      0.00000000      0.00000000     -0.00555000 -9.62573064E-05     -0.02774975      0.00000000      0.00000000      0.00000000     -0.01110000
      0.37500000      0.00000000      0.00000000      0.00000000      0.00000000      0.00000000      0.00000000 -9.88768881E-06     -0.00703124      0.00000000      0.00000000      0.00000000     -0.00562500 -9.88764191E-05     -0.02812474      0.00000000      0.00000000      0.00000000     -0.01125000
      0.38000000      0.00000000      0.00000000      0.00000000      0.00000000      0.00000000      0.00000000 -1.01531181E-05     -0.00712499      0.00000000      0.00000000      0.00000000     -0.00570000     -0.00010153     -0.02849973      0.00000000      0.00000000      0.00000000     -0.01140000
      0.38500000      0.00000000      0.00000000      0.00000000      0.00000000      0.00000000      0.00000000 -1.04220631E-05     -0.00721874      0.00000000      0.00000000      0.00000000     -0.00577500     -0.00010422     -0.02887472      0.00000000      0.00000000      0.00000000     -0.01155000
      0.39000000      0.00000000      0.00000000      0.00000000      0.00000000      0.00000000      0.00000000 -1.06945236E-05     -0.00731249      0.00000000      0.00000000      0.00000000     -0.00585000     -0.00010694     -0.02924971      0.00000000      0.00000000      0.00000000     -0.01170000
      0.39500000      0.00000000      0.00000000      0.00000000      0.00000000      0.00000000      0.00000000 -1.09704998E-05     -0.00740624      0.00000000      0.00000000      0.00000000     -0.00592500     -0.00010970     -0.02962470      0.00000000      0.00000000      0.00000000     -0.01185000
      0.40000000      0.00000000      0.00000000      0.00000000      0.00000000      0.00000000      0.00000000 -1.12499916E-05     -0.00749999      0.00000000      0.00000000      0.00000000     -0.00600000     -0.00011250     -0.02999969      0.00000000      0.00000000      0.00000000     -0.01200000
      0.40500000      0.00000000      0.00000000      0.00000000      0.00000000      0.00000000      0.00000000 -1.15329990E-05     -0.00759374      0.00000000      0.00000000      0.00000000     -0.00607500     -0.00011533     -0.03037467      0.00000000      0.00000000      0.00000000     -0.01215000
      0.41000000      0.00000000      0.00000000      0.00000000      0.00000000      0.00000000      0.00000000 -1.18195220E-05     -0.00768749      0.00000000      0.00000000      0.00000000     -0.00615000     -0.00011819     -0.03074966      0.00000000      0.00000000      0.00000000     -0.01230000
      0.41500000      0.00000000      0.00000000      0.00000000      0.00000000      0.00000000      0.00000000 -1.21095606E-05     -0.00778124      0.00000000      0.00000000      0.00000000     -0.00622500     -0.00012109     -0.03112465      0.00000000      0.00000000      0.00000000     -0.01245000
      0.42000000      0.00000000      0.00000000      0.00000000      0.00000000      0.00000000      0.00000000 -1.24031148E-05     -0.00787499      0.00000000      0.00000000      0.00000000     -0.00630000     -0.00012403     -0.03149964      0.00000000      0.00000000      0.00000000     -0.01260000
      0.42500000      0.00000000      0.00000000      0.00000000      0.00000000      0.00000000      0.00000000 -1.27001846E-05     -0.00796874      0.00000000      0.00000000      0.00000000     -0.00637500     -0.00012700     -0.03187462      0.00000000      0.00000000      0.00000000     -0.01275000
      0.43000000      0.00000000      0.00000000      0.00000000      0.00000000      0.00000000      0.00000000 -1.30007700E-05     -0.00806249      0.00000000      0.00000000      0.00000000     -0.00645000     -0.00013001     -0.03224961      0.00000000      0.00000000      0.00000000     -0.01290000
      0.43500000      0.00000000      0.00000000      0.00000000      0.00000000      0.00000000      0.00000000 -1.33048710E-05     -0.00815624      0.00000000      0.00000000      0.00000000     -0.00652500     -0.00013305     -0.03262459      0.00000000      0.00000000      0.00000000     -0.01305000
      0.44000000      0.00000000      0.00000000      0.00000000      0.00000000      0.00000000      0.00000000 -1.36124877E-05     -0.00824999      0.00000000      0.00000000      0.00000000     -0.00660000     -0.00013612     -0.03299958      0.00000000      0.00000000      0.00000000     -0.01320000
      0.44500000      0.00000000      0.00000000      0.00000000      0.00000000      0.00000000      0.00000000 -1.39236199E-05     -0.00834373      0.00000000      0.00000000      0.00000000     -0.00667500     -0.00013924     -0.03337457      0.00000000      0.00000000      0.00000000     -0.01335000
      0.45000000      0.00000000      0.00000000      0.00000000      0.00000000      0.00000000      0.00000000 -1.42382678E-05     -0.00843748      0.00000000      0.00000000      0.00000000     -0.00675000     -0.00014238     -0.03374955      0.00000000      0.00000000      0.00000000     -0.01350000
      0.45500000      0.00000000      0.00000000      0.00000000      0.00000000      0.00000000      0.00000000 -1.45564312E-05     -0.00853123      0.00000000      0.00000000      0.00000000     -0.00682500     -0.00014556     -0.03412454      0.00000000      0.00000000      0.00000000     -0.01365000
      0.46000000      0.00000000      0.00000000      0.00000000      0.00000000      0.00000000      0.00000000 -1.48781103E-05     -0.00862498      0.00000000      0.00000000      0.00000000     -0.00690000     -0.00014878     -0.03449952      0.00000000      0.00000000      0.00000000     -0.01380000
      0.46500000      0.00000000      0.00000000      0.00000000      0.00000000      0.00000000      0.00000000 -1.52033049E-05     -0.00871873      0.00000000      0.00000000      0.00000000     -0.00697500     -0.00015203     -0.03487451      0.00000000      0.00000000      0.00000000     -0.01395000
      0.47000000      0.00000000      0.00000000      0.00000000      0.00000000      0.00000000      0.00000000 -1.55320152E-05     -0.00881248      0.00000000      0.00000000      0.00000000     -0.00705000     -0.00015532     -0.03524949      0.00000000      0.00000000      0.00000000     -0.01410000
      0.47500000      0.00000000      0.00000000      0.00000000      0.00000000      0.00000000      0.00000000 -1.58642411E-05     -0.00890623      0.00000000      0.00000000      0.00000000     -0.00712500     -0.00015864     -0.03562447      0.00000000      0.00000000      0.00000000     -0.01425000
      0.48000000      0.00000000      0.00000000      0.00000000      0.00000000      0.00000000      0.00000000 -1.61999825E-05     -0.00899998      0.00000000      0.00000000      0.00000000     -0.00720000     -0.00016200     -0.03599946      0.00000000      0.00000000      0.00000000     -0.01440000
      0.48500000      0.00000000      0.00000000      0.00000000      0.00000000      0.00000000      0.00000000 -1.65392396E-05     -0.00909373      0.00000000      0.00000000      0.00000000     -0.00727500     -0.00016539     -0.03637444      0.00000000      0.00000000      0.00000000     -0.01455000
      0.49000000      0.00000000      0.00000000      0.00000000      0.00000000      0.00000000      0.00000000 -1.68820123E-05     -0.00918748      0.00000000      0.00000000      0.00000000     -0.00735000     -0.00016882     -0.03674942      0.00000000      0.00000000      0.00000000     -0.01470000
      0.49500000      0.00000000      0.00000000      0.00000000      0.00000000      0.00000000      0.00000000 -1.72283005E-05     -0.00928123      0.00000000      0.00000000      0.00000000     -0.00742500     -0.00017228     -0.03712440      0.00000000      0.00000000      0.00000000     -0.01485000
      0.50000000      0.00000000      0.00000000      0.00000000      0.00000000      0.00000000      0.00000000 -1.75781044E-05     -0.00937498      0.00000000      0.00000000      0.00000000     -0.00750000     -0.00017578     -0.03749938      0.00000000      0.00000000      0.00000000     -0.01500000
      0.50500000      0.00000000      0.00000000      0.00000000      0.00000000      0.00000000      0.00000000 -1.79314239E-05     -0.00946873      0.00000000      0.00000000      0.00000000     -0.00757500     -0.00017931     -0.03787437      0.00000000      0.00000000      0.00000000     -0.01515000
      0.51000000      0.00000000      0.00000000      0.00000000      0.00000000      0.00000000      0.00000000 -1.82882590E-05     -0.00956248      0.00000000      0.00000000      0.00000000     -0.00765000     -0.00018288     -0.03824935      0.00000000      0.00000000      0.00000000     -0.01530000
      0.51500000      0.00000000      0.00000000      0.00000000      0.00000000      0.00000000      0.00000000 -1.86486097E-05     -0.00965623      0.00000000      0.00000000      0.00000000     -0.00772500     -0.00018648     -0.03862433      0.00000000      0.00000000      0.00000000     -0.01545000
      0.52000000      0.00000000      0.00000000      0.00000000      0.00000000      0.00000000      0.00000000 -1.90124759E-05     -0.00974998      0.00000000      0.00000000      0.00000000     -0.00780000     -0.00019012     -0.03899931      0.00000000      0.00000000      0.00000000     -0.01560000
      0.52500000      0.00000000      0.00000000      0.00000000      0.00000000      0.00000000      0.00000000 -1.93798578E-05     -0.00984372      0.00000000      0.00000000      0.00000000     -0.00787500     -0.00019380     -0.03937429      0.00000000      0.00000000      0.00000000     -0.01575000
      0.53000000      0.00000000      0.00000000      0.00000000      0.00000000      0.00000000      0.00000000 -1.97507553E-05     -0.00993747      0.00000000      0.00000000      0.00000000     -0.00795000     -0.00019751     -0.03974927      0.00000000      0.00000000      0.00000000     -0.01590000
      0.53500000      0.00000000      0.00000000      0.00000000      0.00000000      0.00000000      0.00000000 -2.01251683E-05     -0.01003122      0.00000000      0.00000000      0.00000000     -0.00802500     -0.00020125     -0.04012425      0.00000000      0.00000000      0.00000000     -0.01605000
      0.54000000      0.00000000      0.00000000      0.00000000      0.00000000      0.00000000      0.00000000 -2.05030970E-05     -0.01012497      0.00000000      0.00000000      0.00000000     -0.00810000     -0.00020503     -0.04049923      0.00000000      0.00000000      0.00000000     -0.01620000
      0.54500000      0.00000000      0.00000000      0.00000000      0.00000000      0.00000000      0.00000000 -2.08845413E-05     -0.01021872      0.00000000      0.00000000      0.00000000     -0.00817500     -0.00020884     -0.04087420      0.00000000      0.00000000      0.00000000     -0.01635000
      0.55000000      0.00000000      0.00000000      0.00000000      0.00000000      0.00000000      0.00000000 -2.12695011E-05     -0.01031247      0.00000000      0.00000000      0.00000000     -0.00825000     -0.00021269     -0.04124918      0.00000000      0.00000000      0.00000000     -0.01650000
      0.55500000      0.00000000      0.00000000      0.00000000      0.00000000      0.00000000      0.00000000 -2.16579766E-05     -0.01040622      0.00000000      0.00000000      0.00000000     -0.00832500     -0.00021658     -0.04162416      0.00000000      0.00000000      0.00000000     -0.01665000
      0.56000000      0.00000000      0.00000000      0.00000000      0.00000000      0.00000000      0.00000000 -2.20499676E-05     -0.01049997      0.00000000      0.00000000      0.00000000     -0.00840000     -0.00022050     -0.04199914      0.00000000      0.00000000      0.00000000     -0.01680000
      0.56500000      0.00000000      0.00000000      0.00000000      0.00000000      0.00000000      0.00000000 -2.24454743E-05     -0.01059372      0.00000000      0.00000000      0.00000000     -0.00847500     -0.00022445     -0.04237411      0.00000000      0.00000000      0.00000000     -0.01695000
      0.57000000      0.00000000      0.00000000      0.00000000      0.00000000      0.00000000      0.00000000 -2.28444965E-05     -0.01068747      0.00000000      0.00000000      0.00000000     -0.00855000     -0.00022844     -0.04274909      0.00000000      0.00000000      0.00000000     -0.01710000
      0.57500000      0.00000000      0.00000000      0.00000000      0.00000000      0.00000000      0.00000000 -2.32470343E-05     -0.01078122      0.00000000      0.00000000      0.00000000     -0.00862500     -0.00023247     -0.04312406      0.00000000      0.00000000      0.00000000     -0.01725000
      0.58000000      0.00000000      0.00000000      0.00000000      0.00000000      0.00000000      0.00000000 -2.36530877E-05     -0.01087497      0.00000000      0.00000000      0.00000000     -0.00870000     -0.00023653     -0.04349904      0.00000000      0.00000000      0.00000000     -0.01740000
      0.58500000      0.00000000      0.00000000      0.00000000      0.00000000      0.00000000      0.00000000 -2.40626567E-05     -0.01096871      0.00000000      0.00000000      0.00000000     -0.00877500     -0.00024062     -0.04387401      0.00000000      0.00000000      0.00000000     -0.01755000
      0.59000000      0.00000000      0.00000000      0.00000000      0.00000000      0.00000000      0.00000000 -2.44757413E-05     -0.01106246      0.00000000      0.00000000      0.00000000     -0.00885000     -0.00024475     -0.04424899      0.00000000      0.00000000      0.00000000     -0.01770000
      0.59500000      0.00000000      0.00000000      0.00000000      0.00000000      0.00000000      0.00000000 -2.48923415E-05     -0.01115621      0.00000000      0.00000000      0.00000000     -0.00892500     -0.00024892     -0.04462396      0.00000000      0.00000000      0.00000000     -0.01785000
      0.60000000      0.00000000      0.00000000      0.00000000      0.00000000      0.00000000      0.00000000 -2.53124573E-05     -0.01124996      0.00000000      0.00000000      0.00000000     -0.00900000     -0.00025312     -0.04499894      0.00000000      0.00000000      0.00000000     -0.01800000
      0.60500000      0.00000000      0.00000000      0.00000000      0.00000000      0.00000000      0.00000000 -2.57360887E-05     -0.01134371      0.00000000      0.00000000      0.00000000     -0.00907500     -0.00025736     -0.04537391      0.00000000      0.00000000      0.00000000     -0.01815000
      0.61000000      0.00000000      0.00000000      0.00000000      0.00000000      0.00000000      0.00000000 -2.61632357E-05     -0.01143746      0.00000000      0.00000000      0.00000000     -0.00915000     -0.00026163     -0.04574888      0.00000000      0.00000000      0.00000000     -0.01830000
      0.61500000      0.00000000      0.00000000      0.00000000      0.00000000      0.00000000      0.00000000 -2.65938982E-05     -0.01153121      0.00000000      0.00000000      0.00000000     -0.00922500     -0.00026594     -0.04612386      0.00000000      0.00000000      0.00000000     -0.01845000
      0.62000000      0.00000000      0.00000000      0.00000000      0.00000000      0.00000000      0.00000000 -2.70280763E-05     -0.01162496      0.00000000      0.00000000      0.00000000     -0.00930000     -0.00027028     -0.04649883      0.00000000      0.00000000      0.00000000     -0.01860000
      0.62500000      0.00000000      0.00000000      0.00000000      0.00000000      0.00000000      0.00000000 -2.74657701E-05     -0.01171871      0.00000000      0.00000000      0.00000000     -0.00937500     -0.00027465     -0.04687380      0.00000000      0.00000000      0.00000000     -0.01875000
      0.63000000      0.00000000      0.00000000      0.00000000      0.00000000      0.00000000      0.00000000 -2.79069794E-05     -0.01181246      0.00000000      0.00000000      0.00000000     -0.00945000     -0.00027907     -0.04724877      0.00000000      0.00000000      0.00000000     -0.01890000
      0.63500000      0.00000000      0.00000000      0.00000000      0.00000000      0.00000000      0.00000000 -2.83517043E-05     -0.01190621      0.00000000      0.00000000      0.00000000     -0.00952500     -0.00028351     -0.04762374      0.00000000      0.00000000      0.00000000     -0.01905000
      0.64000000      0.00000000      0.00000000      0.00000000      0.00000000      0.00000000      0.00000000 -2.87999447E-05     -0.01199995      0.00000000      0.00000000      0.00000000     -0.00960000     -0.00028800     -0.04799871      0.00000000      0.00000000      0.00000000     -0.01920000
      0.64500000      0.00000000      0.00000000      0.00000000      0.00000000      0.00000000      0.00000000 -2.92517008E-05     -0.01209370      0.00000000      0.00000000      0.00000000     -0.00967500     -0.00029251     -0.04837368      0.00000000      0.00000000      0.00000000     -0.01935000
      0.65000000      0.00000000      0.00000000      0.00000000      0.00000000      0.00000000      0.00000000 -2.97069725E-05     -0.01218745      0.00000000      0.00000000      0.00000000     -0.00975000     -0.00029707     -0.04874865      0.00000000      0.00000000      0.00000000     -0.01950000
      0.65500000      0.00000000      0.00000000      0.00000000      0.00000000      0.00000000      0.00000000 -3.01657597E-05     -0.01228120      0.00000000      0.00000000      0.00000000     -0.00982500     -0.00030165     -0.04912362      0.00000000      0.00000000      0.00000000     -0.01965000
      0.66000000      0.00000000      0.00000000      0.00000000      0.00000000      0.00000000      0.00000000 -3.06280625E-05     -0.01237495      0.00000000      0.00000000      0.00000000     -0.00990000     -0.00030628     -0.04949859      0.00000000      0.00000000      0.00000000     -0.01980000
      0.66500000      0.00000000      0.00000000      0.00000000      0.00000000      0.00000000      0.00000000 -3.10938809E-05     -0.01246870      0.00000000      0.00000000      0.00000000     -0.00997500     -0.00031093     -0.04987355      0.00000000      0.00000000      0.00000000     -0.01995000
      0.67000000      0.00000000      0.00000000      0.00000000      0.00000000      0.00000000      0.00000000 -3.15632149E-05     -0.01256245      0.00000000      0.00000000      0.00000000     -0.01005000     -0.00031563     -0.05024852      0.00000000      0.00000000      0.00000000     -0.02010000
      0.67500000      0.00000000      0.00000000      0.00000000      0.00000000      0.00000000      0.00000000 -3.20360644E-05     -0.01265620      0.00000000      0.00000000      0.00000000     -0.01012500     -0.00032036     -0.05062349      0.00000000      0.00000000      0.00000000     -0.02025000
      0.68000000      0.00000000      0.00000000      0.00000000      0.00000000      0.00000000      0.00000000 -3.25124296E-05     -0.01274994      0.00000000      0.00000000      0.00000000     -0.01020000     -0.00032512     -0.05099845      0.00000000      0.00000000      0.00000000     -0.02040000
      0.68500000      0.00000000      0.00000000      0.00000000      0.00000000      0.00000000      0.00000000 -3.29923103E-05     -0.01284369      0.00000000      0.00000000      0.00000000     -0.01027500     -0.00032992     -0.05137342      0.00000000      0.00000000      0.00000000     -0.02055000
      0.69000000      0.00000000      0.00000000      0.00000000      0.00000000      0.00000000      0.00000000 -3.34757066E-05     -0.01293744      0.00000000      0.00000000      0.00000000     -0.01035000     -0.00033475     -0.05174838      0.00000000      0.00000000      0.00000000     -0.02070000
      0.69500000      0.00000000      0.00000000      0.00000000      0.00000000      0.00000000      0.00000000 -3.39626185E-05     -0.01303119      0.00000000      0.00000000      0.00000000     -0.01042500     -0.00033962     -0.05212335      0.00000000      0.00000000      0.00000000     -0.02085000
      0.70000000      0.00000000      0.00000000      0.00000000      0.00000000      0.00000000      0.00000000 -3.44530459E-05     -0.01312494      0.00000000      0.00000000      0.00000000     -0.01050000     -0.00034452     -0.05249831      0.00000000      0.00000000      0.00000000     -0.02100000
      0.70500000      0.00000000      0.00000000      0.00000000      0.00000000      0.00000000      0.00000000 -3.49469889E-05     -0.01321869      0.00000000      0.00000000      0.00000000     -0.01057500     -0.00034946     -0.05287328      0.00000000      0.00000000      0.00000000     -0.02115000
      0.71000000      0.00000000      0.00000000      0.00000000      0.00000000      0.00000000      0.00000000 -3.54444475E-05     -0.01331244      0.00000000      0.00000000      0.00000000     -0.01065000     -0.00035444     -0.05324824      0.00000000      0.00000000      0.00000000     -0.02130000
      0.71500000      0.00000000      0.00000000      0.00000000      0.00000000      0.00000000      0.00000000 -3.59454217E-05     -0.01340619      0.00000000      0.00000000      0.00000000     -0.01072500     -0.00035945     -0.05362320      0.00000000      0.00000000      0.00000000     -0.02145000
      0.72000000      0.00000000      0.00000000      0.00000000      0.00000000      0.00000000      0.00000000 -3.64499115E-05     -0.01349993      0.00000000      0.00000000      0.00000000     -0.01080000     -0.00036449     -0.05399816      0.00000000      0.00000000      0.00000000     -0.02160000
      0.72500000      0.00000000      0.00000000      0.00000000      0.00000000      0.00000000      0.00000000 -3.69579168E-05     -0.01359368      0.00000000      0.00000000      0.00000000     -0.01087500     -0.00036957     -0.05437312      0.00000000      0.00000000      0.00000000     -0.02175000
      0.73000000      0.00000000      0.00000000      0.00000000      0.00000000      0.00000000      0.00000000 -3.74694377E-05     -0.01368743      0.00000000      0.00000000      0.00000000     -0.01095000     -0.00037469     -0.05474809      0.00000000      0.00000000      0.00000000     -0.02190000
      0.73500000      0.00000000      0.00000000      0.00000000      0.00000000      0.00000000      0.00000000 -3.79844742E-05     -0.01378118      0.00000000      0.00000000      0.00000000     -0.01102500     -0.00037984     -0.05512305      0.00000000      0.00000000      0.00000000     -0.02205000
      0.74000000      0.00000000      0.00000000      0.00000000      0.00000000      0.00000000      0.00000000 -3.85030262E-05     -0.01387493      0.00000000      0.00000000      0.00000000     -0.01110000     -0.00038502     -0.05549801      0.00000000      0.00000000      0.00000000     -0.02220000
      0.74500000      0.00000000      0.00000000      0.00000000      0.00000000      0.00000000      0.00000000 -3.90250938E-05     -0.01396868      0.00000000      0.00000000      0.00000000     -0.01117500     -0.00039024     -0.05587296      0.00000000      0.00000000      0.00000000     -0.02235000
      0.75000000      0.00000000      0.00000000      0.00000000      0.00000000      0.00000000      0.00000000 -3.95506770E-05     -0.01406243      0.00000000      0.00000000      0.00000000     -0.01125000     -0.00039550     -0.05624792      0.00000000      0.00000000      0.00000000     -0.02250000
      0.75500000      0.00000000      0.00000000      0.00000000      0.00000000      0.00000000      0.00000000 -4.00797758E-05     -0.01415617      0.00000000      0.00000000      0.00000000     -0.01132500     -0.00040079     -0.05662288      0.00000000      0.00000000      0.00000000     -0.02265000
      0.76000000      0.00000000      0.00000000      0.00000000      0.00000000      0.00000000      0.00000000 -4.06123901E-05     -0.01424992      0.00000000      0.00000000      0.00000000     -0.01140000     -0.00040612     -0.05699784      0.00000000      0.00000000      0.00000000     -0.02280000
      0.76500000      0.00000000      0.00000000      0.00000000      0.00000000      0.00000000      0.00000000 -4.11485200E-05     -0.01434367      0.00000000      0.00000000      0.00000000     -0.01147500     -0.00041148     -0.05737280      0.00000000      0.00000000      0.00000000     -0.02295000
      0.77000000      0.00000000      0.00000000      0.00000000      0.00000000      0.00000000      0.00000000 -4.16881654E-05     -0.01443742      0.00000000      0.00000000      0.00000000     -0.01155000     -0.00041687     -0.05774775      0.00000000      0.00000000      0.00000000     -0.02310000
      0.77500000      0.00000000      0.00000000      0.00000000      0.00000000      0.00000000      0.00000000 -4.22313265E-05     -0.01453117      0.00000000      0.00000000      0.00000000     -0.01162500     -0.00042230     -0.05812271      0.00000000      0.00000000      0.00000000     -0.02325000
      0.78000000      0.00000000      0.00000000      0.00000000      0.00000000      0.00000000      0.00000000 -4.27780031E-05     -0.01462492      0.00000000      0.00000000      0.00000000     -0.01170000     -0.00042777     -0.05849766      0.00000000      0.00000000      0.00000000     -0.02340000
      0.78500000      0.00000000      0.00000000      0.00000000      0.00000000      0.00000000      0.00000000 -4.33281952E-05     -0.01471866      0.00000000      0.00000000      0.00000000     -0.01177500     -0.00043327     -0.05887262      0.00000000      0.00000000      0.00000000     -0.02355000
      0.79000000      0.00000000      0.00000000      0.00000000      0.00000000      0.00000000      0.00000000 -4.38819029E-05     -0.01481241      0.00000000      0.00000000      0.00000000     -0.01185000     -0.00043881     -0.05924757      0.00000000      0.00000000      0.00000000     -0.02370000
      0.79500000      0.00000000      0.00000000      0.00000000      0.00000000      0.00000000      0.00000000 -4.44391262E-05     -0.01490616      0.00000000      0.00000000      0.00000000     -0.01192500     -0.00044438     -0.05962253      0.00000000      0.00000000      0.00000000     -0.02385000
      0.80000000      0.00000000      0.00000000      0.00000000      0.00000000      0.00000000      0.00000000 -4.49998651E-05     -0.01499991      0.00000000      0.00000000      0.00000000     -0.01200000     -0.00044999     -0.05999748      0.00000000      0.00000000      0.00000000     -0.02400000
      0.80500000      0.00000000      0.00000000      0.00000000      0.00000000      0.00000000      0.00000000 -4.55641195E-05     -0.01509366      0.00000000      0.00000000      0.00000000     -0.01207500     -0.00045563     -0.06037243      0.00000000      0.00000000      0.00000000     -0.02415000
      0.81000000      0.00000000      0.00000000      0.00000000      0.00000000      0.00000000      0.00000000 -4.61318894E-05     -0.01518741      0.00000000      0.00000000      0.00000000     -0.01215000     -0.00046131     -0.06074738      0.00000000      0.00000000      0.00000000     -0.02430000
      0.81500000      0.00000000      0.00000000      0.00000000      0.00000000      0.00000000      0.00000000 -4.67031750E-05     -0.01528115      0.00000000      0.00000000      0.00000000     -0.01222500     -0.00046702     -0.06112234      0.00000000      0.00000000      0.00000000     -0.02445000
      0.82000000      0.00000000      0.00000000      0.00000000      0.00000000      0.00000000      0.00000000 -4.72779761E-05     -0.01537490      0.00000000      0.00000000      0.00000000     -0.01230000     -0.00047277     -0.06149729      0.00000000      0.00000000      0.00000000     -0.02460000
      0.82500000      0.00000000      0.00000000      0.00000000      0.00000000      0.00000000      0.00000000 -4.78562927E-05     -0.01546865      0.00000000      0.00000000      0.00000000     -0.01237500     -0.00047855     -0.06187224      0.00000000      0.00000000      0.00000000     -0.02475000
      0.83000000      0.00000000      0.00000000      0.00000000      0.00000000      0.00000000      0.00000000 -4.84381249E-05     -0.01556240      0.00000000      0.00000000      0.00000000     -0.01245000     -0.00048437     -0.06224719      0.00000000      0.00000000      0.00000000     -0.02490000
      0.83500000      0.00000000      0.00000000      0.00000000      0.00000000      0.00000000      0.00000000 -4.90234727E-05     -0.01565615      0.00000000      0.00000000      0.00000000     -0.01252500     -0.00049022     -0.06262213      0.00000000      0.00000000      0.00000000     -0.02505000
      0.84000000      0.00000000      0.00000000      0.00000000      0.00000000      0.00000000      0.00000000 -4.96123360E-05     -0.01574990      0.00000000      0.00000000      0.00000000     -0.01260000     -0.00049611     -0.06299708      0.00000000      0.00000000      0.00000000     -0.02520000
      0.84500000      0.00000000      0.00000000      0.00000000      0.00000000      0.00000000      0.00000000 -5.02047148E-05     -0.01584364      0.00000000      0.00000000      0.00000000     -0.01267500     -0.00050204     -0.06337203      0.00000000      0.00000000      0.00000000     -0.02535000
      0.85000000      0.00000000      0.00000000      0.00000000      0.00000000      0.00000000      0.00000000 -5.08006093E-05     -0.01593739      0.00000000      0.00000000      0.00000000     -0.01275000     -0.00050799     -0.06374698      0.00000000      0.00000000      0.00000000     -0.02550000
      0.85500000      0.00000000      0.00000000      0.00000000      0.00000000      0.00000000      0.00000000 -5.14000193E-05     -0.01603114      0.00000000      0.00000000      0.00000000     -0.01282500     -0.00051399     -0.06412192      0.00000000      0.00000000      0.00000000     -0.02565000
      0.86000000      0.00000000      0.00000000      0.00000000      0.00000000      0.00000000      0.00000000 -5.20029448E-05     -0.01612489      0.00000000      0.00000000      0.00000000     -0.01290000     -0.00052002     -0.06449687      0.00000000      0.00000000      0.00000000     -0.02580000
      0.86500000      0.00000000      0.00000000      0.00000000      0.00000000      0.00000000      0.00000000 -5.26093859E-05     -0.01621864      0.00000000      0.00000000      0.00000000     -0.01297500     -0.00052608     -0.06487181      0.00000000      0.00000000      0.00000000     -0.02595000
      0.87000000      0.00000000      0.00000000      0.00000000      0.00000000      0.00000000      0.00000000 -5.32193425E-05     -0.01631238      0.00000000      0.00000000      0.00000000     -0.01305000     -0.00053218     -0.06524676      0.00000000      0.00000000      0.00000000     -0.02610000
      0.87500000      0.00000000      0.00000000      0.00000000      0.00000000      0.00000000      0.00000000 -5.38328147E-05     -0.01640613      0.00000000      0.00000000      0.00000000     -0.01312500     -0.00053831     -0.06562170      0.00000000      0.00000000      0.00000000     -0.02625000
      0.88000000      0.00000000      0.00000000      0.00000000      0.00000000      0.00000000      0.00000000 -5.44498024E-05     -0.01649988      0.00000000      0.00000000      0.00000000     -0.01320000     -0.00054448     -0.06599665      0.00000000      0.00000000      0.00000000     -0.02640000
      0.88500000      0.00000000      0.00000000      0.00000000      0.00000000      0.00000000      0.00000000 -5.50703057E-05     -0.01659363      0.00000000      0.00000000      0.00000000     -0.01327500     -0.00055069     -0.06637159      0.00000000      0.00000000      0.00000000     -0.02655000
      0.89000000      0.00000000      0.00000000      0.00000000      0.00000000      0.00000000      0.00000000 -5.56943245E-05     -0.01668738      0.00000000      0.00000000      0.00000000     -0.01335000     -0.00055693     -0.06674653      0.00000000      0.00000000      0.00000000     -0.02670000
      0.89500000      0.00000000      0.00000000      0.00000000      0.00000000      0.00000000      0.00000000 -5.63218589E-05     -0.01678112      0.00000000      0.00000000      0.00000000     -0.01342500     -0.00056320     -0.06712147      0.00000000      0.00000000      0.00000000     -0.02685000
      0.90000000      0.00000000      0.00000000      0.00000000      0.00000000      0.00000000      0.00000000 -5.69529088E-05     -0.01687487      0.00000000      0.00000000      0.00000000     -0.01350000     -0.00056951     -0.06749641      0.00000000      0.00000000      0.00000000     -0.02700000
      0.90500000      0.00000000      0.00000000      0.00000000      0.00000000      0.00000000      0.00000000 -5.75874743E-05     -0.01696862      0.00000000      0.00000000      0.00000000     -0.01357500     -0.00057586     -0.06787135      0.00000000      0.00000000      0.00000000     -0.02715000
      0.91000000      0.00000000      0.00000000      0.00000000      0.00000000      0.00000000      0.00000000 -5.82255553E-05     -0.01706237      0.00000000      0.00000000      0.00000000     -0.01365000     -0.00058224     -0.06824629      0.00000000      0.00000000      0.00000000     -0.02730000
      0.91500000      0.00000000      0.00000000      0.00000000      0.00000000      0.00000000      0.00000000 -5.88671519E-05     -0.01715612      0.00000000      0.00000000      0.00000000     -0.01372500     -0.00058865     -0.06862123      0.00000000      0.00000000      0.00000000     -0.02745000
      0.92000000      0.00000000      0.00000000      0.00000000      0.00000000      0.00000000      0.00000000 -5.95122640E-05     -0.01724986      0.00000000      0.00000000      0.00000000     -0.01380000     -0.00059511     -0.06899617      0.00000000      0.00000000      0.00000000     -0.02760000
      0.92500000      0.00000000      0.00000000      0.00000000      0.00000000      0.00000000      0.00000000 -6.01608916E-05     -0.01734361      0.00000000      0.00000000      0.00000000     -0.01387500     -0.00060159     -0.06937110      0.00000000      0.00000000      0.00000000     -0.02775000
      0.93000000      0.00000000      0.00000000      0.00000000      0.00000000      0.00000000      0.00000000 -6.08130348E-05     -0.01743736      0.00000000      0.00000000      0.00000000     -0.01395000     -0.00060811     -0.06974604      0.00000000      0.00000000      0.00000000     -0.02790000
      0.93500000      0.00000000      0.00000000      0.00000000      0.00000000      0.00000000      0.00000000 -6.14686935E-05     -0.01753111      0.00000000      0.00000000      0.00000000     -0.01402500     -0.00061467     -0.07012098      0.00000000      0.00000000      0.00000000     -0.02805000
      0.94000000      0.00000000      0.00000000      0.00000000      0.00000000      0.00000000      0.00000000 -6.21278678E-05     -0.01762485      0.00000000      0.00000000      0.00000000     -0.01410000     -0.00062126     -0.07049591      0.00000000      0.00000000      0.00000000     -0.02820000
      0.94500000      0.00000000      0.00000000      0.00000000      0.00000000      0.00000000      0.00000000 -6.27905576E-05     -0.01771860      0.00000000      0.00000000      0.00000000     -0.01417500     -0.00062789     -0.07087085      0.00000000      0.00000000      0.00000000     -0.02835000
      0.95000000      0.00000000      0.00000000      0.00000000      0.00000000      0.00000000      0.00000000 -6.34567629E-05     -0.01781235      0.00000000      0.00000000      0.00000000     -0.01425000     -0.00063455     -0.07124578      0.00000000      0.00000000      0.00000000     -0.02850000
      0.95500000      0.00000000      0.00000000      0.00000000      0.00000000      0.00000000      0.00000000 -6.41264838E-05     -0.01790610      0.00000000      0.00000000      0.00000000     -0.01432500     -0.00064125     -0.07162071      0.00000000      0.00000000      0.00000000     -0.02865000
      0.96000000      0.00000000      0.00000000      0.00000000      0.00000000      0.00000000      0.00000000 -6.47997202E-05     -0.01799984      0.00000000      0.00000000      0.00000000     -0.01440000     -0.00064798     -0.07199565      0.00000000      0.00000000      0.00000000     -0.02880000
      0.96500000      0.00000000      0.00000000      0.00000000      0.00000000      0.00000000      0.00000000 -6.54764721E-05     -0.01809359      0.00000000      0.00000000      0.00000000     -0.01447500     -0.00065474     -0.07237058      0.00000000      0.00000000      0.00000000     -0.02895000
      0.97000000      0.00000000      0.00000000      0.00000000      0.00000000      0.00000000      0.00000000 -6.61567396E-05     -0.01818734      0.00000000      0.00000000      0.00000000     -0.01455000     -0.00066155     -0.07274551      0.00000000      0.00000000      0.00000000     -0.02910000
      0.97500000      0.00000000      0.00000000      0.00000000      0.00000000      0.00000000      0.00000000 -6.68405226E-05     -0.01828109      0.00000000      0.00000000      0.00000000     -0.01462500     -0.00066838     -0.07312044      0.00000000      0.00000000      0.00000000     -0.02925000
      0.98000000      0.00000000      0.00000000      0.00000000      0.00000000      0.00000000      0.00000000 -6.75278211E-05     -0.01837483      0.00000000      0.00000000      0.00000000     -0.01470000     -0.00067526     -0.07349537      0.00000000      0.00000000      0.00000000     -0.02940000
      0.98500000      0.00000000      0.00000000      0.00000000      0.00000000      0.00000000      0.00000000 -6.82186352E-05     -0.01846858      0.00000000      0.00000000      0.00000000     -0.01477500     -0.00068216     -0.07387030      0.00000000      0.00000000      0.00000000     -0.02955000
      0.99000000      0.00000000      0.00000000      0.00000000      0.00000000      0.00000000      0.00000000 -6.89129647E-05     -0.01856233      0.00000000      0.00000000      0.00000000     -0.01485000     -0.00068911     -0.07424522      0.00000000      0.00000000      0.00000000     -0.02970000
      0.99500000      0.00000000      0.00000000      0.00000000      0.00000000      0.00000000      0.00000000 -6.96108099E-05     -0.01865608      0.00000000      0.00000000      0.00000000     -0.01492500     -0.00069608     -0.07462015      0.00000000      0.00000000      0.00000000     -0.02985000
      1.00000000      0.00000000      0.00000000      0.00000000      0.00000000      0.00000000      0.00000000 -7.03121705E-05     -0.01874982      0.00000000      0.00000000      0.00000000     -0.01500000     -0.00070310     -0.07499508      0.00000000      0.00000000      0.00000000     -0.03000000
