            TIME          N11-U1          N11-U2          N11-U3         N11-UR1         N11-UR2         N11-UR3          N21-U1          N21-U2          N21-U3         N21-UR1         N21-UR2         N21-UR3
  0.00000000E+00  0.00000000E+00  0.00000000E+00  0.00000000E+00  0.00000000E+00  0.00000000E+00  0.00000000E+00  0.00000000E+00  0.00000000E+00  0.00000000E+00  0.00000000E+00  0.00000000E+00  0.00000000E+00
  2.50000000E-01 -2.39032331E-05 -4.68871233E-05  2.64540247E-02  2.89761979E-03 -2.85683594E-03 -2.54884025E-06  1.89434588E-05 -3.07770923E-06  1.94967291E-03  3.49289961E-08 -3.39843677E-04 -5.40424892E-07
  5.00000000E-01 -6.82247375E-04 -1.40665270E-03  1.48531592E-01  1.62952481E-02 -1.59578255E-02 -8.02580474E-05  5.66675242E-04 -7.92035936E-05  1.06694469E-02  1.15261399E-06 -2.94515162E-03 -1.59864857E-05
  7.50000000E-01 -5.40955879E-03 -1.20442579E-02  4.43116183E-01  4.75432651E-02 -4.60298127E-02 -7.20373676E-04  5.02125013E-03 -5.91632569E-04  2.75937351E-02  1.77130652E-05 -1.33269181E-02 -1.62822381E-04
  1.00000000E+00 -2.29554392E-02 -5.56448390E-02  9.67143478E-01  1.01461245E-01 -9.62797685E-02 -3.44149310E-03  2.45614939E-02 -2.17376989E-03  4.69154405E-02  1.68240335E-04 -4.25626395E-02 -9.64535899E-04
  1.25000000E+00 -6.38095695E-02 -1.69767940E-01  1.70690919E+00  1.76917461E-01 -1.62056134E-01 -1.07306480E-02  8.14107488E-02 -3.70618486E-03  5.71854274E-02  1.10606344E-03 -1.06153288E-01 -4.00069008E-03
  1.50000000E+00 -1.27150004E-01 -3.76853032E-01  2.55235407E+00  2.64228695E-01 -2.28092862E-01 -2.40434562E-02  2.02532172E-01  2.50673378E-03  5.04730709E-02  5.36562001E-03 -2.14752973E-01 -1.28350665E-02
  1.75000000E+00 -1.99070515E-01 -6.64194433E-01  3.37636351E+00  3.55759768E-01 -2.80464382E-01 -4.20411919E-02  4.04285079E-01  3.41514491E-02  4.60966506E-02  2.00169621E-02 -3.60065670E-01 -3.34124056E-02
  2.00000000E+00 -2.63714043E-01 -9.95678816E-01  4.09198144E+00  4.50191562E-01 -3.13572666E-01 -6.11513080E-02  6.67828746E-01  1.15743889E-01  9.39774542E-02  5.88664372E-02 -5.10098991E-01 -7.10727019E-02
  2.25000000E+00 -3.07359413E-01 -1.33032004E+00  4.65722609E+00  5.48652378E-01 -3.30135718E-01 -7.68114251E-02  9.26114082E-01  2.63557933E-01  2.48239456E-01  1.38707664E-01 -6.22214246E-01 -1.22285679E-01
  2.50000000E+00 -3.20333140E-01 -1.63709006E+00  5.07116885E+00  6.51317492E-01 -3.41418704E-01 -8.57039462E-02  1.09749319E+00  4.62771883E-01  5.41043548E-01  2.67268422E-01 -6.65432876E-01 -1.69244801E-01
  2.75000000E+00 -2.96208131E-01 -1.88326987E+00  5.34351321E+00  7.49780887E-01 -3.58269829E-01 -8.72979016E-02  1.13915989E+00  6.61236685E-01  9.68580563E-01  4.34524261E-01 -6.37348218E-01 -1.90139277E-01
  3.00000000E+00 -2.29727240E-01 -2.02826482E+00  5.47668681E+00  8.30159020E-01 -3.81818253E-01 -8.60404054E-02  1.06896719E+00  7.97436659E-01  1.49182230E+00  6.19822059E-01 -5.62739835E-01 -1.78375642E-01
  3.25000000E+00 -1.16719537E-01 -2.04719851E+00  5.47038548E+00  8.84623219E-01 -3.98465578E-01 -9.22746846E-02  9.43221147E-01  8.36561048E-01  2.05115709E+00  8.06335378E-01 -4.70992622E-01 -1.45447277E-01
  3.50000000E+00  4.21348700E-02 -1.94714537E+00  5.32621241E+00  9.15458647E-01 -3.84545655E-01 -1.13765169E-01  8.18345967E-01  7.78481523E-01  2.59204931E+00  9.88405676E-01 -3.78376275E-01 -1.04686829E-01
  3.75000000E+00  2.29645437E-01 -1.76806222E+00  5.05456984E+00  9.30603074E-01 -3.23892467E-01 -1.45468651E-01  7.31364100E-01  6.44868782E-01  3.08346505E+00  1.17042308E+00 -2.93423179E-01 -6.43175410E-02
  4.00000000E+00  4.13042128E-01 -1.56166629E+00  4.68014330E+00  9.35542099E-01 -2.21377340E-01 -1.70976250E-01  6.95706845E-01  4.63052480E-01  3.52726238E+00  1.35587942E+00 -2.19130423E-01 -3.46928301E-02
  4.25000000E+00  5.62139560E-01 -1.36371213E+00  4.24844326E+00  9.31763386E-01 -1.00630874E-01 -1.77043437E-01  7.08080454E-01  2.53153742E-01  3.95448370E+00  1.53102212E+00 -1.46645224E-01 -3.05076848E-02
  4.50000000E+00  6.65516418E-01 -1.18444183E+00  3.81668139E+00  9.18120087E-01  1.17080786E-02 -1.64045783E-01  7.63664419E-01  2.14322198E-02  4.40338063E+00  1.66538524E+00 -6.45180736E-02 -6.78404691E-02
  4.75000000E+00  7.28284004E-01 -1.02153708E+00  3.43103638E+00  8.91455829E-01  9.94514772E-02 -1.39775052E-01  8.68674210E-01 -2.29960237E-01  4.89066470E+00  1.72888895E+00  3.18665114E-02 -1.51238369E-01
  5.00000000E+00  7.61587873E-01 -8.75487792E-01  3.11794540E+00  8.51455366E-01  1.59424806E-01 -1.10326489E-01  1.03420555E+00 -4.85434055E-01  5.39431038E+00  1.70505229E+00  1.41262548E-01 -2.55887445E-01
  5.25000000E+00  7.77226001E-01 -7.54173650E-01  2.88537282E+00  8.03987668E-01  2.00880358E-01 -8.21109482E-02  1.25066570E+00 -7.17722476E-01  5.86855971E+00  1.59963689E+00  2.55720979E-01 -3.38427680E-01
  5.50000000E+00  7.86292714E-01 -6.66132015E-01  2.72611538E+00  7.56738684E-01  2.40956488E-01 -6.50401853E-02  1.47881279E+00 -9.07200600E-01  6.27905208E+00  1.43672226E+00  3.65942192E-01 -3.64131494E-01
  5.75000000E+00  7.94647382E-01 -6.09027768E-01  2.62383050E+00  7.10837519E-01  2.93700532E-01 -6.47863723E-02  1.67812621E+00 -1.05240298E+00  6.62227543E+00  1.23850274E+00  4.62745194E-01 -3.22101358E-01
  6.00000000E+00  7.98131936E-01 -5.67288596E-01  2.56039407E+00  6.57323013E-01  3.58981436E-01 -7.65970386E-02  1.83788009E+00 -1.16040298E+00  6.91307072E+00  1.01767035E+00  5.28973145E-01 -2.26769627E-01
  6.25000000E+00  7.88551946E-01 -5.19773816E-01  2.51902001E+00  5.81553503E-01  4.22839868E-01 -8.86694326E-02  1.97602621E+00 -1.23371474E+00  7.17076131E+00  7.83479684E-01  5.53014489E-01 -1.05824355E-01
  6.50000000E+00  7.64431426E-01 -4.57963100E-01  2.48393554E+00  4.76548456E-01  4.70478392E-01 -9.01036829E-02  2.11581857E+00 -1.25989691E+00  7.41758607E+00  5.36604907E-01  5.46252560E-01  1.01282872E-02
  6.75000000E+00  7.32436007E-01 -3.96552983E-01  2.44331776E+00  3.52669635E-01  4.95320867E-01 -7.71345423E-02  2.26291460E+00 -1.20957803E+00  7.66872815E+00  2.74779089E-01  5.35690413E-01  9.15965537E-02
  7.00000000E+00  7.00163911E-01 -3.55127161E-01  2.39074448E+00  2.28624909E-01  5.00008373E-01 -4.96762912E-02  2.40521935E+00 -1.05473339E+00  7.91160546E+00  7.96796730E-03  5.48938872E-01  1.23942514E-01
  7.25000000E+00  6.66320225E-01 -3.32640451E-01  2.31707670E+00  1.22323618E-01  4.95097210E-01 -6.60103110E-03  2.53147221E+00 -7.98453731E-01  8.10163534E+00 -2.46216856E-01  5.98001140E-01  1.22347546E-01
  7.50000000E+00  6.14020631E-01 -3.10084304E-01  2.19792019E+00  4.48982953E-02  4.94015455E-01  4.90693934E-02  2.63563308E+00 -4.84554407E-01  8.18942437E+00 -4.70206281E-01  6.73191963E-01  1.18252363E-01
  7.75000000E+00  5.19502751E-01 -2.68554757E-01  1.99397236E+00 -9.35863403E-03  5.04641556E-01  1.03528937E-01  2.70401692E+00 -1.79591400E-01  8.15082782E+00 -6.56159650E-01  7.46860517E-01  1.31828145E-01
  8.00000000E+00  3.66252724E-01 -2.01398772E-01  1.66697385E+00 -5.79018776E-02  5.27414783E-01  1.37693285E-01  2.71855441E+00  5.50381171E-02  8.00013694E+00 -8.04121020E-01  7.86839611E-01  1.66855838E-01
  8.25000000E+00  1.49562295E-01 -1.22905486E-01  1.20308866E+00 -1.15792568E-01  5.60596702E-01  1.41415867E-01  2.68407383E+00  1.81228961E-01  7.77099637E+00 -9.04422843E-01  7.83873815E-01  2.21212537E-01
  8.50000000E+00 -1.23407960E-01 -6.44750912E-02  6.27028952E-01 -1.86986690E-01  6.01910526E-01  1.21195635E-01  2.63492677E+00  1.96556032E-01  7.48435344E+00 -9.37777477E-01  7.61190601E-01  2.92783144E-01
  8.75000000E+00 -4.29775129E-01 -5.29653368E-02 -9.19635958E-03 -2.60506641E-01  6.48012724E-01  9.39417798E-02  2.59520968E+00  1.36362792E-01  7.13953317E+00 -8.94216410E-01  7.53313111E-01  3.69289199E-01
  9.00000000E+00 -7.36428278E-01 -9.47776287E-02 -6.56318511E-01 -3.21498171E-01  6.90811082E-01  7.54167563E-02  2.55075330E+00  5.17406175E-02  6.72725184E+00 -7.85550226E-01  7.81522665E-01  4.20077272E-01
  9.25000000E+00 -1.01457209E+00 -1.85342980E-01 -1.28635403E+00 -3.68746600E-01  7.16694684E-01  7.29375349E-02  2.46742425E+00 -1.41850381E-02  6.24781318E+00 -6.42964307E-01  8.44071888E-01  4.11564453E-01
  9.50000000E+00 -1.24862365E+00 -3.22473186E-01 -1.88912412E+00 -4.11256352E-01  7.17864012E-01  8.56571489E-02  2.32764801E+00 -4.02655602E-02  5.71338986E+00 -5.01764644E-01  9.19631766E-01  3.28674868E-01
  9.75000000E+00 -1.43236412E+00 -4.99957812E-01 -2.45592654E+00 -4.50659484E-01  6.96864998E-01  1.09649606E-01  2.13896081E+00 -2.87241452E-02  5.13099647E+00 -3.83553844E-01  9.78088519E-01  1.87901009E-01
  1.00000000E+01 -1.56039174E+00 -6.97423797E-01 -2.96765922E+00 -4.78711477E-01  6.58003620E-01  1.36646362E-01  1.90507917E+00 -1.21294307E-03  4.49611786E+00 -2.96381242E-01  9.92931565E-01  3.27789515E-02
  1.02500000E+01 -1.62529736E+00 -8.82802713E-01 -3.39805792E+00 -4.87869496E-01  6.04819750E-01  1.53304262E-01  1.60764369E+00  1.44781226E-02  3.80678809E+00 -2.30107247E-01  9.55394904E-01 -9.68916611E-02
  1.05000000E+01 -1.62060009E+00 -1.02045238E+00 -3.72301005E+00 -4.77152931E-01  5.45226550E-01  1.50120798E-01  1.21998860E+00 -3.66471979E-03  3.06404724E+00 -1.67839969E-01  8.74888298E-01 -1.76326617E-01
  1.07500000E+01 -1.54569301E+00 -1.08287080E+00 -3.91971401E+00 -4.52729269E-01  4.86712917E-01  1.27463106E-01  7.39620081E-01 -7.02495998E-02  2.25854676E+00 -1.04873610E-01  7.66673224E-01 -1.91793741E-01
  1.10000000E+01 -1.40990205E+00 -1.05770793E+00 -3.96130057E+00 -4.23414090E-01  4.23071136E-01  9.31430750E-02  2.09759450E-01 -1.88862364E-01  1.36293749E+00 -5.16896988E-02  6.39433265E-01 -1.46163676E-01
  1.12500000E+01 -1.23473602E+00 -9.48185515E-01 -3.82257671E+00 -3.95904914E-01  3.36296257E-01  5.71190195E-02 -2.86848292E-01 -3.48473606E-01  3.52845614E-01 -2.73919521E-02  4.94067505E-01 -6.11818929E-02
  1.15000000E+01 -1.05408462E+00 -7.73511978E-01 -3.49108428E+00 -3.74050053E-01  2.14646587E-01  2.96900277E-02 -6.62685213E-01 -5.25071302E-01 -7.67669612E-01 -4.36003354E-02  3.26476752E-01  2.72222225E-02
  1.17500000E+01 -9.11305838E-01 -5.67817706E-01 -2.97856420E+00 -3.54622959E-01  6.46377225E-02  2.09560639E-02 -8.48415530E-01 -7.00035136E-01 -1.96541390E+00 -9.31084288E-02  1.34858719E-01  8.43121109E-02
  1.20000000E+01 -8.46254715E-01 -3.70314685E-01 -2.32913099E+00 -3.25334433E-01 -9.38010727E-02  3.67004447E-02 -7.89423791E-01 -8.77283828E-01 -3.19216621E+00 -1.61771735E-01 -7.32138892E-02  9.94993901E-02
  1.22500000E+01 -8.76972217E-01 -2.16328114E-01 -1.61827637E+00 -2.74148466E-01 -2.40818429E-01  7.46751905E-02 -4.44842813E-01 -1.07891388E+00 -4.38592613E+00 -2.40746347E-01 -2.89656733E-01  8.44723177E-02
  1.25000000E+01 -9.89269404E-01 -1.26661549E-01 -9.31892547E-01 -2.02382471E-01 -3.66371188E-01  1.21740766E-01  1.93832568E-01 -1.32776101E+00 -5.47405217E+00 -3.20402937E-01 -5.16849358E-01  5.16570030E-02
  1.27500000E+01 -1.14334832E+00 -9.83185927E-02 -3.39196099E-01 -1.26661472E-01 -4.72936298E-01  1.59653433E-01  1.07810693E+00 -1.62772024E+00 -6.38099433E+00 -3.88051856E-01 -7.55180453E-01  1.24024214E-02
  1.30000000E+01 -1.29868216E+00 -1.10481409E-01  1.28963044E-01 -6.44950153E-02 -5.74410996E-01  1.79532363E-01  2.09983367E+00 -1.95735792E+00 -7.05718278E+00 -4.36097240E-01 -9.84534892E-01 -1.71765116E-02
  1.32500000E+01 -1.43066611E+00 -1.41123018E-01  4.74994823E-01 -2.04131574E-02 -6.82008129E-01  1.85706395E-01  3.12327945E+00 -2.27297832E+00 -7.50967858E+00 -4.60288691E-01 -1.17473947E+00 -1.79403218E-02
  1.35000000E+01 -1.53053934E+00 -1.75388468E-01  7.15809657E-01  9.52912297E-03 -7.95075067E-01  1.88240996E-01  4.04363665E+00 -2.52757981E+00 -7.80605456E+00 -4.53617016E-01 -1.30465738E+00  2.30722507E-02
  1.37500000E+01 -1.59043813E+00 -2.03221861E-01  8.62509894E-01  2.72631050E-02 -9.07384820E-01  1.95073246E-01  4.81624018E+00 -2.68940158E+00 -8.02721156E+00 -4.03026910E-01 -1.36786128E+00  9.94047167E-02
  1.40000000E+01 -1.59156168E+00 -2.14234988E-01  9.16674146E-01  3.80531908E-02 -1.01190250E+00  2.06709364E-01  5.44785496E+00 -2.75342961E+00 -8.22430901E+00 -3.02330624E-01 -1.37374553E+00  1.94398049E-01
  1.42500000E+01 -1.50418835E+00 -1.97635182E-01  8.80086113E-01  4.81604187E-02 -1.09296625E+00  2.15336140E-01  5.96702864E+00 -2.73501719E+00 -8.41704912E+00 -1.71599098E-01 -1.34650603E+00  2.90625097E-01
  1.45000000E+01 -1.30418300E+00 -1.52124717E-01  7.61810361E-01  5.72743533E-02 -1.13248315E+00  2.16710953E-01  6.40449743E+00 -2.65062440E+00 -8.61765810E+00 -4.10686464E-02 -1.31930902E+00  3.73004335E-01
  1.47500000E+01 -9.89916883E-01 -9.33579375E-02  5.74333548E-01  6.51687058E-02 -1.12128301E+00  2.14471897E-01  6.77479018E+00 -2.51323810E+00 -8.83668533E+00  7.31887853E-02 -1.31406894E+00  4.39511788E-01
  1.50000000E+01 -5.85308915E-01 -4.50466111E-02  3.28509928E-01  7.32973610E-02 -1.06983572E+00  2.09118991E-01  7.06412435E+00 -2.33431403E+00 -9.06806101E+00  1.70755219E-01 -1.32588639E+00  4.98286300E-01
  1.52500000E+01 -1.41342800E-01 -2.60844757E-02  4.09994303E-02  8.40318281E-02 -9.98467421E-01  1.97724696E-01  7.23582411E+00 -2.12891506E+00 -9.28951752E+00  2.59074530E-01 -1.33391419E+00  5.53804645E-01
  1.55000000E+01  2.83908670E-01 -4.23889719E-02 -2.60881144E-01  9.91107604E-02 -9.22075869E-01  1.80478508E-01  7.24102843E+00 -1.91182308E+00 -9.47692776E+00  3.44100532E-01 -1.31640248E+00  5.95918449E-01
  1.57500000E+01  6.50613185E-01 -8.46071988E-02 -5.49612079E-01  1.10178468E-01 -8.51669703E-01  1.55794945E-01  7.04704971E+00 -1.69486154E+00 -9.60596784E+00  4.25277331E-01 -1.25581356E+00  6.03118034E-01
  1.60000000E+01  9.47413993E-01 -1.33047605E-01 -8.12732387E-01  1.01013696E-01 -7.96669373E-01  1.19403656E-01  6.65870075E+00 -1.48122721E+00 -9.64047320E+00  4.95871990E-01 -1.15136229E+00  5.66348688E-01
  1.62500000E+01  1.18195745E+00 -1.74585401E-01 -1.05418422E+00  6.21058413E-02 -7.53857174E-01  6.92318200E-02  6.13016333E+00 -1.25828279E+00 -9.54817433E+00  5.40275839E-01 -1.03050457E+00  4.93353930E-01
  1.65000000E+01  1.36083955E+00 -2.13058857E-01 -1.28174690E+00 -2.44234514E-03 -7.15055640E-01  1.21883596E-02  5.52787624E+00 -1.00352976E+00 -9.32526755E+00  5.43205744E-01 -9.27163625E-01  3.95363622E-01
  1.67500000E+01  1.47545367E+00 -2.55778724E-01 -1.49516395E+00 -7.67924244E-02 -6.67838686E-01 -3.70630645E-02  4.90569286E+00 -6.99017633E-01 -8.99565038E+00  4.99990999E-01 -8.53693334E-01  2.83981326E-01
  1.70000000E+01  1.51324957E+00 -2.96514677E-01 -1.68602229E+00 -1.43790998E-01 -6.06243496E-01 -7.01614405E-02  4.28953546E+00 -3.38512111E-01 -8.57922389E+00  4.08496728E-01 -7.99668325E-01  1.67608188E-01
  1.72500000E+01  1.46693834E+00 -3.19419753E-01 -1.83712668E+00 -1.94260289E-01 -5.29882656E-01 -9.24918532E-02  3.69440862E+00  7.75232132E-02 -8.08848836E+00  2.70341938E-01 -7.43872752E-01  4.53344425E-02
  1.75000000E+01  1.34203713E+00 -3.17839408E-01 -1.93403362E+00 -2.28320412E-01 -4.50301986E-01 -1.13669567E-01  3.12933864E+00  5.51693686E-01 -7.53203827E+00  9.43386218E-02 -6.74245374E-01 -8.79370812E-02
  1.77500000E+01  1.15131010E+00 -3.00060711E-01 -1.97037875E+00 -2.54708005E-01 -3.84609989E-01 -1.37648445E-01  2.60736188E+00  1.07407448E+00 -6.92933986E+00 -1.13416348E-01 -5.88072710E-01 -2.28100218E-01
  1.80000000E+01  9.11356925E-01 -2.79001956E-01 -1.95483978E+00 -2.84365426E-01 -3.37275508E-01 -1.58664076E-01  2.13687446E+00  1.63147723E+00 -6.29235559E+00 -3.44676887E-01 -4.76992873E-01 -3.58993884E-01
  1.82500000E+01  6.41060498E-01 -2.65739429E-01 -1.90243774E+00 -3.29712580E-01 -2.95145929E-01 -1.75211588E-01  1.72598588E+00  2.19961254E+00 -5.62677671E+00 -5.76084558E-01 -3.35299332E-01 -4.60502318E-01
  1.85000000E+01  3.59231437E-01 -2.67016764E-01 -1.83246271E+00 -3.89454784E-01 -2.39426018E-01 -1.88921122E-01  1.38813172E+00  2.76020251E+00 -4.93916862E+00 -7.74353208E-01 -1.74770493E-01 -5.24990771E-01
  1.87500000E+01  9.04158893E-02 -2.81204471E-01 -1.77650353E+00 -4.49500894E-01 -1.58348076E-01 -1.96113445E-01  1.12782719E+00  3.27720463E+00 -4.24272113E+00 -9.21768165E-01 -2.25136367E-02 -5.64096107E-01
  1.90000000E+01 -1.43590285E-01 -3.06843554E-01 -1.77585068E+00 -5.03914161E-01 -5.11619904E-02 -1.95713846E-01  9.35295830E-01  3.70893419E+00 -3.54132760E+00 -1.02122935E+00  9.85546011E-02 -5.86869205E-01
  1.92500000E+01 -3.36642458E-01 -3.45619400E-01 -1.86929809E+00 -5.51029234E-01  8.02355471E-02 -1.87969258E-01  7.95995972E-01  4.02398826E+00 -2.81348303E+00 -1.07685004E+00  1.83129604E-01 -5.90560470E-01
  1.95000000E+01 -5.05725993E-01 -4.03620817E-01 -2.06628432E+00 -5.89784917E-01  2.31934764E-01 -1.73879303E-01  7.12887966E-01  4.20441605E+00 -2.02012290E+00 -1.09943674E+00  2.45057361E-01 -5.70066454E-01
  1.97500000E+01 -6.68880736E-01 -4.75899009E-01 -2.32729502E+00 -6.20446687E-01  3.84436503E-01 -1.52477876E-01  7.05916325E-01  4.24757255E+00 -1.12450107E+00 -1.10260087E+00  3.14115570E-01 -5.21496002E-01
  2.00000000E+01 -8.14953073E-01 -5.50067185E-01 -2.59276171E+00 -6.35730337E-01  5.09399160E-01 -1.23876893E-01  8.08441569E-01  4.13970303E+00 -1.01405952E-01 -1.08056187E+00  4.19043970E-01 -4.41860911E-01
  2.02500000E+01 -9.20293579E-01 -6.11287484E-01 -2.81830528E+00 -6.30835779E-01  5.95398917E-01 -9.27477240E-02  1.05967277E+00  3.85863081E+00  1.02003421E+00 -1.01832193E+00  5.67274320E-01 -3.29606466E-01
  2.05000000E+01 -9.74229852E-01 -6.52391799E-01 -2.98712248E+00 -6.08122066E-01  6.45875109E-01 -6.69926576E-02  1.48469501E+00  3.37085116E+00  2.16295094E+00 -9.09553612E-01  7.38879991E-01 -1.96166078E-01
  2.07500000E+01 -9.86090583E-01 -6.71957500E-01 -3.09155287E+00 -5.74972899E-01  6.76660105E-01 -4.72877621E-02  2.04425726E+00  2.67910242E+00  3.20725716E+00 -7.64400272E-01  8.99925791E-01 -7.13540660E-02
  2.10000000E+01 -9.72367496E-01 -6.70681340E-01 -3.12835865E+00 -5.39001349E-01  7.01665502E-01 -2.66556368E-02  2.64392662E+00  1.82330849E+00  4.08297150E+00 -6.10825334E-01  1.02031913E+00  2.94727840E-02
  2.12500000E+01 -9.38544398E-01 -6.42932968E-01 -3.08560178E+00 -4.99061025E-01  7.29796600E-01  2.06013370E-03  3.17962676E+00  8.80577035E-01  4.77404725E+00 -4.68008182E-01  1.08052091E+00  1.15742068E-01
  2.15000000E+01 -8.79573601E-01 -5.79022506E-01 -2.94003068E+00 -4.48734403E-01  7.60263420E-01  4.83212588E-02  3.60041676E+00 -8.89773658E-02  5.31073936E+00 -3.35140001E-01  1.08245795E+00  1.91006858E-01
  2.17500000E+01 -7.81124117E-01 -4.78961453E-01 -2.66626665E+00 -3.80871062E-01  7.75441378E-01  1.10124662E-01  3.90024022E+00 -1.02125292E+00  5.72827849E+00 -2.12614771E-01  1.05480408E+00  2.53419013E-01
  2.20000000E+01 -6.26116938E-01 -3.49371231E-01 -2.24324481E+00 -2.88233215E-01  7.63531053E-01  1.67739965E-01  4.09884071E+00 -1.89655314E+00  6.05938506E+00 -9.99997546E-02  1.02925761E+00  3.04553534E-01
  2.22500000E+01 -4.12725692E-01 -2.11861778E-01 -1.67522608E+00 -1.74707482E-01  7.24882080E-01  2.01546803E-01  4.21038000E+00 -2.69308676E+00  6.32473069E+00  1.41729775E-03  1.01121572E+00  3.51397366E-01
  2.25000000E+01 -1.58760801E-01 -9.54127153E-02 -9.71449224E-01 -5.41898029E-02  6.61911845E-01  2.08915959E-01  4.22805685E+00 -3.42054056E+00  6.51661331E+00  8.92977528E-02  9.96259064E-01  4.07670707E-01
  2.27500000E+01  9.50458024E-02 -3.82436181E-02 -1.68471073E-01  6.26111108E-02  5.79893161E-01  1.98566519E-01  4.13459248E+00 -4.06085793E+00  6.63101877E+00  1.66538690E-01  9.67682604E-01  4.78250128E-01
  2.30000000E+01  3.17069438E-01 -6.50896573E-02  6.94092723E-01  1.72199978E-01  4.96825715E-01  1.79326734E-01  3.88951927E+00 -4.60024564E+00  6.64493046E+00  2.40322428E-01  8.94312557E-01  5.50512891E-01
  2.32500000E+01  4.78763390E-01 -1.80034684E-01  1.56225520E+00  2.72728248E-01  4.37623598E-01  1.55718364E-01  3.49505797E+00 -4.99860941E+00  6.57514663E+00  3.14085976E-01  7.68529454E-01  6.02285548E-01
  2.35000000E+01  5.74178489E-01 -3.76515790E-01  2.40394995E+00  3.69203691E-01  4.12020764E-01  1.35746477E-01  2.95477020E+00 -5.21087998E+00  6.42164298E+00  3.88185481E-01  6.05558222E-01  6.09696100E-01
  2.37500000E+01  5.93052194E-01 -6.44249885E-01  3.19182524E+00  4.70697422E-01  4.03215942E-01  1.29714494E-01  2.34250603E+00 -5.21575478E+00  6.24561577E+00  4.60463775E-01  4.30266180E-01  5.60658860E-01
  2.40000000E+01  5.43340795E-01 -9.77921138E-01  3.91772368E+00  5.75632752E-01  3.86123655E-01  1.37042200E-01  1.70883380E+00 -4.99778825E+00  6.08418249E+00  5.28990183E-01  2.66626628E-01  4.60134206E-01
  2.42500000E+01  4.26615202E-01 -1.35775551E+00  4.57032369E+00  6.78689743E-01  3.45673863E-01  1.48708928E-01  1.12879502E+00 -4.62979914E+00  6.01187092E+00  5.90527310E-01  1.31008775E-01  3.26263440E-01
  2.45000000E+01  2.47955188E-01 -1.76153672E+00  5.13932024E+00  7.78965084E-01  2.76413938E-01  1.54206594E-01  6.15517925E-01 -4.16672588E+00  6.05974191E+00  6.42524144E-01  5.38613597E-02  1.85060759E-01
  2.47500000E+01  6.23704389E-03 -2.14440508E+00  5.60291353E+00  8.69364855E-01  1.85919204E-01  1.46690792E-01  1.69549888E-01 -3.72284558E+00  6.22681265E+00  6.96586509E-01  4.58452074E-02  6.39611394E-02
  2.50000000E+01 -2.88058964E-01 -2.46634004E+00  5.94141168E+00  9.41492202E-01  9.43908490E-02  1.29360983E-01 -2.23088217E-01 -3.31907691E+00  6.46190574E+00  7.65689277E-01  8.12955102E-02 -1.71454930E-02
  2.52500000E+01 -6.07599379E-01 -2.68762376E+00  6.14183081E+00  9.97501453E-01  2.25352159E-02  1.00240948E-01 -5.72766467E-01 -2.99131412E+00  6.68026992E+00  8.57729159E-01  1.17592587E-01 -5.49427948E-02
  2.55000000E+01 -9.24944341E-01 -2.78314588E+00  6.18522101E+00  1.03504973E+00 -2.24704629E-02  5.80700263E-02 -8.83753905E-01 -2.68621993E+00  6.84426504E+00  9.70871519E-01  1.20411160E-01 -7.15468776E-02
  2.57500000E+01 -1.20911891E+00 -2.75574735E+00  6.08463769E+00  1.05558469E+00 -3.53960785E-02  1.63924755E-02 -1.15594761E+00 -2.39404805E+00  6.92349772E+00  1.09574736E+00  1.00078060E-01 -9.61028262E-02
  2.60000000E+01 -1.44659703E+00 -2.62239505E+00  5.86053910E+00  1.05957715E+00 -2.44726738E-02 -7.30624305E-03 -1.36293473E+00 -2.09617744E+00  6.96286366E+00  1.22325681E+00  7.72054273E-02 -1.32760446E-01
  2.62500000E+01 -1.61472743E+00 -2.43785000E+00  5.57487734E+00  1.05058491E+00 -7.30164473E-03 -9.04981623E-04 -1.49187920E+00 -1.82029795E+00  6.93786812E+00  1.33715654E+00  6.20894476E-02 -1.78059009E-01
  2.65000000E+01 -1.70446369E+00 -2.22653457E+00  5.27133424E+00  1.03695113E+00 -3.52590974E-04  2.85683727E-02 -1.52782725E+00 -1.60735961E+00  6.88337310E+00  1.42709023E+00  7.74996313E-02 -2.27501412E-01
  2.67500000E+01 -1.71026493E+00 -2.02084246E+00  4.97874075E+00  1.01939790E+00 -1.46768225E-02  6.66029005E-02 -1.48632481E+00 -1.44944549E+00  6.74162961E+00  1.48586518E+00  1.33887599E-01 -2.74817673E-01
  2.70000000E+01 -1.63323441E+00 -1.80757684E+00  4.69307091E+00  9.97288942E-01 -2.88502045E-02  9.16121002E-02 -1.37575221E+00 -1.36167750E+00  6.48251293E+00  1.50265212E+00  2.04848832E-01 -3.12088748E-01
  2.72500000E+01 -1.47581974E+00 -1.58708327E+00  4.39826419E+00  9.65281350E-01 -2.17812002E-02  1.00384714E-01 -1.23230454E+00 -1.28214728E+00  6.06141626E+00  1.48499636E+00  2.40475275E-01 -3.12606109E-01
  2.75000000E+01 -1.25242869E+00 -1.34414927E+00  4.07618680E+00  9.16771705E-01  9.38426177E-03  9.67289646E-02 -1.08900914E+00 -1.24316500E+00  5.44267781E+00  1.43846366E+00  2.10224236E-01 -2.44193245E-01
  2.77500000E+01 -9.84491443E-01 -1.09990552E+00  3.71931423E+00  8.47681785E-01  5.43800005E-02  8.28834628E-02 -9.16496052E-01 -1.24111048E+00  4.69684925E+00  1.35555803E+00  1.34580018E-01 -1.20023315E-01
  2.80000000E+01 -6.96148016E-01 -8.65842286E-01  3.34334422E+00  7.62590018E-01  1.07466273E-01  6.29447729E-02 -6.66839786E-01 -1.33625841E+00  3.87184995E+00  1.24072713E+00  4.74301552E-02  1.81766438E-02
  2.82500000E+01 -3.95418481E-01 -6.55564814E-01  2.96975105E+00  6.62254550E-01  1.54678811E-01  4.01664041E-02 -3.26959736E-01 -1.50972446E+00  3.11605066E+00  1.09606465E+00 -2.49767655E-02  1.47409678E-01
  2.85000000E+01 -8.55840420E-02 -4.78261118E-01  2.61322298E+00  5.48932400E-01  1.69210215E-01  2.89883514E-02  5.75295014E-02 -1.75246021E+00  2.50882974E+00  9.19366123E-01 -5.51079936E-02  2.38213405E-01
  2.87500000E+01  2.27833464E-01 -3.36670353E-01  2.25997633E+00  4.32911639E-01  1.42964829E-01  2.68483432E-02  4.14113194E-01 -1.97447723E+00  2.09157730E+00  7.12645374E-01 -3.49840777E-02  2.68941064E-01
  2.90000000E+01  5.22058356E-01 -2.37698539E-01  1.88655105E+00  3.13796546E-01  8.40563079E-02  3.98095357E-02  7.28855867E-01 -2.12252352E+00  1.82097562E+00  4.78604594E-01  9.43194975E-03  2.51116012E-01
  2.92500000E+01  7.83759276E-01 -1.69168684E-01  1.47728974E+00  2.01109590E-01  2.27405524E-02  5.14679504E-02  9.91807246E-01 -2.14093872E+00  1.59285602E+00  2.26956580E-01  4.94345242E-02  2.18989948E-01
  2.95000000E+01  1.00125718E+00 -1.28986068E-01  1.01558645E+00  9.02298165E-02 -3.50620296E-02  5.79656117E-02  1.21440737E+00 -2.06665425E+00  1.34566897E+00 -3.03082825E-02  7.67154859E-02  1.99046156E-01
  2.97500000E+01  1.18053626E+00 -1.10406593E-01  5.03474224E-01 -2.15606566E-02 -5.71775148E-02  4.92051953E-02  1.38052156E+00 -1.91542643E+00  1.02394680E+00 -2.74607308E-01  8.95740792E-02  1.99229595E-01
  3.00000000E+01  1.31816952E+00 -1.23337127E-01 -6.44978647E-02 -1.39210223E-01 -4.30396568E-02  2.40658318E-02  1.49851931E+00 -1.71497897E+00  6.33869972E-01 -4.93720424E-01  8.79300629E-02  2.19246163E-01
