*MATERIAL, 1
** ID  弹性模量  泊松比  密度  许用应力  膨胀系数
1             +7.300000E+10         0.300000      3342.000000    +2.580000E+08    +1.960000E-05

*SECTION, 1
** ID  Area 或 Width Height
1                  0.000339

*NODE, 246
** ID  X  Y  Z
1                  0.000000         0.000000         0.000000
2                300.000000         0.000000         0.000000
3                  0.995214        -0.225000        -0.322716
4                  5.947071        -0.225000        -0.799218
5                 10.900442        -0.225000        -1.259708
6                 15.855277        -0.225000        -1.704172
7                 20.811524        -0.225000        -2.132596
8                 25.769133        -0.225000        -2.544966
9                 30.728053        -0.225000        -2.941270
10                35.688231        -0.225000        -3.321494
11                40.649616        -0.225000        -3.685627
12                45.612157        -0.225000        -4.033658
13                50.575801        -0.225000        -4.365575
14                55.540498        -0.225000        -4.681367
15                60.506194        -0.225000        -4.981026
16                65.472839        -0.225000        -5.264541
17                70.440379        -0.225000        -5.531903
18                75.408762        -0.225000        -5.783104
19                80.377937        -0.225000        -6.018136
20                85.347850        -0.225000        -6.236992
21                90.318450        -0.225000        -6.439664
22                95.289683        -0.225000        -6.626145
23               100.261498        -0.225000        -6.796431
24               105.233841        -0.225000        -6.950516
25               110.206660        -0.225000        -7.088395
26               115.179901        -0.225000        -7.210062
27               120.153513        -0.225000        -7.315516
28               125.127443        -0.225000        -7.404751
29               130.101637        -0.225000        -7.477766
30               135.076042        -0.225000        -7.534557
31               140.050607        -0.225000        -7.575124
32               145.025277        -0.225000        -7.599464
33               150.000000        -0.225000        -7.607578
34               154.974723        -0.225000        -7.599464
35               159.949393        -0.225000        -7.575124
36               164.923958        -0.225000        -7.534557
37               169.898363        -0.225000        -7.477766
38               174.872557        -0.225000        -7.404751
39               179.846487        -0.225000        -7.315516
40               184.820099        -0.225000        -7.210062
41               189.793340        -0.225000        -7.088395
42               194.766159        -0.225000        -6.950516
43               199.738502        -0.225000        -6.796431
44               204.710317        -0.225000        -6.626145
45               209.681550        -0.225000        -6.439664
46               214.652150        -0.225000        -6.236992
47               219.622063        -0.225000        -6.018136
48               224.591238        -0.225000        -5.783104
49               229.559621        -0.225000        -5.531903
50               234.527161        -0.225000        -5.264541
51               239.493806        -0.225000        -4.981026
52               244.459502        -0.225000        -4.681367
53               249.424199        -0.225000        -4.365575
54               254.387843        -0.225000        -4.033658
55               259.350384        -0.225000        -3.685627
56               264.311769        -0.225000        -3.321494
57               269.271947        -0.225000        -2.941270
58               274.230867        -0.225000        -2.544966
59               279.188476        -0.225000        -2.132596
60               284.144723        -0.225000        -1.704172
61               289.099558        -0.225000        -1.259708
62               294.052929        -0.225000        -0.799218
63               299.004786        -0.225000        -0.322716
64                 0.995214        -0.225000         0.127284
65                 5.947071        -0.225000        -0.349218
66                10.900442        -0.225000        -0.809708
67                15.855277        -0.225000        -1.254172
68                20.811524        -0.225000        -1.682596
69                25.769133        -0.225000        -2.094966
70                30.728053        -0.225000        -2.491270
71                35.688231        -0.225000        -2.871494
72                40.649616        -0.225000        -3.235627
73                45.612157        -0.225000        -3.583658
74                50.575801        -0.225000        -3.915575
75                55.540498        -0.225000        -4.231367
76                60.506194        -0.225000        -4.531026
77                65.472839        -0.225000        -4.814541
78                70.440379        -0.225000        -5.081903
79                75.408762        -0.225000        -5.333104
80                80.377937        -0.225000        -5.568136
81                85.347850        -0.225000        -5.786992
82                90.318450        -0.225000        -5.989664
83                95.289683        -0.225000        -6.176145
84               100.261498        -0.225000        -6.346431
85               105.233841        -0.225000        -6.500516
86               110.206660        -0.225000        -6.638395
87               115.179901        -0.225000        -6.760062
88               120.153513        -0.225000        -6.865516
89               125.127443        -0.225000        -6.954751
90               130.101637        -0.225000        -7.027766
91               135.076042        -0.225000        -7.084557
92               140.050607        -0.225000        -7.125124
93               145.025277        -0.225000        -7.149464
94               150.000000        -0.225000        -7.157578
95               154.974723        -0.225000        -7.149464
96               159.949393        -0.225000        -7.125124
97               164.923958        -0.225000        -7.084557
98               169.898363        -0.225000        -7.027766
99               174.872557        -0.225000        -6.954751
100              179.846487        -0.225000        -6.865516
101              184.820099        -0.225000        -6.760062
102              189.793340        -0.225000        -6.638395
103              194.766159        -0.225000        -6.500516
104              199.738502        -0.225000        -6.346431
105              204.710317        -0.225000        -6.176145
106              209.681550        -0.225000        -5.989664
107              214.652150        -0.225000        -5.786992
108              219.622063        -0.225000        -5.568136
109              224.591238        -0.225000        -5.333104
110              229.559621        -0.225000        -5.081903
111              234.527161        -0.225000        -4.814541
112              239.493806        -0.225000        -4.531026
113              244.459502        -0.225000        -4.231367
114              249.424199        -0.225000        -3.915575
115              254.387843        -0.225000        -3.583658
116              259.350384        -0.225000        -3.235627
117              264.311769        -0.225000        -2.871494
118              269.271947        -0.225000        -2.491270
119              274.230867        -0.225000        -2.094966
120              279.188476        -0.225000        -1.682596
121              284.144723        -0.225000        -1.254172
122              289.099558        -0.225000        -0.809708
123              294.052929        -0.225000        -0.349218
124              299.004786        -0.225000         0.127284
125                0.995214         0.225000         0.127284
126                5.947071         0.225000        -0.349218
127               10.900442         0.225000        -0.809708
128               15.855277         0.225000        -1.254172
129               20.811524         0.225000        -1.682596
130               25.769133         0.225000        -2.094966
131               30.728053         0.225000        -2.491270
132               35.688231         0.225000        -2.871494
133               40.649616         0.225000        -3.235627
134               45.612157         0.225000        -3.583658
135               50.575801         0.225000        -3.915575
136               55.540498         0.225000        -4.231367
137               60.506194         0.225000        -4.531026
138               65.472839         0.225000        -4.814541
139               70.440379         0.225000        -5.081903
140               75.408762         0.225000        -5.333104
141               80.377937         0.225000        -5.568136
142               85.347850         0.225000        -5.786992
143               90.318450         0.225000        -5.989664
144               95.289683         0.225000        -6.176145
145              100.261498         0.225000        -6.346431
146              105.233841         0.225000        -6.500516
147              110.206660         0.225000        -6.638395
148              115.179901         0.225000        -6.760062
149              120.153513         0.225000        -6.865516
150              125.127443         0.225000        -6.954751
151              130.101637         0.225000        -7.027766
152              135.076042         0.225000        -7.084557
153              140.050607         0.225000        -7.125124
154              145.025277         0.225000        -7.149464
155              150.000000         0.225000        -7.157578
156              154.974723         0.225000        -7.149464
157              159.949393         0.225000        -7.125124
158              164.923958         0.225000        -7.084557
159              169.898363         0.225000        -7.027766
160              174.872557         0.225000        -6.954751
161              179.846487         0.225000        -6.865516
162              184.820099         0.225000        -6.760062
163              189.793340         0.225000        -6.638395
164              194.766159         0.225000        -6.500516
165              199.738502         0.225000        -6.346431
166              204.710317         0.225000        -6.176145
167              209.681550         0.225000        -5.989664
168              214.652150         0.225000        -5.786992
169              219.622063         0.225000        -5.568136
170              224.591238         0.225000        -5.333104
171              229.559621         0.225000        -5.081903
172              234.527161         0.225000        -4.814541
173              239.493806         0.225000        -4.531026
174              244.459502         0.225000        -4.231367
175              249.424199         0.225000        -3.915575
176              254.387843         0.225000        -3.583658
177              259.350384         0.225000        -3.235627
178              264.311769         0.225000        -2.871494
179              269.271947         0.225000        -2.491270
180              274.230867         0.225000        -2.094966
181              279.188476         0.225000        -1.682596
182              284.144723         0.225000        -1.254172
183              289.099558         0.225000        -0.809708
184              294.052929         0.225000        -0.349218
185              299.004786         0.225000         0.127284
186                0.995214         0.225000        -0.322716
187                5.947071         0.225000        -0.799218
188               10.900442         0.225000        -1.259708
189               15.855277         0.225000        -1.704172
190               20.811524         0.225000        -2.132596
191               25.769133         0.225000        -2.544966
192               30.728053         0.225000        -2.941270
193               35.688231         0.225000        -3.321494
194               40.649616         0.225000        -3.685627
195               45.612157         0.225000        -4.033658
196               50.575801         0.225000        -4.365575
197               55.540498         0.225000        -4.681367
198               60.506194         0.225000        -4.981026
199               65.472839         0.225000        -5.264541
200               70.440379         0.225000        -5.531903
201               75.408762         0.225000        -5.783104
202               80.377937         0.225000        -6.018136
203               85.347850         0.225000        -6.236992
204               90.318450         0.225000        -6.439664
205               95.289683         0.225000        -6.626145
206              100.261498         0.225000        -6.796431
207              105.233841         0.225000        -6.950516
208              110.206660         0.225000        -7.088395
209              115.179901         0.225000        -7.210062
210              120.153513         0.225000        -7.315516
211              125.127443         0.225000        -7.404751
212              130.101637         0.225000        -7.477766
213              135.076042         0.225000        -7.534557
214              140.050607         0.225000        -7.575124
215              145.025277         0.225000        -7.599464
216              150.000000         0.225000        -7.607578
217              154.974723         0.225000        -7.599464
218              159.949393         0.225000        -7.575124
219              164.923958         0.225000        -7.534557
220              169.898363         0.225000        -7.477766
221              174.872557         0.225000        -7.404751
222              179.846487         0.225000        -7.315516
223              184.820099         0.225000        -7.210062
224              189.793340         0.225000        -7.088395
225              194.766159         0.225000        -6.950516
226              199.738502         0.225000        -6.796431
227              204.710317         0.225000        -6.626145
228              209.681550         0.225000        -6.439664
229              214.652150         0.225000        -6.236992
230              219.622063         0.225000        -6.018136
231              224.591238         0.225000        -5.783104
232              229.559621         0.225000        -5.531903
233              234.527161         0.225000        -5.264541
234              239.493806         0.225000        -4.981026
235              244.459502         0.225000        -4.681367
236              249.424199         0.225000        -4.365575
237              254.387843         0.225000        -4.033658
238              259.350384         0.225000        -3.685627
239              264.311769         0.225000        -3.321494
240              269.271947         0.225000        -2.941270
241              274.230867         0.225000        -2.544966
242              279.188476         0.225000        -2.132596
243              284.144723         0.225000        -1.704172
244              289.099558         0.225000        -1.259708
245              294.052929         0.225000        -0.799218
246              299.004786         0.225000        -0.322716

*ELEMENT, T3D2, 248
** ID  Node1  Node2  MaterialID  SectionID
1               1      3      1      1
2               3      4      1      1
3               4      5      1      1
4               5      6      1      1
5               6      7      1      1
6               7      8      1      1
7               8      9      1      1
8               9     10      1      1
9              10     11      1      1
10             11     12      1      1
11             12     13      1      1
12             13     14      1      1
13             14     15      1      1
14             15     16      1      1
15             16     17      1      1
16             17     18      1      1
17             18     19      1      1
18             19     20      1      1
19             20     21      1      1
20             21     22      1      1
21             22     23      1      1
22             23     24      1      1
23             24     25      1      1
24             25     26      1      1
25             26     27      1      1
26             27     28      1      1
27             28     29      1      1
28             29     30      1      1
29             30     31      1      1
30             31     32      1      1
31             32     33      1      1
32             33     34      1      1
33             34     35      1      1
34             35     36      1      1
35             36     37      1      1
36             37     38      1      1
37             38     39      1      1
38             39     40      1      1
39             40     41      1      1
40             41     42      1      1
41             42     43      1      1
42             43     44      1      1
43             44     45      1      1
44             45     46      1      1
45             46     47      1      1
46             47     48      1      1
47             48     49      1      1
48             49     50      1      1
49             50     51      1      1
50             51     52      1      1
51             52     53      1      1
52             53     54      1      1
53             54     55      1      1
54             55     56      1      1
55             56     57      1      1
56             57     58      1      1
57             58     59      1      1
58             59     60      1      1
59             60     61      1      1
60             61     62      1      1
61             62     63      1      1
62             63      2      1      1
63              1     64      1      1
64             64     65      1      1
65             65     66      1      1
66             66     67      1      1
67             67     68      1      1
68             68     69      1      1
69             69     70      1      1
70             70     71      1      1
71             71     72      1      1
72             72     73      1      1
73             73     74      1      1
74             74     75      1      1
75             75     76      1      1
76             76     77      1      1
77             77     78      1      1
78             78     79      1      1
79             79     80      1      1
80             80     81      1      1
81             81     82      1      1
82             82     83      1      1
83             83     84      1      1
84             84     85      1      1
85             85     86      1      1
86             86     87      1      1
87             87     88      1      1
88             88     89      1      1
89             89     90      1      1
90             90     91      1      1
91             91     92      1      1
92             92     93      1      1
93             93     94      1      1
94             94     95      1      1
95             95     96      1      1
96             96     97      1      1
97             97     98      1      1
98             98     99      1      1
99             99    100      1      1
100           100    101      1      1
101           101    102      1      1
102           102    103      1      1
103           103    104      1      1
104           104    105      1      1
105           105    106      1      1
106           106    107      1      1
107           107    108      1      1
108           108    109      1      1
109           109    110      1      1
110           110    111      1      1
111           111    112      1      1
112           112    113      1      1
113           113    114      1      1
114           114    115      1      1
115           115    116      1      1
116           116    117      1      1
117           117    118      1      1
118           118    119      1      1
119           119    120      1      1
120           120    121      1      1
121           121    122      1      1
122           122    123      1      1
123           123    124      1      1
124           124      2      1      1
125             1    125      1      1
126           125    126      1      1
127           126    127      1      1
128           127    128      1      1
129           128    129      1      1
130           129    130      1      1
131           130    131      1      1
132           131    132      1      1
133           132    133      1      1
134           133    134      1      1
135           134    135      1      1
136           135    136      1      1
137           136    137      1      1
138           137    138      1      1
139           138    139      1      1
140           139    140      1      1
141           140    141      1      1
142           141    142      1      1
143           142    143      1      1
144           143    144      1      1
145           144    145      1      1
146           145    146      1      1
147           146    147      1      1
148           147    148      1      1
149           148    149      1      1
150           149    150      1      1
151           150    151      1      1
152           151    152      1      1
153           152    153      1      1
154           153    154      1      1
155           154    155      1      1
156           155    156      1      1
157           156    157      1      1
158           157    158      1      1
159           158    159      1      1
160           159    160      1      1
161           160    161      1      1
162           161    162      1      1
163           162    163      1      1
164           163    164      1      1
165           164    165      1      1
166           165    166      1      1
167           166    167      1      1
168           167    168      1      1
169           168    169      1      1
170           169    170      1      1
171           170    171      1      1
172           171    172      1      1
173           172    173      1      1
174           173    174      1      1
175           174    175      1      1
176           175    176      1      1
177           176    177      1      1
178           177    178      1      1
179           178    179      1      1
180           179    180      1      1
181           180    181      1      1
182           181    182      1      1
183           182    183      1      1
184           183    184      1      1
185           184    185      1      1
186           185      2      1      1
187             1    186      1      1
188           186    187      1      1
189           187    188      1      1
190           188    189      1      1
191           189    190      1      1
192           190    191      1      1
193           191    192      1      1
194           192    193      1      1
195           193    194      1      1
196           194    195      1      1
197           195    196      1      1
198           196    197      1      1
199           197    198      1      1
200           198    199      1      1
201           199    200      1      1
202           200    201      1      1
203           201    202      1      1
204           202    203      1      1
205           203    204      1      1
206           204    205      1      1
207           205    206      1      1
208           206    207      1      1
209           207    208      1      1
210           208    209      1      1
211           209    210      1      1
212           210    211      1      1
213           211    212      1      1
214           212    213      1      1
215           213    214      1      1
216           214    215      1      1
217           215    216      1      1
218           216    217      1      1
219           217    218      1      1
220           218    219      1      1
221           219    220      1      1
222           220    221      1      1
223           221    222      1      1
224           222    223      1      1
225           223    224      1      1
226           224    225      1      1
227           225    226      1      1
228           226    227      1      1
229           227    228      1      1
230           228    229      1      1
231           229    230      1      1
232           230    231      1      1
233           231    232      1      1
234           232    233      1      1
235           233    234      1      1
236           234    235      1      1
237           235    236      1      1
238           236    237      1      1
239           237    238      1      1
240           238    239      1      1
241           239    240      1      1
242           240    241      1      1
243           241    242      1      1
244           242    243      1      1
245           243    244      1      1
246           244    245      1      1
247           245    246      1      1
248           246      2      1      1

*CONSTRAINT, 6
** ID  NodeID  Direction  Value
1               1      0         0.000000
2               1      1         0.000000
3               1      2         0.000000
4               2      0         0.000000
5               2      1         0.000000
6               2      2         0.000000

*LOAD, FORCE_GRAVITY, 1
** ID  NodeID/ElementID  Direction  Value
1               2        -9.806650      1

*STRESS, 248
** 单元编号  应力
1             +5.023883E+07
2             +5.022321E+07
3             +5.020812E+07
4             +5.019354E+07
5             +5.017950E+07
6             +5.016598E+07
7             +5.015299E+07
8             +5.014052E+07
9             +5.012858E+07
10            +5.011717E+07
11            +5.010629E+07
12            +5.009594E+07
13            +5.008611E+07
14            +5.007682E+07
15            +5.006805E+07
16            +5.005982E+07
17            +5.005211E+07
18            +5.004493E+07
19            +5.003829E+07
20            +5.003218E+07
21            +5.002659E+07
22            +5.002154E+07
23            +5.001702E+07
24            +5.001303E+07
25            +5.000958E+07
26            +5.000665E+07
27            +5.000426E+07
28            +5.000239E+07
29            +5.000106E+07
30            +5.000027E+07
31            +5.000000E+07
32            +5.000027E+07
33            +5.000106E+07
34            +5.000239E+07
35            +5.000426E+07
36            +5.000665E+07
37            +5.000958E+07
38            +5.001303E+07
39            +5.001702E+07
40            +5.002154E+07
41            +5.002659E+07
42            +5.003218E+07
43            +5.003829E+07
44            +5.004493E+07
45            +5.005211E+07
46            +5.005982E+07
47            +5.006805E+07
48            +5.007682E+07
49            +5.008611E+07
50            +5.009594E+07
51            +5.010629E+07
52            +5.011717E+07
53            +5.012858E+07
54            +5.014052E+07
55            +5.015299E+07
56            +5.016598E+07
57            +5.017950E+07
58            +5.019354E+07
59            +5.020812E+07
60            +5.022321E+07
61            +5.023883E+07
62            +5.023883E+07
63            +5.023883E+07
64            +5.022321E+07
65            +5.020812E+07
66            +5.019354E+07
67            +5.017950E+07
68            +5.016598E+07
69            +5.015299E+07
70            +5.014052E+07
71            +5.012858E+07
72            +5.011717E+07
73            +5.010629E+07
74            +5.009594E+07
75            +5.008611E+07
76            +5.007682E+07
77            +5.006805E+07
78            +5.005982E+07
79            +5.005211E+07
80            +5.004493E+07
81            +5.003829E+07
82            +5.003218E+07
83            +5.002659E+07
84            +5.002154E+07
85            +5.001702E+07
86            +5.001303E+07
87            +5.000958E+07
88            +5.000665E+07
89            +5.000426E+07
90            +5.000239E+07
91            +5.000106E+07
92            +5.000027E+07
93            +5.000000E+07
94            +5.000027E+07
95            +5.000106E+07
96            +5.000239E+07
97            +5.000426E+07
98            +5.000665E+07
99            +5.000958E+07
100           +5.001303E+07
101           +5.001702E+07
102           +5.002154E+07
103           +5.002659E+07
104           +5.003218E+07
105           +5.003829E+07
106           +5.004493E+07
107           +5.005211E+07
108           +5.005982E+07
109           +5.006805E+07
110           +5.007682E+07
111           +5.008611E+07
112           +5.009594E+07
113           +5.010629E+07
114           +5.011717E+07
115           +5.012858E+07
116           +5.014052E+07
117           +5.015299E+07
118           +5.016598E+07
119           +5.017950E+07
120           +5.019354E+07
121           +5.020812E+07
122           +5.022321E+07
123           +5.023883E+07
124           +5.023883E+07
125           +5.023883E+07
126           +5.022321E+07
127           +5.020812E+07
128           +5.019354E+07
129           +5.017950E+07
130           +5.016598E+07
131           +5.015299E+07
132           +5.014052E+07
133           +5.012858E+07
134           +5.011717E+07
135           +5.010629E+07
136           +5.009594E+07
137           +5.008611E+07
138           +5.007682E+07
139           +5.006805E+07
140           +5.005982E+07
141           +5.005211E+07
142           +5.004493E+07
143           +5.003829E+07
144           +5.003218E+07
145           +5.002659E+07
146           +5.002154E+07
147           +5.001702E+07
148           +5.001303E+07
149           +5.000958E+07
150           +5.000665E+07
151           +5.000426E+07
152           +5.000239E+07
153           +5.000106E+07
154           +5.000027E+07
155           +5.000000E+07
156           +5.000027E+07
157           +5.000106E+07
158           +5.000239E+07
159           +5.000426E+07
160           +5.000665E+07
161           +5.000958E+07
162           +5.001303E+07
163           +5.001702E+07
164           +5.002154E+07
165           +5.002659E+07
166           +5.003218E+07
167           +5.003829E+07
168           +5.004493E+07
169           +5.005211E+07
170           +5.005982E+07
171           +5.006805E+07
172           +5.007682E+07
173           +5.008611E+07
174           +5.009594E+07
175           +5.010629E+07
176           +5.011717E+07
177           +5.012858E+07
178           +5.014052E+07
179           +5.015299E+07
180           +5.016598E+07
181           +5.017950E+07
182           +5.019354E+07
183           +5.020812E+07
184           +5.022321E+07
185           +5.023883E+07
186           +5.023883E+07
187           +5.023883E+07
188           +5.022321E+07
189           +5.020812E+07
190           +5.019354E+07
191           +5.017950E+07
192           +5.016598E+07
193           +5.015299E+07
194           +5.014052E+07
195           +5.012858E+07
196           +5.011717E+07
197           +5.010629E+07
198           +5.009594E+07
199           +5.008611E+07
200           +5.007682E+07
201           +5.006805E+07
202           +5.005982E+07
203           +5.005211E+07
204           +5.004493E+07
205           +5.003829E+07
206           +5.003218E+07
207           +5.002659E+07
208           +5.002154E+07
209           +5.001702E+07
210           +5.001303E+07
211           +5.000958E+07
212           +5.000665E+07
213           +5.000426E+07
214           +5.000239E+07
215           +5.000106E+07
216           +5.000027E+07
217           +5.000000E+07
218           +5.000027E+07
219           +5.000106E+07
220           +5.000239E+07
221           +5.000426E+07
222           +5.000665E+07
223           +5.000958E+07
224           +5.001303E+07
225           +5.001702E+07
226           +5.002154E+07
227           +5.002659E+07
228           +5.003218E+07
229           +5.003829E+07
230           +5.004493E+07
231           +5.005211E+07
232           +5.005982E+07
233           +5.006805E+07
234           +5.007682E+07
235           +5.008611E+07
236           +5.009594E+07
237           +5.010629E+07
238           +5.011717E+07
239           +5.012858E+07
240           +5.014052E+07
241           +5.015299E+07
242           +5.016598E+07
243           +5.017950E+07
244           +5.019354E+07
245           +5.020812E+07
246           +5.022321E+07
247           +5.023883E+07
248           +5.023883E+07

*ANALYSIS_STEP, 1
** ID  Type  Time  StepSize  Tolerance  MaxIterations
1              STATIC         1.000000         0.010000    +1.000000E-05     50
