*MATERIAL, 2
** ID  弹性模量  泊松比  密度  许用应力  膨胀系数
1             +7.300000E+10         0.300000      3342.000000    +2.580000E+08    +1.960000E-05
2             +7.300000E+10         0.300000      3342.000000    +2.580000E+08    +1.960000E-05

*SECTION, 2
** ID  Area 或 Width Height
1                  0.000339
2                  0.000339

*NODE, 258
** ID  X  Y  Z
1                  0.000000         0.000000         0.000000
2                300.000000         0.000000         0.000000
3                  0.497607        -0.225000        -0.048858
4                299.502393        -0.225000        -0.048858
5                  0.497607         0.225000        -0.048858
6                299.502393         0.225000        -0.048858
7                  0.995214        -0.225000        -0.322716
8                  5.947071        -0.225000        -0.799218
9                 10.900442        -0.225000        -1.259708
10                15.855277        -0.225000        -1.704172
11                20.811524        -0.225000        -2.132596
12                25.769133        -0.225000        -2.544966
13                30.728053        -0.225000        -2.941270
14                35.688231        -0.225000        -3.321494
15                40.649616        -0.225000        -3.685627
16                45.612157        -0.225000        -4.033658
17                50.575801        -0.225000        -4.365575
18                55.540498        -0.225000        -4.681367
19                60.506194        -0.225000        -4.981026
20                65.472839        -0.225000        -5.264541
21                70.440379        -0.225000        -5.531903
22                75.408762        -0.225000        -5.783104
23                80.377937        -0.225000        -6.018136
24                85.347850        -0.225000        -6.236992
25                90.318450        -0.225000        -6.439664
26                95.289683        -0.225000        -6.626145
27               100.261498        -0.225000        -6.796431
28               105.233841        -0.225000        -6.950516
29               110.206660        -0.225000        -7.088395
30               115.179901        -0.225000        -7.210062
31               120.153513        -0.225000        -7.315516
32               125.127443        -0.225000        -7.404751
33               130.101637        -0.225000        -7.477766
34               135.076042        -0.225000        -7.534557
35               140.050607        -0.225000        -7.575124
36               145.025277        -0.225000        -7.599464
37               150.000000        -0.225000        -7.607578
38               154.974723        -0.225000        -7.599464
39               159.949393        -0.225000        -7.575124
40               164.923958        -0.225000        -7.534557
41               169.898363        -0.225000        -7.477766
42               174.872557        -0.225000        -7.404751
43               179.846487        -0.225000        -7.315516
44               184.820099        -0.225000        -7.210062
45               189.793340        -0.225000        -7.088395
46               194.766159        -0.225000        -6.950516
47               199.738502        -0.225000        -6.796431
48               204.710317        -0.225000        -6.626145
49               209.681550        -0.225000        -6.439664
50               214.652150        -0.225000        -6.236992
51               219.622063        -0.225000        -6.018136
52               224.591238        -0.225000        -5.783104
53               229.559621        -0.225000        -5.531903
54               234.527161        -0.225000        -5.264541
55               239.493806        -0.225000        -4.981026
56               244.459502        -0.225000        -4.681367
57               249.424199        -0.225000        -4.365575
58               254.387843        -0.225000        -4.033658
59               259.350384        -0.225000        -3.685627
60               264.311769        -0.225000        -3.321494
61               269.271947        -0.225000        -2.941270
62               274.230867        -0.225000        -2.544966
63               279.188476        -0.225000        -2.132596
64               284.144723        -0.225000        -1.704172
65               289.099558        -0.225000        -1.259708
66               294.052929        -0.225000        -0.799218
67               299.004786        -0.225000        -0.322716
68                 0.995214        -0.225000         0.127284
69                 5.947071        -0.225000        -0.349218
70                10.900442        -0.225000        -0.809708
71                15.855277        -0.225000        -1.254172
72                20.811524        -0.225000        -1.682596
73                25.769133        -0.225000        -2.094966
74                30.728053        -0.225000        -2.491270
75                35.688231        -0.225000        -2.871494
76                40.649616        -0.225000        -3.235627
77                45.612157        -0.225000        -3.583658
78                50.575801        -0.225000        -3.915575
79                55.540498        -0.225000        -4.231367
80                60.506194        -0.225000        -4.531026
81                65.472839        -0.225000        -4.814541
82                70.440379        -0.225000        -5.081903
83                75.408762        -0.225000        -5.333104
84                80.377937        -0.225000        -5.568136
85                85.347850        -0.225000        -5.786992
86                90.318450        -0.225000        -5.989664
87                95.289683        -0.225000        -6.176145
88               100.261498        -0.225000        -6.346431
89               105.233841        -0.225000        -6.500516
90               110.206660        -0.225000        -6.638395
91               115.179901        -0.225000        -6.760062
92               120.153513        -0.225000        -6.865516
93               125.127443        -0.225000        -6.954751
94               130.101637        -0.225000        -7.027766
95               135.076042        -0.225000        -7.084557
96               140.050607        -0.225000        -7.125124
97               145.025277        -0.225000        -7.149464
98               150.000000        -0.225000        -7.157578
99               154.974723        -0.225000        -7.149464
100              159.949393        -0.225000        -7.125124
101              164.923958        -0.225000        -7.084557
102              169.898363        -0.225000        -7.027766
103              174.872557        -0.225000        -6.954751
104              179.846487        -0.225000        -6.865516
105              184.820099        -0.225000        -6.760062
106              189.793340        -0.225000        -6.638395
107              194.766159        -0.225000        -6.500516
108              199.738502        -0.225000        -6.346431
109              204.710317        -0.225000        -6.176145
110              209.681550        -0.225000        -5.989664
111              214.652150        -0.225000        -5.786992
112              219.622063        -0.225000        -5.568136
113              224.591238        -0.225000        -5.333104
114              229.559621        -0.225000        -5.081903
115              234.527161        -0.225000        -4.814541
116              239.493806        -0.225000        -4.531026
117              244.459502        -0.225000        -4.231367
118              249.424199        -0.225000        -3.915575
119              254.387843        -0.225000        -3.583658
120              259.350384        -0.225000        -3.235627
121              264.311769        -0.225000        -2.871494
122              269.271947        -0.225000        -2.491270
123              274.230867        -0.225000        -2.094966
124              279.188476        -0.225000        -1.682596
125              284.144723        -0.225000        -1.254172
126              289.099558        -0.225000        -0.809708
127              294.052929        -0.225000        -0.349218
128              299.004786        -0.225000         0.127284
129                0.995214         0.225000         0.127284
130                5.947071         0.225000        -0.349218
131               10.900442         0.225000        -0.809708
132               15.855277         0.225000        -1.254172
133               20.811524         0.225000        -1.682596
134               25.769133         0.225000        -2.094966
135               30.728053         0.225000        -2.491270
136               35.688231         0.225000        -2.871494
137               40.649616         0.225000        -3.235627
138               45.612157         0.225000        -3.583658
139               50.575801         0.225000        -3.915575
140               55.540498         0.225000        -4.231367
141               60.506194         0.225000        -4.531026
142               65.472839         0.225000        -4.814541
143               70.440379         0.225000        -5.081903
144               75.408762         0.225000        -5.333104
145               80.377937         0.225000        -5.568136
146               85.347850         0.225000        -5.786992
147               90.318450         0.225000        -5.989664
148               95.289683         0.225000        -6.176145
149              100.261498         0.225000        -6.346431
150              105.233841         0.225000        -6.500516
151              110.206660         0.225000        -6.638395
152              115.179901         0.225000        -6.760062
153              120.153513         0.225000        -6.865516
154              125.127443         0.225000        -6.954751
155              130.101637         0.225000        -7.027766
156              135.076042         0.225000        -7.084557
157              140.050607         0.225000        -7.125124
158              145.025277         0.225000        -7.149464
159              150.000000         0.225000        -7.157578
160              154.974723         0.225000        -7.149464
161              159.949393         0.225000        -7.125124
162              164.923958         0.225000        -7.084557
163              169.898363         0.225000        -7.027766
164              174.872557         0.225000        -6.954751
165              179.846487         0.225000        -6.865516
166              184.820099         0.225000        -6.760062
167              189.793340         0.225000        -6.638395
168              194.766159         0.225000        -6.500516
169              199.738502         0.225000        -6.346431
170              204.710317         0.225000        -6.176145
171              209.681550         0.225000        -5.989664
172              214.652150         0.225000        -5.786992
173              219.622063         0.225000        -5.568136
174              224.591238         0.225000        -5.333104
175              229.559621         0.225000        -5.081903
176              234.527161         0.225000        -4.814541
177              239.493806         0.225000        -4.531026
178              244.459502         0.225000        -4.231367
179              249.424199         0.225000        -3.915575
180              254.387843         0.225000        -3.583658
181              259.350384         0.225000        -3.235627
182              264.311769         0.225000        -2.871494
183              269.271947         0.225000        -2.491270
184              274.230867         0.225000        -2.094966
185              279.188476         0.225000        -1.682596
186              284.144723         0.225000        -1.254172
187              289.099558         0.225000        -0.809708
188              294.052929         0.225000        -0.349218
189              299.004786         0.225000         0.127284
190                0.995214         0.225000        -0.322716
191                5.947071         0.225000        -0.799218
192               10.900442         0.225000        -1.259708
193               15.855277         0.225000        -1.704172
194               20.811524         0.225000        -2.132596
195               25.769133         0.225000        -2.544966
196               30.728053         0.225000        -2.941270
197               35.688231         0.225000        -3.321494
198               40.649616         0.225000        -3.685627
199               45.612157         0.225000        -4.033658
200               50.575801         0.225000        -4.365575
201               55.540498         0.225000        -4.681367
202               60.506194         0.225000        -4.981026
203               65.472839         0.225000        -5.264541
204               70.440379         0.225000        -5.531903
205               75.408762         0.225000        -5.783104
206               80.377937         0.225000        -6.018136
207               85.347850         0.225000        -6.236992
208               90.318450         0.225000        -6.439664
209               95.289683         0.225000        -6.626145
210              100.261498         0.225000        -6.796431
211              105.233841         0.225000        -6.950516
212              110.206660         0.225000        -7.088395
213              115.179901         0.225000        -7.210062
214              120.153513         0.225000        -7.315516
215              125.127443         0.225000        -7.404751
216              130.101637         0.225000        -7.477766
217              135.076042         0.225000        -7.534557
218              140.050607         0.225000        -7.575124
219              145.025277         0.225000        -7.599464
220              150.000000         0.225000        -7.607578
221              154.974723         0.225000        -7.599464
222              159.949393         0.225000        -7.575124
223              164.923958         0.225000        -7.534557
224              169.898363         0.225000        -7.477766
225              174.872557         0.225000        -7.404751
226              179.846487         0.225000        -7.315516
227              184.820099         0.225000        -7.210062
228              189.793340         0.225000        -7.088395
229              194.766159         0.225000        -6.950516
230              199.738502         0.225000        -6.796431
231              204.710317         0.225000        -6.626145
232              209.681550         0.225000        -6.439664
233              214.652150         0.225000        -6.236992
234              219.622063         0.225000        -6.018136
235              224.591238         0.225000        -5.783104
236              229.559621         0.225000        -5.531903
237              234.527161         0.225000        -5.264541
238              239.493806         0.225000        -4.981026
239              244.459502         0.225000        -4.681367
240              249.424199         0.225000        -4.365575
241              254.387843         0.225000        -4.033658
242              259.350384         0.225000        -3.685627
243              264.311769         0.225000        -3.321494
244              269.271947         0.225000        -2.941270
245              274.230867         0.225000        -2.544966
246              279.188476         0.225000        -2.132596
247              284.144723         0.225000        -1.704172
248              289.099558         0.225000        -1.259708
249              294.052929         0.225000        -0.799218
250              299.004786         0.225000        -0.322716
251                0.995214         0.000000        -0.097716
252               30.728053         0.000000        -2.716270
253               80.377937         0.000000        -5.793136
254              130.101637         0.000000        -7.252766
255              179.846487         0.000000        -7.090516
256              224.591238         0.000000        -5.558104
257              269.271947         0.000000        -2.716270
258              299.004786         0.000000        -0.097716

*ELEMENT, CR3D, 70
** ID  Node1  Node2  MaterialID  SectionID  q0x  q0y  q0z
249             1      3      1      1         0.081195        -0.036713         0.996022
250             1      5      1      1         0.081195         0.036713         0.996022
251             3      5      1      1         0.000000         0.000000         1.000000
252             2      4      1      1        -0.081195        -0.036713         0.996022
253             2      6      1      1        -0.081195         0.036713         0.996022
254             4      6      1      1         0.000000         0.000000         1.000000
255             7     68      2      2         0.000000         1.000000         0.000000
256            68    129      2      2         0.000000         0.000000         1.000000
257           129    190      2      2         0.000000         1.000000         0.000000
258           190      7      2      2         0.000000         0.000000         1.000000
259             7    251      2      2         0.000000        -0.707107         0.707107
260            68    251      2      2         0.000000         0.707107         0.707107
261           129    251      2      2         0.000000        -0.707107         0.707107
262           190    251      2      2         0.000000         0.707107         0.707107
263            13     74      2      2         0.000000         1.000000         0.000000
264            74    135      2      2         0.000000         0.000000         1.000000
265           135    196      2      2         0.000000         1.000000         0.000000
266           196     13      2      2         0.000000         0.000000         1.000000
267            13    252      2      2         0.000000        -0.707107         0.707107
268            74    252      2      2         0.000000         0.707107         0.707107
269           135    252      2      2         0.000000        -0.707107         0.707107
270           196    252      2      2         0.000000         0.707107         0.707107
271            23     84      2      2         0.000000         1.000000         0.000000
272            84    145      2      2         0.000000         0.000000         1.000000
273           145    206      2      2         0.000000         1.000000         0.000000
274           206     23      2      2         0.000000         0.000000         1.000000
275            23    253      2      2         0.000000        -0.707107         0.707107
276            84    253      2      2         0.000000         0.707107         0.707107
277           145    253      2      2         0.000000        -0.707107         0.707107
278           206    253      2      2         0.000000         0.707107         0.707107
279            33     94      2      2         0.000000         1.000000         0.000000
280            94    155      2      2         0.000000         0.000000         1.000000
281           155    216      2      2         0.000000         1.000000         0.000000
282           216     33      2      2         0.000000         0.000000         1.000000
283            33    254      2      2         0.000000        -0.707107         0.707107
284            94    254      2      2         0.000000         0.707107         0.707107
285           155    254      2      2         0.000000        -0.707107         0.707107
286           216    254      2      2         0.000000         0.707107         0.707107
287            43    104      2      2         0.000000         1.000000         0.000000
288           104    165      2      2         0.000000         0.000000         1.000000
289           165    226      2      2         0.000000         1.000000         0.000000
290           226     43      2      2         0.000000         0.000000         1.000000
291            43    255      2      2         0.000000        -0.707107         0.707107
292           104    255      2      2         0.000000         0.707107         0.707107
293           165    255      2      2         0.000000        -0.707107         0.707107
294           226    255      2      2         0.000000         0.707107         0.707107
295            52    113      2      2         0.000000         1.000000         0.000000
296           113    174      2      2         0.000000         0.000000         1.000000
297           174    235      2      2         0.000000         1.000000         0.000000
298           235     52      2      2         0.000000         0.000000         1.000000
299            52    256      2      2         0.000000        -0.707107         0.707107
300           113    256      2      2         0.000000         0.707107         0.707107
301           174    256      2      2         0.000000        -0.707107         0.707107
302           235    256      2      2         0.000000         0.707107         0.707107
303            61    122      2      2         0.000000         1.000000         0.000000
304           122    183      2      2         0.000000         0.000000         1.000000
305           183    244      2      2         0.000000         1.000000         0.000000
306           244     61      2      2         0.000000         0.000000         1.000000
307            61    257      2      2         0.000000        -0.707107         0.707107
308           122    257      2      2         0.000000         0.707107         0.707107
309           183    257      2      2         0.000000        -0.707107         0.707107
310           244    257      2      2         0.000000         0.707107         0.707107
311            67    128      2      2         0.000000         1.000000         0.000000
312           128    189      2      2         0.000000         0.000000         1.000000
313           189    250      2      2         0.000000         1.000000         0.000000
314           250     67      2      2         0.000000         0.000000         1.000000
315            67    258      2      2         0.000000        -0.707107         0.707107
316           128    258      2      2         0.000000         0.707107         0.707107
317           189    258      2      2         0.000000        -0.707107         0.707107
318           250    258      2      2         0.000000         0.707107         0.707107

*ELEMENT, T3D2, 248
** ID  Node1  Node2  MaterialID  SectionID
1               3      7      1      1
2               7      8      1      1
3               8      9      1      1
4               9     10      1      1
5              10     11      1      1
6              11     12      1      1
7              12     13      1      1
8              13     14      1      1
9              14     15      1      1
10             15     16      1      1
11             16     17      1      1
12             17     18      1      1
13             18     19      1      1
14             19     20      1      1
15             20     21      1      1
16             21     22      1      1
17             22     23      1      1
18             23     24      1      1
19             24     25      1      1
20             25     26      1      1
21             26     27      1      1
22             27     28      1      1
23             28     29      1      1
24             29     30      1      1
25             30     31      1      1
26             31     32      1      1
27             32     33      1      1
28             33     34      1      1
29             34     35      1      1
30             35     36      1      1
31             36     37      1      1
32             37     38      1      1
33             38     39      1      1
34             39     40      1      1
35             40     41      1      1
36             41     42      1      1
37             42     43      1      1
38             43     44      1      1
39             44     45      1      1
40             45     46      1      1
41             46     47      1      1
42             47     48      1      1
43             48     49      1      1
44             49     50      1      1
45             50     51      1      1
46             51     52      1      1
47             52     53      1      1
48             53     54      1      1
49             54     55      1      1
50             55     56      1      1
51             56     57      1      1
52             57     58      1      1
53             58     59      1      1
54             59     60      1      1
55             60     61      1      1
56             61     62      1      1
57             62     63      1      1
58             63     64      1      1
59             64     65      1      1
60             65     66      1      1
61             66     67      1      1
62             67      4      1      1
63              3     68      1      1
64             68     69      1      1
65             69     70      1      1
66             70     71      1      1
67             71     72      1      1
68             72     73      1      1
69             73     74      1      1
70             74     75      1      1
71             75     76      1      1
72             76     77      1      1
73             77     78      1      1
74             78     79      1      1
75             79     80      1      1
76             80     81      1      1
77             81     82      1      1
78             82     83      1      1
79             83     84      1      1
80             84     85      1      1
81             85     86      1      1
82             86     87      1      1
83             87     88      1      1
84             88     89      1      1
85             89     90      1      1
86             90     91      1      1
87             91     92      1      1
88             92     93      1      1
89             93     94      1      1
90             94     95      1      1
91             95     96      1      1
92             96     97      1      1
93             97     98      1      1
94             98     99      1      1
95             99    100      1      1
96            100    101      1      1
97            101    102      1      1
98            102    103      1      1
99            103    104      1      1
100           104    105      1      1
101           105    106      1      1
102           106    107      1      1
103           107    108      1      1
104           108    109      1      1
105           109    110      1      1
106           110    111      1      1
107           111    112      1      1
108           112    113      1      1
109           113    114      1      1
110           114    115      1      1
111           115    116      1      1
112           116    117      1      1
113           117    118      1      1
114           118    119      1      1
115           119    120      1      1
116           120    121      1      1
117           121    122      1      1
118           122    123      1      1
119           123    124      1      1
120           124    125      1      1
121           125    126      1      1
122           126    127      1      1
123           127    128      1      1
124           128      4      1      1
125             5    129      1      1
126           129    130      1      1
127           130    131      1      1
128           131    132      1      1
129           132    133      1      1
130           133    134      1      1
131           134    135      1      1
132           135    136      1      1
133           136    137      1      1
134           137    138      1      1
135           138    139      1      1
136           139    140      1      1
137           140    141      1      1
138           141    142      1      1
139           142    143      1      1
140           143    144      1      1
141           144    145      1      1
142           145    146      1      1
143           146    147      1      1
144           147    148      1      1
145           148    149      1      1
146           149    150      1      1
147           150    151      1      1
148           151    152      1      1
149           152    153      1      1
150           153    154      1      1
151           154    155      1      1
152           155    156      1      1
153           156    157      1      1
154           157    158      1      1
155           158    159      1      1
156           159    160      1      1
157           160    161      1      1
158           161    162      1      1
159           162    163      1      1
160           163    164      1      1
161           164    165      1      1
162           165    166      1      1
163           166    167      1      1
164           167    168      1      1
165           168    169      1      1
166           169    170      1      1
167           170    171      1      1
168           171    172      1      1
169           172    173      1      1
170           173    174      1      1
171           174    175      1      1
172           175    176      1      1
173           176    177      1      1
174           177    178      1      1
175           178    179      1      1
176           179    180      1      1
177           180    181      1      1
178           181    182      1      1
179           182    183      1      1
180           183    184      1      1
181           184    185      1      1
182           185    186      1      1
183           186    187      1      1
184           187    188      1      1
185           188    189      1      1
186           189      6      1      1
187             5    190      1      1
188           190    191      1      1
189           191    192      1      1
190           192    193      1      1
191           193    194      1      1
192           194    195      1      1
193           195    196      1      1
194           196    197      1      1
195           197    198      1      1
196           198    199      1      1
197           199    200      1      1
198           200    201      1      1
199           201    202      1      1
200           202    203      1      1
201           203    204      1      1
202           204    205      1      1
203           205    206      1      1
204           206    207      1      1
205           207    208      1      1
206           208    209      1      1
207           209    210      1      1
208           210    211      1      1
209           211    212      1      1
210           212    213      1      1
211           213    214      1      1
212           214    215      1      1
213           215    216      1      1
214           216    217      1      1
215           217    218      1      1
216           218    219      1      1
217           219    220      1      1
218           220    221      1      1
219           221    222      1      1
220           222    223      1      1
221           223    224      1      1
222           224    225      1      1
223           225    226      1      1
224           226    227      1      1
225           227    228      1      1
226           228    229      1      1
227           229    230      1      1
228           230    231      1      1
229           231    232      1      1
230           232    233      1      1
231           233    234      1      1
232           234    235      1      1
233           235    236      1      1
234           236    237      1      1
235           237    238      1      1
236           238    239      1      1
237           239    240      1      1
238           240    241      1      1
239           241    242      1      1
240           242    243      1      1
241           243    244      1      1
242           244    245      1      1
243           245    246      1      1
244           246    247      1      1
245           247    248      1      1
246           248    249      1      1
247           249    250      1      1
248           250      6      1      1

*CONSTRAINT, 6
** ID  NodeID  Direction  Value
1               1      0         0.000000
2               1      1         0.000000
3               1      2         0.000000
4               2      0         0.000000
5               2      1         0.000000
6               2      2         0.000000

*LOAD, FORCE_GRAVITY, 1
** ID  NodeID/ElementID  Direction  Value
1               2        -9.806650      1

*STRESS, 318
** 单元编号  应力
1             +5.023883E+07
2             +5.022321E+07
3             +5.020812E+07
4             +5.019354E+07
5             +5.017950E+07
6             +5.016598E+07
7             +5.015299E+07
8             +5.014052E+07
9             +5.012858E+07
10            +5.011717E+07
11            +5.010629E+07
12            +5.009594E+07
13            +5.008611E+07
14            +5.007682E+07
15            +5.006805E+07
16            +5.005982E+07
17            +5.005211E+07
18            +5.004493E+07
19            +5.003829E+07
20            +5.003218E+07
21            +5.002659E+07
22            +5.002154E+07
23            +5.001702E+07
24            +5.001303E+07
25            +5.000958E+07
26            +5.000665E+07
27            +5.000426E+07
28            +5.000239E+07
29            +5.000106E+07
30            +5.000027E+07
31            +5.000000E+07
32            +5.000027E+07
33            +5.000106E+07
34            +5.000239E+07
35            +5.000426E+07
36            +5.000665E+07
37            +5.000958E+07
38            +5.001303E+07
39            +5.001702E+07
40            +5.002154E+07
41            +5.002659E+07
42            +5.003218E+07
43            +5.003829E+07
44            +5.004493E+07
45            +5.005211E+07
46            +5.005982E+07
47            +5.006805E+07
48            +5.007682E+07
49            +5.008611E+07
50            +5.009594E+07
51            +5.010629E+07
52            +5.011717E+07
53            +5.012858E+07
54            +5.014052E+07
55            +5.015299E+07
56            +5.016598E+07
57            +5.017950E+07
58            +5.019354E+07
59            +5.020812E+07
60            +5.022321E+07
61            +5.023883E+07
62            +5.023883E+07
63            +5.023883E+07
64            +5.022321E+07
65            +5.020812E+07
66            +5.019354E+07
67            +5.017950E+07
68            +5.016598E+07
69            +5.015299E+07
70            +5.014052E+07
71            +5.012858E+07
72            +5.011717E+07
73            +5.010629E+07
74            +5.009594E+07
75            +5.008611E+07
76            +5.007682E+07
77            +5.006805E+07
78            +5.005982E+07
79            +5.005211E+07
80            +5.004493E+07
81            +5.003829E+07
82            +5.003218E+07
83            +5.002659E+07
84            +5.002154E+07
85            +5.001702E+07
86            +5.001303E+07
87            +5.000958E+07
88            +5.000665E+07
89            +5.000426E+07
90            +5.000239E+07
91            +5.000106E+07
92            +5.000027E+07
93            +5.000000E+07
94            +5.000027E+07
95            +5.000106E+07
96            +5.000239E+07
97            +5.000426E+07
98            +5.000665E+07
99            +5.000958E+07
100           +5.001303E+07
101           +5.001702E+07
102           +5.002154E+07
103           +5.002659E+07
104           +5.003218E+07
105           +5.003829E+07
106           +5.004493E+07
107           +5.005211E+07
108           +5.005982E+07
109           +5.006805E+07
110           +5.007682E+07
111           +5.008611E+07
112           +5.009594E+07
113           +5.010629E+07
114           +5.011717E+07
115           +5.012858E+07
116           +5.014052E+07
117           +5.015299E+07
118           +5.016598E+07
119           +5.017950E+07
120           +5.019354E+07
121           +5.020812E+07
122           +5.022321E+07
123           +5.023883E+07
124           +5.023883E+07
125           +5.023883E+07
126           +5.022321E+07
127           +5.020812E+07
128           +5.019354E+07
129           +5.017950E+07
130           +5.016598E+07
131           +5.015299E+07
132           +5.014052E+07
133           +5.012858E+07
134           +5.011717E+07
135           +5.010629E+07
136           +5.009594E+07
137           +5.008611E+07
138           +5.007682E+07
139           +5.006805E+07
140           +5.005982E+07
141           +5.005211E+07
142           +5.004493E+07
143           +5.003829E+07
144           +5.003218E+07
145           +5.002659E+07
146           +5.002154E+07
147           +5.001702E+07
148           +5.001303E+07
149           +5.000958E+07
150           +5.000665E+07
151           +5.000426E+07
152           +5.000239E+07
153           +5.000106E+07
154           +5.000027E+07
155           +5.000000E+07
156           +5.000027E+07
157           +5.000106E+07
158           +5.000239E+07
159           +5.000426E+07
160           +5.000665E+07
161           +5.000958E+07
162           +5.001303E+07
163           +5.001702E+07
164           +5.002154E+07
165           +5.002659E+07
166           +5.003218E+07
167           +5.003829E+07
168           +5.004493E+07
169           +5.005211E+07
170           +5.005982E+07
171           +5.006805E+07
172           +5.007682E+07
173           +5.008611E+07
174           +5.009594E+07
175           +5.010629E+07
176           +5.011717E+07
177           +5.012858E+07
178           +5.014052E+07
179           +5.015299E+07
180           +5.016598E+07
181           +5.017950E+07
182           +5.019354E+07
183           +5.020812E+07
184           +5.022321E+07
185           +5.023883E+07
186           +5.023883E+07
187           +5.023883E+07
188           +5.022321E+07
189           +5.020812E+07
190           +5.019354E+07
191           +5.017950E+07
192           +5.016598E+07
193           +5.015299E+07
194           +5.014052E+07
195           +5.012858E+07
196           +5.011717E+07
197           +5.010629E+07
198           +5.009594E+07
199           +5.008611E+07
200           +5.007682E+07
201           +5.006805E+07
202           +5.005982E+07
203           +5.005211E+07
204           +5.004493E+07
205           +5.003829E+07
206           +5.003218E+07
207           +5.002659E+07
208           +5.002154E+07
209           +5.001702E+07
210           +5.001303E+07
211           +5.000958E+07
212           +5.000665E+07
213           +5.000426E+07
214           +5.000239E+07
215           +5.000106E+07
216           +5.000027E+07
217           +5.000000E+07
218           +5.000027E+07
219           +5.000106E+07
220           +5.000239E+07
221           +5.000426E+07
222           +5.000665E+07
223           +5.000958E+07
224           +5.001303E+07
225           +5.001702E+07
226           +5.002154E+07
227           +5.002659E+07
228           +5.003218E+07
229           +5.003829E+07
230           +5.004493E+07
231           +5.005211E+07
232           +5.005982E+07
233           +5.006805E+07
234           +5.007682E+07
235           +5.008611E+07
236           +5.009594E+07
237           +5.010629E+07
238           +5.011717E+07
239           +5.012858E+07
240           +5.014052E+07
241           +5.015299E+07
242           +5.016598E+07
243           +5.017950E+07
244           +5.019354E+07
245           +5.020812E+07
246           +5.022321E+07
247           +5.023883E+07
248           +5.023883E+07
249                0.000000
250                0.000000
251                0.000000
252                0.000000
253                0.000000
254                0.000000
255                0.000000
256                0.000000
257                0.000000
258                0.000000
259                0.000000
260                0.000000
261                0.000000
262                0.000000
263                0.000000
264                0.000000
265                0.000000
266                0.000000
267                0.000000
268                0.000000
269                0.000000
270                0.000000
271                0.000000
272                0.000000
273                0.000000
274                0.000000
275                0.000000
276                0.000000
277                0.000000
278                0.000000
279                0.000000
280                0.000000
281                0.000000
282                0.000000
283                0.000000
284                0.000000
285                0.000000
286                0.000000
287                0.000000
288                0.000000
289                0.000000
290                0.000000
291                0.000000
292                0.000000
293                0.000000
294                0.000000
295                0.000000
296                0.000000
297                0.000000
298                0.000000
299                0.000000
300                0.000000
301                0.000000
302                0.000000
303                0.000000
304                0.000000
305                0.000000
306                0.000000
307                0.000000
308                0.000000
309                0.000000
310                0.000000
311                0.000000
312                0.000000
313                0.000000
314                0.000000
315                0.000000
316                0.000000
317                0.000000
318                0.000000

*ANALYSIS_STEP, 1
** ID  Type  Time  StepSize  Tolerance  MaxIterations
1              STATIC         1.000000         0.010000    +1.000000E-05     50
