*MATERIAL, 1
** ID  弹性模量  泊松比  密度  许用应力  膨胀系数
1             +7.300000E+10         0.300000      3342.000000    +2.580000E+08    +1.960000E-05

*SECTION, 1
** ID  Area 或 Width Height
1                  0.000339

*NODE, 53
** ID  X  Y  Z
1                  0.000000         0.000000         0.000000
2                  0.995214         0.000000        -0.097716
3                  6.937625         0.000000        -0.667598
4                 12.882203         0.000000        -1.214418
5                 18.828859         0.000000        -1.738152
6                 24.777505         0.000000        -2.238777
7                 30.728053         0.000000        -2.716270
8                 36.680413         0.000000        -3.170608
9                 42.634497         0.000000        -3.601772
10                48.590214         0.000000        -4.009742
11                54.547477         0.000000        -4.394499
12                60.506194         0.000000        -4.756026
13                66.466277         0.000000        -5.094306
14                72.427634         0.000000        -5.409323
15                78.390176         0.000000        -5.701064
16                84.353811         0.000000        -5.969515
17                90.318450         0.000000        -6.214664
18                96.284001         0.000000        -6.436498
19               102.250375         0.000000        -6.635010
20               108.217478         0.000000        -6.810188
21               114.185222         0.000000        -6.962026
22               120.153513         0.000000        -7.090516
23               126.122262         0.000000        -7.195652
24               132.091376         0.000000        -7.277429
25               138.060765         0.000000        -7.335844
26               144.030337         0.000000        -7.370894
27               150.000000         0.000000        -7.382578
28               155.969663         0.000000        -7.370894
29               161.939235         0.000000        -7.335844
30               167.908624         0.000000        -7.277429
31               173.877738         0.000000        -7.195652
32               179.846487         0.000000        -7.090516
33               185.814778         0.000000        -6.962026
34               191.782522         0.000000        -6.810188
35               197.749625         0.000000        -6.635010
36               203.715999         0.000000        -6.436498
37               209.681550         0.000000        -6.214664
38               215.646189         0.000000        -5.969515
39               221.609824         0.000000        -5.701064
40               227.572366         0.000000        -5.409323
41               233.533723         0.000000        -5.094306
42               239.493806         0.000000        -4.756026
43               245.452523         0.000000        -4.394499
44               251.409786         0.000000        -4.009742
45               257.365503         0.000000        -3.601772
46               263.319587         0.000000        -3.170608
47               269.271947         0.000000        -2.716270
48               275.222495         0.000000        -2.238777
49               281.171141         0.000000        -1.738152
50               287.117797         0.000000        -1.214418
51               293.062375         0.000000        -0.667598
52               299.004786         0.000000        -0.097716
53               300.000000         0.000000         0.000000

*ELEMENT, CABLE, 52
** ID  Node1  Node2  MaterialID  SectionID
1               1      2      1      1
2               2      3      1      1
3               3      4      1      1
4               4      5      1      1
5               5      6      1      1
6               6      7      1      1
7               7      8      1      1
8               8      9      1      1
9               9     10      1      1
10             10     11      1      1
11             11     12      1      1
12             12     13      1      1
13             13     14      1      1
14             14     15      1      1
15             15     16      1      1
16             16     17      1      1
17             17     18      1      1
18             18     19      1      1
19             19     20      1      1
20             20     21      1      1
21             21     22      1      1
22             22     23      1      1
23             23     24      1      1
24             24     25      1      1
25             25     26      1      1
26             26     27      1      1
27             27     28      1      1
28             28     29      1      1
29             29     30      1      1
30             30     31      1      1
31             31     32      1      1
32             32     33      1      1
33             33     34      1      1
34             34     35      1      1
35             35     36      1      1
36             36     37      1      1
37             37     38      1      1
38             38     39      1      1
39             39     40      1      1
40             40     41      1      1
41             41     42      1      1
42             42     43      1      1
43             43     44      1      1
44             44     45      1      1
45             45     46      1      1
46             46     47      1      1
47             47     48      1      1
48             48     49      1      1
49             49     50      1      1
50             50     51      1      1
51             51     52      1      1
52             52     53      1      1

*CONSTRAINT, 8
** ID  NodeID  Direction  Value
1               1      0         0.000000
2               1      1         0.000000
3               1      2         0.000000
4               1      3         0.000000
5              53      0         0.000000
6              53      1         0.000000
7              53      2         0.000000
8              53      3         0.000000

*LOAD, FORCE_GRAVITY, 1
** ID  NodeID/ElementID  Direction  Value
1               2        -9.806650      1

*STRESS, 52
** 单元编号  应力
1             +5.000000E+07
2             +5.000000E+07
3             +5.000000E+07
4             +5.000000E+07
5             +5.000000E+07
6             +5.000000E+07
7             +5.000000E+07
8             +5.000000E+07
9             +5.000000E+07
10            +5.000000E+07
11            +5.000000E+07
12            +5.000000E+07
13            +5.000000E+07
14            +5.000000E+07
15            +5.000000E+07
16            +5.000000E+07
17            +5.000000E+07
18            +5.000000E+07
19            +5.000000E+07
20            +5.000000E+07
21            +5.000000E+07
22            +5.000000E+07
23            +5.000000E+07
24            +5.000000E+07
25            +5.000000E+07
26            +5.000000E+07
27            +5.000000E+07
28            +5.000000E+07
29            +5.000000E+07
30            +5.000000E+07
31            +5.000000E+07
32            +5.000000E+07
33            +5.000000E+07
34            +5.000000E+07
35            +5.000000E+07
36            +5.000000E+07
37            +5.000000E+07
38            +5.000000E+07
39            +5.000000E+07
40            +5.000000E+07
41            +5.000000E+07
42            +5.000000E+07
43            +5.000000E+07
44            +5.000000E+07
45            +5.000000E+07
46            +5.000000E+07
47            +5.000000E+07
48            +5.000000E+07
49            +5.000000E+07
50            +5.000000E+07
51            +5.000000E+07
52            +5.000000E+07

*ANALYSIS_STEP, 1
** ID  Type  Time  StepSize  Tolerance  MaxIterations
1              STATIC         1.000000         0.010000    +1.000000E-05     50
