*MATERIAL, 2
** ID  弹性模量  泊松比  密度  许用应力  膨胀系数
1             +7.300000E+10         0.300000      3342.000000    +2.580000E+08    +1.960000E-05
2             +7.300000E+10         0.300000      3342.000000    +2.580000E+08    +1.960000E-05

*SECTION, 2
** ID  Area 或 Width Height
1                  0.001320
2                  0.000339

*NODE, 210
** ID  X  Y  Z
1                  0.497607        -0.200000        -0.048858
2                  0.995214        -0.200000        -0.297716
3                  6.937625        -0.200000        -0.867598
4                 12.882203        -0.200000        -1.414418
5                 18.828859        -0.200000        -1.938152
6                 24.777505        -0.200000        -2.438777
7                 30.728053        -0.200000        -2.916270
8                 36.680413        -0.200000        -3.370608
9                 42.634497        -0.200000        -3.801772
10                48.590214        -0.200000        -4.209742
11                54.547477        -0.200000        -4.594499
12                60.506194        -0.200000        -4.956026
13                66.466277        -0.200000        -5.294306
14                72.427634        -0.200000        -5.609323
15                78.390176        -0.200000        -5.901064
16                84.353811        -0.200000        -6.169515
17                90.318450        -0.200000        -6.414664
18                96.284001        -0.200000        -6.636498
19               102.250375        -0.200000        -6.835010
20               108.217478        -0.200000        -7.010188
21               114.185222        -0.200000        -7.162026
22               120.153513        -0.200000        -7.290516
23               126.122262        -0.200000        -7.395652
24               132.091376        -0.200000        -7.477429
25               138.060765        -0.200000        -7.535844
26               144.030337        -0.200000        -7.570894
27               150.000000        -0.200000        -7.582578
28               155.969663        -0.200000        -7.570894
29               161.939235        -0.200000        -7.535844
30               167.908624        -0.200000        -7.477429
31               173.877738        -0.200000        -7.395652
32               179.846487        -0.200000        -7.290516
33               185.814778        -0.200000        -7.162026
34               191.782522        -0.200000        -7.010188
35               197.749625        -0.200000        -6.835010
36               203.715999        -0.200000        -6.636498
37               209.681550        -0.200000        -6.414664
38               215.646189        -0.200000        -6.169515
39               221.609824        -0.200000        -5.901064
40               227.572366        -0.200000        -5.609323
41               233.533723        -0.200000        -5.294306
42               239.493806        -0.200000        -4.956026
43               245.452523        -0.200000        -4.594499
44               251.409786        -0.200000        -4.209742
45               257.365503        -0.200000        -3.801772
46               263.319587        -0.200000        -3.370608
47               269.271947        -0.200000        -2.916270
48               275.222495        -0.200000        -2.438777
49               281.171141        -0.200000        -1.938152
50               287.117797        -0.200000        -1.414418
51               293.062375        -0.200000        -0.867598
52               299.004786        -0.200000        -0.297716
53                 0.995214        -0.200000         0.102284
54                 6.937625        -0.200000        -0.467598
55                12.882203        -0.200000        -1.014418
56                18.828859        -0.200000        -1.538152
57                24.777505        -0.200000        -2.038777
58                30.728053        -0.200000        -2.516270
59                36.680413        -0.200000        -2.970608
60                42.634497        -0.200000        -3.401772
61                48.590214        -0.200000        -3.809742
62                54.547477        -0.200000        -4.194499
63                60.506194        -0.200000        -4.556026
64                66.466277        -0.200000        -4.894306
65                72.427634        -0.200000        -5.209323
66                78.390176        -0.200000        -5.501064
67                84.353811        -0.200000        -5.769515
68                90.318450        -0.200000        -6.014664
69                96.284001        -0.200000        -6.236498
70               102.250375        -0.200000        -6.435010
71               108.217478        -0.200000        -6.610188
72               114.185222        -0.200000        -6.762026
73               120.153513        -0.200000        -6.890516
74               126.122262        -0.200000        -6.995652
75               132.091376        -0.200000        -7.077429
76               138.060765        -0.200000        -7.135844
77               144.030337        -0.200000        -7.170894
78               150.000000        -0.200000        -7.182578
79               155.969663        -0.200000        -7.170894
80               161.939235        -0.200000        -7.135844
81               167.908624        -0.200000        -7.077429
82               173.877738        -0.200000        -6.995652
83               179.846487        -0.200000        -6.890516
84               185.814778        -0.200000        -6.762026
85               191.782522        -0.200000        -6.610188
86               197.749625        -0.200000        -6.435010
87               203.715999        -0.200000        -6.236498
88               209.681550        -0.200000        -6.014664
89               215.646189        -0.200000        -5.769515
90               221.609824        -0.200000        -5.501064
91               227.572366        -0.200000        -5.209323
92               233.533723        -0.200000        -4.894306
93               239.493806        -0.200000        -4.556026
94               245.452523        -0.200000        -4.194499
95               251.409786        -0.200000        -3.809742
96               257.365503        -0.200000        -3.401772
97               263.319587        -0.200000        -2.970608
98               269.271947        -0.200000        -2.516270
99               275.222495        -0.200000        -2.038777
100              281.171141        -0.200000        -1.538152
101              287.117797        -0.200000        -1.014418
102              293.062375        -0.200000        -0.467598
103              299.004786        -0.200000         0.102284
104              299.502393        -0.200000        -0.048858
105                0.497607         0.200000        -0.048858
106                0.995214         0.200000         0.102284
107                6.937625         0.200000        -0.467598
108               12.882203         0.200000        -1.014418
109               18.828859         0.200000        -1.538152
110               24.777505         0.200000        -2.038777
111               30.728053         0.200000        -2.516270
112               36.680413         0.200000        -2.970608
113               42.634497         0.200000        -3.401772
114               48.590214         0.200000        -3.809742
115               54.547477         0.200000        -4.194499
116               60.506194         0.200000        -4.556026
117               66.466277         0.200000        -4.894306
118               72.427634         0.200000        -5.209323
119               78.390176         0.200000        -5.501064
120               84.353811         0.200000        -5.769515
121               90.318450         0.200000        -6.014664
122               96.284001         0.200000        -6.236498
123              102.250375         0.200000        -6.435010
124              108.217478         0.200000        -6.610188
125              114.185222         0.200000        -6.762026
126              120.153513         0.200000        -6.890516
127              126.122262         0.200000        -6.995652
128              132.091376         0.200000        -7.077429
129              138.060765         0.200000        -7.135844
130              144.030337         0.200000        -7.170894
131              150.000000         0.200000        -7.182578
132              155.969663         0.200000        -7.170894
133              161.939235         0.200000        -7.135844
134              167.908624         0.200000        -7.077429
135              173.877738         0.200000        -6.995652
136              179.846487         0.200000        -6.890516
137              185.814778         0.200000        -6.762026
138              191.782522         0.200000        -6.610188
139              197.749625         0.200000        -6.435010
140              203.715999         0.200000        -6.236498
141              209.681550         0.200000        -6.014664
142              215.646189         0.200000        -5.769515
143              221.609824         0.200000        -5.501064
144              227.572366         0.200000        -5.209323
145              233.533723         0.200000        -4.894306
146              239.493806         0.200000        -4.556026
147              245.452523         0.200000        -4.194499
148              251.409786         0.200000        -3.809742
149              257.365503         0.200000        -3.401772
150              263.319587         0.200000        -2.970608
151              269.271947         0.200000        -2.516270
152              275.222495         0.200000        -2.038777
153              281.171141         0.200000        -1.538152
154              287.117797         0.200000        -1.014418
155              293.062375         0.200000        -0.467598
156              299.004786         0.200000         0.102284
157                0.995214         0.200000        -0.297716
158                6.937625         0.200000        -0.867598
159               12.882203         0.200000        -1.414418
160               18.828859         0.200000        -1.938152
161               24.777505         0.200000        -2.438777
162               30.728053         0.200000        -2.916270
163               36.680413         0.200000        -3.370608
164               42.634497         0.200000        -3.801772
165               48.590214         0.200000        -4.209742
166               54.547477         0.200000        -4.594499
167               60.506194         0.200000        -4.956026
168               66.466277         0.200000        -5.294306
169               72.427634         0.200000        -5.609323
170               78.390176         0.200000        -5.901064
171               84.353811         0.200000        -6.169515
172               90.318450         0.200000        -6.414664
173               96.284001         0.200000        -6.636498
174              102.250375         0.200000        -6.835010
175              108.217478         0.200000        -7.010188
176              114.185222         0.200000        -7.162026
177              120.153513         0.200000        -7.290516
178              126.122262         0.200000        -7.395652
179              132.091376         0.200000        -7.477429
180              138.060765         0.200000        -7.535844
181              144.030337         0.200000        -7.570894
182              150.000000         0.200000        -7.582578
183              155.969663         0.200000        -7.570894
184              161.939235         0.200000        -7.535844
185              167.908624         0.200000        -7.477429
186              173.877738         0.200000        -7.395652
187              179.846487         0.200000        -7.290516
188              185.814778         0.200000        -7.162026
189              191.782522         0.200000        -7.010188
190              197.749625         0.200000        -6.835010
191              203.715999         0.200000        -6.636498
192              209.681550         0.200000        -6.414664
193              215.646189         0.200000        -6.169515
194              221.609824         0.200000        -5.901064
195              227.572366         0.200000        -5.609323
196              233.533723         0.200000        -5.294306
197              239.493806         0.200000        -4.956026
198              245.452523         0.200000        -4.594499
199              251.409786         0.200000        -4.209742
200              257.365503         0.200000        -3.801772
201              263.319587         0.200000        -3.370608
202              269.271947         0.200000        -2.916270
203              275.222495         0.200000        -2.438777
204              281.171141         0.200000        -1.938152
205              287.117797         0.200000        -1.414418
206              293.062375         0.200000        -0.867598
207              299.004786         0.200000        -0.297716
208              299.502393         0.200000        -0.048858
209                0.000000         0.000000         0.000000
210              300.000000         0.000000         0.000000

*ELEMENT, CR3D, 32
** ID  Node1  Node2  MaterialID  SectionID  q0x  q0y  q0z
215             2     53      2      2         0.000000         1.000000         0.000000
216            53    106      2      2         0.000000         0.000000         1.000000
217           106    157      2      2         0.000000         1.000000         0.000000
218           157      2      2      2         0.000000         0.000000         1.000000
219             7     58      2      2         0.000000         1.000000         0.000000
220            58    111      2      2         0.000000         0.000000         1.000000
221           111    162      2      2         0.000000         1.000000         0.000000
222           162      7      2      2         0.000000         0.000000         1.000000
223            15     66      2      2         0.000000         1.000000         0.000000
224            66    119      2      2         0.000000         0.000000         1.000000
225           119    170      2      2         0.000000         1.000000         0.000000
226           170     15      2      2         0.000000         0.000000         1.000000
227            24     75      2      2         0.000000         1.000000         0.000000
228            75    128      2      2         0.000000         0.000000         1.000000
229           128    179      2      2         0.000000         1.000000         0.000000
230           179     24      2      2         0.000000         0.000000         1.000000
231            32     83      2      2         0.000000         1.000000         0.000000
232            83    136      2      2         0.000000         0.000000         1.000000
233           136    187      2      2         0.000000         1.000000         0.000000
234           187     32      2      2         0.000000         0.000000         1.000000
235            40     91      2      2         0.000000         1.000000         0.000000
236            91    144      2      2         0.000000         0.000000         1.000000
237           144    195      2      2         0.000000         1.000000         0.000000
238           195     40      2      2         0.000000         0.000000         1.000000
239            47     98      2      2         0.000000         1.000000         0.000000
240            98    151      2      2         0.000000         0.000000         1.000000
241           151    202      2      2         0.000000         1.000000         0.000000
242           202     47      2      2         0.000000         0.000000         1.000000
243            52    103      2      2         0.000000         1.000000         0.000000
244           103    156      2      2         0.000000         0.000000         1.000000
245           156    207      2      2         0.000000         1.000000         0.000000
246           207     52      2      2         0.000000         0.000000         1.000000

*ELEMENT, T3D2, 214
** ID  Node1  Node2  MaterialID  SectionID
1               1      2      1      1
2               2      3      1      1
3               3      4      1      1
4               4      5      1      1
5               5      6      1      1
6               6      7      1      1
7               7      8      1      1
8               8      9      1      1
9               9     10      1      1
10             10     11      1      1
11             11     12      1      1
12             12     13      1      1
13             13     14      1      1
14             14     15      1      1
15             15     16      1      1
16             16     17      1      1
17             17     18      1      1
18             18     19      1      1
19             19     20      1      1
20             20     21      1      1
21             21     22      1      1
22             22     23      1      1
23             23     24      1      1
24             24     25      1      1
25             25     26      1      1
26             26     27      1      1
27             27     28      1      1
28             28     29      1      1
29             29     30      1      1
30             30     31      1      1
31             31     32      1      1
32             32     33      1      1
33             33     34      1      1
34             34     35      1      1
35             35     36      1      1
36             36     37      1      1
37             37     38      1      1
38             38     39      1      1
39             39     40      1      1
40             40     41      1      1
41             41     42      1      1
42             42     43      1      1
43             43     44      1      1
44             44     45      1      1
45             45     46      1      1
46             46     47      1      1
47             47     48      1      1
48             48     49      1      1
49             49     50      1      1
50             50     51      1      1
51             51     52      1      1
52             52    104      1      1
53              1     53      1      1
54             53     54      1      1
55             54     55      1      1
56             55     56      1      1
57             56     57      1      1
58             57     58      1      1
59             58     59      1      1
60             59     60      1      1
61             60     61      1      1
62             61     62      1      1
63             62     63      1      1
64             63     64      1      1
65             64     65      1      1
66             65     66      1      1
67             66     67      1      1
68             67     68      1      1
69             68     69      1      1
70             69     70      1      1
71             70     71      1      1
72             71     72      1      1
73             72     73      1      1
74             73     74      1      1
75             74     75      1      1
76             75     76      1      1
77             76     77      1      1
78             77     78      1      1
79             78     79      1      1
80             79     80      1      1
81             80     81      1      1
82             81     82      1      1
83             82     83      1      1
84             83     84      1      1
85             84     85      1      1
86             85     86      1      1
87             86     87      1      1
88             87     88      1      1
89             88     89      1      1
90             89     90      1      1
91             90     91      1      1
92             91     92      1      1
93             92     93      1      1
94             93     94      1      1
95             94     95      1      1
96             95     96      1      1
97             96     97      1      1
98             97     98      1      1
99             98     99      1      1
100            99    100      1      1
101           100    101      1      1
102           101    102      1      1
103           102    103      1      1
104           103    104      1      1
105           105    106      1      1
106           106    107      1      1
107           107    108      1      1
108           108    109      1      1
109           109    110      1      1
110           110    111      1      1
111           111    112      1      1
112           112    113      1      1
113           113    114      1      1
114           114    115      1      1
115           115    116      1      1
116           116    117      1      1
117           117    118      1      1
118           118    119      1      1
119           119    120      1      1
120           120    121      1      1
121           121    122      1      1
122           122    123      1      1
123           123    124      1      1
124           124    125      1      1
125           125    126      1      1
126           126    127      1      1
127           127    128      1      1
128           128    129      1      1
129           129    130      1      1
130           130    131      1      1
131           131    132      1      1
132           132    133      1      1
133           133    134      1      1
134           134    135      1      1
135           135    136      1      1
136           136    137      1      1
137           137    138      1      1
138           138    139      1      1
139           139    140      1      1
140           140    141      1      1
141           141    142      1      1
142           142    143      1      1
143           143    144      1      1
144           144    145      1      1
145           145    146      1      1
146           146    147      1      1
147           147    148      1      1
148           148    149      1      1
149           149    150      1      1
150           150    151      1      1
151           151    152      1      1
152           152    153      1      1
153           153    154      1      1
154           154    155      1      1
155           155    156      1      1
156           156    208      1      1
157           105    157      1      1
158           157    158      1      1
159           158    159      1      1
160           159    160      1      1
161           160    161      1      1
162           161    162      1      1
163           162    163      1      1
164           163    164      1      1
165           164    165      1      1
166           165    166      1      1
167           166    167      1      1
168           167    168      1      1
169           168    169      1      1
170           169    170      1      1
171           170    171      1      1
172           171    172      1      1
173           172    173      1      1
174           173    174      1      1
175           174    175      1      1
176           175    176      1      1
177           176    177      1      1
178           177    178      1      1
179           178    179      1      1
180           179    180      1      1
181           180    181      1      1
182           181    182      1      1
183           182    183      1      1
184           183    184      1      1
185           184    185      1      1
186           185    186      1      1
187           186    187      1      1
188           187    188      1      1
189           188    189      1      1
190           189    190      1      1
191           190    191      1      1
192           191    192      1      1
193           192    193      1      1
194           193    194      1      1
195           194    195      1      1
196           195    196      1      1
197           196    197      1      1
198           197    198      1      1
199           198    199      1      1
200           199    200      1      1
201           200    201      1      1
202           201    202      1      1
203           202    203      1      1
204           203    204      1      1
205           204    205      1      1
206           205    206      1      1
207           206    207      1      1
208           207    208      1      1
209           209      1      1      1
210           209    105      1      1
211             1    105      1      1
212           210    104      1      1
213           210    208      1      1
214           104    208      1      1

*CONSTRAINT, 30
** ID  NodeID  Direction  Value
1               2      3         0.000000
2               2      4         0.000000
3               2      5         0.000000
4               7      3         0.000000
5               7      4         0.000000
6               7      5         0.000000
7              15      3         0.000000
8              15      4         0.000000
9              15      5         0.000000
10             24      3         0.000000
11             24      4         0.000000
12             24      5         0.000000
13             32      3         0.000000
14             32      4         0.000000
15             32      5         0.000000
16             40      3         0.000000
17             40      4         0.000000
18             40      5         0.000000
19             47      3         0.000000
20             47      4         0.000000
21             47      5         0.000000
22             52      3         0.000000
23             52      4         0.000000
24             52      5         0.000000
25            209      0         0.000000
26            209      1         0.000000
27            209      2         0.000000
28            210      0         0.000000
29            210      1         0.000000
30            210      2         0.000000

*LOAD, FORCE_GRAVITY, 1
** ID  NodeID/ElementID  Direction  Value
1               2        -9.806650      1

*STRESS, 246
** 单元编号  应力
1             +5.023883E+07
2             +5.022015E+07
3             +5.020222E+07
4             +5.018505E+07
5             +5.016864E+07
6             +5.015299E+07
7             +5.013809E+07
8             +5.012395E+07
9             +5.011058E+07
10            +5.009796E+07
11            +5.008611E+07
12            +5.007502E+07
13            +5.006469E+07
14            +5.005513E+07
15            +5.004633E+07
16            +5.003829E+07
17            +5.003102E+07
18            +5.002451E+07
19            +5.001877E+07
20            +5.001379E+07
21            +5.000958E+07
22            +5.000613E+07
23            +5.000345E+07
24            +5.000153E+07
25            +5.000038E+07
26            +5.000000E+07
27            +5.000038E+07
28            +5.000153E+07
29            +5.000345E+07
30            +5.000613E+07
31            +5.000958E+07
32            +5.001379E+07
33            +5.001877E+07
34            +5.002451E+07
35            +5.003102E+07
36            +5.003829E+07
37            +5.004633E+07
38            +5.005513E+07
39            +5.006469E+07
40            +5.007502E+07
41            +5.008611E+07
42            +5.009796E+07
43            +5.011058E+07
44            +5.012395E+07
45            +5.013809E+07
46            +5.015299E+07
47            +5.016864E+07
48            +5.018505E+07
49            +5.020222E+07
50            +5.022015E+07
51            +5.023883E+07
52            +5.023883E+07
53            +5.023883E+07
54            +5.022015E+07
55            +5.020222E+07
56            +5.018505E+07
57            +5.016864E+07
58            +5.015299E+07
59            +5.013809E+07
60            +5.012395E+07
61            +5.011058E+07
62            +5.009796E+07
63            +5.008611E+07
64            +5.007502E+07
65            +5.006469E+07
66            +5.005513E+07
67            +5.004633E+07
68            +5.003829E+07
69            +5.003102E+07
70            +5.002451E+07
71            +5.001877E+07
72            +5.001379E+07
73            +5.000958E+07
74            +5.000613E+07
75            +5.000345E+07
76            +5.000153E+07
77            +5.000038E+07
78            +5.000000E+07
79            +5.000038E+07
80            +5.000153E+07
81            +5.000345E+07
82            +5.000613E+07
83            +5.000958E+07
84            +5.001379E+07
85            +5.001877E+07
86            +5.002451E+07
87            +5.003102E+07
88            +5.003829E+07
89            +5.004633E+07
90            +5.005513E+07
91            +5.006469E+07
92            +5.007502E+07
93            +5.008611E+07
94            +5.009796E+07
95            +5.011058E+07
96            +5.012395E+07
97            +5.013809E+07
98            +5.015299E+07
99            +5.016864E+07
100           +5.018505E+07
101           +5.020222E+07
102           +5.022015E+07
103           +5.023883E+07
104           +5.023883E+07
105           +5.023883E+07
106           +5.022015E+07
107           +5.020222E+07
108           +5.018505E+07
109           +5.016864E+07
110           +5.015299E+07
111           +5.013809E+07
112           +5.012395E+07
113           +5.011058E+07
114           +5.009796E+07
115           +5.008611E+07
116           +5.007502E+07
117           +5.006469E+07
118           +5.005513E+07
119           +5.004633E+07
120           +5.003829E+07
121           +5.003102E+07
122           +5.002451E+07
123           +5.001877E+07
124           +5.001379E+07
125           +5.000958E+07
126           +5.000613E+07
127           +5.000345E+07
128           +5.000153E+07
129           +5.000038E+07
130           +5.000000E+07
131           +5.000038E+07
132           +5.000153E+07
133           +5.000345E+07
134           +5.000613E+07
135           +5.000958E+07
136           +5.001379E+07
137           +5.001877E+07
138           +5.002451E+07
139           +5.003102E+07
140           +5.003829E+07
141           +5.004633E+07
142           +5.005513E+07
143           +5.006469E+07
144           +5.007502E+07
145           +5.008611E+07
146           +5.009796E+07
147           +5.011058E+07
148           +5.012395E+07
149           +5.013809E+07
150           +5.015299E+07
151           +5.016864E+07
152           +5.018505E+07
153           +5.020222E+07
154           +5.022015E+07
155           +5.023883E+07
156           +5.023883E+07
157           +5.023883E+07
158           +5.022015E+07
159           +5.020222E+07
160           +5.018505E+07
161           +5.016864E+07
162           +5.015299E+07
163           +5.013809E+07
164           +5.012395E+07
165           +5.011058E+07
166           +5.009796E+07
167           +5.008611E+07
168           +5.007502E+07
169           +5.006469E+07
170           +5.005513E+07
171           +5.004633E+07
172           +5.003829E+07
173           +5.003102E+07
174           +5.002451E+07
175           +5.001877E+07
176           +5.001379E+07
177           +5.000958E+07
178           +5.000613E+07
179           +5.000345E+07
180           +5.000153E+07
181           +5.000038E+07
182           +5.000000E+07
183           +5.000038E+07
184           +5.000153E+07
185           +5.000345E+07
186           +5.000613E+07
187           +5.000958E+07
188           +5.001379E+07
189           +5.001877E+07
190           +5.002451E+07
191           +5.003102E+07
192           +5.003829E+07
193           +5.004633E+07
194           +5.005513E+07
195           +5.006469E+07
196           +5.007502E+07
197           +5.008611E+07
198           +5.009796E+07
199           +5.011058E+07
200           +5.012395E+07
201           +5.013809E+07
202           +5.015299E+07
203           +5.016864E+07
204           +5.018505E+07
205           +5.020222E+07
206           +5.022015E+07
207           +5.023883E+07
208           +5.023883E+07
209           +5.000000E+07
210           +5.000000E+07
211           +5.000000E+07
212           +5.000000E+07
213           +5.000000E+07
214           +5.000000E+07
215                0.000000
216                0.000000
217                0.000000
218                0.000000
219                0.000000
220                0.000000
221                0.000000
222                0.000000
223                0.000000
224                0.000000
225                0.000000
226                0.000000
227                0.000000
228                0.000000
229                0.000000
230                0.000000
231                0.000000
232                0.000000
233                0.000000
234                0.000000
235                0.000000
236                0.000000
237                0.000000
238                0.000000
239                0.000000
240                0.000000
241                0.000000
242                0.000000
243                0.000000
244                0.000000
245                0.000000
246                0.000000

*ANALYSIS_STEP, 1
** ID  Type  Time  StepSize  Tolerance  MaxIterations
1              STATIC         1.000000         0.010000    +1.000000E-05     50
