*MATERIAL, 1
** ID  弹性模量  泊松比  密度  许用应力  膨胀系数
1             +7.300000E+10         0.300000      3342.000000    +2.580000E+08    +1.960000E-05

*SECTION, 1
** ID  Area 或 Width Height
1                  0.000339

*NODE, 246
** ID  X  Y  Z
1                 -3.000000         0.000000         0.000000
2                300.000000         0.000000         0.000000
3                 -2.999900        -0.225000        -0.225010
4                  2.034364        -0.225000        -0.717580
5                  7.070219        -0.225000        -1.193604
6                 12.107613        -0.225000        -1.653065
7                 17.146492        -0.225000        -2.095949
8                 22.186801        -0.225000        -2.522241
9                 27.228487        -0.225000        -2.931928
10                32.271496        -0.225000        -3.324996
11                37.315773        -0.225000        -3.701433
12                42.361265        -0.225000        -4.061225
13                47.407917        -0.225000        -4.404362
14                52.455675        -0.225000        -4.730832
15                57.504484        -0.225000        -5.040624
16                62.554289        -0.225000        -5.333729
17                67.605035        -0.225000        -5.610137
18                72.656669        -0.225000        -5.869838
19                77.709133        -0.225000        -6.112824
20                82.762374        -0.225000        -6.339087
21                87.816337        -0.225000        -6.548620
22                92.870965        -0.225000        -6.741416
23                97.926205        -0.225000        -6.917468
24               102.982000        -0.225000        -7.076770
25               108.038295        -0.225000        -7.219319
26               113.095035        -0.225000        -7.345107
27               118.152164        -0.225000        -7.454133
28               123.209627        -0.225000        -7.546391
29               128.267368        -0.225000        -7.621879
30               133.325331        -0.225000        -7.680595
31               138.383461        -0.225000        -7.722536
32               143.441703        -0.225000        -7.747701
33               148.500000        -0.225000        -7.756090
34               153.558297        -0.225000        -7.747701
35               158.616539        -0.225000        -7.722536
36               163.674669        -0.225000        -7.680595
37               168.732632        -0.225000        -7.621879
38               173.790373        -0.225000        -7.546391
39               178.847836        -0.225000        -7.454133
40               183.904965        -0.225000        -7.345107
41               188.961705        -0.225000        -7.219319
42               194.018000        -0.225000        -7.076770
43               199.073795        -0.225000        -6.917468
44               204.129035        -0.225000        -6.741416
45               209.183663        -0.225000        -6.548620
46               214.237626        -0.225000        -6.339087
47               219.290867        -0.225000        -6.112824
48               224.343331        -0.225000        -5.869838
49               229.394965        -0.225000        -5.610137
50               234.445711        -0.225000        -5.333729
51               239.495516        -0.225000        -5.040624
52               244.544325        -0.225000        -4.730832
53               249.592083        -0.225000        -4.404362
54               254.638735        -0.225000        -4.061225
55               259.684227        -0.225000        -3.701433
56               264.728504        -0.225000        -3.324996
57               269.771513        -0.225000        -2.931928
58               274.813199        -0.225000        -2.522241
59               279.853508        -0.225000        -2.095949
60               284.892387        -0.225000        -1.653065
61               289.929781        -0.225000        -1.193604
62               294.965636        -0.225000        -0.717580
63               299.999900        -0.225000        -0.225010
64                -2.999900        -0.225000         0.224990
65                 2.034364        -0.225000        -0.267580
66                 7.070219        -0.225000        -0.743604
67                12.107613        -0.225000        -1.203065
68                17.146492        -0.225000        -1.645949
69                22.186801        -0.225000        -2.072241
70                27.228487        -0.225000        -2.481928
71                32.271496        -0.225000        -2.874996
72                37.315773        -0.225000        -3.251433
73                42.361265        -0.225000        -3.611225
74                47.407917        -0.225000        -3.954362
75                52.455675        -0.225000        -4.280832
76                57.504484        -0.225000        -4.590624
77                62.554289        -0.225000        -4.883729
78                67.605035        -0.225000        -5.160137
79                72.656669        -0.225000        -5.419838
80                77.709133        -0.225000        -5.662824
81                82.762374        -0.225000        -5.889087
82                87.816337        -0.225000        -6.098620
83                92.870965        -0.225000        -6.291416
84                97.926205        -0.225000        -6.467468
85               102.982000        -0.225000        -6.626770
86               108.038295        -0.225000        -6.769319
87               113.095035        -0.225000        -6.895107
88               118.152164        -0.225000        -7.004133
89               123.209627        -0.225000        -7.096391
90               128.267368        -0.225000        -7.171879
91               133.325331        -0.225000        -7.230595
92               138.383461        -0.225000        -7.272536
93               143.441703        -0.225000        -7.297701
94               148.500000        -0.225000        -7.306090
95               153.558297        -0.225000        -7.297701
96               158.616539        -0.225000        -7.272536
97               163.674669        -0.225000        -7.230595
98               168.732632        -0.225000        -7.171879
99               173.790373        -0.225000        -7.096391
100              178.847836        -0.225000        -7.004133
101              183.904965        -0.225000        -6.895107
102              188.961705        -0.225000        -6.769319
103              194.018000        -0.225000        -6.626770
104              199.073795        -0.225000        -6.467468
105              204.129035        -0.225000        -6.291416
106              209.183663        -0.225000        -6.098620
107              214.237626        -0.225000        -5.889087
108              219.290867        -0.225000        -5.662824
109              224.343331        -0.225000        -5.419838
110              229.394965        -0.225000        -5.160137
111              234.445711        -0.225000        -4.883729
112              239.495516        -0.225000        -4.590624
113              244.544325        -0.225000        -4.280832
114              249.592083        -0.225000        -3.954362
115              254.638735        -0.225000        -3.611225
116              259.684227        -0.225000        -3.251433
117              264.728504        -0.225000        -2.874996
118              269.771513        -0.225000        -2.481928
119              274.813199        -0.225000        -2.072241
120              279.853508        -0.225000        -1.645949
121              284.892387        -0.225000        -1.203065
122              289.929781        -0.225000        -0.743604
123              294.965636        -0.225000        -0.267580
124              299.999900        -0.225000         0.224990
125               -2.999900         0.225000         0.224990
126                2.034364         0.225000        -0.267580
127                7.070219         0.225000        -0.743604
128               12.107613         0.225000        -1.203065
129               17.146492         0.225000        -1.645949
130               22.186801         0.225000        -2.072241
131               27.228487         0.225000        -2.481928
132               32.271496         0.225000        -2.874996
133               37.315773         0.225000        -3.251433
134               42.361265         0.225000        -3.611225
135               47.407917         0.225000        -3.954362
136               52.455675         0.225000        -4.280832
137               57.504484         0.225000        -4.590624
138               62.554289         0.225000        -4.883729
139               67.605035         0.225000        -5.160137
140               72.656669         0.225000        -5.419838
141               77.709133         0.225000        -5.662824
142               82.762374         0.225000        -5.889087
143               87.816337         0.225000        -6.098620
144               92.870965         0.225000        -6.291416
145               97.926205         0.225000        -6.467468
146              102.982000         0.225000        -6.626770
147              108.038295         0.225000        -6.769319
148              113.095035         0.225000        -6.895107
149              118.152164         0.225000        -7.004133
150              123.209627         0.225000        -7.096391
151              128.267368         0.225000        -7.171879
152              133.325331         0.225000        -7.230595
153              138.383461         0.225000        -7.272536
154              143.441703         0.225000        -7.297701
155              148.500000         0.225000        -7.306090
156              153.558297         0.225000        -7.297701
157              158.616539         0.225000        -7.272536
158              163.674669         0.225000        -7.230595
159              168.732632         0.225000        -7.171879
160              173.790373         0.225000        -7.096391
161              178.847836         0.225000        -7.004133
162              183.904965         0.225000        -6.895107
163              188.961705         0.225000        -6.769319
164              194.018000         0.225000        -6.626770
165              199.073795         0.225000        -6.467468
166              204.129035         0.225000        -6.291416
167              209.183663         0.225000        -6.098620
168              214.237626         0.225000        -5.889087
169              219.290867         0.225000        -5.662824
170              224.343331         0.225000        -5.419838
171              229.394965         0.225000        -5.160137
172              234.445711         0.225000        -4.883729
173              239.495516         0.225000        -4.590624
174              244.544325         0.225000        -4.280832
175              249.592083         0.225000        -3.954362
176              254.638735         0.225000        -3.611225
177              259.684227         0.225000        -3.251433
178              264.728504         0.225000        -2.874996
179              269.771513         0.225000        -2.481928
180              274.813199         0.225000        -2.072241
181              279.853508         0.225000        -1.645949
182              284.892387         0.225000        -1.203065
183              289.929781         0.225000        -0.743604
184              294.965636         0.225000        -0.267580
185              299.999900         0.225000         0.224990
186               -2.999900         0.225000        -0.225010
187                2.034364         0.225000        -0.717580
188                7.070219         0.225000        -1.193604
189               12.107613         0.225000        -1.653065
190               17.146492         0.225000        -2.095949
191               22.186801         0.225000        -2.522241
192               27.228487         0.225000        -2.931928
193               32.271496         0.225000        -3.324996
194               37.315773         0.225000        -3.701433
195               42.361265         0.225000        -4.061225
196               47.407917         0.225000        -4.404362
197               52.455675         0.225000        -4.730832
198               57.504484         0.225000        -5.040624
199               62.554289         0.225000        -5.333729
200               67.605035         0.225000        -5.610137
201               72.656669         0.225000        -5.869838
202               77.709133         0.225000        -6.112824
203               82.762374         0.225000        -6.339087
204               87.816337         0.225000        -6.548620
205               92.870965         0.225000        -6.741416
206               97.926205         0.225000        -6.917468
207              102.982000         0.225000        -7.076770
208              108.038295         0.225000        -7.219319
209              113.095035         0.225000        -7.345107
210              118.152164         0.225000        -7.454133
211              123.209627         0.225000        -7.546391
212              128.267368         0.225000        -7.621879
213              133.325331         0.225000        -7.680595
214              138.383461         0.225000        -7.722536
215              143.441703         0.225000        -7.747701
216              148.500000         0.225000        -7.756090
217              153.558297         0.225000        -7.747701
218              158.616539         0.225000        -7.722536
219              163.674669         0.225000        -7.680595
220              168.732632         0.225000        -7.621879
221              173.790373         0.225000        -7.546391
222              178.847836         0.225000        -7.454133
223              183.904965         0.225000        -7.345107
224              188.961705         0.225000        -7.219319
225              194.018000         0.225000        -7.076770
226              199.073795         0.225000        -6.917468
227              204.129035         0.225000        -6.741416
228              209.183663         0.225000        -6.548620
229              214.237626         0.225000        -6.339087
230              219.290867         0.225000        -6.112824
231              224.343331         0.225000        -5.869838
232              229.394965         0.225000        -5.610137
233              234.445711         0.225000        -5.333729
234              239.495516         0.225000        -5.040624
235              244.544325         0.225000        -4.730832
236              249.592083         0.225000        -4.404362
237              254.638735         0.225000        -4.061225
238              259.684227         0.225000        -3.701433
239              264.728504         0.225000        -3.324996
240              269.771513         0.225000        -2.931928
241              274.813199         0.225000        -2.522241
242              279.853508         0.225000        -2.095949
243              284.892387         0.225000        -1.653065
244              289.929781         0.225000        -1.193604
245              294.965636         0.225000        -0.717580
246              299.999900         0.225000        -0.225010

*ELEMENT, T3D2, 248
** ID  Node1  Node2  MaterialID  SectionID
1               1      3      1      1
2               3      4      1      1
3               4      5      1      1
4               5      6      1      1
5               6      7      1      1
6               7      8      1      1
7               8      9      1      1
8               9     10      1      1
9              10     11      1      1
10             11     12      1      1
11             12     13      1      1
12             13     14      1      1
13             14     15      1      1
14             15     16      1      1
15             16     17      1      1
16             17     18      1      1
17             18     19      1      1
18             19     20      1      1
19             20     21      1      1
20             21     22      1      1
21             22     23      1      1
22             23     24      1      1
23             24     25      1      1
24             25     26      1      1
25             26     27      1      1
26             27     28      1      1
27             28     29      1      1
28             29     30      1      1
29             30     31      1      1
30             31     32      1      1
31             32     33      1      1
32             33     34      1      1
33             34     35      1      1
34             35     36      1      1
35             36     37      1      1
36             37     38      1      1
37             38     39      1      1
38             39     40      1      1
39             40     41      1      1
40             41     42      1      1
41             42     43      1      1
42             43     44      1      1
43             44     45      1      1
44             45     46      1      1
45             46     47      1      1
46             47     48      1      1
47             48     49      1      1
48             49     50      1      1
49             50     51      1      1
50             51     52      1      1
51             52     53      1      1
52             53     54      1      1
53             54     55      1      1
54             55     56      1      1
55             56     57      1      1
56             57     58      1      1
57             58     59      1      1
58             59     60      1      1
59             60     61      1      1
60             61     62      1      1
61             62     63      1      1
62             63      2      1      1
63              1     64      1      1
64             64     65      1      1
65             65     66      1      1
66             66     67      1      1
67             67     68      1      1
68             68     69      1      1
69             69     70      1      1
70             70     71      1      1
71             71     72      1      1
72             72     73      1      1
73             73     74      1      1
74             74     75      1      1
75             75     76      1      1
76             76     77      1      1
77             77     78      1      1
78             78     79      1      1
79             79     80      1      1
80             80     81      1      1
81             81     82      1      1
82             82     83      1      1
83             83     84      1      1
84             84     85      1      1
85             85     86      1      1
86             86     87      1      1
87             87     88      1      1
88             88     89      1      1
89             89     90      1      1
90             90     91      1      1
91             91     92      1      1
92             92     93      1      1
93             93     94      1      1
94             94     95      1      1
95             95     96      1      1
96             96     97      1      1
97             97     98      1      1
98             98     99      1      1
99             99    100      1      1
100           100    101      1      1
101           101    102      1      1
102           102    103      1      1
103           103    104      1      1
104           104    105      1      1
105           105    106      1      1
106           106    107      1      1
107           107    108      1      1
108           108    109      1      1
109           109    110      1      1
110           110    111      1      1
111           111    112      1      1
112           112    113      1      1
113           113    114      1      1
114           114    115      1      1
115           115    116      1      1
116           116    117      1      1
117           117    118      1      1
118           118    119      1      1
119           119    120      1      1
120           120    121      1      1
121           121    122      1      1
122           122    123      1      1
123           123    124      1      1
124           124      2      1      1
125             1    125      1      1
126           125    126      1      1
127           126    127      1      1
128           127    128      1      1
129           128    129      1      1
130           129    130      1      1
131           130    131      1      1
132           131    132      1      1
133           132    133      1      1
134           133    134      1      1
135           134    135      1      1
136           135    136      1      1
137           136    137      1      1
138           137    138      1      1
139           138    139      1      1
140           139    140      1      1
141           140    141      1      1
142           141    142      1      1
143           142    143      1      1
144           143    144      1      1
145           144    145      1      1
146           145    146      1      1
147           146    147      1      1
148           147    148      1      1
149           148    149      1      1
150           149    150      1      1
151           150    151      1      1
152           151    152      1      1
153           152    153      1      1
154           153    154      1      1
155           154    155      1      1
156           155    156      1      1
157           156    157      1      1
158           157    158      1      1
159           158    159      1      1
160           159    160      1      1
161           160    161      1      1
162           161    162      1      1
163           162    163      1      1
164           163    164      1      1
165           164    165      1      1
166           165    166      1      1
167           166    167      1      1
168           167    168      1      1
169           168    169      1      1
170           169    170      1      1
171           170    171      1      1
172           171    172      1      1
173           172    173      1      1
174           173    174      1      1
175           174    175      1      1
176           175    176      1      1
177           176    177      1      1
178           177    178      1      1
179           178    179      1      1
180           179    180      1      1
181           180    181      1      1
182           181    182      1      1
183           182    183      1      1
184           183    184      1      1
185           184    185      1      1
186           185      2      1      1
187             1    186      1      1
188           186    187      1      1
189           187    188      1      1
190           188    189      1      1
191           189    190      1      1
192           190    191      1      1
193           191    192      1      1
194           192    193      1      1
195           193    194      1      1
196           194    195      1      1
197           195    196      1      1
198           196    197      1      1
199           197    198      1      1
200           198    199      1      1
201           199    200      1      1
202           200    201      1      1
203           201    202      1      1
204           202    203      1      1
205           203    204      1      1
206           204    205      1      1
207           205    206      1      1
208           206    207      1      1
209           207    208      1      1
210           208    209      1      1
211           209    210      1      1
212           210    211      1      1
213           211    212      1      1
214           212    213      1      1
215           213    214      1      1
216           214    215      1      1
217           215    216      1      1
218           216    217      1      1
219           217    218      1      1
220           218    219      1      1
221           219    220      1      1
222           220    221      1      1
223           221    222      1      1
224           222    223      1      1
225           223    224      1      1
226           224    225      1      1
227           225    226      1      1
228           226    227      1      1
229           227    228      1      1
230           228    229      1      1
231           229    230      1      1
232           230    231      1      1
233           231    232      1      1
234           232    233      1      1
235           233    234      1      1
236           234    235      1      1
237           235    236      1      1
238           236    237      1      1
239           237    238      1      1
240           238    239      1      1
241           239    240      1      1
242           240    241      1      1
243           241    242      1      1
244           242    243      1      1
245           243    244      1      1
246           244    245      1      1
247           245    246      1      1
248           246      2      1      1

*CONSTRAINT, 6
** ID  NodeID  Direction  Value
1               1      0         0.000000
2               1      1         0.000000
3               1      2         0.000000
4               2      0         0.000000
5               2      1         0.000000
6               2      2         0.000000

*LOAD, FORCE_GRAVITY, 1
** ID  NodeID/ElementID  Direction  Value
1               2        -9.806650      1

*STRESS, 248
** 单元编号  应力
1             +5.024691E+07
2             +5.023076E+07
3             +5.021515E+07
4             +5.020009E+07
5             +5.018557E+07
6             +5.017159E+07
7             +5.015816E+07
8             +5.014527E+07
9             +5.013293E+07
10            +5.012114E+07
11            +5.010989E+07
12            +5.009918E+07
13            +5.008903E+07
14            +5.007942E+07
15            +5.007036E+07
16            +5.006184E+07
17            +5.005387E+07
18            +5.004646E+07
19            +5.003959E+07
20            +5.003327E+07
21            +5.002749E+07
22            +5.002227E+07
23            +5.001760E+07
24            +5.001347E+07
25            +5.000990E+07
26            +5.000687E+07
27            +5.000440E+07
28            +5.000248E+07
29            +5.000110E+07
30            +5.000028E+07
31            +5.000000E+07
32            +5.000028E+07
33            +5.000110E+07
34            +5.000248E+07
35            +5.000440E+07
36            +5.000687E+07
37            +5.000990E+07
38            +5.001347E+07
39            +5.001760E+07
40            +5.002227E+07
41            +5.002749E+07
42            +5.003327E+07
43            +5.003959E+07
44            +5.004646E+07
45            +5.005387E+07
46            +5.006184E+07
47            +5.007036E+07
48            +5.007942E+07
49            +5.008903E+07
50            +5.009918E+07
51            +5.010989E+07
52            +5.012114E+07
53            +5.013293E+07
54            +5.014527E+07
55            +5.015816E+07
56            +5.017159E+07
57            +5.018557E+07
58            +5.020009E+07
59            +5.021515E+07
60            +5.023076E+07
61            +5.024691E+07
62            +5.024691E+07
63            +5.024691E+07
64            +5.023076E+07
65            +5.021515E+07
66            +5.020009E+07
67            +5.018557E+07
68            +5.017159E+07
69            +5.015816E+07
70            +5.014527E+07
71            +5.013293E+07
72            +5.012114E+07
73            +5.010989E+07
74            +5.009918E+07
75            +5.008903E+07
76            +5.007942E+07
77            +5.007036E+07
78            +5.006184E+07
79            +5.005387E+07
80            +5.004646E+07
81            +5.003959E+07
82            +5.003327E+07
83            +5.002749E+07
84            +5.002227E+07
85            +5.001760E+07
86            +5.001347E+07
87            +5.000990E+07
88            +5.000687E+07
89            +5.000440E+07
90            +5.000248E+07
91            +5.000110E+07
92            +5.000028E+07
93            +5.000000E+07
94            +5.000028E+07
95            +5.000110E+07
96            +5.000248E+07
97            +5.000440E+07
98            +5.000687E+07
99            +5.000990E+07
100           +5.001347E+07
101           +5.001760E+07
102           +5.002227E+07
103           +5.002749E+07
104           +5.003327E+07
105           +5.003959E+07
106           +5.004646E+07
107           +5.005387E+07
108           +5.006184E+07
109           +5.007036E+07
110           +5.007942E+07
111           +5.008903E+07
112           +5.009918E+07
113           +5.010989E+07
114           +5.012114E+07
115           +5.013293E+07
116           +5.014527E+07
117           +5.015816E+07
118           +5.017159E+07
119           +5.018557E+07
120           +5.020009E+07
121           +5.021515E+07
122           +5.023076E+07
123           +5.024691E+07
124           +5.024691E+07
125           +5.024691E+07
126           +5.023076E+07
127           +5.021515E+07
128           +5.020009E+07
129           +5.018557E+07
130           +5.017159E+07
131           +5.015816E+07
132           +5.014527E+07
133           +5.013293E+07
134           +5.012114E+07
135           +5.010989E+07
136           +5.009918E+07
137           +5.008903E+07
138           +5.007942E+07
139           +5.007036E+07
140           +5.006184E+07
141           +5.005387E+07
142           +5.004646E+07
143           +5.003959E+07
144           +5.003327E+07
145           +5.002749E+07
146           +5.002227E+07
147           +5.001760E+07
148           +5.001347E+07
149           +5.000990E+07
150           +5.000687E+07
151           +5.000440E+07
152           +5.000248E+07
153           +5.000110E+07
154           +5.000028E+07
155           +5.000000E+07
156           +5.000028E+07
157           +5.000110E+07
158           +5.000248E+07
159           +5.000440E+07
160           +5.000687E+07
161           +5.000990E+07
162           +5.001347E+07
163           +5.001760E+07
164           +5.002227E+07
165           +5.002749E+07
166           +5.003327E+07
167           +5.003959E+07
168           +5.004646E+07
169           +5.005387E+07
170           +5.006184E+07
171           +5.007036E+07
172           +5.007942E+07
173           +5.008903E+07
174           +5.009918E+07
175           +5.010989E+07
176           +5.012114E+07
177           +5.013293E+07
178           +5.014527E+07
179           +5.015816E+07
180           +5.017159E+07
181           +5.018557E+07
182           +5.020009E+07
183           +5.021515E+07
184           +5.023076E+07
185           +5.024691E+07
186           +5.024691E+07
187           +5.024691E+07
188           +5.023076E+07
189           +5.021515E+07
190           +5.020009E+07
191           +5.018557E+07
192           +5.017159E+07
193           +5.015816E+07
194           +5.014527E+07
195           +5.013293E+07
196           +5.012114E+07
197           +5.010989E+07
198           +5.009918E+07
199           +5.008903E+07
200           +5.007942E+07
201           +5.007036E+07
202           +5.006184E+07
203           +5.005387E+07
204           +5.004646E+07
205           +5.003959E+07
206           +5.003327E+07
207           +5.002749E+07
208           +5.002227E+07
209           +5.001760E+07
210           +5.001347E+07
211           +5.000990E+07
212           +5.000687E+07
213           +5.000440E+07
214           +5.000248E+07
215           +5.000110E+07
216           +5.000028E+07
217           +5.000000E+07
218           +5.000028E+07
219           +5.000110E+07
220           +5.000248E+07
221           +5.000440E+07
222           +5.000687E+07
223           +5.000990E+07
224           +5.001347E+07
225           +5.001760E+07
226           +5.002227E+07
227           +5.002749E+07
228           +5.003327E+07
229           +5.003959E+07
230           +5.004646E+07
231           +5.005387E+07
232           +5.006184E+07
233           +5.007036E+07
234           +5.007942E+07
235           +5.008903E+07
236           +5.009918E+07
237           +5.010989E+07
238           +5.012114E+07
239           +5.013293E+07
240           +5.014527E+07
241           +5.015816E+07
242           +5.017159E+07
243           +5.018557E+07
244           +5.020009E+07
245           +5.021515E+07
246           +5.023076E+07
247           +5.024691E+07
248           +5.024691E+07

*ANALYSIS_STEP, 1
** ID  Type  Time  StepSize  Tolerance  MaxIterations
1              STATIC         1.000000         0.010000    +1.000000E-05     50
