*MATERIAL, 1
** ID  弹性模量  泊松比  密度  许用应力  膨胀系数
1             +7.300000E+10         0.300000      3342.000000    +2.580000E+08    +1.960000E-05

*SECTION, 1
** ID  Area 或 Width Height
1                  0.000339

*NODE, 64
** ID  X  Y  Z
1                  0.000000         0.000000         0.000000
2             +9.951826E-05         0.000000    -9.803910E-06
3                  4.903096         0.000000        -0.475103
4                  9.807588         0.000000        -0.934500
5                 14.713526         0.000000        -1.378187
6                 19.620861         0.000000        -1.806149
7                 24.529543         0.000000        -2.218374
8                 29.439522         0.000000        -2.614849
9                 34.350748         0.000000        -2.995562
10                39.263172         0.000000        -3.360501
11                44.176743         0.000000        -3.709654
12                49.091411         0.000000        -4.043011
13                54.007125         0.000000        -4.360562
14                58.923836         0.000000        -4.662296
15                63.841492         0.000000        -4.948204
16                68.760043         0.000000        -5.218278
17                73.679439         0.000000        -5.472508
18                78.599628         0.000000        -5.710888
19                83.520560         0.000000        -5.933409
20                88.442184         0.000000        -6.140065
21                93.364448         0.000000        -6.330850
22                98.287303         0.000000        -6.505756
23               103.210696         0.000000        -6.664779
24               108.134576         0.000000        -6.807914
25               113.058893         0.000000        -6.935157
26               117.983595         0.000000        -7.046503
27               122.908630         0.000000        -7.141949
28               127.833949         0.000000        -7.221491
29               132.759498         0.000000        -7.285128
30               137.685227         0.000000        -7.332858
31               142.611085         0.000000        -7.364679
32               147.537020         0.000000        -7.380589
33               152.462980         0.000000        -7.380589
34               157.388915         0.000000        -7.364679
35               162.314773         0.000000        -7.332858
36               167.240502         0.000000        -7.285128
37               172.166051         0.000000        -7.221491
38               177.091370         0.000000        -7.141949
39               182.016405         0.000000        -7.046503
40               186.941107         0.000000        -6.935157
41               191.865424         0.000000        -6.807914
42               196.789304         0.000000        -6.664779
43               201.712697         0.000000        -6.505756
44               206.635552         0.000000        -6.330850
45               211.557816         0.000000        -6.140065
46               216.479440         0.000000        -5.933409
47               221.400372         0.000000        -5.710888
48               226.320561         0.000000        -5.472508
49               231.239957         0.000000        -5.218278
50               236.158508         0.000000        -4.948204
51               241.076164         0.000000        -4.662296
52               245.992875         0.000000        -4.360562
53               250.908589         0.000000        -4.043011
54               255.823257         0.000000        -3.709654
55               260.736828         0.000000        -3.360501
56               265.649252         0.000000        -2.995562
57               270.560478         0.000000        -2.614849
58               275.470457         0.000000        -2.218374
59               280.379139         0.000000        -1.806149
60               285.286474         0.000000        -1.378187
61               290.192412         0.000000        -0.934500
62               295.096904         0.000000        -0.475103
63               299.999900         0.000000    -9.803910E-06
64               300.000000         0.000000         0.000000

*ELEMENT, T3D2, 63
** ID  Node1  Node2  MaterialID  SectionID
1               1      2      1      1
2               2      3      1      1
3               3      4      1      1
4               4      5      1      1
5               5      6      1      1
6               6      7      1      1
7               7      8      1      1
8               8      9      1      1
9               9     10      1      1
10             10     11      1      1
11             11     12      1      1
12             12     13      1      1
13             13     14      1      1
14             14     15      1      1
15             15     16      1      1
16             16     17      1      1
17             17     18      1      1
18             18     19      1      1
19             19     20      1      1
20             20     21      1      1
21             21     22      1      1
22             22     23      1      1
23             23     24      1      1
24             24     25      1      1
25             25     26      1      1
26             26     27      1      1
27             27     28      1      1
28             28     29      1      1
29             29     30      1      1
30             30     31      1      1
31             31     32      1      1
32             32     33      1      1
33             33     34      1      1
34             34     35      1      1
35             35     36      1      1
36             36     37      1      1
37             37     38      1      1
38             38     39      1      1
39             39     40      1      1
40             40     41      1      1
41             41     42      1      1
42             42     43      1      1
43             43     44      1      1
44             44     45      1      1
45             45     46      1      1
46             46     47      1      1
47             47     48      1      1
48             48     49      1      1
49             49     50      1      1
50             50     51      1      1
51             51     52      1      1
52             52     53      1      1
53             53     54      1      1
54             54     55      1      1
55             55     56      1      1
56             56     57      1      1
57             57     58      1      1
58             58     59      1      1
59             59     60      1      1
60             60     61      1      1
61             61     62      1      1
62             62     63      1      1
63             63     64      1      1

*CONSTRAINT, 6
** ID  NodeID  Direction  Value
1               1      0         0.000000
2               1      1         0.000000
3               1      2         0.000000
4              64      0         0.000000
5              64      1         0.000000
6              64      2         0.000000

*LOAD, FORCE_GRAVITY, 1
** ID  NodeID/ElementID  Direction  Value
1               2        -9.806650      1

*STRESS, 63
** 单元编号  应力
1             +5.024204E+07
2             +5.022646E+07
3             +5.021140E+07
4             +5.019685E+07
5             +5.018282E+07
6             +5.016931E+07
7             +5.015631E+07
8             +5.014383E+07
9             +5.013186E+07
10            +5.012042E+07
11            +5.010949E+07
12            +5.009908E+07
13            +5.008918E+07
14            +5.007981E+07
15            +5.007096E+07
16            +5.006262E+07
17            +5.005481E+07
18            +5.004751E+07
19            +5.004074E+07
20            +5.003448E+07
21            +5.002875E+07
22            +5.002353E+07
23            +5.001884E+07
24            +5.001467E+07
25            +5.001102E+07
26            +5.000789E+07
27            +5.000528E+07
28            +5.000319E+07
29            +5.000163E+07
30            +5.000059E+07
31            +5.000007E+07
32            +5.000007E+07
33            +5.000059E+07
34            +5.000163E+07
35            +5.000319E+07
36            +5.000528E+07
37            +5.000789E+07
38            +5.001102E+07
39            +5.001467E+07
40            +5.001884E+07
41            +5.002353E+07
42            +5.002875E+07
43            +5.003448E+07
44            +5.004074E+07
45            +5.004751E+07
46            +5.005481E+07
47            +5.006262E+07
48            +5.007096E+07
49            +5.007981E+07
50            +5.008918E+07
51            +5.009908E+07
52            +5.010949E+07
53            +5.012042E+07
54            +5.013186E+07
55            +5.014383E+07
56            +5.015631E+07
57            +5.016931E+07
58            +5.018282E+07
59            +5.019685E+07
60            +5.021140E+07
61            +5.022646E+07
62            +5.024204E+07
63            +5.024204E+07

*ANALYSIS_STEP, 1
** ID  Type  Time  StepSize  Tolerance  MaxIterations
1              STATIC         1.000000         0.010000    +1.000000E-05     50
