*MATERIAL, 2
** ID  弹性模量  泊松比  密度  许用应力  膨胀系数
1             +7.300000E+10         0.300000      3342.000000    +2.580000E+08    +1.960000E-05
2             +7.300000E+10         0.300000      3342.000000    +2.580000E+08    +1.960000E-05

*SECTION, 2
** ID  Area 或 Width Height
1                  0.000339
2                  0.000339

*NODE, 258
** ID  X  Y  Z
1                  0.497607        -0.225000        -0.048858
2                  0.995214        -0.225000        -0.322716
3                  5.947071        -0.225000        -0.799218
4                 10.900442        -0.225000        -1.259708
5                 15.855277        -0.225000        -1.704172
6                 20.811524        -0.225000        -2.132596
7                 25.769133        -0.225000        -2.544966
8                 30.728053        -0.225000        -2.941270
9                 35.688231        -0.225000        -3.321494
10                40.649616        -0.225000        -3.685627
11                45.612157        -0.225000        -4.033658
12                50.575801        -0.225000        -4.365575
13                55.540498        -0.225000        -4.681367
14                60.506194        -0.225000        -4.981026
15                65.472839        -0.225000        -5.264541
16                70.440379        -0.225000        -5.531903
17                75.408762        -0.225000        -5.783104
18                80.377937        -0.225000        -6.018136
19                85.347850        -0.225000        -6.236992
20                90.318450        -0.225000        -6.439664
21                95.289683        -0.225000        -6.626145
22               100.261498        -0.225000        -6.796431
23               105.233841        -0.225000        -6.950516
24               110.206660        -0.225000        -7.088395
25               115.179901        -0.225000        -7.210062
26               120.153513        -0.225000        -7.315516
27               125.127443        -0.225000        -7.404751
28               130.101637        -0.225000        -7.477766
29               135.076042        -0.225000        -7.534557
30               140.050607        -0.225000        -7.575124
31               145.025277        -0.225000        -7.599464
32               150.000000        -0.225000        -7.607578
33               154.974723        -0.225000        -7.599464
34               159.949393        -0.225000        -7.575124
35               164.923958        -0.225000        -7.534557
36               169.898363        -0.225000        -7.477766
37               174.872557        -0.225000        -7.404751
38               179.846487        -0.225000        -7.315516
39               184.820099        -0.225000        -7.210062
40               189.793340        -0.225000        -7.088395
41               194.766159        -0.225000        -6.950516
42               199.738502        -0.225000        -6.796431
43               204.710317        -0.225000        -6.626145
44               209.681550        -0.225000        -6.439664
45               214.652150        -0.225000        -6.236992
46               219.622063        -0.225000        -6.018136
47               224.591238        -0.225000        -5.783104
48               229.559621        -0.225000        -5.531903
49               234.527161        -0.225000        -5.264541
50               239.493806        -0.225000        -4.981026
51               244.459502        -0.225000        -4.681367
52               249.424199        -0.225000        -4.365575
53               254.387843        -0.225000        -4.033658
54               259.350384        -0.225000        -3.685627
55               264.311769        -0.225000        -3.321494
56               269.271947        -0.225000        -2.941270
57               274.230867        -0.225000        -2.544966
58               279.188476        -0.225000        -2.132596
59               284.144723        -0.225000        -1.704172
60               289.099558        -0.225000        -1.259708
61               294.052929        -0.225000        -0.799218
62               299.004786        -0.225000        -0.322716
63                 0.995214        -0.225000         0.127284
64                 5.947071        -0.225000        -0.349218
65                10.900442        -0.225000        -0.809708
66                15.855277        -0.225000        -1.254172
67                20.811524        -0.225000        -1.682596
68                25.769133        -0.225000        -2.094966
69                30.728053        -0.225000        -2.491270
70                35.688231        -0.225000        -2.871494
71                40.649616        -0.225000        -3.235627
72                45.612157        -0.225000        -3.583658
73                50.575801        -0.225000        -3.915575
74                55.540498        -0.225000        -4.231367
75                60.506194        -0.225000        -4.531026
76                65.472839        -0.225000        -4.814541
77                70.440379        -0.225000        -5.081903
78                75.408762        -0.225000        -5.333104
79                80.377937        -0.225000        -5.568136
80                85.347850        -0.225000        -5.786992
81                90.318450        -0.225000        -5.989664
82                95.289683        -0.225000        -6.176145
83               100.261498        -0.225000        -6.346431
84               105.233841        -0.225000        -6.500516
85               110.206660        -0.225000        -6.638395
86               115.179901        -0.225000        -6.760062
87               120.153513        -0.225000        -6.865516
88               125.127443        -0.225000        -6.954751
89               130.101637        -0.225000        -7.027766
90               135.076042        -0.225000        -7.084557
91               140.050607        -0.225000        -7.125124
92               145.025277        -0.225000        -7.149464
93               150.000000        -0.225000        -7.157578
94               154.974723        -0.225000        -7.149464
95               159.949393        -0.225000        -7.125124
96               164.923958        -0.225000        -7.084557
97               169.898363        -0.225000        -7.027766
98               174.872557        -0.225000        -6.954751
99               179.846487        -0.225000        -6.865516
100              184.820099        -0.225000        -6.760062
101              189.793340        -0.225000        -6.638395
102              194.766159        -0.225000        -6.500516
103              199.738502        -0.225000        -6.346431
104              204.710317        -0.225000        -6.176145
105              209.681550        -0.225000        -5.989664
106              214.652150        -0.225000        -5.786992
107              219.622063        -0.225000        -5.568136
108              224.591238        -0.225000        -5.333104
109              229.559621        -0.225000        -5.081903
110              234.527161        -0.225000        -4.814541
111              239.493806        -0.225000        -4.531026
112              244.459502        -0.225000        -4.231367
113              249.424199        -0.225000        -3.915575
114              254.387843        -0.225000        -3.583658
115              259.350384        -0.225000        -3.235627
116              264.311769        -0.225000        -2.871494
117              269.271947        -0.225000        -2.491270
118              274.230867        -0.225000        -2.094966
119              279.188476        -0.225000        -1.682596
120              284.144723        -0.225000        -1.254172
121              289.099558        -0.225000        -0.809708
122              294.052929        -0.225000        -0.349218
123              299.004786        -0.225000         0.127284
124              299.502393        -0.225000        -0.048858
125                0.497607         0.225000        -0.048858
126                0.995214         0.225000         0.127284
127                5.947071         0.225000        -0.349218
128               10.900442         0.225000        -0.809708
129               15.855277         0.225000        -1.254172
130               20.811524         0.225000        -1.682596
131               25.769133         0.225000        -2.094966
132               30.728053         0.225000        -2.491270
133               35.688231         0.225000        -2.871494
134               40.649616         0.225000        -3.235627
135               45.612157         0.225000        -3.583658
136               50.575801         0.225000        -3.915575
137               55.540498         0.225000        -4.231367
138               60.506194         0.225000        -4.531026
139               65.472839         0.225000        -4.814541
140               70.440379         0.225000        -5.081903
141               75.408762         0.225000        -5.333104
142               80.377937         0.225000        -5.568136
143               85.347850         0.225000        -5.786992
144               90.318450         0.225000        -5.989664
145               95.289683         0.225000        -6.176145
146              100.261498         0.225000        -6.346431
147              105.233841         0.225000        -6.500516
148              110.206660         0.225000        -6.638395
149              115.179901         0.225000        -6.760062
150              120.153513         0.225000        -6.865516
151              125.127443         0.225000        -6.954751
152              130.101637         0.225000        -7.027766
153              135.076042         0.225000        -7.084557
154              140.050607         0.225000        -7.125124
155              145.025277         0.225000        -7.149464
156              150.000000         0.225000        -7.157578
157              154.974723         0.225000        -7.149464
158              159.949393         0.225000        -7.125124
159              164.923958         0.225000        -7.084557
160              169.898363         0.225000        -7.027766
161              174.872557         0.225000        -6.954751
162              179.846487         0.225000        -6.865516
163              184.820099         0.225000        -6.760062
164              189.793340         0.225000        -6.638395
165              194.766159         0.225000        -6.500516
166              199.738502         0.225000        -6.346431
167              204.710317         0.225000        -6.176145
168              209.681550         0.225000        -5.989664
169              214.652150         0.225000        -5.786992
170              219.622063         0.225000        -5.568136
171              224.591238         0.225000        -5.333104
172              229.559621         0.225000        -5.081903
173              234.527161         0.225000        -4.814541
174              239.493806         0.225000        -4.531026
175              244.459502         0.225000        -4.231367
176              249.424199         0.225000        -3.915575
177              254.387843         0.225000        -3.583658
178              259.350384         0.225000        -3.235627
179              264.311769         0.225000        -2.871494
180              269.271947         0.225000        -2.491270
181              274.230867         0.225000        -2.094966
182              279.188476         0.225000        -1.682596
183              284.144723         0.225000        -1.254172
184              289.099558         0.225000        -0.809708
185              294.052929         0.225000        -0.349218
186              299.004786         0.225000         0.127284
187                0.995214         0.225000        -0.322716
188                5.947071         0.225000        -0.799218
189               10.900442         0.225000        -1.259708
190               15.855277         0.225000        -1.704172
191               20.811524         0.225000        -2.132596
192               25.769133         0.225000        -2.544966
193               30.728053         0.225000        -2.941270
194               35.688231         0.225000        -3.321494
195               40.649616         0.225000        -3.685627
196               45.612157         0.225000        -4.033658
197               50.575801         0.225000        -4.365575
198               55.540498         0.225000        -4.681367
199               60.506194         0.225000        -4.981026
200               65.472839         0.225000        -5.264541
201               70.440379         0.225000        -5.531903
202               75.408762         0.225000        -5.783104
203               80.377937         0.225000        -6.018136
204               85.347850         0.225000        -6.236992
205               90.318450         0.225000        -6.439664
206               95.289683         0.225000        -6.626145
207              100.261498         0.225000        -6.796431
208              105.233841         0.225000        -6.950516
209              110.206660         0.225000        -7.088395
210              115.179901         0.225000        -7.210062
211              120.153513         0.225000        -7.315516
212              125.127443         0.225000        -7.404751
213              130.101637         0.225000        -7.477766
214              135.076042         0.225000        -7.534557
215              140.050607         0.225000        -7.575124
216              145.025277         0.225000        -7.599464
217              150.000000         0.225000        -7.607578
218              154.974723         0.225000        -7.599464
219              159.949393         0.225000        -7.575124
220              164.923958         0.225000        -7.534557
221              169.898363         0.225000        -7.477766
222              174.872557         0.225000        -7.404751
223              179.846487         0.225000        -7.315516
224              184.820099         0.225000        -7.210062
225              189.793340         0.225000        -7.088395
226              194.766159         0.225000        -6.950516
227              199.738502         0.225000        -6.796431
228              204.710317         0.225000        -6.626145
229              209.681550         0.225000        -6.439664
230              214.652150         0.225000        -6.236992
231              219.622063         0.225000        -6.018136
232              224.591238         0.225000        -5.783104
233              229.559621         0.225000        -5.531903
234              234.527161         0.225000        -5.264541
235              239.493806         0.225000        -4.981026
236              244.459502         0.225000        -4.681367
237              249.424199         0.225000        -4.365575
238              254.387843         0.225000        -4.033658
239              259.350384         0.225000        -3.685627
240              264.311769         0.225000        -3.321494
241              269.271947         0.225000        -2.941270
242              274.230867         0.225000        -2.544966
243              279.188476         0.225000        -2.132596
244              284.144723         0.225000        -1.704172
245              289.099558         0.225000        -1.259708
246              294.052929         0.225000        -0.799218
247              299.004786         0.225000        -0.322716
248              299.502393         0.225000        -0.048858
249                0.000000         0.000000         0.000000
250              300.000000         0.000000         0.000000
251                0.995214         0.000000        -0.097716
252               30.728053         0.000000        -2.716270
253               80.377937         0.000000        -5.793136
254              130.101637         0.000000        -7.252766
255              179.846487         0.000000        -7.090516
256              224.591238         0.000000        -5.558104
257              269.271947         0.000000        -2.716270
258              299.004786         0.000000        -0.097716

*ELEMENT, CR3D, 70
** ID  Node1  Node2  MaterialID  SectionID  q0x  q0y  q0z
249           249      1      1      1         0.081195        -0.036713         0.996022
250           249    125      1      1         0.081195         0.036713         0.996022
251             1    125      1      1         0.000000         0.000000         1.000000
252           250    124      1      1        -0.081195        -0.036713         0.996022
253           250    248      1      1        -0.081195         0.036713         0.996022
254           124    248      1      1         0.000000         0.000000         1.000000
255             2     63      2      2         0.000000         1.000000         0.000000
256            63    126      2      2         0.000000         0.000000         1.000000
257           126    187      2      2         0.000000         1.000000         0.000000
258           187      2      2      2         0.000000         0.000000         1.000000
259             2    251      2      2         0.000000        -0.707107         0.707107
260            63    251      2      2         0.000000         0.707107         0.707107
261           126    251      2      2         0.000000        -0.707107         0.707107
262           187    251      2      2         0.000000         0.707107         0.707107
263             8     69      2      2         0.000000         1.000000         0.000000
264            69    132      2      2         0.000000         0.000000         1.000000
265           132    193      2      2         0.000000         1.000000         0.000000
266           193      8      2      2         0.000000         0.000000         1.000000
267             8    252      2      2         0.000000        -0.707107         0.707107
268            69    252      2      2         0.000000         0.707107         0.707107
269           132    252      2      2         0.000000        -0.707107         0.707107
270           193    252      2      2         0.000000         0.707107         0.707107
271            18     79      2      2         0.000000         1.000000         0.000000
272            79    142      2      2         0.000000         0.000000         1.000000
273           142    203      2      2         0.000000         1.000000         0.000000
274           203     18      2      2         0.000000         0.000000         1.000000
275            18    253      2      2         0.000000        -0.707107         0.707107
276            79    253      2      2         0.000000         0.707107         0.707107
277           142    253      2      2         0.000000        -0.707107         0.707107
278           203    253      2      2         0.000000         0.707107         0.707107
279            28     89      2      2         0.000000         1.000000         0.000000
280            89    152      2      2         0.000000         0.000000         1.000000
281           152    213      2      2         0.000000         1.000000         0.000000
282           213     28      2      2         0.000000         0.000000         1.000000
283            28    254      2      2         0.000000        -0.707107         0.707107
284            89    254      2      2         0.000000         0.707107         0.707107
285           152    254      2      2         0.000000        -0.707107         0.707107
286           213    254      2      2         0.000000         0.707107         0.707107
287            38     99      2      2         0.000000         1.000000         0.000000
288            99    162      2      2         0.000000         0.000000         1.000000
289           162    223      2      2         0.000000         1.000000         0.000000
290           223     38      2      2         0.000000         0.000000         1.000000
291            38    255      2      2         0.000000        -0.707107         0.707107
292            99    255      2      2         0.000000         0.707107         0.707107
293           162    255      2      2         0.000000        -0.707107         0.707107
294           223    255      2      2         0.000000         0.707107         0.707107
295            47    108      2      2         0.000000         1.000000         0.000000
296           108    171      2      2         0.000000         0.000000         1.000000
297           171    232      2      2         0.000000         1.000000         0.000000
298           232     47      2      2         0.000000         0.000000         1.000000
299            47    256      2      2         0.000000        -0.707107         0.707107
300           108    256      2      2         0.000000         0.707107         0.707107
301           171    256      2      2         0.000000        -0.707107         0.707107
302           232    256      2      2         0.000000         0.707107         0.707107
303            56    117      2      2         0.000000         1.000000         0.000000
304           117    180      2      2         0.000000         0.000000         1.000000
305           180    241      2      2         0.000000         1.000000         0.000000
306           241     56      2      2         0.000000         0.000000         1.000000
307            56    257      2      2         0.000000        -0.707107         0.707107
308           117    257      2      2         0.000000         0.707107         0.707107
309           180    257      2      2         0.000000        -0.707107         0.707107
310           241    257      2      2         0.000000         0.707107         0.707107
311            62    123      2      2         0.000000         1.000000         0.000000
312           123    186      2      2         0.000000         0.000000         1.000000
313           186    247      2      2         0.000000         1.000000         0.000000
314           247     62      2      2         0.000000         0.000000         1.000000
315            62    258      2      2         0.000000        -0.707107         0.707107
316           123    258      2      2         0.000000         0.707107         0.707107
317           186    258      2      2         0.000000        -0.707107         0.707107
318           247    258      2      2         0.000000         0.707107         0.707107

*ELEMENT, T3D2, 248
** ID  Node1  Node2  MaterialID  SectionID
1               1      2      1      1
2               2      3      1      1
3               3      4      1      1
4               4      5      1      1
5               5      6      1      1
6               6      7      1      1
7               7      8      1      1
8               8      9      1      1
9               9     10      1      1
10             10     11      1      1
11             11     12      1      1
12             12     13      1      1
13             13     14      1      1
14             14     15      1      1
15             15     16      1      1
16             16     17      1      1
17             17     18      1      1
18             18     19      1      1
19             19     20      1      1
20             20     21      1      1
21             21     22      1      1
22             22     23      1      1
23             23     24      1      1
24             24     25      1      1
25             25     26      1      1
26             26     27      1      1
27             27     28      1      1
28             28     29      1      1
29             29     30      1      1
30             30     31      1      1
31             31     32      1      1
32             32     33      1      1
33             33     34      1      1
34             34     35      1      1
35             35     36      1      1
36             36     37      1      1
37             37     38      1      1
38             38     39      1      1
39             39     40      1      1
40             40     41      1      1
41             41     42      1      1
42             42     43      1      1
43             43     44      1      1
44             44     45      1      1
45             45     46      1      1
46             46     47      1      1
47             47     48      1      1
48             48     49      1      1
49             49     50      1      1
50             50     51      1      1
51             51     52      1      1
52             52     53      1      1
53             53     54      1      1
54             54     55      1      1
55             55     56      1      1
56             56     57      1      1
57             57     58      1      1
58             58     59      1      1
59             59     60      1      1
60             60     61      1      1
61             61     62      1      1
62             62    124      1      1
63              1     63      1      1
64             63     64      1      1
65             64     65      1      1
66             65     66      1      1
67             66     67      1      1
68             67     68      1      1
69             68     69      1      1
70             69     70      1      1
71             70     71      1      1
72             71     72      1      1
73             72     73      1      1
74             73     74      1      1
75             74     75      1      1
76             75     76      1      1
77             76     77      1      1
78             77     78      1      1
79             78     79      1      1
80             79     80      1      1
81             80     81      1      1
82             81     82      1      1
83             82     83      1      1
84             83     84      1      1
85             84     85      1      1
86             85     86      1      1
87             86     87      1      1
88             87     88      1      1
89             88     89      1      1
90             89     90      1      1
91             90     91      1      1
92             91     92      1      1
93             92     93      1      1
94             93     94      1      1
95             94     95      1      1
96             95     96      1      1
97             96     97      1      1
98             97     98      1      1
99             98     99      1      1
100            99    100      1      1
101           100    101      1      1
102           101    102      1      1
103           102    103      1      1
104           103    104      1      1
105           104    105      1      1
106           105    106      1      1
107           106    107      1      1
108           107    108      1      1
109           108    109      1      1
110           109    110      1      1
111           110    111      1      1
112           111    112      1      1
113           112    113      1      1
114           113    114      1      1
115           114    115      1      1
116           115    116      1      1
117           116    117      1      1
118           117    118      1      1
119           118    119      1      1
120           119    120      1      1
121           120    121      1      1
122           121    122      1      1
123           122    123      1      1
124           123    124      1      1
125           125    126      1      1
126           126    127      1      1
127           127    128      1      1
128           128    129      1      1
129           129    130      1      1
130           130    131      1      1
131           131    132      1      1
132           132    133      1      1
133           133    134      1      1
134           134    135      1      1
135           135    136      1      1
136           136    137      1      1
137           137    138      1      1
138           138    139      1      1
139           139    140      1      1
140           140    141      1      1
141           141    142      1      1
142           142    143      1      1
143           143    144      1      1
144           144    145      1      1
145           145    146      1      1
146           146    147      1      1
147           147    148      1      1
148           148    149      1      1
149           149    150      1      1
150           150    151      1      1
151           151    152      1      1
152           152    153      1      1
153           153    154      1      1
154           154    155      1      1
155           155    156      1      1
156           156    157      1      1
157           157    158      1      1
158           158    159      1      1
159           159    160      1      1
160           160    161      1      1
161           161    162      1      1
162           162    163      1      1
163           163    164      1      1
164           164    165      1      1
165           165    166      1      1
166           166    167      1      1
167           167    168      1      1
168           168    169      1      1
169           169    170      1      1
170           170    171      1      1
171           171    172      1      1
172           172    173      1      1
173           173    174      1      1
174           174    175      1      1
175           175    176      1      1
176           176    177      1      1
177           177    178      1      1
178           178    179      1      1
179           179    180      1      1
180           180    181      1      1
181           181    182      1      1
182           182    183      1      1
183           183    184      1      1
184           184    185      1      1
185           185    186      1      1
186           186    248      1      1
187           125    187      1      1
188           187    188      1      1
189           188    189      1      1
190           189    190      1      1
191           190    191      1      1
192           191    192      1      1
193           192    193      1      1
194           193    194      1      1
195           194    195      1      1
196           195    196      1      1
197           196    197      1      1
198           197    198      1      1
199           198    199      1      1
200           199    200      1      1
201           200    201      1      1
202           201    202      1      1
203           202    203      1      1
204           203    204      1      1
205           204    205      1      1
206           205    206      1      1
207           206    207      1      1
208           207    208      1      1
209           208    209      1      1
210           209    210      1      1
211           210    211      1      1
212           211    212      1      1
213           212    213      1      1
214           213    214      1      1
215           214    215      1      1
216           215    216      1      1
217           216    217      1      1
218           217    218      1      1
219           218    219      1      1
220           219    220      1      1
221           220    221      1      1
222           221    222      1      1
223           222    223      1      1
224           223    224      1      1
225           224    225      1      1
226           225    226      1      1
227           226    227      1      1
228           227    228      1      1
229           228    229      1      1
230           229    230      1      1
231           230    231      1      1
232           231    232      1      1
233           232    233      1      1
234           233    234      1      1
235           234    235      1      1
236           235    236      1      1
237           236    237      1      1
238           237    238      1      1
239           238    239      1      1
240           239    240      1      1
241           240    241      1      1
242           241    242      1      1
243           242    243      1      1
244           243    244      1      1
245           244    245      1      1
246           245    246      1      1
247           246    247      1      1
248           247    248      1      1

*CONSTRAINT, 6
** ID  NodeID  Direction  Value
1             249      0         0.000000
2             249      1         0.000000
3             249      2         0.000000
4             250      0         0.000000
5             250      1         0.000000
6             250      2         0.000000

*LOAD, FORCE_GRAVITY, 1
** ID  NodeID/ElementID  Direction  Value
1               2        -9.806650      1

*STRESS, 318
** 单元编号  应力
1             +5.023883E+07
2             +5.022321E+07
3             +5.020812E+07
4             +5.019354E+07
5             +5.017950E+07
6             +5.016598E+07
7             +5.015299E+07
8             +5.014052E+07
9             +5.012858E+07
10            +5.011717E+07
11            +5.010629E+07
12            +5.009594E+07
13            +5.008611E+07
14            +5.007682E+07
15            +5.006805E+07
16            +5.005982E+07
17            +5.005211E+07
18            +5.004493E+07
19            +5.003829E+07
20            +5.003218E+07
21            +5.002659E+07
22            +5.002154E+07
23            +5.001702E+07
24            +5.001303E+07
25            +5.000958E+07
26            +5.000665E+07
27            +5.000426E+07
28            +5.000239E+07
29            +5.000106E+07
30            +5.000027E+07
31            +5.000000E+07
32            +5.000027E+07
33            +5.000106E+07
34            +5.000239E+07
35            +5.000426E+07
36            +5.000665E+07
37            +5.000958E+07
38            +5.001303E+07
39            +5.001702E+07
40            +5.002154E+07
41            +5.002659E+07
42            +5.003218E+07
43            +5.003829E+07
44            +5.004493E+07
45            +5.005211E+07
46            +5.005982E+07
47            +5.006805E+07
48            +5.007682E+07
49            +5.008611E+07
50            +5.009594E+07
51            +5.010629E+07
52            +5.011717E+07
53            +5.012858E+07
54            +5.014052E+07
55            +5.015299E+07
56            +5.016598E+07
57            +5.017950E+07
58            +5.019354E+07
59            +5.020812E+07
60            +5.022321E+07
61            +5.023883E+07
62            +5.023883E+07
63            +5.023883E+07
64            +5.022321E+07
65            +5.020812E+07
66            +5.019354E+07
67            +5.017950E+07
68            +5.016598E+07
69            +5.015299E+07
70            +5.014052E+07
71            +5.012858E+07
72            +5.011717E+07
73            +5.010629E+07
74            +5.009594E+07
75            +5.008611E+07
76            +5.007682E+07
77            +5.006805E+07
78            +5.005982E+07
79            +5.005211E+07
80            +5.004493E+07
81            +5.003829E+07
82            +5.003218E+07
83            +5.002659E+07
84            +5.002154E+07
85            +5.001702E+07
86            +5.001303E+07
87            +5.000958E+07
88            +5.000665E+07
89            +5.000426E+07
90            +5.000239E+07
91            +5.000106E+07
92            +5.000027E+07
93            +5.000000E+07
94            +5.000027E+07
95            +5.000106E+07
96            +5.000239E+07
97            +5.000426E+07
98            +5.000665E+07
99            +5.000958E+07
100           +5.001303E+07
101           +5.001702E+07
102           +5.002154E+07
103           +5.002659E+07
104           +5.003218E+07
105           +5.003829E+07
106           +5.004493E+07
107           +5.005211E+07
108           +5.005982E+07
109           +5.006805E+07
110           +5.007682E+07
111           +5.008611E+07
112           +5.009594E+07
113           +5.010629E+07
114           +5.011717E+07
115           +5.012858E+07
116           +5.014052E+07
117           +5.015299E+07
118           +5.016598E+07
119           +5.017950E+07
120           +5.019354E+07
121           +5.020812E+07
122           +5.022321E+07
123           +5.023883E+07
124           +5.023883E+07
125           +5.023883E+07
126           +5.022321E+07
127           +5.020812E+07
128           +5.019354E+07
129           +5.017950E+07
130           +5.016598E+07
131           +5.015299E+07
132           +5.014052E+07
133           +5.012858E+07
134           +5.011717E+07
135           +5.010629E+07
136           +5.009594E+07
137           +5.008611E+07
138           +5.007682E+07
139           +5.006805E+07
140           +5.005982E+07
141           +5.005211E+07
142           +5.004493E+07
143           +5.003829E+07
144           +5.003218E+07
145           +5.002659E+07
146           +5.002154E+07
147           +5.001702E+07
148           +5.001303E+07
149           +5.000958E+07
150           +5.000665E+07
151           +5.000426E+07
152           +5.000239E+07
153           +5.000106E+07
154           +5.000027E+07
155           +5.000000E+07
156           +5.000027E+07
157           +5.000106E+07
158           +5.000239E+07
159           +5.000426E+07
160           +5.000665E+07
161           +5.000958E+07
162           +5.001303E+07
163           +5.001702E+07
164           +5.002154E+07
165           +5.002659E+07
166           +5.003218E+07
167           +5.003829E+07
168           +5.004493E+07
169           +5.005211E+07
170           +5.005982E+07
171           +5.006805E+07
172           +5.007682E+07
173           +5.008611E+07
174           +5.009594E+07
175           +5.010629E+07
176           +5.011717E+07
177           +5.012858E+07
178           +5.014052E+07
179           +5.015299E+07
180           +5.016598E+07
181           +5.017950E+07
182           +5.019354E+07
183           +5.020812E+07
184           +5.022321E+07
185           +5.023883E+07
186           +5.023883E+07
187           +5.023883E+07
188           +5.022321E+07
189           +5.020812E+07
190           +5.019354E+07
191           +5.017950E+07
192           +5.016598E+07
193           +5.015299E+07
194           +5.014052E+07
195           +5.012858E+07
196           +5.011717E+07
197           +5.010629E+07
198           +5.009594E+07
199           +5.008611E+07
200           +5.007682E+07
201           +5.006805E+07
202           +5.005982E+07
203           +5.005211E+07
204           +5.004493E+07
205           +5.003829E+07
206           +5.003218E+07
207           +5.002659E+07
208           +5.002154E+07
209           +5.001702E+07
210           +5.001303E+07
211           +5.000958E+07
212           +5.000665E+07
213           +5.000426E+07
214           +5.000239E+07
215           +5.000106E+07
216           +5.000027E+07
217           +5.000000E+07
218           +5.000027E+07
219           +5.000106E+07
220           +5.000239E+07
221           +5.000426E+07
222           +5.000665E+07
223           +5.000958E+07
224           +5.001303E+07
225           +5.001702E+07
226           +5.002154E+07
227           +5.002659E+07
228           +5.003218E+07
229           +5.003829E+07
230           +5.004493E+07
231           +5.005211E+07
232           +5.005982E+07
233           +5.006805E+07
234           +5.007682E+07
235           +5.008611E+07
236           +5.009594E+07
237           +5.010629E+07
238           +5.011717E+07
239           +5.012858E+07
240           +5.014052E+07
241           +5.015299E+07
242           +5.016598E+07
243           +5.017950E+07
244           +5.019354E+07
245           +5.020812E+07
246           +5.022321E+07
247           +5.023883E+07
248           +5.023883E+07
249                0.000000
250                0.000000
251                0.000000
252                0.000000
253                0.000000
254                0.000000
255                0.000000
256                0.000000
257                0.000000
258                0.000000
259                0.000000
260                0.000000
261                0.000000
262                0.000000
263                0.000000
264                0.000000
265                0.000000
266                0.000000
267                0.000000
268                0.000000
269                0.000000
270                0.000000
271                0.000000
272                0.000000
273                0.000000
274                0.000000
275                0.000000
276                0.000000
277                0.000000
278                0.000000
279                0.000000
280                0.000000
281                0.000000
282                0.000000
283                0.000000
284                0.000000
285                0.000000
286                0.000000
287                0.000000
288                0.000000
289                0.000000
290                0.000000
291                0.000000
292                0.000000
293                0.000000
294                0.000000
295                0.000000
296                0.000000
297                0.000000
298                0.000000
299                0.000000
300                0.000000
301                0.000000
302                0.000000
303                0.000000
304                0.000000
305                0.000000
306                0.000000
307                0.000000
308                0.000000
309                0.000000
310                0.000000
311                0.000000
312                0.000000
313                0.000000
314                0.000000
315                0.000000
316                0.000000
317                0.000000
318                0.000000

*ANALYSIS_STEP, 1
** ID  Type  Time  StepSize  Tolerance  MaxIterations
1              STATIC         1.000000         0.010000    +1.000000E-05     50
