*MATERIAL, 1
** ID  弹性模量  泊松比  密度  许用应力  膨胀系数
1             +7.300000E+10         0.300000      3342.000000    +2.580000E+08    +1.960000E-05

*SECTION, 1
** ID  Area 或 Width Height
1                  0.000339

*NODE, 53
** ID  X  Y  Z
1                  0.000000         0.000000         0.000000
2             +9.951826E-05         0.000000    -9.803910E-06
3                  5.981958         0.000000        -0.577518
4                 11.966025         0.000000        -1.131659
5                 17.952213         0.000000        -1.662407
6                 23.940431         0.000000        -2.169739
7                 29.930589         0.000000        -2.653630
8                 35.922596         0.000000        -3.114059
9                 41.916361         0.000000        -3.551005
10                47.911793         0.000000        -3.964447
11                53.908801         0.000000        -4.354366
12                59.907293         0.000000        -4.720744
13                65.907177         0.000000        -5.063564
14                71.908362         0.000000        -5.382811
15                77.910756         0.000000        -5.678469
16                83.914265         0.000000        -5.950526
17                89.918798         0.000000        -6.198967
18                95.924262         0.000000        -6.423783
19               101.930564         0.000000        -6.624961
20               107.937612         0.000000        -6.802494
21               113.945312         0.000000        -6.956372
22               119.953572         0.000000        -7.086589
23               125.962298         0.000000        -7.193139
24               131.971397         0.000000        -7.276015
25               137.980776         0.000000        -7.335216
26               143.990341         0.000000        -7.370737
27               150.000000         0.000000        -7.382578
28               156.009659         0.000000        -7.370737
29               162.019224         0.000000        -7.335216
30               168.028603         0.000000        -7.276015
31               174.037702         0.000000        -7.193139
32               180.046428         0.000000        -7.086589
33               186.054688         0.000000        -6.956372
34               192.062388         0.000000        -6.802494
35               198.069436         0.000000        -6.624961
36               204.075738         0.000000        -6.423783
37               210.081202         0.000000        -6.198967
38               216.085735         0.000000        -5.950526
39               222.089244         0.000000        -5.678469
40               228.091638         0.000000        -5.382811
41               234.092823         0.000000        -5.063564
42               240.092707         0.000000        -4.720744
43               246.091199         0.000000        -4.354366
44               252.088207         0.000000        -3.964447
45               258.083639         0.000000        -3.551005
46               264.077404         0.000000        -3.114059
47               270.069411         0.000000        -2.653630
48               276.059569         0.000000        -2.169739
49               282.047787         0.000000        -1.662407
50               288.033975         0.000000        -1.131659
51               294.018042         0.000000        -0.577518
52               299.999900         0.000000    -9.803910E-06
53               300.000000         0.000000         0.000000

*ELEMENT, CABLE, 52
** ID  Node1  Node2  MaterialID  SectionID
1               1      2      1      1
2               2      3      1      1
3               3      4      1      1
4               4      5      1      1
5               5      6      1      1
6               6      7      1      1
7               7      8      1      1
8               8      9      1      1
9               9     10      1      1
10             10     11      1      1
11             11     12      1      1
12             12     13      1      1
13             13     14      1      1
14             14     15      1      1
15             15     16      1      1
16             16     17      1      1
17             17     18      1      1
18             18     19      1      1
19             19     20      1      1
20             20     21      1      1
21             21     22      1      1
22             22     23      1      1
23             23     24      1      1
24             24     25      1      1
25             25     26      1      1
26             26     27      1      1
27             27     28      1      1
28             28     29      1      1
29             29     30      1      1
30             30     31      1      1
31             31     32      1      1
32             32     33      1      1
33             33     34      1      1
34             34     35      1      1
35             35     36      1      1
36             36     37      1      1
37             37     38      1      1
38             38     39      1      1
39             39     40      1      1
40             40     41      1      1
41             41     42      1      1
42             42     43      1      1
43             43     44      1      1
44             44     45      1      1
45             45     46      1      1
46             46     47      1      1
47             47     48      1      1
48             48     49      1      1
49             49     50      1      1
50             50     51      1      1
51             51     52      1      1
52             52     53      1      1

*CONSTRAINT, 8
** ID  NodeID  Direction  Value
1               1      0         0.000000
2               1      1         0.000000
3               1      2         0.000000
4               1      3         0.000000
5              53      0         0.000000
6              53      1         0.000000
7              53      2         0.000000
8              53      3         0.000000

*LOAD, FORCE_GRAVITY, 1
** ID  NodeID/ElementID  Direction  Value
1               2        -9.806650      1

*STRESS, 52
** 单元编号  应力
1             +5.000000E+07
2             +5.000000E+07
3             +5.000000E+07
4             +5.000000E+07
5             +5.000000E+07
6             +5.000000E+07
7             +5.000000E+07
8             +5.000000E+07
9             +5.000000E+07
10            +5.000000E+07
11            +5.000000E+07
12            +5.000000E+07
13            +5.000000E+07
14            +5.000000E+07
15            +5.000000E+07
16            +5.000000E+07
17            +5.000000E+07
18            +5.000000E+07
19            +5.000000E+07
20            +5.000000E+07
21            +5.000000E+07
22            +5.000000E+07
23            +5.000000E+07
24            +5.000000E+07
25            +5.000000E+07
26            +5.000000E+07
27            +5.000000E+07
28            +5.000000E+07
29            +5.000000E+07
30            +5.000000E+07
31            +5.000000E+07
32            +5.000000E+07
33            +5.000000E+07
34            +5.000000E+07
35            +5.000000E+07
36            +5.000000E+07
37            +5.000000E+07
38            +5.000000E+07
39            +5.000000E+07
40            +5.000000E+07
41            +5.000000E+07
42            +5.000000E+07
43            +5.000000E+07
44            +5.000000E+07
45            +5.000000E+07
46            +5.000000E+07
47            +5.000000E+07
48            +5.000000E+07
49            +5.000000E+07
50            +5.000000E+07
51            +5.000000E+07
52            +5.000000E+07

*ANALYSIS_STEP, 1
** ID  Type  Time  StepSize  Tolerance  MaxIterations
1              STATIC         1.000000         0.010000    +1.000000E-05     50
