*MATERIAL, 1
** ID  弹性模量  泊松比  密度  许用应力  膨胀系数
1             +7.300000E+10         0.300000      3342.000000    +2.580000E+08    +1.960000E-05

*SECTION, 1
** ID  Area 或 Width Height
1                  0.000339

*NODE, 53
** ID  X  Y  Z
1                  0.000000         0.000000         0.000000
2                  0.997875         0.000000        -0.065150
3                  4.952735         0.000000        -0.316925
4                  8.908233         0.000000        -0.558462
5                 12.864343         0.000000        -0.789757
6                 16.821039         0.000000        -1.010804
7                 20.778295         0.000000        -1.221600
8                 24.736083         0.000000        -1.422141
9                 28.694378         0.000000        -1.612421
10                32.653153         0.000000        -1.792439
11                36.612382         0.000000        -1.962188
12                40.572037         0.000000        -2.121667
13                44.532093         0.000000        -2.270873
14                48.492523         0.000000        -2.409801
15                52.453300         0.000000        -2.538450
16                56.414398         0.000000        -2.656816
17                60.375789         0.000000        -2.764897
18                64.337448         0.000000        -2.862692
19                68.299348         0.000000        -2.950198
20                72.261461         0.000000        -3.027413
21                76.223762         0.000000        -3.094336
22                80.186223         0.000000        -3.150966
23                84.148818         0.000000        -3.197300
24                88.111520         0.000000        -3.233340
25                92.074302         0.000000        -3.259082
26                96.037138         0.000000        -3.274528
27               100.000000         0.000000        -3.279677
28               103.962862         0.000000        -3.274528
29               107.925698         0.000000        -3.259082
30               111.888480         0.000000        -3.233340
31               115.851182         0.000000        -3.197300
32               119.813777         0.000000        -3.150966
33               123.776238         0.000000        -3.094336
34               127.738539         0.000000        -3.027413
35               131.700652         0.000000        -2.950198
36               135.662552         0.000000        -2.862692
37               139.624211         0.000000        -2.764897
38               143.585602         0.000000        -2.656816
39               147.546700         0.000000        -2.538450
40               151.507477         0.000000        -2.409801
41               155.467907         0.000000        -2.270873
42               159.427963         0.000000        -2.121667
43               163.387618         0.000000        -1.962188
44               167.346847         0.000000        -1.792439
45               171.305622         0.000000        -1.612421
46               175.263917         0.000000        -1.422141
47               179.221705         0.000000        -1.221600
48               183.178961         0.000000        -1.010804
49               187.135657         0.000000        -0.789757
50               191.091767         0.000000        -0.558462
51               195.047265         0.000000        -0.316925
52               199.002125         0.000000        -0.065150
53               200.000000         0.000000         0.000000

*ELEMENT, CABLE, 52
** ID  Node1  Node2  MaterialID  SectionID
1               1      2      1      1
2               2      3      1      1
3               3      4      1      1
4               4      5      1      1
5               5      6      1      1
6               6      7      1      1
7               7      8      1      1
8               8      9      1      1
9               9     10      1      1
10             10     11      1      1
11             11     12      1      1
12             12     13      1      1
13             13     14      1      1
14             14     15      1      1
15             15     16      1      1
16             16     17      1      1
17             17     18      1      1
18             18     19      1      1
19             19     20      1      1
20             20     21      1      1
21             21     22      1      1
22             22     23      1      1
23             23     24      1      1
24             24     25      1      1
25             25     26      1      1
26             26     27      1      1
27             27     28      1      1
28             28     29      1      1
29             29     30      1      1
30             30     31      1      1
31             31     32      1      1
32             32     33      1      1
33             33     34      1      1
34             34     35      1      1
35             35     36      1      1
36             36     37      1      1
37             37     38      1      1
38             38     39      1      1
39             39     40      1      1
40             40     41      1      1
41             41     42      1      1
42             42     43      1      1
43             43     44      1      1
44             44     45      1      1
45             45     46      1      1
46             46     47      1      1
47             47     48      1      1
48             48     49      1      1
49             49     50      1      1
50             50     51      1      1
51             51     52      1      1
52             52     53      1      1

*CONSTRAINT, 8
** ID  NodeID  Direction  Value
1               1      0         0.000000
2               1      1         0.000000
3               1      2         0.000000
4               1      3         0.000000
5              53      0         0.000000
6              53      1         0.000000
7              53      2         0.000000
8              53      3         0.000000

*LOAD, FORCE_GRAVITY, 1
** ID  NodeID/ElementID  Direction  Value
1               2        -9.806650      1

*STRESS, 52
** 单元编号  应力
1             +5.000000E+07
2             +5.000000E+07
3             +5.000000E+07
4             +5.000000E+07
5             +5.000000E+07
6             +5.000000E+07
7             +5.000000E+07
8             +5.000000E+07
9             +5.000000E+07
10            +5.000000E+07
11            +5.000000E+07
12            +5.000000E+07
13            +5.000000E+07
14            +5.000000E+07
15            +5.000000E+07
16            +5.000000E+07
17            +5.000000E+07
18            +5.000000E+07
19            +5.000000E+07
20            +5.000000E+07
21            +5.000000E+07
22            +5.000000E+07
23            +5.000000E+07
24            +5.000000E+07
25            +5.000000E+07
26            +5.000000E+07
27            +5.000000E+07
28            +5.000000E+07
29            +5.000000E+07
30            +5.000000E+07
31            +5.000000E+07
32            +5.000000E+07
33            +5.000000E+07
34            +5.000000E+07
35            +5.000000E+07
36            +5.000000E+07
37            +5.000000E+07
38            +5.000000E+07
39            +5.000000E+07
40            +5.000000E+07
41            +5.000000E+07
42            +5.000000E+07
43            +5.000000E+07
44            +5.000000E+07
45            +5.000000E+07
46            +5.000000E+07
47            +5.000000E+07
48            +5.000000E+07
49            +5.000000E+07
50            +5.000000E+07
51            +5.000000E+07
52            +5.000000E+07

*ANALYSIS_STEP, 1
** ID  Type  Time  StepSize  Tolerance  MaxIterations
1              STATIC         1.000000         0.010000    +1.000000E-05     50
