*MATERIAL, 1
** ID  弹性模量  泊松比  密度  许用应力  膨胀系数
1             +7.000000E+10         0.300000      3836.000000    +2.580000E+08    +1.960000E-05

*SECTION, 1
** ID  Area 或 Width Height
1                  0.000452

*NODE, 53
** ID  X  Y  Z
1                  0.000000         0.000000         0.000000
2                  0.997202         0.000000        -0.074747
3                  4.950433         0.000000        -0.363685
4                  8.904504         0.000000        -0.640889
5                 12.859381         0.000000        -0.906351
6                 16.815029         0.000000        -1.160064
7                 20.771413         0.000000        -1.402021
8                 24.728499         0.000000        -1.632217
9                 28.686252         0.000000        -1.850644
10                32.644637         0.000000        -2.057297
11                36.603620         0.000000        -2.252171
12                40.563165         0.000000        -2.435261
13                44.523238         0.000000        -2.606561
14                48.483803         0.000000        -2.766067
15                52.444826         0.000000        -2.913775
16                56.406271         0.000000        -3.049681
17                60.368104         0.000000        -3.173781
18                64.330289         0.000000        -3.286072
19                68.292791         0.000000        -3.386551
20                72.255575         0.000000        -3.475215
21                76.218606         0.000000        -3.552062
22                80.181848         0.000000        -3.617090
23                84.145267         0.000000        -3.670297
24                88.108827         0.000000        -3.711682
25                92.072492         0.000000        -3.741243
26                96.036229         0.000000        -3.758980
27               100.000000         0.000000        -3.764893
28               103.963771         0.000000        -3.758980
29               107.927508         0.000000        -3.741243
30               111.891173         0.000000        -3.711682
31               115.854733         0.000000        -3.670297
32               119.818152         0.000000        -3.617090
33               123.781394         0.000000        -3.552062
34               127.744425         0.000000        -3.475215
35               131.707209         0.000000        -3.386551
36               135.669711         0.000000        -3.286072
37               139.631896         0.000000        -3.173781
38               143.593729         0.000000        -3.049681
39               147.555174         0.000000        -2.913775
40               151.516197         0.000000        -2.766067
41               155.476762         0.000000        -2.606561
42               159.436835         0.000000        -2.435261
43               163.396380         0.000000        -2.252171
44               167.355363         0.000000        -2.057297
45               171.313748         0.000000        -1.850644
46               175.271501         0.000000        -1.632217
47               179.228587         0.000000        -1.402021
48               183.184971         0.000000        -1.160064
49               187.140619         0.000000        -0.906351
50               191.095496         0.000000        -0.640889
51               195.049567         0.000000        -0.363685
52               199.002798         0.000000        -0.074747
53               200.000000         0.000000         0.000000

*ELEMENT, CABLE, 52
** ID  Node1  Node2  MaterialID  SectionID
1               1      2      1      1
2               2      3      1      1
3               3      4      1      1
4               4      5      1      1
5               5      6      1      1
6               6      7      1      1
7               7      8      1      1
8               8      9      1      1
9               9     10      1      1
10             10     11      1      1
11             11     12      1      1
12             12     13      1      1
13             13     14      1      1
14             14     15      1      1
15             15     16      1      1
16             16     17      1      1
17             17     18      1      1
18             18     19      1      1
19             19     20      1      1
20             20     21      1      1
21             21     22      1      1
22             22     23      1      1
23             23     24      1      1
24             24     25      1      1
25             25     26      1      1
26             26     27      1      1
27             27     28      1      1
28             28     29      1      1
29             29     30      1      1
30             30     31      1      1
31             31     32      1      1
32             32     33      1      1
33             33     34      1      1
34             34     35      1      1
35             35     36      1      1
36             36     37      1      1
37             37     38      1      1
38             38     39      1      1
39             39     40      1      1
40             40     41      1      1
41             41     42      1      1
42             42     43      1      1
43             43     44      1      1
44             44     45      1      1
45             45     46      1      1
46             46     47      1      1
47             47     48      1      1
48             48     49      1      1
49             49     50      1      1
50             50     51      1      1
51             51     52      1      1
52             52     53      1      1

*CONSTRAINT, 8
** ID  NodeID  Direction  Value
1               1      0         0.000000
2               1      1         0.000000
3               1      2         0.000000
4               1      3         0.000000
5              53      0         0.000000
6              53      1         0.000000
7              53      2         0.000000
8              53      3         0.000000

*LOAD, FORCE_GRAVITY, 1
** ID  NodeID/ElementID  Direction  Value
1               2        -9.806650      1

*STRESS, 52
** 单元编号  应力
1             +5.000000E+07
2             +5.000000E+07
3             +5.000000E+07
4             +5.000000E+07
5             +5.000000E+07
6             +5.000000E+07
7             +5.000000E+07
8             +5.000000E+07
9             +5.000000E+07
10            +5.000000E+07
11            +5.000000E+07
12            +5.000000E+07
13            +5.000000E+07
14            +5.000000E+07
15            +5.000000E+07
16            +5.000000E+07
17            +5.000000E+07
18            +5.000000E+07
19            +5.000000E+07
20            +5.000000E+07
21            +5.000000E+07
22            +5.000000E+07
23            +5.000000E+07
24            +5.000000E+07
25            +5.000000E+07
26            +5.000000E+07
27            +5.000000E+07
28            +5.000000E+07
29            +5.000000E+07
30            +5.000000E+07
31            +5.000000E+07
32            +5.000000E+07
33            +5.000000E+07
34            +5.000000E+07
35            +5.000000E+07
36            +5.000000E+07
37            +5.000000E+07
38            +5.000000E+07
39            +5.000000E+07
40            +5.000000E+07
41            +5.000000E+07
42            +5.000000E+07
43            +5.000000E+07
44            +5.000000E+07
45            +5.000000E+07
46            +5.000000E+07
47            +5.000000E+07
48            +5.000000E+07
49            +5.000000E+07
50            +5.000000E+07
51            +5.000000E+07
52            +5.000000E+07

*ANALYSIS_STEP, 1
** ID  Type  Time  StepSize  Tolerance  MaxIterations
1              STATIC         1.000000         0.010000    +1.000000E-05     50
