*MATERIAL, 2
** ID  弹性模量  泊松比  密度  许用应力  膨胀系数
1             +7.300000E+10         0.300000      3342.000000    +2.580000E+08    +1.960000E-05
2             +7.300000E+10         0.300000      3342.000000    +2.580000E+08    +1.960000E-05

*SECTION, 2
** ID  Area 或 Width Height
1                  0.000339
2                  0.000339

*NODE, 212
** ID  X  Y  Z
1                  0.000000        -0.200000        -0.200000
2                  0.995214        -0.200000        -0.297716
3                  6.937625        -0.200000        -0.867598
4                 12.882203        -0.200000        -1.414418
5                 18.828859        -0.200000        -1.938152
6                 24.777505        -0.200000        -2.438777
7                 30.728053        -0.200000        -2.916270
8                 36.680413        -0.200000        -3.370608
9                 42.634497        -0.200000        -3.801772
10                48.590214        -0.200000        -4.209742
11                54.547477        -0.200000        -4.594499
12                60.506194        -0.200000        -4.956026
13                66.466277        -0.200000        -5.294306
14                72.427634        -0.200000        -5.609323
15                78.390176        -0.200000        -5.901064
16                84.353811        -0.200000        -6.169515
17                90.318450        -0.200000        -6.414664
18                96.284001        -0.200000        -6.636498
19               102.250375        -0.200000        -6.835010
20               108.217478        -0.200000        -7.010188
21               114.185222        -0.200000        -7.162026
22               120.153513        -0.200000        -7.290516
23               126.122262        -0.200000        -7.395652
24               132.091376        -0.200000        -7.477429
25               138.060765        -0.200000        -7.535844
26               144.030337        -0.200000        -7.570894
27               150.000000        -0.200000        -7.582578
28               155.969663        -0.200000        -7.570894
29               161.939235        -0.200000        -7.535844
30               167.908624        -0.200000        -7.477429
31               173.877738        -0.200000        -7.395652
32               179.846487        -0.200000        -7.290516
33               185.814778        -0.200000        -7.162026
34               191.782522        -0.200000        -7.010188
35               197.749625        -0.200000        -6.835010
36               203.715999        -0.200000        -6.636498
37               209.681550        -0.200000        -6.414664
38               215.646189        -0.200000        -6.169515
39               221.609824        -0.200000        -5.901064
40               227.572366        -0.200000        -5.609323
41               233.533723        -0.200000        -5.294306
42               239.493806        -0.200000        -4.956026
43               245.452523        -0.200000        -4.594499
44               251.409786        -0.200000        -4.209742
45               257.365503        -0.200000        -3.801772
46               263.319587        -0.200000        -3.370608
47               269.271947        -0.200000        -2.916270
48               275.222495        -0.200000        -2.438777
49               281.171141        -0.200000        -1.938152
50               287.117797        -0.200000        -1.414418
51               293.062375        -0.200000        -0.867598
52               299.004786        -0.200000        -0.297716
53               300.000000        -0.200000        -0.200000
54                 0.000000        -0.200000         0.200000
55                 0.995214        -0.200000         0.102284
56                 6.937625        -0.200000        -0.467598
57                12.882203        -0.200000        -1.014418
58                18.828859        -0.200000        -1.538152
59                24.777505        -0.200000        -2.038777
60                30.728053        -0.200000        -2.516270
61                36.680413        -0.200000        -2.970608
62                42.634497        -0.200000        -3.401772
63                48.590214        -0.200000        -3.809742
64                54.547477        -0.200000        -4.194499
65                60.506194        -0.200000        -4.556026
66                66.466277        -0.200000        -4.894306
67                72.427634        -0.200000        -5.209323
68                78.390176        -0.200000        -5.501064
69                84.353811        -0.200000        -5.769515
70                90.318450        -0.200000        -6.014664
71                96.284001        -0.200000        -6.236498
72               102.250375        -0.200000        -6.435010
73               108.217478        -0.200000        -6.610188
74               114.185222        -0.200000        -6.762026
75               120.153513        -0.200000        -6.890516
76               126.122262        -0.200000        -6.995652
77               132.091376        -0.200000        -7.077429
78               138.060765        -0.200000        -7.135844
79               144.030337        -0.200000        -7.170894
80               150.000000        -0.200000        -7.182578
81               155.969663        -0.200000        -7.170894
82               161.939235        -0.200000        -7.135844
83               167.908624        -0.200000        -7.077429
84               173.877738        -0.200000        -6.995652
85               179.846487        -0.200000        -6.890516
86               185.814778        -0.200000        -6.762026
87               191.782522        -0.200000        -6.610188
88               197.749625        -0.200000        -6.435010
89               203.715999        -0.200000        -6.236498
90               209.681550        -0.200000        -6.014664
91               215.646189        -0.200000        -5.769515
92               221.609824        -0.200000        -5.501064
93               227.572366        -0.200000        -5.209323
94               233.533723        -0.200000        -4.894306
95               239.493806        -0.200000        -4.556026
96               245.452523        -0.200000        -4.194499
97               251.409786        -0.200000        -3.809742
98               257.365503        -0.200000        -3.401772
99               263.319587        -0.200000        -2.970608
100              269.271947        -0.200000        -2.516270
101              275.222495        -0.200000        -2.038777
102              281.171141        -0.200000        -1.538152
103              287.117797        -0.200000        -1.014418
104              293.062375        -0.200000        -0.467598
105              299.004786        -0.200000         0.102284
106              300.000000        -0.200000         0.200000
107                0.000000         0.200000         0.200000
108                0.995214         0.200000         0.102284
109                6.937625         0.200000        -0.467598
110               12.882203         0.200000        -1.014418
111               18.828859         0.200000        -1.538152
112               24.777505         0.200000        -2.038777
113               30.728053         0.200000        -2.516270
114               36.680413         0.200000        -2.970608
115               42.634497         0.200000        -3.401772
116               48.590214         0.200000        -3.809742
117               54.547477         0.200000        -4.194499
118               60.506194         0.200000        -4.556026
119               66.466277         0.200000        -4.894306
120               72.427634         0.200000        -5.209323
121               78.390176         0.200000        -5.501064
122               84.353811         0.200000        -5.769515
123               90.318450         0.200000        -6.014664
124               96.284001         0.200000        -6.236498
125              102.250375         0.200000        -6.435010
126              108.217478         0.200000        -6.610188
127              114.185222         0.200000        -6.762026
128              120.153513         0.200000        -6.890516
129              126.122262         0.200000        -6.995652
130              132.091376         0.200000        -7.077429
131              138.060765         0.200000        -7.135844
132              144.030337         0.200000        -7.170894
133              150.000000         0.200000        -7.182578
134              155.969663         0.200000        -7.170894
135              161.939235         0.200000        -7.135844
136              167.908624         0.200000        -7.077429
137              173.877738         0.200000        -6.995652
138              179.846487         0.200000        -6.890516
139              185.814778         0.200000        -6.762026
140              191.782522         0.200000        -6.610188
141              197.749625         0.200000        -6.435010
142              203.715999         0.200000        -6.236498
143              209.681550         0.200000        -6.014664
144              215.646189         0.200000        -5.769515
145              221.609824         0.200000        -5.501064
146              227.572366         0.200000        -5.209323
147              233.533723         0.200000        -4.894306
148              239.493806         0.200000        -4.556026
149              245.452523         0.200000        -4.194499
150              251.409786         0.200000        -3.809742
151              257.365503         0.200000        -3.401772
152              263.319587         0.200000        -2.970608
153              269.271947         0.200000        -2.516270
154              275.222495         0.200000        -2.038777
155              281.171141         0.200000        -1.538152
156              287.117797         0.200000        -1.014418
157              293.062375         0.200000        -0.467598
158              299.004786         0.200000         0.102284
159              300.000000         0.200000         0.200000
160                0.000000         0.200000        -0.200000
161                0.995214         0.200000        -0.297716
162                6.937625         0.200000        -0.867598
163               12.882203         0.200000        -1.414418
164               18.828859         0.200000        -1.938152
165               24.777505         0.200000        -2.438777
166               30.728053         0.200000        -2.916270
167               36.680413         0.200000        -3.370608
168               42.634497         0.200000        -3.801772
169               48.590214         0.200000        -4.209742
170               54.547477         0.200000        -4.594499
171               60.506194         0.200000        -4.956026
172               66.466277         0.200000        -5.294306
173               72.427634         0.200000        -5.609323
174               78.390176         0.200000        -5.901064
175               84.353811         0.200000        -6.169515
176               90.318450         0.200000        -6.414664
177               96.284001         0.200000        -6.636498
178              102.250375         0.200000        -6.835010
179              108.217478         0.200000        -7.010188
180              114.185222         0.200000        -7.162026
181              120.153513         0.200000        -7.290516
182              126.122262         0.200000        -7.395652
183              132.091376         0.200000        -7.477429
184              138.060765         0.200000        -7.535844
185              144.030337         0.200000        -7.570894
186              150.000000         0.200000        -7.582578
187              155.969663         0.200000        -7.570894
188              161.939235         0.200000        -7.535844
189              167.908624         0.200000        -7.477429
190              173.877738         0.200000        -7.395652
191              179.846487         0.200000        -7.290516
192              185.814778         0.200000        -7.162026
193              191.782522         0.200000        -7.010188
194              197.749625         0.200000        -6.835010
195              203.715999         0.200000        -6.636498
196              209.681550         0.200000        -6.414664
197              215.646189         0.200000        -6.169515
198              221.609824         0.200000        -5.901064
199              227.572366         0.200000        -5.609323
200              233.533723         0.200000        -5.294306
201              239.493806         0.200000        -4.956026
202              245.452523         0.200000        -4.594499
203              251.409786         0.200000        -4.209742
204              257.365503         0.200000        -3.801772
205              263.319587         0.200000        -3.370608
206              269.271947         0.200000        -2.916270
207              275.222495         0.200000        -2.438777
208              281.171141         0.200000        -1.938152
209              287.117797         0.200000        -1.414418
210              293.062375         0.200000        -0.867598
211              299.004786         0.200000        -0.297716
212              300.000000         0.200000        -0.200000

*ELEMENT, CABLE, 208
** ID  Node1  Node2  MaterialID  SectionID
1               1      2      1      1
2               2      3      1      1
3               3      4      1      1
4               4      5      1      1
5               5      6      1      1
6               6      7      1      1
7               7      8      1      1
8               8      9      1      1
9               9     10      1      1
10             10     11      1      1
11             11     12      1      1
12             12     13      1      1
13             13     14      1      1
14             14     15      1      1
15             15     16      1      1
16             16     17      1      1
17             17     18      1      1
18             18     19      1      1
19             19     20      1      1
20             20     21      1      1
21             21     22      1      1
22             22     23      1      1
23             23     24      1      1
24             24     25      1      1
25             25     26      1      1
26             26     27      1      1
27             27     28      1      1
28             28     29      1      1
29             29     30      1      1
30             30     31      1      1
31             31     32      1      1
32             32     33      1      1
33             33     34      1      1
34             34     35      1      1
35             35     36      1      1
36             36     37      1      1
37             37     38      1      1
38             38     39      1      1
39             39     40      1      1
40             40     41      1      1
41             41     42      1      1
42             42     43      1      1
43             43     44      1      1
44             44     45      1      1
45             45     46      1      1
46             46     47      1      1
47             47     48      1      1
48             48     49      1      1
49             49     50      1      1
50             50     51      1      1
51             51     52      1      1
52             52     53      1      1
53             54     55      1      1
54             55     56      1      1
55             56     57      1      1
56             57     58      1      1
57             58     59      1      1
58             59     60      1      1
59             60     61      1      1
60             61     62      1      1
61             62     63      1      1
62             63     64      1      1
63             64     65      1      1
64             65     66      1      1
65             66     67      1      1
66             67     68      1      1
67             68     69      1      1
68             69     70      1      1
69             70     71      1      1
70             71     72      1      1
71             72     73      1      1
72             73     74      1      1
73             74     75      1      1
74             75     76      1      1
75             76     77      1      1
76             77     78      1      1
77             78     79      1      1
78             79     80      1      1
79             80     81      1      1
80             81     82      1      1
81             82     83      1      1
82             83     84      1      1
83             84     85      1      1
84             85     86      1      1
85             86     87      1      1
86             87     88      1      1
87             88     89      1      1
88             89     90      1      1
89             90     91      1      1
90             91     92      1      1
91             92     93      1      1
92             93     94      1      1
93             94     95      1      1
94             95     96      1      1
95             96     97      1      1
96             97     98      1      1
97             98     99      1      1
98             99    100      1      1
99            100    101      1      1
100           101    102      1      1
101           102    103      1      1
102           103    104      1      1
103           104    105      1      1
104           105    106      1      1
105           107    108      1      1
106           108    109      1      1
107           109    110      1      1
108           110    111      1      1
109           111    112      1      1
110           112    113      1      1
111           113    114      1      1
112           114    115      1      1
113           115    116      1      1
114           116    117      1      1
115           117    118      1      1
116           118    119      1      1
117           119    120      1      1
118           120    121      1      1
119           121    122      1      1
120           122    123      1      1
121           123    124      1      1
122           124    125      1      1
123           125    126      1      1
124           126    127      1      1
125           127    128      1      1
126           128    129      1      1
127           129    130      1      1
128           130    131      1      1
129           131    132      1      1
130           132    133      1      1
131           133    134      1      1
132           134    135      1      1
133           135    136      1      1
134           136    137      1      1
135           137    138      1      1
136           138    139      1      1
137           139    140      1      1
138           140    141      1      1
139           141    142      1      1
140           142    143      1      1
141           143    144      1      1
142           144    145      1      1
143           145    146      1      1
144           146    147      1      1
145           147    148      1      1
146           148    149      1      1
147           149    150      1      1
148           150    151      1      1
149           151    152      1      1
150           152    153      1      1
151           153    154      1      1
152           154    155      1      1
153           155    156      1      1
154           156    157      1      1
155           157    158      1      1
156           158    159      1      1
157           160    161      1      1
158           161    162      1      1
159           162    163      1      1
160           163    164      1      1
161           164    165      1      1
162           165    166      1      1
163           166    167      1      1
164           167    168      1      1
165           168    169      1      1
166           169    170      1      1
167           170    171      1      1
168           171    172      1      1
169           172    173      1      1
170           173    174      1      1
171           174    175      1      1
172           175    176      1      1
173           176    177      1      1
174           177    178      1      1
175           178    179      1      1
176           179    180      1      1
177           180    181      1      1
178           181    182      1      1
179           182    183      1      1
180           183    184      1      1
181           184    185      1      1
182           185    186      1      1
183           186    187      1      1
184           187    188      1      1
185           188    189      1      1
186           189    190      1      1
187           190    191      1      1
188           191    192      1      1
189           192    193      1      1
190           193    194      1      1
191           194    195      1      1
192           195    196      1      1
193           196    197      1      1
194           197    198      1      1
195           198    199      1      1
196           199    200      1      1
197           200    201      1      1
198           201    202      1      1
199           202    203      1      1
200           203    204      1      1
201           204    205      1      1
202           205    206      1      1
203           206    207      1      1
204           207    208      1      1
205           208    209      1      1
206           209    210      1      1
207           210    211      1      1
208           211    212      1      1

*ELEMENT, CR3D, 32
** ID  Node1  Node2  MaterialID  SectionID  q0x  q0y  q0z
209             2     55      2      2         0.000000         1.000000         0.000000
210            55    108      2      2         0.000000         0.000000         1.000000
211           108    161      2      2         0.000000         1.000000         0.000000
212           161      2      2      2         0.000000         0.000000         1.000000
213             7     60      2      2         0.000000         1.000000         0.000000
214            60    113      2      2         0.000000         0.000000         1.000000
215           113    166      2      2         0.000000         1.000000         0.000000
216           166      7      2      2         0.000000         0.000000         1.000000
217            15     68      2      2         0.000000         1.000000         0.000000
218            68    121      2      2         0.000000         0.000000         1.000000
219           121    174      2      2         0.000000         1.000000         0.000000
220           174     15      2      2         0.000000         0.000000         1.000000
221            24     77      2      2         0.000000         1.000000         0.000000
222            77    130      2      2         0.000000         0.000000         1.000000
223           130    183      2      2         0.000000         1.000000         0.000000
224           183     24      2      2         0.000000         0.000000         1.000000
225            32     85      2      2         0.000000         1.000000         0.000000
226            85    138      2      2         0.000000         0.000000         1.000000
227           138    191      2      2         0.000000         1.000000         0.000000
228           191     32      2      2         0.000000         0.000000         1.000000
229            40     93      2      2         0.000000         1.000000         0.000000
230            93    146      2      2         0.000000         0.000000         1.000000
231           146    199      2      2         0.000000         1.000000         0.000000
232           199     40      2      2         0.000000         0.000000         1.000000
233            47    100      2      2         0.000000         1.000000         0.000000
234           100    153      2      2         0.000000         0.000000         1.000000
235           153    206      2      2         0.000000         1.000000         0.000000
236           206     47      2      2         0.000000         0.000000         1.000000
237            52    105      2      2         0.000000         1.000000         0.000000
238           105    158      2      2         0.000000         0.000000         1.000000
239           158    211      2      2         0.000000         1.000000         0.000000
240           211     52      2      2         0.000000         0.000000         1.000000

*CONSTRAINT, 32
** ID  NodeID  Direction  Value
1               1      0         0.000000
2               1      1         0.000000
3               1      2         0.000000
4               1      3         0.000000
5              53      0         0.000000
6              53      1         0.000000
7              53      2         0.000000
8              53      3         0.000000
9              54      0         0.000000
10             54      1         0.000000
11             54      2         0.000000
12             54      3         0.000000
13            106      0         0.000000
14            106      1         0.000000
15            106      2         0.000000
16            106      3         0.000000
17            107      0         0.000000
18            107      1         0.000000
19            107      2         0.000000
20            107      3         0.000000
21            159      0         0.000000
22            159      1         0.000000
23            159      2         0.000000
24            159      3         0.000000
25            160      0         0.000000
26            160      1         0.000000
27            160      2         0.000000
28            160      3         0.000000
29            212      0         0.000000
30            212      1         0.000000
31            212      2         0.000000
32            212      3         0.000000

*LOAD, FORCE_GRAVITY, 1
** ID  NodeID/ElementID  Direction  Value
1               2        -9.806650      1

*STRESS, 240
** 单元编号  应力
1             +5.000000E+07
2             +5.000000E+07
3             +5.000000E+07
4             +5.000000E+07
5             +5.000000E+07
6             +5.000000E+07
7             +5.000000E+07
8             +5.000000E+07
9             +5.000000E+07
10            +5.000000E+07
11            +5.000000E+07
12            +5.000000E+07
13            +5.000000E+07
14            +5.000000E+07
15            +5.000000E+07
16            +5.000000E+07
17            +5.000000E+07
18            +5.000000E+07
19            +5.000000E+07
20            +5.000000E+07
21            +5.000000E+07
22            +5.000000E+07
23            +5.000000E+07
24            +5.000000E+07
25            +5.000000E+07
26            +5.000000E+07
27            +5.000000E+07
28            +5.000000E+07
29            +5.000000E+07
30            +5.000000E+07
31            +5.000000E+07
32            +5.000000E+07
33            +5.000000E+07
34            +5.000000E+07
35            +5.000000E+07
36            +5.000000E+07
37            +5.000000E+07
38            +5.000000E+07
39            +5.000000E+07
40            +5.000000E+07
41            +5.000000E+07
42            +5.000000E+07
43            +5.000000E+07
44            +5.000000E+07
45            +5.000000E+07
46            +5.000000E+07
47            +5.000000E+07
48            +5.000000E+07
49            +5.000000E+07
50            +5.000000E+07
51            +5.000000E+07
52            +5.000000E+07
53            +5.000000E+07
54            +5.000000E+07
55            +5.000000E+07
56            +5.000000E+07
57            +5.000000E+07
58            +5.000000E+07
59            +5.000000E+07
60            +5.000000E+07
61            +5.000000E+07
62            +5.000000E+07
63            +5.000000E+07
64            +5.000000E+07
65            +5.000000E+07
66            +5.000000E+07
67            +5.000000E+07
68            +5.000000E+07
69            +5.000000E+07
70            +5.000000E+07
71            +5.000000E+07
72            +5.000000E+07
73            +5.000000E+07
74            +5.000000E+07
75            +5.000000E+07
76            +5.000000E+07
77            +5.000000E+07
78            +5.000000E+07
79            +5.000000E+07
80            +5.000000E+07
81            +5.000000E+07
82            +5.000000E+07
83            +5.000000E+07
84            +5.000000E+07
85            +5.000000E+07
86            +5.000000E+07
87            +5.000000E+07
88            +5.000000E+07
89            +5.000000E+07
90            +5.000000E+07
91            +5.000000E+07
92            +5.000000E+07
93            +5.000000E+07
94            +5.000000E+07
95            +5.000000E+07
96            +5.000000E+07
97            +5.000000E+07
98            +5.000000E+07
99            +5.000000E+07
100           +5.000000E+07
101           +5.000000E+07
102           +5.000000E+07
103           +5.000000E+07
104           +5.000000E+07
105           +5.000000E+07
106           +5.000000E+07
107           +5.000000E+07
108           +5.000000E+07
109           +5.000000E+07
110           +5.000000E+07
111           +5.000000E+07
112           +5.000000E+07
113           +5.000000E+07
114           +5.000000E+07
115           +5.000000E+07
116           +5.000000E+07
117           +5.000000E+07
118           +5.000000E+07
119           +5.000000E+07
120           +5.000000E+07
121           +5.000000E+07
122           +5.000000E+07
123           +5.000000E+07
124           +5.000000E+07
125           +5.000000E+07
126           +5.000000E+07
127           +5.000000E+07
128           +5.000000E+07
129           +5.000000E+07
130           +5.000000E+07
131           +5.000000E+07
132           +5.000000E+07
133           +5.000000E+07
134           +5.000000E+07
135           +5.000000E+07
136           +5.000000E+07
137           +5.000000E+07
138           +5.000000E+07
139           +5.000000E+07
140           +5.000000E+07
141           +5.000000E+07
142           +5.000000E+07
143           +5.000000E+07
144           +5.000000E+07
145           +5.000000E+07
146           +5.000000E+07
147           +5.000000E+07
148           +5.000000E+07
149           +5.000000E+07
150           +5.000000E+07
151           +5.000000E+07
152           +5.000000E+07
153           +5.000000E+07
154           +5.000000E+07
155           +5.000000E+07
156           +5.000000E+07
157           +5.000000E+07
158           +5.000000E+07
159           +5.000000E+07
160           +5.000000E+07
161           +5.000000E+07
162           +5.000000E+07
163           +5.000000E+07
164           +5.000000E+07
165           +5.000000E+07
166           +5.000000E+07
167           +5.000000E+07
168           +5.000000E+07
169           +5.000000E+07
170           +5.000000E+07
171           +5.000000E+07
172           +5.000000E+07
173           +5.000000E+07
174           +5.000000E+07
175           +5.000000E+07
176           +5.000000E+07
177           +5.000000E+07
178           +5.000000E+07
179           +5.000000E+07
180           +5.000000E+07
181           +5.000000E+07
182           +5.000000E+07
183           +5.000000E+07
184           +5.000000E+07
185           +5.000000E+07
186           +5.000000E+07
187           +5.000000E+07
188           +5.000000E+07
189           +5.000000E+07
190           +5.000000E+07
191           +5.000000E+07
192           +5.000000E+07
193           +5.000000E+07
194           +5.000000E+07
195           +5.000000E+07
196           +5.000000E+07
197           +5.000000E+07
198           +5.000000E+07
199           +5.000000E+07
200           +5.000000E+07
201           +5.000000E+07
202           +5.000000E+07
203           +5.000000E+07
204           +5.000000E+07
205           +5.000000E+07
206           +5.000000E+07
207           +5.000000E+07
208           +5.000000E+07
209                0.000000
210                0.000000
211                0.000000
212                0.000000
213                0.000000
214                0.000000
215                0.000000
216                0.000000
217                0.000000
218                0.000000
219                0.000000
220                0.000000
221                0.000000
222                0.000000
223                0.000000
224                0.000000
225                0.000000
226                0.000000
227                0.000000
228                0.000000
229                0.000000
230                0.000000
231                0.000000
232                0.000000
233                0.000000
234                0.000000
235                0.000000
236                0.000000
237                0.000000
238                0.000000
239                0.000000
240                0.000000

*ANALYSIS_STEP, 1
** ID  Type  Time  StepSize  Tolerance  MaxIterations
1              STATIC         1.000000         0.010000    +1.000000E-05     50
